<?xml version="1.0" encoding="utf-8"?>
<!-- Generator: Adobe Illustrator 23.0.2, SVG Export Plug-In . SVG Version: 6.00 Build 0)  -->
<svg version="1.1" xmlns="http://www.w3.org/2000/svg" xmlns:xlink="http://www.w3.org/1999/xlink" x="0px" y="0px"
	 viewBox="0 0 323.93 104.88" style="enable-background:new 0 0 566.93 104.88;" xml:space="preserve">
<style type="text/css">
	.st0{display:none;}
	.st1{display:inline;fill:#C3E7F9;}
	.st2{display:inline;fill:#C076AD;}
	.st3{fill:#0033A1;}
	.st4{display:inline;}
	.st5{font-family:'EFSans-Black';}
	.st6{font-size:23px;}
	.st7{font-family:'EFSans-Regular';}
	.st8{letter-spacing:-2;}
</style>
<g id="Fläche" class="st0">
	<rect class="st1" width="104.88" height="104.88"/>
	<rect x="64.92" y="42.93" class="st2" width="62.17" height="3.84"/>
	<rect x="64.92" y="62.04" class="st2" width="62.17" height="3.84"/>
</g>
<g id="Text">
	<g>
		<g>
			<polygon class="st3" points="28.84,56.44 28.67,58.89 21.31,58.89 21.31,48.92 28.81,48.92 28.64,51.39 24.38,51.39 24.38,52.74 
				28.55,52.74 28.39,55.09 24.38,55.09 24.38,56.44 			"/>
			<path class="st3" d="M41.43,53.74v5.15h-3.01v-4.71c0-0.69-0.19-0.93-0.66-0.93c-0.24,0-0.43,0.1-0.57,0.22v5.42h-3.01v-4.7
				c0-0.75-0.16-0.93-0.63-0.93c-0.22,0-0.45,0.15-0.6,0.3v5.33h-3.01v-7.68h2.88l0.1,1.1c0.36-0.81,0.93-1.33,1.87-1.33
				c1.23,0,1.98,0.49,2.28,1.4c0.39-1.03,1.12-1.4,2.07-1.4C40.67,50.98,41.43,51.98,41.43,53.74"/>
			<rect x="42.68" y="47.88" class="st3" width="3.01" height="2.27"/>
			<rect x="42.68" y="51.21" class="st3" width="3.01" height="7.68"/>
			<rect x="46.98" y="47.88" class="st3" width="3.01" height="11.01"/>
		</g>
		<g>
			<g>
				<path class="st3" d="M49.99,46.78v-4.25h4.41v4.25h19.09h9.66c-0.25-1.36-0.59-2.71-1.03-4.06c-0.57-1.76-1.29-3.44-2.13-5.03
					l-2.9,3.36c-1.53-3.34-3.71-6.32-6.38-8.77c0,0,0,0,0,0l4.1-1.72c-1.25-1.29-2.62-2.49-4.12-3.58c-1.5-1.09-3.06-2.03-4.67-2.82
					l-0.37,4.43c-3.11-1.76-6.6-2.93-10.32-3.35l2.3-3.8c-1.77-0.31-3.58-0.47-5.44-0.47c-1.85,0-3.67,0.16-5.44,0.47l2.3,3.8
					c-3.72,0.42-7.21,1.59-10.32,3.35l-0.37-4.43c-1.61,0.79-3.17,1.73-4.67,2.82c-1.5,1.09-2.87,2.29-4.12,3.58l4.1,1.72
					c0,0,0,0,0,0c-2.67,2.45-4.85,5.43-6.38,8.77l-2.9-3.36c-0.84,1.58-1.55,3.26-2.13,5.03c-0.44,1.35-0.78,2.7-1.03,4.06h9.66
					H49.99z M54.4,30.53c7.66,0.76,14.16,5.44,17.47,12.01H58.65v-4.25H54.4V30.53z M49.99,30.53v7.76h-4.25v4.25H32.52
					C35.83,35.97,42.34,31.29,49.99,30.53z"/>
			</g>
			<g>
				<path class="st3" d="M57.47,51.36v1.39h3.73l-0.12,2.37h-3.61v3.77H54.4v-9.97h7.04l-0.12,2.43H57.47z M67.71,51.22l-0.3,2.8
					C67.21,54.01,66.99,54,66.78,54c-0.58,0-1.12,0.1-1.5,0.36v4.54h-3.15l0.13-7.68h2.88l0.14,1.82c0.31-1.4,0.96-1.94,1.68-1.94
					C67.14,51.09,67.44,51.12,67.71,51.22 M75.64,55.79h-4.51c0.1,0.93,0.7,1.18,2.08,1.18c0.72,0,1.47-0.1,2.19-0.34l-0.22,1.97
					c-0.63,0.27-1.52,0.48-2.61,0.48c-3.3,0-4.45-1.7-4.45-4.04c0-2.43,1.26-4,3.87-4c2.92,0,3.72,2.01,3.72,3.86
					C75.7,55.19,75.67,55.52,75.64,55.79 M71.01,54.21h2.05C72.99,53.22,72.52,53,72,53C71.46,53,71.11,53.28,71.01,54.21"/>
				<path class="st3" d="M83.64,51.21l-2.51,6.61c-1.05,2.74-1.59,3.36-3.61,3.36c-0.26,0-0.87-0.09-1.26-0.22l0.17-1.91
					c0.33,0.09,0.63,0.13,0.99,0.13c0.45,0,0.77-0.09,0.9-0.48l-2.71-7.5h2.99l1.07,4.29l1.04-4.29H83.64z"/>
			</g>
			<g>
				<g>
					<path class="st3" d="M60.33,62.04c-2.19,1.86-5.03,2.99-8.14,2.99c-3.1,0-5.94-1.13-8.14-2.99h-8.21
						c3.29,5.6,9.38,9.36,16.35,9.36c6.97,0,13.05-3.76,16.35-9.36H60.33z M43.42,65.97c-0.28,0.39-0.82,0.47-1.21,0.19
						c-0.39-0.28-0.47-0.82-0.19-1.21c0.28-0.39,0.82-0.47,1.21-0.19C43.62,65.05,43.7,65.59,43.42,65.97z M48.04,68.03
						c-0.15,0.45-0.64,0.7-1.09,0.56c-0.45-0.15-0.7-0.64-0.56-1.09c0.15-0.45,0.64-0.7,1.09-0.56
						C47.94,67.09,48.18,67.58,48.04,68.03z M52.2,69.43c-0.48,0-0.87-0.39-0.87-0.87s0.39-0.87,0.87-0.87
						c0.48,0,0.87,0.39,0.87,0.87S52.67,69.43,52.2,69.43z M57.45,68.61c-0.45,0.15-0.94-0.1-1.09-0.56
						c-0.15-0.45,0.1-0.94,0.56-1.09c0.45-0.15,0.94,0.1,1.09,0.56C58.15,67.98,57.9,68.47,57.45,68.61z M62.19,66.21
						c-0.39,0.28-0.93,0.2-1.21-0.19c-0.28-0.39-0.2-0.93,0.19-1.21c0.39-0.28,0.93-0.2,1.21,0.19
						C62.66,65.39,62.58,65.93,62.19,66.21z"/>
				</g>
				<g>
					<g>
						
							<rect x="49.79" y="82.29" transform="matrix(0.9986 0.0529 -0.0529 0.9986 4.4621 -2.5571)" class="st3" width="1.57" height="1.57"/>
					</g>
					<g>
						
							<rect x="46.56" y="81.95" transform="matrix(0.9874 0.158 -0.158 0.9874 13.6657 -6.4413)" class="st3" width="1.57" height="1.57"/>
					</g>
					<g>
						
							<rect x="43.39" y="81.27" transform="matrix(0.9652 0.2613 -0.2613 0.9652 22.9802 -8.6938)" class="st3" width="1.57" height="1.57"/>
					</g>
					<g>
						
							<rect x="40.31" y="80.26" transform="matrix(0.9323 0.3618 -0.3618 0.9323 32.1042 -9.3782)" class="st3" width="1.57" height="1.57"/>
					</g>
					<g>
						
							<rect x="37.35" y="78.92" transform="matrix(0.8889 0.4582 -0.4582 0.8889 40.7614 -8.6151)" class="st3" width="1.57" height="1.57"/>
					</g>
					<g>
						
							<rect x="34.55" y="77.29" transform="matrix(0.8355 0.5495 -0.5495 0.8355 48.7117 -6.5752)" class="st3" width="1.57" height="1.57"/>
					</g>
					<g>
						
							<rect x="31.94" y="75.37" transform="matrix(0.7728 0.6346 -0.6346 0.7728 55.7599 -3.4696)" class="st3" width="1.57" height="1.57"/>
					</g>
					<g>
						
							<rect x="29.55" y="73.18" transform="matrix(0.7015 0.7126 -0.7126 0.7015 61.7632 0.4602)" class="st3" width="1.57" height="1.57"/>
					</g>
					<g>
						
							<rect x="27.4" y="70.75" transform="matrix(0.6224 0.7827 -0.7827 0.6224 66.6348 4.955)" class="st3" width="1.57" height="1.57"/>
					</g>
					<g>
						
							<rect x="25.51" y="68.11" transform="matrix(0.5363 0.844 -0.844 0.5363 70.3466 9.7495)" class="st3" width="1.57" height="1.57"/>
					</g>
					<g>
						
							<rect x="23.92" y="65.28" transform="matrix(0.4442 0.8959 -0.8959 0.4442 72.9278 14.5859)" class="st3" width="1.57" height="1.57"/>
					</g>
					<g>
						
							<rect x="22.64" y="62.3" transform="matrix(0.3471 0.9378 -0.9378 0.3471 74.4616 19.2248)" class="st3" width="1.57" height="1.57"/>
					</g>
					<g>
						
							<rect x="53.03" y="82.29" transform="matrix(0.9986 -0.0529 0.0529 0.9986 -4.3162 2.9608)" class="st3" width="1.57" height="1.57"/>
					</g>
					<g>
						
							<rect x="56.26" y="81.95" transform="matrix(0.9874 -0.158 0.158 0.9874 -12.3547 10.0509)" class="st3" width="1.57" height="1.57"/>
					</g>
					<g>
						
							<rect x="59.43" y="81.27" transform="matrix(0.9652 -0.2613 0.2613 0.9652 -19.3521 18.5884)" class="st3" width="1.57" height="1.57"/>
					</g>
					<g>
						
							<rect x="62.51" y="80.26" transform="matrix(0.9323 -0.3618 0.3618 0.9323 -25.0328 28.389)" class="st3" width="1.57" height="1.57"/>
					</g>
					<g>
						
							<rect x="65.47" y="78.92" transform="matrix(0.8889 -0.4582 0.4582 0.8889 -29.1591 39.215)" class="st3" width="1.57" height="1.57"/>
					</g>
					<g>
						
							<rect x="68.27" y="77.29" transform="matrix(0.8355 -0.5495 0.5495 0.8355 -31.5415 50.7833)" class="st3" width="1.57" height="1.57"/>
					</g>
					<g>
						
							<rect x="70.88" y="75.37" transform="matrix(0.7728 -0.6346 0.6346 0.7728 -32.047 62.7762)" class="st3" width="1.57" height="1.57"/>
					</g>
					<g>
						
							<rect x="73.27" y="73.18" transform="matrix(0.7015 -0.7126 0.7126 0.7015 -30.6059 74.8529)" class="st3" width="1.57" height="1.57"/>
					</g>
					<g>
						
							<rect x="75.42" y="70.75" transform="matrix(0.6224 -0.7827 0.7827 0.6224 -27.2146 86.6632)" class="st3" width="1.57" height="1.57"/>
					</g>
					<g>
						
							<rect x="77.3" y="68.11" transform="matrix(0.5363 -0.844 0.844 0.5363 -21.9374 97.86)" class="st3" width="1.57" height="1.57"/>
					</g>
					<g>
						
							<rect x="78.9" y="65.28" transform="matrix(0.4442 -0.8959 0.8959 0.4442 -14.904 108.114)" class="st3" width="1.57" height="1.57"/>
					</g>
					<g>
						
							<rect x="80.18" y="62.3" transform="matrix(0.3471 -0.9378 0.9378 0.3471 -6.305 117.1252)" class="st3" width="1.57" height="1.57"/>
					</g>
				</g>
				<path class="st3" d="M78.61,64.7l0.62-1.44l-1.31-0.56c0.09-0.22,0.17-0.43,0.25-0.65h-0.34h-1.35h-0.34
					c-3.81,9.5-13.1,16.2-23.96,16.2c-10.86,0-20.15-6.71-23.96-16.2H27.9h-1.35h-0.34c0.08,0.22,0.17,0.43,0.25,0.65l-1.31,0.56
					l0.62,1.44l1.31-0.56c0.19,0.41,0.39,0.81,0.6,1.21l-1.24,0.7l0.77,1.37l1.24-0.7c0.23,0.39,0.48,0.77,0.73,1.14l-1.16,0.83
					l0.91,1.28l1.16-0.83c0.27,0.36,0.55,0.71,0.84,1.06l-1.07,0.95l1.04,1.18L32,71.38c0.31,0.33,0.62,0.65,0.95,0.97l-0.96,1.06
					l1.16,1.06l0.97-1.06c0.34,0.3,0.69,0.58,1.05,0.86l-0.85,1.15l1.27,0.93l0.85-1.15c0.37,0.26,0.75,0.51,1.13,0.74l-0.72,1.23
					l1.36,0.79l0.72-1.23c0.4,0.22,0.8,0.42,1.21,0.62l-0.59,1.3l1.43,0.65l0.58-1.3c0.42,0.17,0.84,0.34,1.26,0.49l-0.44,1.35
					l1.49,0.49l0.44-1.35c0.43,0.13,0.87,0.25,1.31,0.36l-0.3,1.39l1.54,0.33l0.3-1.4c0.44,0.08,0.89,0.15,1.34,0.21l-0.15,1.42
					l1.56,0.17l0.15-1.42c0.45,0.03,0.9,0.05,1.35,0.07v1.43h1.57v-1.43c0.45-0.01,0.91-0.03,1.35-0.07l0.15,1.42l1.56-0.17
					l-0.15-1.42c0.45-0.06,0.9-0.13,1.34-0.21l0.3,1.4l1.54-0.33l-0.3-1.39c0.44-0.11,0.88-0.23,1.31-0.36l0.44,1.35l1.49-0.49
					l-0.44-1.35c0.43-0.15,0.85-0.32,1.26-0.49l0.58,1.3l1.43-0.65l-0.59-1.3c0.41-0.2,0.81-0.4,1.21-0.62l0.72,1.23l1.36-0.79
					l-0.72-1.23c0.38-0.24,0.76-0.49,1.13-0.74l0.85,1.15l1.27-0.93l-0.85-1.15c0.36-0.28,0.7-0.57,1.05-0.86l0.97,1.06l1.16-1.06
					l-0.96-1.06c0.32-0.31,0.64-0.64,0.95-0.97l1.07,0.95l1.04-1.18l-1.07-0.95c0.29-0.35,0.57-0.7,0.84-1.06l1.16,0.83l0.91-1.28
					l-1.16-0.83c0.25-0.37,0.5-0.75,0.73-1.14l1.24,0.7l0.77-1.37l-1.24-0.7c0.21-0.4,0.41-0.8,0.6-1.21L78.61,64.7z"/>
				<path class="st3" d="M52.2,72.58c-7.65,0-14.3-4.26-17.71-10.54h-4.97C33.25,70.87,42,77.06,52.2,77.06
					c10.19,0,18.94-6.19,22.68-15.02H69.9C66.49,68.32,59.84,72.58,52.2,72.58z"/>
			</g>
		</g>
	</g>
	<g>
		<path class="st3" d="M115.71,59.02l-0.41,3.01h-10.55V46.77h10.69l-0.39,3.01h-6.53v3.1h6.32l-0.23,3.01h-6.09v3.13H115.71z"/>
		<path class="st3" d="M136.03,53.85v8.19h-3.82v-7.52c0-1.03-0.57-1.59-1.66-1.59c-0.64,0-1.29,0.23-1.82,0.74v0.18v8.19h-3.82
			v-7.52c0-1.03-0.58-1.59-1.63-1.59c-0.74,0-1.43,0.28-2,0.9v8.21h-3.82V50.26h3.24l0.37,1.89c0.62-1.54,1.98-2.25,3.52-2.25
			c1.91,0,3.2,0.8,3.77,2.12c0.76-1.33,1.93-2.12,3.52-2.12C134.56,49.89,136.03,51.46,136.03,53.85z"/>
		<path class="st3" d="M138.19,45.85h3.82v3.06h-3.82V45.85z M138.19,50.26h3.82v11.77h-3.82V50.26z"/>
		<path class="st3" d="M144.16,45.85h3.82v16.19h-3.82V45.85z"/>
		<path class="st3" d="M157.94,49.8v3.29h6.71l-0.41,3.01h-6.3v5.93h-3.77V46.77h11.01l-0.41,3.04H157.94z"/>
		<path class="st3" d="M174.2,50.47l-0.44,3.06c-0.53-0.11-0.97-0.21-1.45-0.21c-1.13,0-1.75,0.46-2.12,1.33v7.38h-3.82V50.26h3.22
			l0.41,2.16c0.51-1.66,1.52-2.35,2.6-2.35C173.33,50.08,173.81,50.22,174.2,50.47z"/>
		<path class="st3" d="M186.23,57.41h-7.8c0.37,1.56,1.52,2.02,3.33,2.02c1.24,0,2.71-0.21,4.12-0.8l-0.37,2.9
			c-1.2,0.6-2.74,0.87-4.19,0.87c-4.21,0-6.67-2.02-6.67-6.21c0-3.86,1.93-6.3,6.05-6.3c3.66,0,5.61,2.35,5.61,5.89
			C186.32,56.24,186.28,56.98,186.23,57.41z M178.34,55.14h4.42c-0.05-1.56-0.69-2.37-2.14-2.37
			C179.26,52.77,178.53,53.53,178.34,55.14z"/>
		<path class="st3" d="M198.85,50.26l-4.46,12.05c-1.36,3.68-3.04,4.51-5.29,4.51c-0.57,0-1.29-0.11-1.95-0.28l0.44-2.76
			c0.41,0.12,0.83,0.18,1.24,0.18c1.01,0,1.68-0.21,2.02-1.15l0.16-0.55l-4.65-12h3.75l2.41,7.24l0.21,0.67l2.35-7.91H198.85z"/>
		<path class="st3" d="M205.1,46.77h4.94c4.9,0,7.7,2.87,7.7,7.57c0,4.51-2.67,7.7-7.5,7.7h-5.15V46.77z M210.1,60.31
			c3.82,0,5.63-2.25,5.63-5.98c0-3.98-2.05-5.84-5.77-5.84h-2.9v11.82H210.1z"/>
		<path class="st3" d="M220.27,45.85h1.95v2.12h-1.95V45.85z M220.27,50.26h1.95v11.77h-1.95V50.26z"/>
		<path class="st3" d="M234.94,50.26v11.15c0,2.97-1.68,5.31-5.7,5.31c-1.52,0-2.58-0.18-3.73-0.74l0.23-1.75
			c1.29,0.62,2.35,0.76,3.47,0.76c2.46,0,3.77-1.06,3.77-3.59v-0.87c-0.71,1.15-1.89,1.77-3.36,1.77c-2.97,0-5.13-2.46-5.13-6.16
			c0-3.24,1.56-6.16,5.31-6.16c1.36,0,2.51,0.55,3.29,1.56l0.28-1.29H234.94z M232.99,59.34v-6.39c-0.74-0.83-1.7-1.24-3.01-1.24
			c-2.35,0-3.52,1.75-3.52,4.44s1.4,4.44,3.56,4.44C231.26,60.59,232.25,60.2,232.99,59.34z"/>
		<path class="st3" d="M237.82,45.85h1.95v2.12h-1.95V45.85z M237.82,50.26h1.95v11.77h-1.95V50.26z"/>
		<path class="st3" d="M246.46,60.59c0.76,0,1.54-0.16,2.32-0.6l-0.25,1.75c-0.69,0.39-1.54,0.57-2.23,0.57
			c-2.23,0-3.75-1.1-3.75-3.52v-11.7h1.95v3.17h4.37l-0.25,1.72h-4.12v6.55C244.5,60.06,245.38,60.59,246.46,60.59z"/>
		<path class="st3" d="M257.91,62.04c-0.09-0.46-0.18-1.03-0.23-1.63c-0.83,1.27-2.05,1.91-3.54,1.91c-2.35,0-3.91-1.47-3.91-3.43
			c0-2.28,1.63-3.4,4.85-3.89l2.53-0.34v-0.9c0-1.31-0.58-2.09-2.9-2.09c-1.38,0-2.48,0.25-3.75,0.78l0.25-1.72
			c1.1-0.51,2.39-0.74,3.7-0.74c3.22,0,4.65,1.33,4.65,3.61v5.73c0,0.94,0.11,1.82,0.25,2.71H257.91z M257.61,59.09v-2.9l-1.93,0.25
			c-2.37,0.3-3.5,0.92-3.5,2.37c0,1.13,0.87,1.84,2.09,1.84C255.84,60.66,256.99,60.08,257.61,59.09z"/>
		<path class="st3" d="M262.41,45.85h1.95v16.19h-1.95V45.85z"/>
		<path class="st3" d="M281.11,58.36h-6.9l-1.29,3.68h-1.93l5.45-15.27h2.55l5.45,15.27h-2.09L281.11,58.36z M280.53,56.68
			l-2.83-8.35l-2.92,8.35H280.53z"/>
		<path class="st3" d="M298.09,61.16c-1.4,0.76-3.27,1.22-5.29,1.22c-4.39,0-7.86-2.83-7.86-7.93c0-4.94,2.99-8.03,7.75-8.03
			c1.82,0,3.5,0.37,4.94,1.1l-0.28,1.77c-1.4-0.78-3.01-1.1-4.62-1.1c-3.77,0-5.77,2.32-5.77,6.25c0,4.19,2.64,6.25,6,6.25
			c1.24,0,2.39-0.23,3.33-0.58v-4.6h-4.35v-1.68h6.14V61.16z"/>
	</g>
</g>
<g id="Pfad" class="st0">
	<text transform="matrix(1 0 0 1 103.5695 62.0352)" class="st4"><tspan x="0" y="0" class="st3 st5 st6">Emil Frey</tspan><tspan x="95.86" y="0" class="st3 st7 st6 st8"> </tspan><tspan x="100.81" y="0" class="st3 st7 st6">Digital</tspan><tspan x="163.92" y="0" class="st3 st7 st6 st8"> </tspan><tspan x="168.86" y="0" class="st3 st7 st6">AG</tspan></text>
</g>
</svg>
