<svg viewBox="0 0 400 400" xmlns="http://www.w3.org/2000/svg"><path d="m317.6 112.79-.26-.36-.5-.65h-73.84v5h70.72c1.49-1.64 2.85-2.99 3.88-3.99z"/><path d="m82.39 112.91c1.24 1.2 2.49 2.42 3.81 3.82h70.8v-4.88h-73.78c-.28.35-.56.7-.83 1.06z"/><path d="m327.17 112.39s-5.2-7.16-13.07-16.93-7.8-19.6-7.8-19.6-16.93-7.17-32-13.07c-5.9 3.23-16.93 5.9-35.27 2.6s-39.34-2.88-39.34-2.88-20.45-.21-38.78 3.09-29.37.63-35.27-2.6c-15 5.9-32 13.07-32 13.07s.07 9.77-7.8 19.6c-7.84 9.63-13.01 16.79-13.01 16.79s18.27 15.67 16.3 22.84-24.13 77.63-5.27 116.13 48.06 60.57 84.81 67.87c19.6 3.87 31.33 18.2 31.33 18.2s11.66-14.4 31.19-18.34c36.75-7.3 65.91-29.37 84.81-67.87s-3.24-109-5.27-116.13 16.44-22.77 16.44-22.77zm-227.78-30.91c5.2-2.18 15.81-6.6 26-10.61 7.65 3.3 19.53 5 36.6 2 17.78-3.16 37.73-3 37.73-3 21.64-.35 56.42 8.85 74.89.91 10.19 4 20.8 8.43 26 10.61 1.9 11.59 7.64 17.18 14.46 25.75h-230.07c6.75-8.48 12.49-14.14 14.39-25.66zm-14.39 36.93c-1.62-1.74-3.13-3.2-4.67-4.66l-.63-.6.52-.71c.57-.79 1.14-1.5 1.71-2.22l.3-.37 235.55-.07.3.37c.29.36.56.72.83 1.08s.51.69.79 1l.57.72-.67.63c-1.1 1-2.82 2.74-4.73 4.8l-.29.32h-229.26zm4.41 131.59c-14.89-30.28-3-80.59 5.7-111.85 1.75-6.18-1.89-11.28-6.87-16.9h223.51c-4.91 5.62-8.54 10.72-6.78 16.83 1.82 6.6 3.34 12.12 5.24 20l-217.11 98.79c-1.62-2.74-2.21-3.82-3.69-6.87zm221.18 0c-18.13 36.88-45.74 57.61-80.52 64.57a63.78 63.78 0 0 0 -30.07 15.55 63.89 63.89 0 0 0 -30.14-15.52c-31.34-6.26-56.86-23.75-74.86-54.17l216.12-98.22c6.56 29.22 10.99 64.42-.53 87.79z"/><path d="m291.48 92.51-17-1.68v-8.3s-7-1-19.39-2-21.71-1.2-21.71-1.2l.07 3s-.7-3-5.48-3.44-25.36-1-25.36-1v23.61l-12.31-24.16-10.46.07-11.53 21v-4.56c0-2.81-3.65-2.74-3.93-2.74s-.35-.57 0-.57a4.62 4.62 0 0 0 3.44-4.84c0-3.87-.63-6.82-6.18-6.82s-25.22 1.62-25.22 1.62v21.29l-12.86-19.47-10.33 1.34-13.91 19.6h8.68l2.18-3.3h15.82l2 3.3 33.58-.07a5.69 5.69 0 0 0 4.21-1.47c-.14 1.26 0 1.4 0 1.4l8.44.07 2.24-4.07h15.73l2 4.07h15.8v-5.62h12.15c3.8 0 3.09 2.39 3.09 2.39v3.3h7.76v-5.76c0-2.74-3.51-2.53-3.79-2.53s-.49-.49.07-.49 4.35-.35 4.35-7.17v-1.75h10.26v17.49h7.87v-16.58s2.53 0 7.52.28 7.3.7 7.3.7v15.6h7.8v-6.82s3.8.22 9.21.5a76.48 76.48 0 0 1 7.87.7v5.69h7.65v-16.3l-7.65-1.19zm-178.39 2.95 5.06-7.87 4.71 7.41zm31-10s11.32-.71 14.06-.71 1.75 3.73 0 3.8-14.06.21-14.06.21zm14.11 12.32h-14.62l.21-3.44s10.61-.49 14.13-.56 2.45 4 .28 4zm21.28-4.43 5.13-9.35 4.71 9.34zm43.35-2.24c-3.65 0-12.36-.14-12.36-.14v-6.68s8.15.28 12.08.28 3.52 2.32 3.52 3.66.42 2.88-3.24 2.88z"/><path d="m217.63 255 9.56-.21 8.57-5.91-.63 25.65-12.44 1-5.69-3.44zm-1.63 18.35 5.69 3.66 12.93-.7-20 22.06-7.87-6.54-1.47-6.11zm-12.14 13.85 1.48 6 7.1 6.67-23.44 4.05-2.74-6.54 2.32-5.27zm-17.42 4.91-1.76 5.2 2 7.1-25.15-21.78 6-2.6zm-23.26-47 3.45 32.81-16.09 6.08zm66.82-19.53 17.35-.21 3-2.88-.35 7.94-18.26 1.26 1.61 6 16.86-.63 2.67-2.88-.63 7.94-17.49.7 1 3.59-9.2 6-9.07 1.33-1.4-1.74-12.23 12.22-6.6-4.57 4.64-.07 10.61-12.36-3.51-4.71-12.64 12.72-6.55-5.23h3.94l11.45-12.44-3.3-4.42-12.51 12.5-6.74-4.64 3.93-.43 11.59-12.57-3.37-4.43-12.22 12.65-7.31-4.64 4.14.07 10.59-14.5 33.38-15.39 20.37-.14 2.39-2.81-1.69 8.64-19.11 1.06 1.48 5.48 18-.35 3-2.74-.78 7.93-18.66 1.17zm-50.52-24.94 10.52 14.36-58.43 26.6-8.5-55.44 40.82-38.85-12.3 40.47 19.6-10.4-19 30-17.35 2.67 8.15 16.3zm28.88-15.18 13.49 15.18-31 14.12-2.81-20.3 12.71-.43zm73.91-12.29-59.44 27.05h-.07l-3.37-17.92 43.07-11.1-7.52-16-13.35 11.45-35.2-5.2 19.89-8.78-37.87-17 57.12-5.55z" fill-rule="evenodd"/><path d="m0 0h400v400h-400z" fill="none"/></svg>