<svg viewBox="0 0 400 400" xmlns="http://www.w3.org/2000/svg"><path d="m62.51 191.25c.27-2.34.55-4.69.82-7a137.67 137.67 0 0 1 76.31-107.78 133.5 133.5 0 0 1 47-13.26c8.54-.78 14.88-1.2 29.25.27 20.57 2.11 42.94 10.24 61.57 23a136.59 136.59 0 0 1 43.54 48.02 134.11 134.11 0 0 1 16 52.75c.13 1.44.37 2.87.56 4.31v17.11c-.31 2.65-.61 5.29-.93 7.94a137.42 137.42 0 0 1 -123.9 120.39 164 164 0 0 1 -28.19-.26 137.43 137.43 0 0 1 -120.61-116.21c-.51-3.46-.76-7-1.15-10.44a10.78 10.78 0 0 0 -.28-1.09q.02-8.89.01-17.75zm2.74 8.83a134.73 134.73 0 1 0 136.14-134.65 134.64 134.64 0 0 0 -136.14 134.65z"/><path d="m65.25 200.08a134.73 134.73 0 1 1 134.43 134.69 134.72 134.72 0 0 1 -134.43-134.69zm134.75-129.37c-70.42-.15-127.49 56.18-129.38 125.57a129.49 129.49 0 1 0 258.87 7.26c1.77-74.32-58.21-133.16-129.49-132.83z" fill="#fff"/><path d="m200 70.71c71.32-.33 131.29 58.51 129.48 132.83a129.48 129.48 0 0 1 -132.53 126c-69.65-1.54-128.39-59.31-126.37-133.26 1.89-69.39 58.96-125.72 129.42-125.57zm88.59 129.46a88.55 88.55 0 1 0 -85.2 88.37 88.65 88.65 0 0 0 85.16-88.37zm3.74-78.49c-1.49-1.39-2.85-2.75-4.34-4a2.52 2.52 0 0 0 -1.84-.51c-3.69.75-7.35 1.61-11 2.42a11.53 11.53 0 0 1 -1.25.13c.07-.81.13-1.46.21-2.1.41-3.53.83-7.06 1.22-10.59a2 2 0 0 0 -.21-1.42c-1.83-1.78-3.74-3.49-5.36-5a28.35 28.35 0 0 1 -2.52 3.44c-2.67 2.72-5.46 5.33-8.2 8-1.49 1.44-3 2.9-4.5 4.38l4.61 4.31 10-9.59c-.19 1.66-.31 2.85-.45 4-.44 3.47-.91 6.94-1.34 10.42-.2 1.6 0 1.75 1.5 1.39l2.07-.5 11.84-2.75-8.37 11.29c1.59 1.45 3.06 2.81 4.59 4.22 4.45-5.87 8.81-11.63 13.3-17.54zm-82.33-26.22a18.54 18.54 0 0 0 2.66-2.46 8.36 8.36 0 0 0 .5-9c-1.41-2.9-4-4.09-7.12-4.13-4.12 0-8.24 0-12.36 0h-6.34a44.1 44.1 0 0 1 .61 4.62c.1 5.45.1 10.89.16 16.33a9.27 9.27 0 0 0 .13 1.21h4.52c1.26 0 1.84-.38 1.69-1.77s0-2.71 0-4.36a35.72 35.72 0 0 0 4.87 0c3.14-.47 5.42.45 6.72 3.44.12.27.39.47.52.75a2.87 2.87 0 0 0 3.37 1.76 37.33 37.33 0 0 1 4.89 0c-1.82-2.42-3.33-4.43-4.82-6.39zm102.88 61-11.5-22.12a23 23 0 0 1 -2.85 2.39c-2.32 1.37-4.74 2.57-7.1 3.86l-8.73 4.76 11.53 22.14 4.34-2.36-8.57-16.5 3.05-1.62c1.95 3.74 3.83 7.31 5.73 11l4.32-2.38-5.69-11 2.92-1.5c1.41 2.73 2.74 5.3 4.08 7.86l4.14 7.89zm-15.78 27.64c.17 4.63 1.27 9 4.34 12.69 5.14 6.17 14.29 5 17.34-2.36 2.8-6.73 1.83-13.24-2.41-19.07-4-5.45-10.46-6.2-15.14-2-3.11 2.85-3.98 6.64-4.13 10.74zm-61.2-98.3h-.9c-4.39.15-7.93 1.87-10 5.89a10 10 0 0 0 1.39 11.43c4.35 5.31 10.19 7.46 16.95 6.75a10.07 10.07 0 0 0 8.81-6.59c1.57-4 .67-7.74-2.05-11-3.67-4.34-8.56-6.28-14.2-6.48zm-98.59 37a20.78 20.78 0 0 1 2.8-1.57c2.31-.81 3.25-2.33 2.78-4.73-.19-1 .31-1.53 1.18-2 3.15-1.75 6.28-3.54 9.37-5.4a1.77 1.77 0 0 1 2.31 0 11.94 11.94 0 0 0 1.78 1.18c.32.17.83.35 1.08.21 1.67-.89 3.29-1.85 5.09-2.9-6.83-4.42-13.44-8.69-20.06-12.94a1.27 1.27 0 0 0 -1.09-.08c-2.34 1.28-4.64 2.63-7.18 4.08 1.53.77 1.65 1.91 1.67 3.21.05 5.53.17 11.07.26 16.6.02 1.36.01 2.67.01 4.37zm-56.75 64.2c1.88-.66 3.08.33 4.35 1.32 4.81 3.75 9.66 7.45 14.5 11.16.37.28.78.52 1.3.86a26.3 26.3 0 0 1 .56-3.2c.67-2.14.14-3.69-1.92-4.68-1-.5-1.17-1.31-1-2.41a89.14 89.14 0 0 0 1.34-8.87c.18-2.27.91-3.67 3.29-4a2 2 0 0 0 1.35-1.11c.41-1.71.59-3.46.87-5.3a2.88 2.88 0 0 0 -.72 0c-7.27 2.43-14.55 4.86-21.81 7.34a1.58 1.58 0 0 0 -.87 1c-.44 2.61-.8 5.16-1.24 7.89zm24.44-60.21a25.23 25.23 0 0 1 3.29 2.13c2.24 2 4.35 4.13 6.52 6.2s4.26 4 6.46 6.11c1.46-1.59 2.82-3.06 4.23-4.61l-4.94-4.8c2.8-3.08 5.53-6.06 8.31-9.09l-3.6-3.37-8.07 8.7-3.67-3.17c4-4.34 7.92-8.63 11.89-12.94l-3.59-3.41c-5.77 6.22-11.39 12.33-16.83 18.25zm-17.57 29.7a19.14 19.14 0 0 1 3.48.9c2.26 1.05 4.42 2.29 6.63 3.44l9.74 5.08 10.19-20.22-4.47-2.34-7.31 14.57-15-7.85z"/><g fill="#fff"><path d="m288.55 200.17a88.55 88.55 0 1 1 -92.37-88.53 88.56 88.56 0 0 1 92.37 88.53zm-59.08 79.49c.17.25.35.49.53.73a78.25 78.25 0 0 0 8.12-4.92 13.33 13.33 0 0 0 4.69-15.79 14.09 14.09 0 0 0 -13.68-9.34h-13.28c-.41 0-.82 0-1.23 0-1.11-.12-2.05-.58-2-1.85s.87-1.69 2.09-1.68q10.08 0 20.16 0c2.34 0 4.68 0 7-.19a21.65 21.65 0 0 0 -2.33-43.2q-11.84 0-23.68 0c-1.26 0-2.27-.26-2.43-1.7-.12-1.09.92-1.88 2.45-1.88h19.55a40.72 40.72 0 0 0 5.63-.34c10.82-1.6 19.4-6.68 24.49-16.6 4.51-8.76 4.75-18 1.82-27.3-3.42-10.83-10.55-18.88-19.89-25.08-1.15-.76-2.38-1.38-3.8-2.21.13.5.16.65.19.79 1.25 4.62-1.44 8.17-6.19 8.17-3.26 0-6.52 0-9.78 0s-6.1.9-7.71 4c-1.37 2.6-3.5 3.48-6.27 3.46-4.93-.06-9.88 0-14.81 0-.54 0-1.07 0-1.66.07 1 2.94 3.88 6.43 7.62 9.14a4.13 4.13 0 0 0 2.21.73c6.16.06 12.32 0 18.48 0 1.7 0 2.64.65 2.67 1.83s-1 1.94-2.57 2c-.36 0-.71 0-1.07 0-5.5 0-11 .13-16.5-.06a7.73 7.73 0 0 0 -6 2.33 18.82 18.82 0 0 0 -5.33 8.51h36.68 1.37a4.46 4.46 0 0 1 3.91 3.9 4.22 4.22 0 0 1 -2.61 4.38 9.13 9.13 0 0 1 -3 .47c-6.26 0-12.53 0-18.79 0a15.83 15.83 0 0 0 -2.58.17c-13.42 2.22-22 14.15-19.89 27.69a23.7 23.7 0 0 0 22.86 19.6h22.92a3.75 3.75 0 0 1 1.92.24c.55.36 1.23 1.18 1.15 1.68s-.88 1.17-1.48 1.6c-.27.2-.79 0-1.2 0-7.69 0-15.38 0-23.07 0-6.11 0-11.12 2.47-14.55 7.55-3.93 5.81-4.31 12-1 18.2 3.19 5.93 8.32 9 15.14 9.13 3.51.06 7 .07 10.53.19 3.35.11 6.26 1.19 7.62 4.56a8.15 8.15 0 0 1 -1.84 9.54 15.33 15.33 0 0 1 -1.58 1.48zm-85.35-69.26v2.09q0 24.42 0 48.87a2.9 2.9 0 0 0 .71 2 78.2 78.2 0 0 0 15.84 11.1c1.37.73 2.77 1.41 4.45 2.26v-66.38h23.94a27.61 27.61 0 0 1 1.69-21h-25.75v-65.11c-.51.19-.84.28-1.14.43a83.45 83.45 0 0 0 -18.6 12.15 3 3 0 0 0 -1.21 2.58q.06 24 0 48.11v2h-27a91 91 0 0 0 -.32 19.15c.11 1.42.56 1.84 2 1.83 7.84-.07 15.69 0 23.53 0zm38.38-72.3c.8 1.62 1.53 3.25 3.42 3.51a1.86 1.86 0 0 1 1.82 1.5c.55 2.58 1.06 5.16 1.41 7.77a10.72 10.72 0 0 1 -.36 2.83 19.82 19.82 0 0 1 -2.5-1.2 5.69 5.69 0 0 0 -5.94-.39 4.63 4.63 0 0 0 .18 8.38 5.55 5.55 0 0 0 5.91-.6 4.85 4.85 0 0 1 1.66-1c.34-.07 1.19.58 1.16.81q-.7 5-1.66 10c-.08.42-.78.92-1.27 1a4.57 4.57 0 0 0 -3.68 3.79c2.7.79 5.35.86 7.27-1.48a25.16 25.16 0 0 0 3.58-5.75 26.63 26.63 0 0 1 6-9.1c.73-.67 1.5-1.29 2.41-2.06-4.7-3.17-7.17-7.73-9.09-12.69a12 12 0 0 0 -1.79-3c-2.28-2.84-4.86-3.56-8.53-2.32zm25.37-5.36h10.23c1.21 0 2.11-.37 2.15-1.77s-.65-1.92-2.19-1.92q-10.16 0-20.31 0c-1.52 0-2.47.8-2.36 2 .14 1.45 1.13 1.75 2.39 1.73 3.37-.06 6.73-.04 10.09-.04zm2.69-8.75a2.61 2.61 0 1 0 -5.21-.06 2.61 2.61 0 1 0 5.21.06zm-12.63 2.57a2.55 2.55 0 0 0 2.74-2.59 2.65 2.65 0 1 0 -5.29 0 2.58 2.58 0 0 0 2.55 2.59zm22.32-2.56a2.55 2.55 0 0 0 -2.59-2.73 2.59 2.59 0 0 0 -2.61 2.58 2.5 2.5 0 0 0 2.63 2.68 2.4 2.4 0 0 0 2.57-2.53z"/><path d="m292.29 121.68-13.29 17.56-4.61-4.24 8.27-11.27-11.83 2.75-2.08.5c-1.5.35-1.69.2-1.5-1.39.43-3.48.9-7 1.34-10.43.15-1.18.27-2.36.46-4l-10 9.58-4.6-4.3 4.5-4.38c2.74-2.66 5.53-5.26 8.2-8a28.46 28.46 0 0 0 2.51-3.45c1.62 1.49 3.53 3.19 5.36 5 .28.27.26.94.21 1.41-.38 3.53-.81 7.06-1.22 10.59-.07.65-.12 1.3-.2 2.11a11.55 11.55 0 0 0 1.25-.14c3.67-.81 7.33-1.67 11-2.41a2.5 2.5 0 0 1 1.85.51c1.52 1.25 2.89 2.61 4.38 4z"/><path d="m210 95.46 4.75 6.33a37.15 37.15 0 0 0 -4.88 0 2.87 2.87 0 0 1 -3.38-1.76c-.13-.28-.39-.48-.52-.75-1.3-3-3.58-3.91-6.71-3.44a34.18 34.18 0 0 1 -4.87 0c0 1.65-.11 3 0 4.36s-.44 1.8-1.7 1.77c-1.47 0-2.94 0-4.52 0 0-.45-.12-.83-.13-1.21 0-5.44 0-10.88-.16-16.33a44.8 44.8 0 0 0 -.61-4.62h6.34 12.36c3.12 0 5.71 1.23 7.12 4.13a8.32 8.32 0 0 1 -.5 9 18.43 18.43 0 0 1 -2.59 2.52zm-15.7-10.35v5.72h10.6a4.65 4.65 0 0 0 .91-.07c1.5-.3 2.26-1.45 2.13-3.19a2.58 2.58 0 0 0 -2.63-2.6c-2.74 0-5.49 0-8.24 0-.89.03-1.8.09-2.74.14z"/><path d="m312.91 156.5-4.33 2.33c-1.41-2.68-2.79-5.28-4.15-7.89s-2.66-5.13-4.07-7.85c-1 .49-1.86.95-2.93 1.49l5.69 11-4.31 2.42c-1.9-3.63-3.78-7.21-5.73-10.95l-3.08 1.57c2.88 5.55 5.71 11 8.59 16.55l-4.35 2.35c-3.85-7.42-7.65-14.7-11.52-22.14l8.72-4.75c2.37-1.29 4.79-2.49 7.1-3.87a21.63 21.63 0 0 0 2.85-2.39c3.78 7.25 7.61 14.63 11.52 22.13z"/><path d="m297.1 184.1c.15-4.09 1-7.89 4.13-10.71 4.69-4.24 11.18-3.48 15.15 2 4.24 5.83 5.21 12.34 2.41 19.07-3.05 7.36-12.2 8.53-17.35 2.36-3.07-3.72-4.17-8.09-4.34-12.72zm18.14 3a14.75 14.75 0 0 0 -2.44-7.43 5.49 5.49 0 0 0 -9.31.26c-2.08 3.62-1 10.21 2.12 13a5.38 5.38 0 0 0 8.17-1.26 24.08 24.08 0 0 0 1.46-4.54z"/><path d="m235.9 85.8c5.64.22 10.53 2.14 14.23 6.52 2.72 3.22 3.63 6.93 2.05 11a10 10 0 0 1 -8.81 6.59c-6.76.71-12.6-1.44-16.94-6.75a10 10 0 0 1 -1.43-11.47c2-4 5.57-5.74 9.95-5.89zm1.63 5.48c-3.95 0-6 1.14-6.84 3.32a5.77 5.77 0 0 0 1.8 7 11.61 11.61 0 0 0 9.2 2.86 5.18 5.18 0 0 0 4.6-3.71 5.52 5.52 0 0 0 -1.29-5.92 11.27 11.27 0 0 0 -7.47-3.55z"/><path d="m137.31 122.83c0-1.7 0-3 0-4.32-.09-5.53-.21-11.07-.26-16.6 0-1.29-.14-2.44-1.68-3.21 2.54-1.45 4.85-2.8 7.18-4.08a1.29 1.29 0 0 1 1.1.08c6.62 4.25 13.23 8.53 20.06 13-1.8 1-3.43 2-5.09 2.9-.26.14-.77 0-1.09-.22a13.07 13.07 0 0 1 -1.78-1.18 1.76 1.76 0 0 0 -2.3-.05c-3.1 1.86-6.22 3.65-9.38 5.41-.86.47-1.36 1-1.17 2 .47 2.41-.48 3.93-2.78 4.74a20.2 20.2 0 0 0 -2.81 1.53zm12.57-17.43c-2.56-1.67-4.84-3.14-7.11-4.61v8.72z"/><path d="m80.56 187c.44-2.77.81-5.33 1.26-7.86a1.61 1.61 0 0 1 .87-1c7.26-2.48 14.54-4.91 21.82-7.34a2.76 2.76 0 0 1 .71 0c-.28 1.84-.46 3.59-.87 5.3a1.94 1.94 0 0 1 -1.35 1.11c-2.37.37-3.11 1.77-3.29 4a85.87 85.87 0 0 1 -1.33 8.87c-.21 1.1-.08 1.91 1 2.41 2.06 1 2.6 2.54 1.92 4.68a26.65 26.65 0 0 0 -.56 3.2c-.51-.34-.93-.58-1.3-.86-4.84-3.71-9.69-7.41-14.49-11.16-1.31-.97-2.52-1.97-4.39-1.35zm14.28-7-8.4 2.8 7.16 5.37c.4-2.88.82-5.37 1.24-8.17z"/><path d="m105 126.79 16.83-18.26 3.59 3.41-11.89 12.94c1.19 1 2.37 2.05 3.67 3.17l8.07-8.7 3.6 3.37-8.31 9.09c1.65 1.62 3.25 3.16 4.94 4.81l-4.23 4.6-6.46-6.11c-2.17-2.07-4.28-4.2-6.52-6.2a24.21 24.21 0 0 0 -3.29-2.12z"/><path d="m87.41 156.49c1-2 2.07-4.13 3.21-6.42l15 7.85 7.38-14.57 4.49 2.34-10.19 20.22-9.74-5.08c-2.21-1.15-4.38-2.39-6.63-3.44a18.55 18.55 0 0 0 -3.52-.9z"/></g><path d="m229.47 279.66c.55-.45 1.15-.85 1.65-1.35a8.15 8.15 0 0 0 1.84-9.54c-1.37-3.37-4.27-4.45-7.63-4.56s-7-.13-10.52-.19a16.46 16.46 0 0 1 -15.14-9.13c-3.32-6.17-2.94-12.4 1-18.19 3.43-5.08 8.44-7.51 14.55-7.56h23.07c.4 0 .93.15 1.2 0 .59-.44 1.38-1 1.48-1.6s-.6-1.33-1.15-1.68a3.78 3.78 0 0 0 -1.93-.25h-22.89a23.67 23.67 0 0 1 -22.89-19.61c-2.09-13.53 6.47-25.46 19.89-27.69a17 17 0 0 1 2.58-.17h18.79a9.44 9.44 0 0 0 3-.46 4.24 4.24 0 0 0 2.61-4.39 4.49 4.49 0 0 0 -3.91-3.9c-.45 0-.92 0-1.37 0h-36.7a19 19 0 0 1 5.32-8.52 7.84 7.84 0 0 1 6-2.33c5.49.2 11 .06 16.5.06h1.07c1.57-.08 2.59-.89 2.57-2s-1-1.83-2.67-1.83c-6.16 0-12.32 0-18.48 0a4 4 0 0 1 -2.21-.73c-3.74-2.71-6.63-6.2-7.62-9.14.59 0 1.12-.07 1.66-.07h14.81c2.78 0 4.91-.85 6.27-3.45 1.61-3.06 4.47-3.95 7.71-4h9.78c4.76 0 7.45-3.56 6.19-8.18 0-.14-.06-.28-.19-.78 1.42.82 2.65 1.45 3.79 2.21 9.35 6.2 16.48 14.25 19.9 25.07 2.93 9.27 2.69 18.54-1.82 27.3-5.09 9.92-13.68 15-24.5 16.6a40.49 40.49 0 0 1 -5.62.35c-6.52 0-13 0-19.55 0-1.53 0-2.57.8-2.45 1.89.16 1.43 1.17 1.7 2.43 1.7q11.85 0 23.68 0a21.65 21.65 0 0 1 2.33 43.2c-2.33.19-4.67.18-7 .19q-10.08 0-20.16 0c-1.22 0-2 .46-2.1 1.68s.89 1.73 2 1.86h1.23 13.28a14.07 14.07 0 0 1 13.67 9.34 13.31 13.31 0 0 1 -4.68 15.79 79.09 79.09 0 0 1 -8.13 4.92c-.2-.37-.37-.61-.54-.86z"/><path d="m144.12 210.4h-1.83c-7.84 0-15.68 0-23.52 0-1.45 0-1.9-.41-2-1.83a90.34 90.34 0 0 1 .32-19.15h27v-2q0-24 0-48.11a3 3 0 0 1 1.21-2.58 84 84 0 0 1 18.59-12.15c.31-.15.64-.24 1.15-.43v65.14h25.74a27.57 27.57 0 0 0 -1.69 21h-23.93v66.36c-1.68-.84-3.09-1.52-4.46-2.25a78.82 78.82 0 0 1 -15.83-11.1 3 3 0 0 1 -.72-2q0-24.44 0-48.87z"/><path d="m182.5 138.1c3.67-1.23 6.25-.51 8.53 2.39a12 12 0 0 1 1.79 3c1.92 5 4.39 9.52 9.09 12.69-.9.77-1.67 1.39-2.41 2.06a26.77 26.77 0 0 0 -6 9.1 25.16 25.16 0 0 1 -3.58 5.75c-1.92 2.34-4.57 2.27-7.27 1.48a4.57 4.57 0 0 1 3.68-3.79c.49-.11 1.19-.61 1.27-1q1-5 1.66-10c0-.23-.82-.88-1.16-.81a4.47 4.47 0 0 0 -1.66 1 5.55 5.55 0 0 1 -5.91.6 4.63 4.63 0 0 1 -.18-8.38 5.67 5.67 0 0 1 5.94.39 19.82 19.82 0 0 0 2.5 1.2 10.72 10.72 0 0 0 .36-2.83c-.36-2.61-.86-5.2-1.41-7.77a1.85 1.85 0 0 0 -1.82-1.5c-1.92-.33-2.61-1.96-3.42-3.58z"/><path d="m207.87 132.74c-3.36 0-6.72 0-10.07 0-1.27 0-2.26-.29-2.39-1.73-.11-1.17.83-2 2.36-2q10.14 0 20.31 0c1.54 0 2.22.66 2.18 1.92 0 1.41-.94 1.78-2.15 1.77z"/><path d="m210.56 124a2.61 2.61 0 1 1 -5.22-.06 2.61 2.61 0 1 1 5.22.06z"/><path d="m197.93 126.56a2.58 2.58 0 0 1 -2.55-2.63 2.65 2.65 0 1 1 5.29 0 2.55 2.55 0 0 1 -2.74 2.63z"/><path d="m220.25 124a2.41 2.41 0 0 1 -2.57 2.54 2.5 2.5 0 0 1 -2.63-2.68 2.58 2.58 0 0 1 2.61-2.58 2.54 2.54 0 0 1 2.59 2.72z"/><path d="m194.33 85.11c.94 0 1.84-.14 2.74-.15h8.24a2.58 2.58 0 0 1 2.63 2.6c.13 1.74-.63 2.89-2.13 3.19a4.65 4.65 0 0 1 -.91.07c-3.49 0-7 0-10.57 0z"/><path d="m315.24 187.13a24.32 24.32 0 0 1 -1.46 4.54 5.38 5.38 0 0 1 -8.17 1.26c-3.12-2.76-4.2-9.35-2.12-13a5.49 5.49 0 0 1 9.31-.26 14.75 14.75 0 0 1 2.44 7.46z"/><path d="m237.53 91.28a11.25 11.25 0 0 1 7.47 3.55 5.52 5.52 0 0 1 1.29 5.92 5.2 5.2 0 0 1 -4.61 3.71 11.59 11.59 0 0 1 -9.19-2.86 5.77 5.77 0 0 1 -1.81-7c.89-2.18 2.9-3.32 6.85-3.32z"/><path d="m149.88 105.4-7.11 4.11v-8.72c2.23 1.47 4.55 2.94 7.11 4.61z"/><path d="m94.84 180c-.43 2.84-.81 5.33-1.23 8.17l-7.16-5.37z"/><path d="m0 0h400v400h-400z" fill="none"/></svg>