<svg viewBox="0 0 400 400" xmlns="http://www.w3.org/2000/svg"><path d="m399.35 113.13a5.8 5.8 0 0 0 -5.05-2.56h-161.7c-4.57 0-8.28 1.39-11 4.13a15.31 15.31 0 0 0 -4 7.57c0 .12-.24.73-1.59.73h-32.01c-1.39 0-1.58-.63-1.59-.71a15.43 15.43 0 0 0 -4-7.59c-2.73-2.74-6.44-4.13-11-4.13h-161.73a5.8 5.8 0 0 0 -5 2.55c-.68 1.14-1.17 3 .28 5.74l3 4.92c1.2 2 2.59 2.7 5.5 2.9a3.23 3.23 0 0 1 2.33 1.78l3 5.29c.64 1.22 2.13 4.07 7.24 4.76a3.25 3.25 0 0 1 2.41 1.74l3.72 6.55c1.09 2.11 2.6 2.89 5.37 3.74l67.64 19.86a5.67 5.67 0 0 1 3.24 3.27c1.61 4.17 3.71 7.61 14.27 10.79l55.32 15.1c.67.22 7 2.15 11.79-2.46l13-12.39a2 2 0 0 1 1.26-.54 2 2 0 0 1 1.28.55s13 12.39 13 12.39c4.77 4.6 11.11 2.67 11.82 2.44l55.32-15.09c10.55-3.18 12.72-6.68 14.25-10.78a5.53 5.53 0 0 1 3.24-3.28l67.62-19.85c2.78-.86 4.3-1.64 5.39-3.75l3.69-6.5a3.3 3.3 0 0 1 2.37-1.79c5.18-.69 6.67-3.54 7.31-4.76l3-5.3a3.26 3.26 0 0 1 2.34-1.78c2.89-.19 4.28-.92 5.48-2.89l3-4.93a7 7 0 0 0 .94-3.31 4.59 4.59 0 0 0 -.75-2.41zm-178.84 9.81a12.34 12.34 0 0 1 3.2-6.11c2.16-2.16 5.15-3.25 8.89-3.25h74.3a15.51 15.51 0 0 0 -4 4.49c-.86 1.61-1.93 3.5-3.21 5.61h-79.44a3.22 3.22 0 0 0 .26-.74zm-100.63 25.6v-22.54h160.23v22.52zm-2.34-19.44-13.15.87q-1.41-2.06-2.62-4h15.77v3.08zm0 2.43v3.2l-8.79 1.18c-1-1.22-1.86-2.43-2.71-3.61zm0 5.56v3.7l-4.1.84c-1-1.21-2-2.4-3-3.59zm0 6.09v2.95c-.79-.83-1.56-1.65-2.3-2.48zm29.6 7.7h14.49l-20.22 14.47a112.43 112.43 0 0 1 -10.25-7zm-18 5.86c-.18-.14-4.79-4-6.75-5.86h19.27zm36.55-5.86h7.77l-19.93 20.78q-5-2.25-9.88-5zm11 0h6.6l-15.35 26a110.74 110.74 0 0 1 -12.13-4.22zm9.32 0h5.58l-8.1 29.2a114.23 114.23 0 0 1 -13.21-2.58c5.87-9.96 13.72-23.28 15.72-26.62zm28 0 15.72 26.62a114.06 114.06 0 0 1 -13.2 2.58l-8.1-29.2zm2.72 0h6.61l20.87 21.77a107.93 107.93 0 0 1 -12.13 4.21zm9.85 0h7.77l22 15.78a106.36 106.36 0 0 1 -9.88 5c-7.21-7.56-15.95-16.66-19.88-20.78zm11.79 0h14.48l16 7.48a115.15 115.15 0 0 1 -10.24 7zm20 0h19.28c-2 2-6.6 5.74-6.76 5.86zm24.07-7.7 2.33.48c-.76.83-1.53 1.66-2.33 2.49zm0-2.39v-3.7l7.13 1q-1.44 1.77-3 3.59zm0-6.06v-3.21l11.53.77c-.85 1.18-1.76 2.39-2.71 3.62zm0-5.63v-3.1h15.79q-1.22 1.89-2.62 4zm-115-15.52c3.74 0 6.73 1.09 8.88 3.25a12.27 12.27 0 0 1 3.21 6.11 4.39 4.39 0 0 0 .26.74h-79.48c-1.21-2-3.21-5.61-3.21-5.61a15.43 15.43 0 0 0 -4-4.49zm-157.83 10.1c-2-.15-2.49-.39-3.14-1.45 0 0-2.68-4.47-2.89-4.82a3.83 3.83 0 0 1 -.58-1.86c.06-1.09.8-1.94 2.76-2h80.6c5.46 0 8.68 5.6 8.68 5.6.71 1.32 1.56 2.83 2.55 4.49zm10.93 11.43a5 5 0 0 1 -3.13-2.75c-1.26-2.13-2.9-5.32-3.72-6.34h85.31q1.23 2 2.68 4.13l-74.85 5a23.67 23.67 0 0 1 -6.29-.04zm13.82 10.78c-2.72.36-3.58-.54-3.74-.75l-3.62-6.31a5.85 5.85 0 0 0 -.83-1.21l77.08-5.15c.88 1.24 1.8 2.51 2.78 3.8zm17.39 6.89-16-4.71 72-9.66c1 1.24 2 2.49 3.09 3.76l-49.3 10.13c-1.83.38-7.08 1.19-9.79.48zm24.42 7.22-16.76-5c1.45-.2 2.49-.41 2.61-.44l50.57-10.39c1.46 1.65 3 3.31 4.64 5l-33 10.19c-.09.02-4.6 1.51-8.06.64zm25.75 7.56-18.66-5.56c1-.22 1.6-.43 1.67-.45l34.19-10.55q3.55 3.47 7.62 6.82l-17.85 8.35c-1.18.63-4.63 1.97-6.97 1.34zm14.31 13c-7-2.63-8-5.26-9-7.8a9.26 9.26 0 0 0 -1.74-2.89 18.17 18.17 0 0 0 4.46-1.5l18.86-8.83a112.4 112.4 0 0 0 10.56 7.36l-16.69 11.95c-.09-.02-3.55 2.55-6.45 1.64zm20 5.67-14.79-4a13.45 13.45 0 0 0 2.56-1.46l17.49-12.52a111.72 111.72 0 0 0 10.25 5.31l-9.71 10.13c-.84.8-3.55 3-5.77 2.47zm20.53 5.61-15.92-4.35a13.43 13.43 0 0 0 2.88-2.22l10.3-10.74a108.82 108.82 0 0 0 12.66 4.47l-5.26 8.91c-.64 1.09-2.79 4.14-4.63 3.86zm23.36.3s-.64 2.87-2.63 4.08a4.13 4.13 0 0 1 -3.19.4l-13.92-3.8a13.75 13.75 0 0 0 3-3.73s2.36-4 5.57-9.42a115.55 115.55 0 0 0 13.81 2.76zm3.53 2.87a7.64 7.64 0 0 1 -3.41 1.91 10.49 10.49 0 0 0 2.16-4.26l2.75-9.93c3.46.4 7 .67 10.54.78zm2.14-14.57 8.21-29.56h4.83v30.28a120.7 120.7 0 0 1 -13.01-.79zm15.35.8v-30.36h4.86l8.18 29.49a123.66 123.66 0 0 1 -13.01.8zm13.18 11.76-10-9.57c3.57-.12 7.08-.39 10.54-.79l2.76 9.94a10.36 10.36 0 0 0 2.16 4.25c-2.15-.58-2.78-1.2-5.46-3.83zm11.36 3.53a4.15 4.15 0 0 1 -3.2-.39c-1.94-1.18-2.58-3.91-2.62-4.08l-2.69-9.72a114 114 0 0 0 13.83-2.75l5.59 9.46a13.82 13.82 0 0 0 3 3.7zm17.54-4.78c-1.85.28-4-2.76-4.62-3.88l-5.28-8.87a110.71 110.71 0 0 0 12.68-4.54l10.31 10.74a13.48 13.48 0 0 0 2.88 2.22zm23.15-6.33-2.62.72c-2.22.53-4.93-1.67-5.8-2.57l-9.71-10.13a109.37 109.37 0 0 0 10.25-5.31l17.51 12.56a13.83 13.83 0 0 0 2.54 1.44zm26.44-12.77c-1 2.55-2 5.18-9.05 7.83-2.9.89-6.34-1.67-6.38-1.7l-16.71-12a114.3 114.3 0 0 0 10.56-7.36l18.9 8.85a17.67 17.67 0 0 0 4.42 1.48 9.24 9.24 0 0 0 -1.74 2.92zm5.28-5.16c-2.34.64-5.79-.71-6.94-1.29l-17.89-8.37q4.08-3.34 7.64-6.82l34.2 10.56c.07 0 .68.23 1.64.45zm25.76-7.57c-3.46.93-8-.56-8-.58h-.05l-33-10.17c1.64-1.65 3.19-3.31 4.65-5l50.55 10.42c.1 0 1.14.23 2.6.44zm24.43-7.17c-2.7.72-8-.09-9.81-.47l-49.28-10.13q1.62-1.9 3.1-3.76l72 9.66zm24.66-13.91s-2.94 5.19-3.56 6.27c-.15.2-1 1.12-3.74.75l-71.7-9.61q1.47-1.94 2.78-3.8l76.18 5.06.89.09a6.58 6.58 0 0 0 -.85 1.26zm12.73-11.84-3.07 5.38a5 5 0 0 1 -3.12 2.75 23.41 23.41 0 0 1 -6.32 0l-74.83-5c1-1.43 1.86-2.82 2.68-4.13h85.31a6.44 6.44 0 0 0 -.65 1zm10.76-9.57-2.9 4.82c-.55.9-.88 1.3-3.11 1.45h-88c1-1.66 1.83-3.18 2.54-4.5 0-.05 3.14-5.6 8.68-5.6h80.6a2.8 2.8 0 0 1 2.52 1.09 1.64 1.64 0 0 1 .24.87 4.16 4.16 0 0 1 -.57 1.85z"/><path d="m130.53 129.62h-.67l-6.86 15.38h1.86v-.1c.55-1.86 1.27-3.64 2-5.36l.14-.36h5.3c.72 1.63 1.45 3.5 2.23 5.73v.09h2.56zm-3 8.33 2.15-5c.22.49 2 4.71 2.19 5z"/><path d="m137.86 143.85v.06a5.74 5.74 0 0 0 3.62 1.29c3.22 0 5.46-2.07 5.46-5 0-2.47-1.86-3.2-3.66-3.91-1.61-.63-3.13-1.23-3.13-3.05a2.41 2.41 0 0 1 2.58-2.39 2.62 2.62 0 0 1 2.55 1.79v.09h.4l.64-1.93-.07-.07a4.94 4.94 0 0 0 -3.17-1.07c-3 0-4.92 1.67-4.92 4.27s2 3.42 3.7 4.1c1.57.61 3.05 1.19 3.05 3a2.92 2.92 0 0 1 -2.87 3c-1.46 0-2.44-.63-3.38-2.18v-.06h-.4z"/><path d="m159.08 129.94h-11.27v1.58h.15a40.3 40.3 0 0 1 4.58-.26v13.74h2.17v-13.76a37.4 37.4 0 0 1 4.35.26h.15v-1.58z"/><path d="m166.84 129.62c-4.78 0-8.12 3.22-8.12 7.83s3.25 7.75 8.08 7.75c5 0 8.35-3.24 8.35-8.08 0-5.18-4.15-7.5-8.31-7.5zm4 12.91a5.25 5.25 0 0 1 -4 1.7c-3.5 0-5.76-2.56-5.76-6.53 0-4.38 2.28-7.1 6-7.1a5.65 5.65 0 0 1 4.39 2 7 7 0 0 1 1.33 4.67 2.91 2.91 0 0 1 0 .3 7.65 7.65 0 0 1 -1.96 4.96z"/><path d="m190.15 129.94h-1.34v11.06c-.07-.09-10.24-11.1-10.24-11.1h-1v15h1.43v-11.6l9.28 10.25 1.15 1.35h.85v-15z"/><path d="m214.4 129.94h-.53l-3.64 6.59-2.5 4.56c-2.24-3.73-4.26-7.67-6-11.08v-.07h-.77v.12c-.21 2.21-1.51 11.24-2.07 14.72v.16h1.82v-.13a85 85 0 0 1 .77-8.61s.17-1.48.24-2.07c.25.49 3.08 5.85 4.15 8.07l1.23 2.5h.41v-.08c1.25-2.88 3-6.18 5.45-10.51.34 2.58.8 7.75 1.05 10.71v.12h2.3v-.15c-.51-3.64-1.08-8.45-1.74-14.73v-.12z"/><path d="m224.68 129.62h-.68l-6.85 15.32h1.85v-.1c.55-1.87 1.27-3.66 2-5.39 0 0 .08-.22.13-.32h5.29c.73 1.65 1.48 3.58 2.23 5.72v.09h2.57zm-3 8.33 2.15-5 2.19 5z"/><path d="m237.86 137.53c2.71-.55 4.33-2.09 4.33-4.18 0-2.29-1.62-3.41-4.93-3.41h-4.7v15h2.16v-7.2h.62l1.68 2 2.55 3.29 1.43 1.97h2.83s-5.72-7.16-5.97-7.47zm-3.14-.86v-5.67a17.62 17.62 0 0 1 3 0 2.39 2.39 0 0 1 2.27 2.58 3 3 0 0 1 -2.66 2.95 10.64 10.64 0 0 1 -2.61.14z"/><path d="m254.67 129.94h-11.26v1.58h.14a38.09 38.09 0 0 1 4.58-.26v13.74h2.17v-13.75a35.33 35.33 0 0 1 4.35.26h.15v-1.58z"/><path d="m256.59 129.94v15h2v-15z"/><path d="m273.12 129.94v11.06l-10.25-11.1h-1v15h1.47v-11.6l9.29 10.25 1.15 1.35h.85v-15z"/><path d="m77.06 288.91c-.81 0-1.5-.12-2.23-.12s-1.54.08-2.27.12c-1.24-3.55-2.78-7.66-4.5-11.56h-10.9c-1.5 3.77-3 7.54-4.24 11.56-.61 0-1.07-.12-1.59-.12s-1 .08-1.5.12l13.38-29.91h1zm-14.41-24.31-4.67 11h9.43z"/><path d="m80.07 283.13c1.67 2.75 3.6 4.45 7 4.45a6 6 0 0 0 6-6.25c0-8-13.43-4.45-13.43-14.13 0-5.53 4.38-8.22 9.52-8.22a9.57 9.57 0 0 1 6.13 2 25.32 25.32 0 0 0 -1.29 3.56h-.42a5.52 5.52 0 0 0 -5.32-3.73c-3 0-5.4 2-5.4 5 0 7.89 13.5 4.72 13.5 13.84 0 6.13-4.76 9.77-10.59 9.77-2.1 0-5.53-.9-7-2.49a19.73 19.73 0 0 0 .81-3.81z"/><path d="m111.51 289c-.69 0-1.29-.13-1.89-.13s-1.29.09-1.89.13v-27.33a79.09 79.09 0 0 0 -9.39.52c0-.43.13-.85.13-1.29s-.09-.81-.13-1.29h22.13a12.52 12.52 0 0 0 -.13 1.29 11.05 11.05 0 0 0 .13 1.29 74 74 0 0 0 -9-.52z"/><path d="m120 274.27c0-9.38 7-15.29 15.86-15.29 8.07 0 16.26 4.36 16.26 14.64 0 9.56-6.78 15.81-16.34 15.81s-15.78-5.99-15.78-15.16zm25.22-9.72a11.35 11.35 0 0 0 -8.92-4.16c-7.55 0-12.09 5.7-12.09 14.39s5.28 13.22 11.67 13.22c9.05 0 12.31-9.34 12-14 .01-3.58-.46-6.58-2.69-9.45z"/><path d="m181.48 288.91h-1.29c-.47-.59-1.33-1.62-2.23-2.61l-18.53-20.47h-.43v23.09a10.76 10.76 0 0 0 -1.21-.12 9 9 0 0 0 -1.2.12v-29.3h1.68l20.37 22.06h.43v-22.06a11 11 0 0 0 1.2.13c.38 0 .77-.09 1.2-.13z"/><path d="m229.81 259.62c1.12 10.58 2.32 21.12 3.47 29.3-.77-.05-1.38-.12-2-.12s-1.37.07-2 .12c-.72-8.61-1.59-17.86-2.19-22.1-5 8.86-8.66 15.72-11.23 21.63h-.47l-2.39-4.84c-2.75-5.65-5.75-11.22-8.67-16.79-.94 8.35-2.1 16.83-2.1 22.1-.56-.05-1-.12-1.5-.12a15.45 15.45 0 0 0 -1.55.12c1.11-6.89 3.69-24.8 4.12-29.3h1.11c3.44 6.81 7.56 14.87 12.14 22.45 4.08-7.33 8-14.78 12.36-22.45z"/><path d="m262.49 288.91c-.83 0-1.51-.12-2.24-.12s-1.55.08-2.27.12c-1.25-3.55-2.79-7.66-4.51-11.56h-10.88c-1.51 3.77-3.06 7.54-4.25 11.56-.61 0-1.07-.12-1.59-.12s-1 .08-1.5.12l13.38-29.91h1zm-14.41-24.31-4.68 11h9.43z"/><path d="m265.46 259.62h9.09c6.61 0 9.52 2.18 9.52 6.51 0 5-4.45 7.37-8.79 8.14l8.84 11.18 2.06 2.4.81 1.07c-.9-.05-1.67-.12-2.48-.12s-1.68.07-2.45.12c-.94-1.33-1.8-2.53-2.7-3.73l-5.06-6.55-3.43-4h-1.63v14.3c-.69-.05-1.29-.12-1.89-.12s-1.29.07-1.88.12v-29.3zm3.77 13.38a24.6 24.6 0 0 0 5.53-.22c3.15-.64 5.5-2.79 5.5-6.12 0-3-1.5-4.89-4.72-5.41a40.08 40.08 0 0 0 -6.31 0z"/><path d="m300.2 289c-.69 0-1.29-.13-1.89-.13s-1.28.09-1.88.13v-27.33a79.57 79.57 0 0 0 -9.4.52 11.05 11.05 0 0 0 .13-1.29 12.8 12.8 0 0 0 -.13-1.29h22.13c0 .48-.12.86-.12 1.29s.08.86.12 1.29a73.85 73.85 0 0 0 -9-.52z"/><path d="m314 259.62c.6 0 1.25.13 1.89.13s1.19-.09 1.88-.13v29.3c-.68-.05-1.28-.12-1.88-.12s-1.29.07-1.89.12z"/><path d="m348.67 288.91h-1.29c-.47-.59-1.33-1.62-2.23-2.61l-18.54-20.47h-.41v23.09a11 11 0 0 0 -1.21-.12 9 9 0 0 0 -1.2.12v-29.3h1.68l20.37 22.06h.42v-22.06a11.3 11.3 0 0 0 1.2.13c.39 0 .78-.09 1.21-.13z"/><path d="m0 0h400v400h-400z" fill="none"/></svg>