<?xml version="1.0" encoding="utf-8"?>
<!-- Generator: Adobe Illustrator 23.1.1, SVG Export Plug-In . SVG Version: 6.00 Build 0)  -->
<!DOCTYPE svg PUBLIC "-//W3C//DTD SVG 1.1//EN" "http://www.w3.org/Graphics/SVG/1.1/DTD/svg11.dtd" [
	<!ENTITY ns_extend "http://ns.adobe.com/Extensibility/1.0/">
	<!ENTITY ns_ai "http://ns.adobe.com/AdobeIllustrator/10.0/">
	<!ENTITY ns_graphs "http://ns.adobe.com/Graphs/1.0/">
	<!ENTITY ns_vars "http://ns.adobe.com/Variables/1.0/">
	<!ENTITY ns_imrep "http://ns.adobe.com/ImageReplacement/1.0/">
	<!ENTITY ns_sfw "http://ns.adobe.com/SaveForWeb/1.0/">
	<!ENTITY ns_custom "http://ns.adobe.com/GenericCustomNamespace/1.0/">
	<!ENTITY ns_adobe_xpath "http://ns.adobe.com/XPath/1.0/">
]>
<svg version="1.1" id="Ebene_1" xmlns:x="&ns_extend;" xmlns:i="&ns_ai;" xmlns:graph="&ns_graphs;"
	 xmlns="http://www.w3.org/2000/svg" xmlns:xlink="http://www.w3.org/1999/xlink" x="0px" y="0px" viewBox="0 0 1200 400"
	 style="enable-background:new 0 0 1200 400;" xml:space="preserve">
<style type="text/css">
	.st0{fill:#FFFFFF;}
</style>
<metadata><?xpacket begin="﻿" id="W5M0MpCehiHzreSzNTczkc9d"?>
<x:xmpmeta xmlns:x="adobe:ns:meta/" x:xmptk="Adobe XMP Core 5.6-c145 79.163499, 2018/08/13-16:40:22        ">
   <rdf:RDF xmlns:rdf="http://www.w3.org/1999/02/22-rdf-syntax-ns#">
      <rdf:Description rdf:about=""
            xmlns:xmp="http://ns.adobe.com/xap/1.0/"
            xmlns:xmpGImg="http://ns.adobe.com/xap/1.0/g/img/"
            xmlns:xmpTPg="http://ns.adobe.com/xap/1.0/t/pg/"
            xmlns:stDim="http://ns.adobe.com/xap/1.0/sType/Dimensions#"
            xmlns:xmpG="http://ns.adobe.com/xap/1.0/g/"
            xmlns:dc="http://purl.org/dc/elements/1.1/"
            xmlns:xmpMM="http://ns.adobe.com/xap/1.0/mm/"
            xmlns:stRef="http://ns.adobe.com/xap/1.0/sType/ResourceRef#"
            xmlns:stEvt="http://ns.adobe.com/xap/1.0/sType/ResourceEvent#">
         <xmp:CreatorTool>Adobe Illustrator CC 23.1 (Macintosh)</xmp:CreatorTool>
         <xmp:CreateDate>2019-10-08T13:44:15+02:00</xmp:CreateDate>
         <xmp:Thumbnails>
            <rdf:Alt>
               <rdf:li rdf:parseType="Resource">
                  <xmpGImg:width>256</xmpGImg:width>
                  <xmpGImg:height>84</xmpGImg:height>
                  <xmpGImg:format>JPEG</xmpGImg:format>
                  <xmpGImg:image>/9j/4AAQSkZJRgABAgEASABIAAD/7QAsUGhvdG9zaG9wIDMuMAA4QklNA+0AAAAAABAASAAAAAEA&#xA;AQBIAAAAAQAB/+4ADkFkb2JlAGTAAAAAAf/bAIQABgQEBAUEBgUFBgkGBQYJCwgGBggLDAoKCwoK&#xA;DBAMDAwMDAwQDA4PEA8ODBMTFBQTExwbGxscHx8fHx8fHx8fHwEHBwcNDA0YEBAYGhURFRofHx8f&#xA;Hx8fHx8fHx8fHx8fHx8fHx8fHx8fHx8fHx8fHx8fHx8fHx8fHx8fHx8fHx8f/8AAEQgAVAEAAwER&#xA;AAIRAQMRAf/EAaIAAAAHAQEBAQEAAAAAAAAAAAQFAwIGAQAHCAkKCwEAAgIDAQEBAQEAAAAAAAAA&#xA;AQACAwQFBgcICQoLEAACAQMDAgQCBgcDBAIGAnMBAgMRBAAFIRIxQVEGE2EicYEUMpGhBxWxQiPB&#xA;UtHhMxZi8CRygvElQzRTkqKyY3PCNUQnk6OzNhdUZHTD0uIIJoMJChgZhJRFRqS0VtNVKBry4/PE&#xA;1OT0ZXWFlaW1xdXl9WZ2hpamtsbW5vY3R1dnd4eXp7fH1+f3OEhYaHiImKi4yNjo+Ck5SVlpeYmZ&#xA;qbnJ2en5KjpKWmp6ipqqusra6voRAAICAQIDBQUEBQYECAMDbQEAAhEDBCESMUEFURNhIgZxgZEy&#xA;obHwFMHR4SNCFVJicvEzJDRDghaSUyWiY7LCB3PSNeJEgxdUkwgJChgZJjZFGidkdFU38qOzwygp&#xA;0+PzhJSktMTU5PRldYWVpbXF1eX1RlZmdoaWprbG1ub2R1dnd4eXp7fH1+f3OEhYaHiImKi4yNjo&#xA;+DlJWWl5iZmpucnZ6fkqOkpaanqKmqq6ytrq+v/aAAwDAQACEQMRAD8Amek/nf5w89fmVJ5b8gx2&#xA;EOiWaPNPqeoxSytJFE6o8yokkJ4szqqJ9repI/ZVemPH+acTIEn0O8Xf1C0N5aH24gS3f68Vd6n5&#xA;p/8ALPof/I67/wCqWKrpB+ZSxNK0+jpxUs0SW95MRQVIUiVC/wBC/RirEz528+fGkt2sbglaxeUP&#xA;MEoHaob1wrfdTFUG/nzzkkpRtWuQqmjSHyZq4UDxNbrl+GKoU/m1LFdpa3Pn3TLK4Y19LUfLmo2Q&#xA;I2/amukXv44qyvSdb89avHLLonmPyrrcaj4PqsNwBWv7bR3l1x79sVRjzfnKgUR2nl2Y0+N2ub6L&#xA;evZRBL/xLFVn1n86v+rd5b/6Tr//ALJMVcj/AJ1uzF4fLcC7cVEt/MferenD+rFV8dv+cojVpNQ8&#xA;utJSrRLZXyqWp9kSG6agr+1w+jFV8V3+bcDA3OmaHfxftfV726tpO9eKyW06n6XH0YqxK7/M3ztN&#xA;5il0DU7NPJUxUNY87ebW7u/G5f6ktqEiPpqKv9srUVXrRVWk8seYNX5/WbPzBq1ekmsawmjWzg9S&#xA;sGkAyD5SQg4q3a/lBbMj+v5U8uRTOtBLcS3mrODsN3uI4HPw79RQ/firrr8m9MRUe28qaFJcKtC9&#xA;tdXuktUkVpJbxzt2qPDFVj+XtV0Q87Z/M+iRxKP3lldpr9gO1Pq1yLi8Yf6kIxVX0r8z9eSWK0tk&#xA;tfPXqEoZtC/0a7tyAafX7O4dkt+RBHJpV3qOOKp0urfnBfAPbeXtJ0iMn7Oo6hLcTAe6WkJjr7CX&#xA;6cVVRb/nKyljqHl2JzWkQsr6QDwHP61HX/gBiqis/wCd0BBks/Ll8oUcxFcX1qxbevEPFcLT5nFV&#xA;RfMf5qCcRSeS7MqUJFxHrKmMP2Vg1qjge4U4qqNrn5o+k7t5a0m14AH1JtZlK07/AGbD+OKsZ1P8&#xA;2dX06SVb/VvJ1kY1PKIarcXUyuOxiS3jbFUFB+bPmy+tuenXFldyBiK2Wg69exso2+Fx9XHXwJGK&#xA;sh0DVvzX1USSCXTII4wKJeaRqNizFhUU9a6Y7d/hxVHmX8546UtfLlx4/wCkX0FPb+5nr+GKq0Wp&#xA;fmsCfV0DRXHbhq1yv69PbFVRtR/NF1/d6DosTA9ZNXunBHyXThiqoV/MuZGpJo1i+/D4Lq8HTavx&#xA;2ffFXk6/n35z8r/mY3lLz9aae1o7xoLzSkmqgmAMUgR3ldlNRyWnIdq91WX/AJm/lp5Pj07UvOll&#xA;6vl/zBpNtPerq2lN6EjtFGXKyoPgk58aGoqelcVYJ+UX5kfn5520u7fTZfL9yNOdIp7nVknjmZnB&#xA;YfDZkL0HUoP14q9IE3/OQKovK18qyPQcik+oqK9yA0W334qqW15+equTc6Z5blSmwjvL2M1+bQSf&#xA;qxVWl1L850XkuhaFIf5V1G5B/wCGtFGKtprn5vBRz8q6UW7kavIBX5fUzirbaz+a0ilJvKOlyRts&#xA;yHV3oR9NkcVYprH5f3eqyief8stFgu1bmt5ZazJZTh/5vVtrKJyfmcVYbZReY/LPnW98u+YdR8zX&#xA;n1yBLvR7DQNVk1WaCNDxkWcSRwOqszfC5RR2364qn/me+89ac2nam03mvSvLQkEOqTTy6NNd8piI&#xA;rYQ28fqtV53VWJPT9nvirLrPQL9ruGxb8wNZtNcnt/rA0i5fSJbmNNgWeJLeQEKTQlSR4HFURL5R&#xA;/NW0mNxpnnsXgUErYarpts0TtQUDS2v1eRRX+X7sVTHyd5x1XUNSvPLvmTT00vzNp8UdzJFBL61t&#xA;c20rMi3Nuxo/DmjKVcVXbFUq1i+TzX570Ww0OskPlS+a91rWo+Jijk+rywfo+N6HnJJ6375V+wo3&#xA;+KgxVm+pavpOl25udTvYLG3XczXMqQoKf5TlRiqRL+aH5duSIfMVhPx+00E6SqP9lGWGKuX80fy4&#xA;M3ot5l02Kbakc1zFCxr0oJCuKsktrq2uoEntpUngkFUljYOjDxDLUHFWE+V7o+XfNGq+X9YASbXL&#xA;+51TRtSIol2kx5NbFj/u+2RQgWvxRhSvRqKo/UNe1vUPNV15X0V4rFrG0gvL/U7iMzkC5eRIooIQ&#xA;0Y5fuWYuxIXYcWrsqr2/lTW0LNP5u1ad26j09NRB/qqlmD95OKsG886qNB0rUNRTzprepx6PIF1a&#xA;zsZ9HS6ti5CpyiNkrEVbu1abiuKpZ5ak/MJPL0U3nTQvM2pXMqGQ3Wl6pAh9NjzjAgtZ7KRWC7HY&#xA;knv2CrAL+HyJ5h8+zX5v4NGsNNgjt5NG87y3885vuRZ3ELXSycFQhaPLStfhpQ4FZ7o+oR2JWLy/&#xA;5y8gaYzGnp2NpFEznr0+t1OFWT2j/mjeKrWfnXy7cq9eDQ2TODTrTjcnpTFVe40D8750X0vN2lQU&#xA;35RaYTy/5GSyD7sVbHlP856b+frSv/bGh/6rYq7/AAl+c3/U/wBr/wBwWH/qtiqGm8kfnbJIWT8y&#xA;ooVP7CaJaED/AINmP44q8+/OyP8AOHyf5QTULn8xmvkuLhLdrWGyt9MnPJWblFLATI1OO4FNt8VZ&#xA;d/zj55N8mSeS9J83RaX6nmC+R2u9SvOU05njkaOR42krwDFCap47nFXrN7Y2V/aTWd7BHdWlwpjn&#xA;t5lDxujbFWVgQQcVeCfmr+WFp+XOhX3nz8vL+78v31m8P1yxhkMlrNHLMsdPTk5/ZeQHi1Vp2xVN&#xA;fy28wfnf518sWmuW+u6FBaz+pG6m1kluI3iYp+8RHRFZqcqV6EHFU/byd+ecwo35h2trx6GDR7d+&#xA;Xz9Rtqe2Krl/Lv8ANdwwvPzPuHWoK+hpVnAR1rUhmxVLNY8paTZGRdf/ADc1eyaQglTqdnYkb9FH&#xA;AU6fs4qxy5uvyV0+RYr/APNDzBqru3H001W7u+ddgn+hR4qrSaP+VmoPGLbyp5w8ycxxS5J1RIip&#xA;JFDLdXFqgX/PxxVLvNnl3VfKGiS+ZvIvlK58k3GnhVu9TlvbW4ZrNjSQS2hkvElAorbtz5dK4qne&#xA;pP8Akzf2EKatrl/+YmrXwJtNPgupbq4ZyOR9Kzs2ggtqfzOqcf5sVYr5f/xr5Gkj8ty6PB5T1LzX&#xA;ezk+d9SvLe9kjt1Uy+lRa/HHGqqvOTiXNafFUKvdPIvm3S9fsbhNMkur2w0pxYprlyE9O/khXjLN&#xA;DIpAkAYEM4UKT9nbFXm3nPzjpmgwW3mDULue2m8/XCxJd2gJuLfQ7RC8KWwA5rLOJVLGlVaY7/Au&#xA;KpX5q/NDT/K+kQaUhl8n6RHEPqHlzTkifXJo3BIkuZJPUhsA5bka85juag7YqwzR7r80/Nkx1DyR&#xA;5Kt7KKQ8o9f1FRfXjAmhb9Iaqz+p/wA8l2wKyp/yo/5ydv1BufO8Nqrkc0ivbqFlFa7C3gVfuOFW&#xA;pfyw/wCcn7C3cwebbbVFUUFtNcPclwuwBW9tzHU9+TfPFWF3Hm7zN5L1VU85+U5NAvJTRda0A/ou&#xA;ZyN2akJfT7undWQ++BXqOnfmNo3mTy9x8x3Ka75ZSSN18yWUbWuoaZcKawy39tGS1uytXjcwH0/E&#xA;AHCqaza/dQ61a+YLaaPUb7y/NbaR5juoCvpXuj6kUe2vVKcl5wuwkKjYfvKfCQcVZb+ZPnPQ/Lej&#xA;xtrU95YaZqDvaPrdiAxs5uJaNmC8pKsVNOMbCoowocVeCPZea/zL1Cw8wa/5dHmfybor3Vuus6SE&#xA;s9R1CFDwVngeZJHIZefBETfkB1wKnfmPzH5b8veVrzVfIX5i32k3tgBFH5W1RjdFWSi/Vo7S9je4&#xA;iI6cqFB3oN8Kqv5dSnU7RtU0Tz/pF55i1zheavpWt2Fv6rXnAKyKUkhmVI6cAEDL3WlcVZNd+VvP&#xA;cSNJq/5deT/M7gsU+olbWQ8tyf8ATYZFBbavxdcVSu+0/wAlJGqeYfyWv7R348zpNrb3ka79fUs5&#xA;I2oB1ouKpY1l/wA4p210hv8AT7vQL9ySI7pdZtHUkfENj6a+GxxVPbXy7+QE8PpaX50ewErAxpBr&#xA;8kTBiQPhSaU7npuK4qnUH5T6FfkS6b+Yfmf0ytf9E1sSKQK/FUpIfxpiqR+ctE8v+WdDvZL7819e&#xA;iube3doLQ6pbtcyOingqoqLM7FqDY/MjrirCf+cbfI+n+d7nWvMfnS0l117R7aHTrnUJJZkZ6SNM&#xA;GDsRLxHp7NUCuBX1FbWtta28dtaxJBbxKEihiUIiKOiqq0AA9sKqmKqN7ZWd9aS2d7BHc2lwpjnt&#xA;5lDxujChVlYEEHwOKvFvzX/JzQdC8qar5o8ixXWg+YbGNZwdLuJ4VkjRh6qmNWoAI+TfBTcYqkH5&#xA;TJ/jvyvbNrP5oaxb68zyJJpNpfxWsyKjnjsytNLyWjc+m/HtirOpf+cffIEiep5g1HVtbUbmTVdR&#xA;kYdSesfo4qgx5e/5xh8rh0lTQjIh+KC4mXUJq16CKV7iTr2C4qnFh57sY4za+RfI2o3sQUGGWOzj&#xA;0exYe0t39XP3RnFUU1r+dOschLe6T5UtXAK/VY5NUvF8VLzehbj58GxVjuvQflRo94tr5x1+8836&#xA;28g9PR7meS+czEVCLplmFgWv7POL6cVSeytPOvlO/wDMnnPyt5EsdK0S6sYmTTr2eK1ukW1V5HmM&#xA;UJeOMN6lXiLg/AOhxV1lqnka70Sy8x+bLm08++dNfjRNL8vp6M8cElwAy2lratzW3VNhLNIOW1Sa&#xA;7Yql0Xk38x/KV5o+l6dqNnrN/Jp2oGPQXBt7LRo7kjldrLVmdEdjGpkAZqsF/aoqwvXvzC1G18ua&#xA;H5r1SGAa4loLDyPpoUvDZ28AWK41Z1lqzSyyR8YA4oKcvipXAq3/AJxt8v8AkzzX5w1C782z/pLX&#xA;Y+Nxp9heEulwx5GaaTnX1nTb4Se5ND+yq+urmaO1tJZiv7uCNnKqN6IK0AHywq/Pvzv+YHmfzlq9&#xA;xqGr3sskcsjNBZc2MECV+GONNlAUd6VPU74FZl/zj9+YfmTRvzA0fSFvZptG1OZbKewd2eIep8KO&#xA;iEkIUahqO2KvsXzH5c0XzHo9xo+s2qXen3S8ZInHQ9mU9VZeqsNxhV8IXk+tflz+YWowaPeMlzpF&#xA;3NarNsVmhRyOMyfZZJFA5IdsCvXPKHmafT9O+seRtLtPqPn25itvqdxJ6cWm6zAwaa1ZgBWCaFi0&#xA;ArUVoBhVkSeRPNXmPU77zXqRS7vbPUPrGufljIWFkXjgWJCpaV4ZJZYQJkkZODsaEjfFVmv+e/KX&#xA;lnR4/MX5Y6vFZahNMiXXkGRGZJpGfhIv1FSJLSaPcs0fFW496iqrfk9vOvnbzJ/jyz1TQ7DznZQS&#xA;6fJ5SurSQPFAspoblzJ9ZR26h1SgG38wxVk3mHzRpxX0/wA1fy9aKGOq/pqCGPV7JUGxkMsa+vAD&#xA;2BSuKqvlryh+W+rwRzfl15uvtLEQ5i00vUXliWvT1rK89fiP8kouKpz+ifzu0pQLPXtI8xpyqw1S&#xA;0ksZuPgslmzx19zHiqxvzA/MCw9Qa9+Xt48EZp9Y0e6ttREg/mWFjBKN+xGKpDqX5gfkpOn1jzd5&#xA;Vm0ljSp1vQX5A0A+0sU47064qxzUdW/5xm1S3nl0Tyu2v3cKsUtNJ068hLOwqqsVSFVrTqelDTFU&#xA;u/5xs/KW8j1HWNZ82+Whb2xVItLttUtgXVy5Z2jjuFLrxAUcyN67d8CvpOGGGCJYoY1iiQUSNAFU&#xA;DwAGwwqvxV2KuxVxFdj0xVi+t/ld+XetxyJqPl2wkeVSjTpBHHMAf5ZYwsg+g4q8C8vfk/F5G87a&#xA;qvmbybe+bvLbD/cPf2UYuii8uQMlsrpU8TxaoqCPhBBwK9JtvzL/ACV8oQmaPRpfLshIVlOiz2kh&#xA;JH7T+ioP/BYVRVv+bHm/zRbJL5B8n3FzZzVEetazIllaChpzSMM8syVFPgpiqxvyv/MPzMefnrzn&#xA;NHaPXnonl5fqdvQ9Ue4YerKhHVXX6cVW6Xf/AJbeTLyTy/8Al15eXW/MiLwuIdOpIYqk7X2oylli&#xA;Xkp+FnJH8uKo7V/Lk91p02t/mprUUeiWwEsmgWjtBpkYB+EXEhpPePypRWopbYIcVYy/5aXHm2+s&#xA;fMXlWzsvy6stMk9fR76LTojqF3VSDLNCrQJFCVPwJJyYjdgK0xVjWs6l530L8uPP+qtPD5gtNUmS&#xA;1j85yH6rcXMMoitWW3tVSRDbxM8qxssqrUllBBxV5D+d0qL+Yl9pcB/0DQorfSbCOtQkNnAqcR/s&#xA;+TH3OBUb/wA45qW/Oby4BueV0foFlMTir7lZQwKsKg7EHoRhV8nefP8AnFPzZDrlxP5RNveaPO5e&#xA;3tpZRDNAGJPpnn8LKvQNyqe4wKyX8lf+cb/MPl7zVa+ZfNE0EZsKvZ6fA5lYzMpUNK4AUBOVQFJq&#xA;fxVez/mH54s/JXle6167tbi8SCixwW0bPV22X1HA4xJXq7fRU0BKvgXXdZvdb1q/1i+YNeahPJcz&#xA;kdOcrFyFB6AVoB4YFZp+Wt7eP5V842FsxW5sLW18w6fLt+5uNMu4wZFqRRjFOwxV7nqUfnzzP+Zl&#xA;rfWl7L5AmvdEVNHeQW95+kmjYyujhHaKsQnqEPJgKsO9Cqv5X/LvypLHH5d1INo35paXK2pLr44m&#xA;4up3kMn12CQ0W7t2b4XicfDurKp+IqovVp9F1PVrXQfzT05dE8yo3HQPOFg728NwwrwNtdj4oJR1&#xA;9GUkV8ariqfpP+bHk88bqIeetATcXFuEttYiQfzREiG5oKAcSrsdziqEisPyO/MG7IaztoPMMbcp&#xA;rZ1fS9WiloCeaqYJ2K16/EvviqOH5b+dtK4/4Z8+6hHCrFms9aii1VGHZBK/pTIo9mOKsL80fnN+&#xA;aXkbzPp/l7zDpWj6zcaoqGxk02W4ti3qS+kokEvq8W5DstPA9cVT78wJPzx8weVbzRdM8tWGnPqC&#xA;G3ubkamtw/ouCJFjV4bdVLDbkSaDoK7hVO/yT/LRvIHk5dOunSXVruU3OpSxElOZAVI0JAJVEAHz&#xA;qcVZ/irsVdirsVdirsVdirsVSPzv5Q0zzh5XvvL2pFltr1APVjpzjdGDxute6soPv0xVgPlr8pPz&#xA;P8tafDpmk/mU66ZbVEFpcaRBcBV7IHknZwo7AMBirBPPWt+atE892/l780/M95L5Gu4DNHdaVbCy&#xA;juWGxguPq4abj1EiI7GhXpWoVZw35ueQvKHlYt5V8s6pcaPaoWDWemz21om325p7hIvtd3+I9ziq&#xA;G8rat5b8zQ2P5gefvMGmhKmXRdAa6hFlp5H2WkDsPWuwrCrOPgJoFG1FU1g8wp+a9/cadok7x+Qd&#xA;PkEes6inKOTUpqBzYw14vHBxYes+zODxWikkqpf+bdnY+cfK/mTyroUi+l5VsI7qSG1oI/raMzQ2&#xA;gEfw1jhtpA0dNi6dCMVfN/50obnzkPMUa0sfM9na6taN1/voVWZCRtySZHUjAqP/AOcbv/J0eXf+&#xA;jz/qBnxV9uXl1HaWk91JUx28byuB14opY0+7Cr4F86fml5z826vcX9/qVxHBI5a3sIpXW3hSvwoi&#xA;KVXYftUqe+BUb+Xf5ueb/KOv2d0mp3E+liRFv9PmkeWGSCtHojEhXC14sNwfbbFX3jLFFNE8UqLJ&#xA;FIpSSNwGVlYUIIOxBGFXwV+c/lKy8qfmTrOj2Cenp6Ok9nHWvGO4jWXgNyaIzlBXegwKmX5Z6Pet&#xA;5T8zXdsON5rps/K2k1rSWe/uY5Z02/khgqT74q+no9BsNZ0O6/Ly6vpI9b8rravpOqkKtyojjVrK&#xA;/jAO/BqxSU+0VbpywqhrY2X5h6XJoWuyDR/zE8sSj1J7U0ntboAGO8ta0L2868W4nYg8TvQ4qgv+&#xA;VmeU5xd+QvzZS1s9agCxXJnUnT7xGXlHcwy0pFyX4viKlW6Go2VY9qf5hN+Wt1pln5W1u287+XdU&#xA;lFvY6C14k2oWrMaRrBcx+qXgJ+BRIu2wB64qnvn7zDp+t6PNb+Yvyq1zVLyOJhAgtoJgrnoEu7Wa&#xA;SaMFurRrWm9MVSL8j/yk1a98qy3vniTWLe7lnKWFi97e2jxW8agVaJJIyvJ67MOgHjirPtK/If8A&#xA;LLTNct9ch02SbU7SRZoJ7m5uJ6SpurkSOwJU7ivQ74q9AxV2KuxV2KuxV2KuxV2KuxV2KuxV2KtM&#xA;iNTkobieS1FaEdxiq2eCC4gkt541lgmVo5YnAZWRhRlYHYgjrirFdI/KT8tNIn+sWHluxjnB5LLJ&#xA;EJmU+KGXmV/2OKvAtS8g6ToX5n+ZLC6N0UW4g8wWek28nCLUdJEjSX1sIxx5yQ7si/tBGH+Vir3r&#xA;TPIvkG7srbUPL9uun6fewo9dHkexhu4GUsnrLbGL1B8ZILb7kV3IxV49+Zv5UWen2T+WpmS18vSz&#xA;yXPk3WZSfT0+8nNZtLupDXjb3DDlFIfst15Yqwj8lPMujflb591Oz89abLY3zxi2jvmQu1oQxL/A&#xA;oJaOYU+NK9BSoY4FfXGn6nonmHSTcaddw6jpt0jJ61u6yIwYUZaqTvvuO2FXxZ52/ID8xvLurXMF&#xA;npFzrGmBz9TvbGM3BkiJ+EvHEGdGp9oFevSo3wKi/wAt/wDnH7z55g160Or6TcaRokUqvfT30bQO&#xA;0atVo44pOMjM4FAeNB3OKvr/AM2ecfLnlPSZNU129jtLZASisR6krAV4RJ9p3PgP1YVfFupx63+b&#xA;X5iavrkESWFhKwnvb64PG2sbOFBGjzyH4aiOMbD7TdMCve/yw/Le21WHT9Uh+taZ5Z0ONk8nHaO6&#xA;nnlIafWJkdWWs9OMSSKV4fs0pUqmf5o+Q9Eh0u580atqN/N5yCJYaBqFhKbO59d2ZbW1gjhIVjJJ&#xA;J+8LAmnIjiooFXmn5cfldD5m/NjVP01qV5rtv5eto4dW1WS5mLy6o0YjMcM6lJeEBDhTyr8A7GmB&#xA;XuXlD8n/ACV5V1O91Wxhmu9Sv1Mc93fym5k9NjVkBfsaCpO5p1wqmifl15Dj1eHWIvL9hFqdu3qQ&#xA;3cVvHG4fs/wgVYdiemKsixV2KuxV2KuxV2KuxV2KuxV2KuxV2KuxV2KuxV2KuxV2KvPfzh8g6l5i&#xA;02z1ry7J9W84eXZPrejTigMlKF7diduMlNuW1djsTirA/wAtPzNttHtZb0QNb+UZbkprenUPreXt&#xA;SlakgaI/ELCeSpQ0+Bqg06Yq9yuLfSda0poZ0h1DS76IckbjLDNE4qD3VlI3GKvKvN/5Kyy2QtLS&#xA;3h8y6FApFro+pTNDf2a7kJp+pgM4QbART8l2+0BirxNPJ0Wh3aXPlXzle+ULq6LiG115Z9NEohbi&#xA;/C/tfUtLlA3cUB+nArI7bzD/AM5OyKI9J8y6dq0QFRNbXehzClaV5S0fFVK58y/85BSRtDrXnrR9&#xA;FB5K4nvtKikHHZqfU1kkqP8AJ3xVLNG/LvT/ADDqUNzqWrar581OadrL/RFmt7JbmKMzNDcarqAD&#xA;U4CtEjLeG5GKvePLH5PWsNvaxa+tqdNs2Etn5X09GTTYpRSktw0n76+mFPtzbf5GFWea3rmkaDpU&#xA;+qavdR2Wn2q8pp5DRQOwAG5J6BRuTsMVfPXnbz15j13zBZPp1rKPMupK8HknQmIWSwtp0pLq14Kn&#xA;jcSx19FTtGlWPiVXtH5ZeQLDyL5StdEtiJbj++1G7AoZrlwPUfxpsFWv7IGKsrxV2KuxV2KuxV2K&#xA;uxV2KuxV2KuxV2KuxV2KuxV2KuxV2KuxV2KuxV5j+Yn5S3Woaq3m7yZcppXm5UMdzHIoaz1GEijQ&#xA;3UZBU8htyIPv2ZVXm3lnztrPlPVX0yxRfLmpg873yFrkhi06V2JLSaPqDFlg9Rh8Mch9OrbFqDFX&#xA;pK/mHe+cNQXyZYaVqWharKgl1+a7RYvqljy4yehMjN6kk/8AdwunQEvWq0xVEM+hS67rHmCe1hOg&#xA;eQbGTT9OQIhRJ1iS4vmjFPh9KOOGFadCHGKsf0/8rvJ1tqf5fabfaHp5vhY3t3qaNApE0ywQiXkh&#xA;+FlWa45LzB40AWmKoHSfJ3lPRPKaa3a6TbQXPlrzZOWujGpkFqmrNaNWRquUitXDCp6oD1xVnq6P&#xA;bx+YvMHltibW38wRrrenXEXESR3UZjhunjqCOUMqW84JrVn9sVSGP86NVC3uir5aup/NWjH0tZeR&#xA;orTSYWUVNw97KxCQuv7xAV5FfvxV5pd675o86+ZI4dHkTzj5ntWBivEjMXlrRXO3qwpID9amT4is&#xA;ste3FXpTFXsv5Z/lRpnk1J9QuZ21bzVqNW1TW56tI7MeTJHyJ4py+lu/YBVneKuxV2KuxV2KuxV2&#xA;KuxV2KuxV2KuxV2KuxV2KuxV2KuxV2KuxV2KuxV2KpP5n8n+WPNNh9Q8wadDqFsKlBKvxoTtyjkW&#xA;jofdSMVeJal+X/5m/lp5lZfythfV9M122Nu8V/xlFi0LlkpIzxKoX1mMfLbdqhjvirFR+YnmbSPI&#xA;2pflrqnl++vfMNleyz6/cQL6ivYSXP1y5kkdeZJmVmTkQF4MDXtgVlP/AEMp5CvvzN0nUZfrNpoV&#xA;ppl5atezQkutxdywSHlFEZW4BbRRVamrdKCuFUof87fJk/kzz/osqXRuNfudRk8vgwuy3KXo9KJk&#xA;2+DhKpLBvoq1QFVd/wA2PzR81azoGh6F5Yaw88aD61zqX1+qo8Qg9JlZZPRKRzl6kMftcKN3xVNP&#xA;Kv5SeYfzB8xat5n/ADTtZdPU3EccHl+3YwQSmGJU9VyrOzoFooYPUmvxUFMVe66Nomj6LYR6fpFn&#xA;DYWUX2Le3RY0BPU0XqT3J3OKo3FXYq7FXYq7FXYq7FXYq7FXYq7FXYq7FXYq7FXYq7FXYq7FXYq7&#xA;FXYq7FXYq7FXYqoJ9R9a44el69F+tU486U+H1Kb/AGelcVYNL/ypT/lX+of8cr/BXqyfXvR4eh6/&#xA;Pf8Au/j9XlThx+Lpx2piqbXf/KtOPlr6z+jOPOP/AArX0vtcPg+qU7caU47dO9MVZL/ov1o/Y+tc&#xA;BXp6np1NP8rjyxVVxV2KuxV2KuxV2KuxV2KuxV2KuxV2KuxV2Kv/2Q==</xmpGImg:image>
               </rdf:li>
            </rdf:Alt>
         </xmp:Thumbnails>
         <xmp:MetadataDate>2019-10-08T13:44:15+02:00</xmp:MetadataDate>
         <xmp:ModifyDate>2019-10-08T13:44:15+02:00</xmp:ModifyDate>
         <xmpTPg:MaxPageSize rdf:parseType="Resource">
            <stDim:w>1200.000000</stDim:w>
            <stDim:h>400.000000</stDim:h>
            <stDim:unit>Pixels</stDim:unit>
         </xmpTPg:MaxPageSize>
         <xmpTPg:NPages>1</xmpTPg:NPages>
         <xmpTPg:HasVisibleTransparency>False</xmpTPg:HasVisibleTransparency>
         <xmpTPg:HasVisibleOverprint>False</xmpTPg:HasVisibleOverprint>
         <xmpTPg:PlateNames>
            <rdf:Seq>
               <rdf:li>Black</rdf:li>
            </rdf:Seq>
         </xmpTPg:PlateNames>
         <xmpTPg:SwatchGroups>
            <rdf:Seq>
               <rdf:li rdf:parseType="Resource">
                  <xmpG:groupName>Standard-Farbfeldgruppe</xmpG:groupName>
                  <xmpG:groupType>0</xmpG:groupType>
               </rdf:li>
            </rdf:Seq>
         </xmpTPg:SwatchGroups>
         <dc:format>image/svg+xml</dc:format>
         <xmpMM:RenditionClass>proof:pdf</xmpMM:RenditionClass>
         <xmpMM:DerivedFrom rdf:parseType="Resource">
            <stRef:renditionClass>proof:pdf</stRef:renditionClass>
         </xmpMM:DerivedFrom>
         <xmpMM:DocumentID>xmp.did:69ff42f6-95f0-4fe3-80cc-faf543c43194</xmpMM:DocumentID>
         <xmpMM:InstanceID>xmp.iid:69ff42f6-95f0-4fe3-80cc-faf543c43194</xmpMM:InstanceID>
         <xmpMM:OriginalDocumentID>xmp.did:69ff42f6-95f0-4fe3-80cc-faf543c43194</xmpMM:OriginalDocumentID>
         <xmpMM:History>
            <rdf:Seq>
               <rdf:li rdf:parseType="Resource">
                  <stEvt:action>saved</stEvt:action>
                  <stEvt:instanceID>xmp.iid:69ff42f6-95f0-4fe3-80cc-faf543c43194</stEvt:instanceID>
                  <stEvt:when>2019-10-08T13:44:15+02:00</stEvt:when>
                  <stEvt:softwareAgent>Adobe Illustrator CC 23.1 (Macintosh)</stEvt:softwareAgent>
                  <stEvt:changed>/</stEvt:changed>
               </rdf:li>
            </rdf:Seq>
         </xmpMM:History>
      </rdf:Description>
   </rdf:RDF>
</x:xmpmeta>
                                                                                                    
                                                                                                    
                                                                                                    
                                                                                                    
                                                                                                    
                                                                                                    
                                                                                                    
                                                                                                    
                                                                                                    
                                                                                                    
                                                                                                    
                                                                                                    
                                                                                                    
                                                                                                    
                                                                                                    
                                                                                                    
                                                                                                    
                                                                                                    
                                                                                                    
                                                                                                    
                           
<?xpacket end="w"?>
	</metadata>
<g>
	<path class="st0" d="M1140.38,94.21c8.39-3.29,16.74-6.59,25.11-9.85c4.06-1.58,4.92-4.5,3.6-8.37c-1.92-5.65-3.85-11.3-5.86-17.18
		c1.31-0.57,2.59-1.12,3.85-1.69c7.78-3.53,15.64-6.89,23.27-10.7c2.28-1.14,3.93-3.55,6.03-5.52c-5.12-5.72-9.61-10.62-13.98-15.64
		c-2.25-2.59-4.82-3.76-8.33-3.41c-8.98,0.91-18.01,1.37-26.97,2.4c-32.37,3.72-64.76,4.09-97.27,2.06
		c-25.45-1.59-50.97-3.16-76.44-2.94c-28.81,0.25-57.6,2.58-86.41,3.88c-23.27,1.05-46.62,2.31-69.77-0.99
		c-30.86-4.4-61.58-4.1-92.3,0.68c-7.29,1.13-14.65,4.7-21.66,4.01c-7.06-0.69-13.6-5.69-20.61-8.12
		c-59.72-20.65-119.19-18.31-178.2,2.82c-8.39,3.01-15.87,4.18-24.92,2.3c-28.12-5.85-56.77-4.92-85.25-3.46
		c-31.86,1.63-63.64,1.54-95.48-0.09c-26.26-1.35-52.57-2.85-78.84-2.64c-34.84,0.27-69.67,2.22-104.5,3.29
		c-30.6,0.94-61.13,0.1-91.56-3.62c-2.35-0.29-5.58,1.13-7.38,2.84c-4.12,3.91-7.58,8.51-11.35,12.78c-4.7,5.32-4.3,7.36,2.14,10.61
		c10.14,5.13,20.27,10.27,30.5,15.46c-0.85,4.07-1.63,7.77-2.38,11.47c-0.75,3.69-1.47,7.39-2.24,11.27
		c6.85,3.11,13.23,6.91,20.13,8.91c10.67,3.1,15.8,9.07,14.02,20.32c-0.12,0.76,0.09,1.58,0.12,2.37c0.15,3.53,1.63,5.83,5.29,6.83
		c9.31,2.54,18.52,5.42,27.83,7.93c2.65,0.71,3.85,1.79,4.26,4.63c0.76,5.31,2.21,10.52,3.19,15.81c0.69,3.72,2.58,5.88,6.44,6.47
		c10.32,1.57,20.65,3.12,30.9,5.07c2.11,0.4,4.4,2.08,5.74,3.84c3.06,4.01,5.57,8.45,8.33,12.69c2.54,3.92,5.93,6.27,10.77,6.86
		c14.74,1.8,29.44,3.86,44.6,5.88c0.72,2.19,1.77,5.34,2.78,8.5c2.29,7.16,6.94,10.99,14.7,11.01c9.98,0.03,20,0.99,29.92,0.3
		c7.57-0.52,12.01,1.09,14.72,8.79c2.89,8.2,9.32,12.03,18.46,10.12c9.75-2.04,19.62-3.56,29.29-5.91c4.03-0.98,5.77-0.16,7.62,3.45
		c5.22,10.17,8.55,11.7,19.86,9.31c8.31-1.75,16.51-4.03,24.97-6.13c0.3,0.81,0.69,1.67,0.93,2.57
		c6.91,26.29,20.1,49.08,38.46,68.97c21.31,23.09,47.03,39.86,75.84,51.94c5.65,2.37,9.71,5.3,11.73,11.15
		c1.01,2.91,2.77,5.57,4.31,8.58c6.59-2.44,12.76-4.72,19.17-7.1c3.39,5.16,6.67,10.14,10.03,15.26c6-3.22,11.67-6.26,17.52-9.4
		c4.11,4.92,8.02,9.59,12,14.35c4.29-3.09,8.28-5.68,11.94-8.69c2.7-2.22,4.62-2.37,7.12,0.31c3.21,3.43,6.85,6.46,10.47,9.82
		c4.83-4.51,9.41-8.79,13.98-13.07c5.42,3.92,10.49,7.59,15.72,11.38c4.12-4.95,7.94-9.56,11.89-14.31
		c5.88,3.15,11.56,6.19,17.57,9.4c3.4-5.11,6.71-10.08,10.08-15.14c6.56,2.47,12.85,4.83,19.28,7.24c2.2-4.52,3.88-8.65,6.16-12.41
		c1.28-2.11,3.25-4.34,5.44-5.26c18.62-7.88,36.11-17.67,52.17-29.95c27.33-20.9,48.87-46.34,61.37-78.8
		c1.24-3.22,2.34-6.49,3.44-9.53c6.25,1.67,12.17,3.24,18.08,4.83c3.52,0.95,6.75,0.25,9.13-2.43c3.2-3.59,6.07-7.48,8.93-11.04
		c10.47,2.37,21.09,4.82,31.73,7.18c4.7,1.04,8.03-0.96,10.09-5.13c1.74-3.51,3.33-7.1,5.09-10.89c6.08,0.97,12.13,2.17,18.23,2.86
		c7.22,0.81,14.49,1.18,21.74,1.73c5.33,0.41,8.76-2.17,10.55-7.01c1.79-4.85,3.4-9.76,5.13-14.77c1.43,0,2.84,0.03,4.24,0
		c12.66-0.29,25.32-0.66,37.98-0.86c5.67-0.09,8.77-3.15,10.15-8.23c1.32-4.84,2.34-9.75,3.4-14.26c11.1,0.53,22,0.88,32.88,1.63
		c6.72,0.47,11.38-2.67,14.62-7.88c2.73-4.39,4.7-9.27,6.77-14.03c0.92-2.11,1.27-4.46,1.77-6.31c9.82-1.2,19.08-2.32,28.35-3.48
		c6.45-0.81,10.37-4.36,11.4-10.84c0.84-5.26,1.53-10.54,2.33-16.14c1.65-0.17,3.38-0.2,5.06-0.54c6.03-1.22,12.11-2.31,18.04-3.91
		c5.5-1.49,9.03-5.31,9.74-11.07C1139.85,104.34,1140.03,98.98,1140.38,94.21z"/>
	<path d="M1140.38,94.21c-0.35,4.77-0.52,10.13-1.18,15.43c-0.71,5.76-4.24,9.59-9.74,11.07c-5.93,1.6-12.01,2.69-18.04,3.91
		c-1.67,0.34-3.41,0.37-5.06,0.54c-0.8,5.6-1.5,10.88-2.33,16.14c-1.03,6.48-4.95,10.03-11.4,10.84
		c-9.26,1.16-18.53,2.28-28.35,3.48c-0.5,1.85-0.86,4.2-1.77,6.31c-2.08,4.76-4.05,9.64-6.77,14.03c-3.24,5.21-7.9,8.35-14.62,7.88
		c-10.87-0.76-21.78-1.1-32.88-1.63c-1.06,4.5-2.08,9.42-3.4,14.26c-1.38,5.08-4.48,8.15-10.15,8.23
		c-12.66,0.19-25.32,0.57-37.98,0.86c-1.41,0.03-2.82,0-4.24,0c-1.73,5.01-3.34,9.92-5.13,14.77c-1.79,4.84-5.22,7.42-10.55,7.01
		c-7.25-0.55-14.52-0.92-21.74-1.73c-6.1-0.68-12.15-1.88-18.23-2.86c-1.76,3.79-3.34,7.38-5.09,10.89
		c-2.07,4.16-5.4,6.17-10.09,5.13c-10.64-2.36-21.26-4.81-31.73-7.18c-2.85,3.56-5.72,7.44-8.93,11.04
		c-2.39,2.68-5.61,3.38-9.13,2.43c-5.91-1.59-11.84-3.16-18.08-4.83c-1.09,3.04-2.2,6.31-3.44,9.53
		c-12.5,32.46-34.03,57.91-61.37,78.8c-16.06,12.28-33.55,22.07-52.17,29.95c-2.19,0.93-4.16,3.16-5.44,5.26
		c-2.28,3.76-3.96,7.89-6.16,12.41c-6.44-2.42-12.72-4.78-19.28-7.24c-3.37,5.06-6.68,10.03-10.08,15.14
		c-6.01-3.22-11.69-6.25-17.57-9.4c-3.94,4.75-7.77,9.36-11.89,14.31c-5.23-3.79-10.3-7.46-15.72-11.38
		c-4.58,4.28-9.16,8.55-13.98,13.07c-3.62-3.36-7.26-6.39-10.47-9.82c-2.51-2.68-4.43-2.52-7.12-0.31
		c-3.65,3.01-7.65,5.6-11.94,8.69c-3.98-4.76-7.89-9.43-12-14.35c-5.85,3.14-11.52,6.18-17.52,9.4c-3.36-5.12-6.64-10.1-10.03-15.26
		c-6.41,2.37-12.59,4.66-19.17,7.1c-1.54-3.01-3.3-5.67-4.31-8.58c-2.03-5.85-6.08-8.78-11.73-11.15
		c-28.81-12.08-54.52-28.85-75.84-51.94c-18.36-19.89-31.55-42.68-38.46-68.97c-0.24-0.9-0.63-1.76-0.93-2.57
		c-8.46,2.1-16.66,4.38-24.97,6.13c-11.31,2.39-14.64,0.86-19.86-9.31c-1.85-3.61-3.59-4.43-7.62-3.45
		c-9.67,2.35-19.54,3.87-29.29,5.91c-9.14,1.91-15.57-1.91-18.46-10.12c-2.71-7.69-7.15-9.31-14.72-8.79
		c-9.92,0.68-19.94-0.28-29.92-0.3c-7.76-0.02-12.41-3.85-14.7-11.01c-1.01-3.16-2.06-6.31-2.78-8.5
		c-15.16-2.02-29.86-4.08-44.6-5.88c-4.84-0.59-8.22-2.94-10.77-6.86c-2.76-4.25-5.27-8.68-8.33-12.69
		c-1.34-1.75-3.63-3.44-5.74-3.84c-10.25-1.94-20.58-3.5-30.9-5.07c-3.86-0.59-5.75-2.75-6.44-6.47c-0.98-5.29-2.42-10.5-3.19-15.81
		c-0.41-2.85-1.61-3.92-4.26-4.63c-9.31-2.51-18.53-5.38-27.83-7.93c-3.66-1-5.14-3.3-5.29-6.83c-0.03-0.79-0.24-1.6-0.12-2.37
		c1.78-11.25-3.36-17.22-14.02-20.32c-6.9-2-13.28-5.81-20.13-8.91c0.77-3.89,1.49-7.58,2.24-11.27c0.75-3.7,1.53-7.4,2.38-11.47
		C27.56,57.94,17.43,52.8,7.3,47.67c-6.43-3.25-6.83-5.29-2.14-10.61c3.78-4.28,7.23-8.88,11.35-12.78c1.8-1.71,5.02-3.12,7.38-2.84
		c30.43,3.72,60.96,4.56,91.56,3.62c34.84-1.07,69.66-3.02,104.5-3.29c26.27-0.21,52.58,1.3,78.84,2.64
		c31.84,1.63,63.62,1.72,95.48,0.09c28.48-1.46,57.13-2.39,85.25,3.46c9.05,1.88,16.52,0.71,24.92-2.3
		c59.01-21.14,118.48-23.47,178.2-2.82c7.01,2.42,13.55,7.42,20.61,8.12c7.02,0.69,14.37-2.87,21.66-4.01
		c30.72-4.78,61.45-5.08,92.3-0.68c23.15,3.3,46.5,2.03,69.77,0.99c28.81-1.29,57.6-3.63,86.41-3.88
		c25.47-0.22,50.99,1.36,76.44,2.94c32.51,2.03,64.9,1.65,97.27-2.06c8.96-1.03,17.99-1.49,26.97-2.4c3.51-0.35,6.08,0.82,8.33,3.41
		c4.36,5.02,8.85,9.92,13.98,15.64c-2.1,1.97-3.75,4.38-6.03,5.52c-7.63,3.81-15.49,7.17-23.27,10.7c-1.27,0.57-2.55,1.12-3.85,1.69
		c2.01,5.88,3.94,11.53,5.86,17.18c1.31,3.86,0.46,6.78-3.6,8.37C1157.12,87.62,1148.77,90.92,1140.38,94.21z M191.67,34.3
		c33.13-1.61,65.8,1.67,97.78,10.6c18,5.03,36.27,6.79,54.93,6.81c24.87,0.03,49.74,0.91,74.59,1.71
		c15.03,0.49,29.66,3.18,42.59,11.44c12.23,7.82,14.12,18.17,5.51,29.62c-5.96,7.94-11.19,16.2-12.98,26.09
		c-0.78,4.3-0.81,8.77-0.8,13.16c0,1.14,1.2,2.84,2.23,3.23c0.74,0.28,2.37-1.02,3.2-1.96c2.42-2.72,4.49-5.75,6.99-8.39
		c2.15-2.27,2.67-4.49,2.35-7.67c-0.32-3.27,0.4-6.86,1.5-10.02c4.3-12.4,13.21-21.35,22.78-29.85
		c5.79-5.14,11.21-10.72,16.63-16.25c3.21-3.27,3.19-7.03,0.75-10.84c-5.53-8.6-12.73-14.75-23.13-16.72
		c-26.33-4.98-52.97-5.6-79.54-4.12c-36.29,2.03-72.5,1.88-108.75-0.1c-38.59-2.11-77.17-4.7-115.87-2.46
		c-18.49,1.07-37.03,1.7-55.55,1.97c-27.38,0.41-54.86,2.58-82.09-1.47c-8.45-1.26-13.19,1.76-17.15,8.29
		c-3.31,5.46-3.45,6.27,2.11,9.69c10.21,6.28,21.21,11.17,33.21,11.9c18.65,1.12,37.35,1.28,56.04,1.66
		c61.92,1.28,123.83,2.48,185.75,3.63c1.34,0.02,2.69-0.97,4.04-1.49c-1.19-1.04-2.21-2.63-3.59-3.05
		c-29.15-8.93-58.87-15.15-89.37-16.71c-17.7-0.91-35.47-0.66-53.2-1.15c-4.72-0.13-9.44-0.96-14.11-1.73
		c-0.9-0.15-2.33-1.64-2.23-2.32c0.17-1.11,1.2-2.45,2.23-2.96c1.19-0.59,2.78-0.52,4.19-0.53C165.7,34.29,178.69,34.3,191.67,34.3z
		 M736.71,141.07c1.62-3.18,3.06-5.25,3.77-7.54c2.26-7.35,0.95-14.41-2.48-21.14c-4.38-8.6-8.9-17.13-13.25-25.75
		c-5.77-11.43-3.55-18.4,7.65-24.82c10.02-5.75,21.07-7.98,32.34-8.36c20.89-0.7,41.82-0.26,62.7-1.18
		c14.02-0.62,28.14-1.88,41.93-4.41c32.25-5.9,64.46-11.84,97.21-14.05c8.2-0.55,16.47-0.34,24.69-0.09
		c1.75,0.05,3.45,1.77,5.18,2.72c-1.69,1.08-3.3,2.35-5.11,3.18c-1.09,0.5-2.49,0.36-3.75,0.47c-32.34,2.9-64.51,7-96.19,14.34
		c-2.2,0.51-4.23,1.74-6.34,2.63c0.13,0.59,0.26,1.18,0.39,1.77c1.92,0.16,3.85,0.56,5.75,0.45c10.27-0.64,20.53-1.85,30.8-2.06
		c26.45-0.55,52.9-0.7,79.36-0.99c43.25-0.47,86.49-1.31,129.74-1.15c13.7,0.05,24.95-6.18,37.03-10.51
		c0.95-0.34,2.1-2.52,1.83-3.48c-1.76-6.29-10.94-12.39-17.7-11.85c-10.42,0.83-20.81,2.13-31.23,2.72
		c-17.53,0.99-35.1,2.39-52.63,2.12c-20.72-0.33-41.41-2.54-62.13-3.42c-40.26-1.71-80.42,0.94-120.6,3.17
		c-24.19,1.34-48.43,2.97-72.6-0.37c-30.34-4.19-60.58-4.8-90.69,1.83c-10.49,2.31-21.24,3.89-30.11,10.74
		c-7.54,5.81-8.57,11.76-2.42,19.01c6.74,7.96,14.3,15.22,21.1,23.13c6.37,7.4,12.4,15.12,18.2,22.97c3.02,4.09,3.45,8.6-0.19,13.07
		c-1,1.22-1.35,4.1-0.6,5.41C730.43,133.29,733.28,136.51,736.71,141.07z M597.51,29.5c-13.69,1.36-27.47,2.14-41.04,4.26
		c-12.15,1.9-24.11,5.08-36.06,8.09c-5.59,1.41-5.67,3.3-2.79,8.1c1.57,2.62,2.86,6.39,2.21,9.15c-1.01,4.29-3.08,8.78-5.97,12.06
		c-4.67,5.3-10.31,9.77-15.66,14.46c-5.35,4.69-10.95,9.1-16.22,13.87c-2.72,2.46-5.76,6.03-2.76,9.37c2.96,3.3,6.31-0.19,9.19-1.94
		c7.42-4.51,14.53-9.66,22.29-13.48c22.58-11.11,46.63-16.59,71.77-17.85c31.74-1.59,62.55,1.91,91.87,15.01
		c15.19,6.78,28.51,16.33,41.23,26.88c1.26,1.04,3.59,0.78,5.43,1.13c0.26-2.01,1.27-4.32,0.61-5.96c-1.15-2.87-2.98-5.66-5.14-7.89
		c-7.26-7.51-14.96-14.59-22.16-22.15c-5.56-5.83-10.83-11.97-15.83-18.28c-2.79-3.53-3.61-7.57-0.26-11.72
		c3.4-4.21,3.04-5.34-1.82-7.74c-2.54-1.26-5.19-2.35-7.88-3.27C645.52,33.72,621.81,30.33,597.51,29.5z M590.06,82.11
		c-6.7,0.79-18.76,1.47-30.53,3.73c-32.33,6.21-61.21,19.58-83.59,44.4c-23.46,26.01-32.06,56.14-21.12,90.14
		c8.55,26.58,26.97,45.57,50.59,59.44c41.31,24.27,85.75,29.28,132.03,19.13c32.04-7.03,60.09-21.69,81.3-47.41
		c17.25-20.91,25.09-44.89,20.82-72.05c-3.85-24.43-16.63-43.91-35.16-59.65C673,93.18,635.81,82.92,590.06,82.11z M423.27,237.1
		c-5.07,1.32-9.38,2.28-13.58,3.58c-3.5,1.08-4.77,3.49-3.09,7c0.88,1.85,1.59,3.85,2.78,5.48c6.07,8.29,12.05,16.68,18.48,24.68
		c19.26,23.95,44.4,40.2,71.42,53.95c3.32,1.69,5.94,1.27,8.19-1.91c5.56-7.89,11.27-15.67,16.86-23.53
		c4.24-5.96,4.15-5.88-2.59-8.67c-27.22-11.22-50.47-27.54-66.99-52.43c-3.78-5.69-3.74-5.72-9.55-2.53
		c-7.27,3.98-9.74,3.54-15.96-2.14C427.52,239.02,425.14,238.17,423.27,237.1z M738.57,243.38c-0.46-0.34-0.92-0.69-1.38-1.03
		c-0.4,1.06-0.62,2.23-1.23,3.15c-1.75,2.64-3.55,5.26-5.51,7.74c-16.33,20.67-37.41,34.82-61.61,44.62
		c-5.09,2.06-5.34,2.71-2.38,7.07c5.53,8.11,11.23,16.11,16.66,24.29c2.27,3.42,4.67,3.89,8.4,2.31
		c16.14-6.86,30.91-15.97,44.85-26.52c18.63-14.1,32.32-32.48,44.72-51.93c0.89-1.4,1.48-4.72,0.95-5.03
		c-4.01-2.39-8.19-4.82-12.65-5.99c-1.65-0.43-4.6,2.11-6.22,3.95c-3.64,4.13-7.8,5.26-12.78,3.29c-2.63-1.04-5.09-2.5-7.63-3.77
		C741.37,244.8,739.97,244.09,738.57,243.38z M176.14,72.57c0-0.36,0-0.73,0-1.09c-37.68-0.55-75.36-1.09-113.04-1.66
		c-3.12-0.05-6.8-0.13-7.43,3.4c-0.49,2.73,0.67,6.03,1.92,8.69c0.77,1.64,2.93,2.88,4.74,3.73c6.01,2.81,12.1,5.46,18.26,7.94
		c1.99,0.8,4.29,1.23,6.43,1.2c6.33-0.08,12.66-0.39,18.98-0.75c66.39-3.72,132.78-7.46,199.16-11.27c2.14-0.12,4.32-0.88,6.32-1.73
		c3-1.28,7.2-2.53,6.4-6.49c-0.89-4.39-5.36-3.56-8.78-3.42c-10.91,0.43-21.82,1.32-32.73,1.38
		C242.96,72.69,209.55,72.57,176.14,72.57z M1011.49,65.73c0,0.49,0,0.98,0,1.47c-17.1,0-34.2-0.04-51.3,0.01
		c-25.02,0.08-50.03,0.12-75.04,0.49c-2.6,0.04-5.27,2.08-7.67,3.59c-0.67,0.42-0.87,2.39-0.51,3.35c0.24,0.64,1.85,1.02,2.87,1.06
		c5.35,0.22,10.72,0.09,16.06,0.45c29.06,1.96,58.1,4.29,87.17,6.01c37.92,2.23,75.89,3.75,113.8,6.1c16.2,1,31.46-2.04,46.3-7.95
		c1.55-0.62,3.44-3.15,3.34-4.67c-0.44-6.88-2.72-10.03-9.63-10C1095.09,65.83,1053.29,65.73,1011.49,65.73z M140.71,136.79
		c-0.05-0.4-0.09-0.8-0.14-1.21c-4.23,0.5-8.55,0.63-12.65,1.67c-1.61,0.41-4.05,3.13-3.81,4.31c0.9,4.28,2.29,8.81,7.33,10.22
		c13.01,3.65,26.2,6.66,39.8,4.95c16.33-2.06,32.89-3.46,48.81-7.35c36.25-8.86,72.17-19.08,108.24-28.68
		c3.53-0.94,3.98-3.01,3.15-6.05c-1.08-3.96-3.39-5.94-7.64-5.1c-4.81,0.95-9.61,2.01-14.45,2.79
		c-37.04,5.96-74.04,12.12-111.14,17.67C179.14,132.86,159.89,134.56,140.71,136.79z M325.98,101.64
		c-1.6-5.83-7.83-10.31-13.25-9.86c-6.31,0.52-12.61,1.29-18.93,1.72c-50.89,3.46-101.77,6.95-152.67,10.22
		c-15.96,1.02-31.98,1.27-47.96,2.08c-7.08,0.36-9.34,4.72-5.24,10.15c1.29,1.71,3.8,2.83,5.97,3.5c6.19,1.93,12.42,3.81,18.77,5.09
		c5.39,1.08,11.06,2.26,16.44,1.72c17.95-1.8,35.83-4.37,53.74-6.63c39.74-5,79.49-9.99,119.23-14.99
		C310.02,103.63,317.96,102.64,325.98,101.64z M1075.29,118.65c0.07,0.42,0.14,0.84,0.22,1.26c10.74-1.53,21.52-2.84,32.2-4.69
		c4.92-0.85,8.38-4.2,10.34-8.95c2.25-5.46,1.14-7.39-4.67-7.49c-9.03-0.15-18.07,0.11-27.08-0.34c-32.74-1.61-65.49-3.17-98.2-5.27
		c-32.55-2.09-65.06-4.82-97.59-7.25c-3.63-0.27-7.28-0.59-10.91-0.55c-3.14,0.03-5.13,1.98-5.08,5.11
		c0.05,3.31,2.83,2.69,4.99,2.76c1.74,0.06,3.5,0.01,5.21,0.27c16.73,2.58,33.47,5.14,50.18,7.85
		C981.48,108.89,1028.21,115.18,1075.29,118.65z M1016.34,175.52c9.12,1.25,17.19-0.02,22.49-8.59c0.32-0.52,1.06-0.79,1.36-1.31
		c0.97-1.7,1.83-3.46,2.73-5.19c-1.73-0.87-3.38-2.22-5.21-2.53c-19.19-3.26-38.59-5.48-57.57-9.66
		c-37.68-8.3-75.23-17.24-112.59-26.9c-7.69-1.99-13.17,0.28-19.16,3.1c-3.2,1.51-3.08,3.99,0.05,5.61
		c3.22,1.67,6.6,3.07,10.03,4.25c19.15,6.54,38.3,13.13,57.53,19.42C948.7,164.43,982.01,172.47,1016.34,175.52z M1046.11,148.18
		c9.54-0.99,17.42-1.75,25.28-2.64c5.9-0.67,10.43-3.39,12.87-9.09c1.96-4.57,1.01-6.57-3.98-6.98c-6.94-0.58-13.93-0.59-20.86-1.24
		c-58.02-5.45-115.59-14.15-172.96-24.21c-5.11-0.9-10.08-2.58-15.15-3.77c-2.82-0.67-6.71-1.26-7.17,2.16
		c-0.35,2.6,1.96,5.78,3.65,8.33c0.69,1.04,2.83,1.2,4.36,1.59c44.63,11.2,89.19,22.78,134.69,30.09
		C1020.41,144.6,1034.05,146.42,1046.11,148.18z M207.6,184c8.97-1.1,19.06-0.7,27.99-3.72c36.22-12.28,72.1-25.57,108.07-38.6
		c4.82-1.75,7.19-8.04,4.84-13.04c-2.14-4.56-6.2-3.33-9.95-2.35c-0.61,0.16-1.23,0.3-1.84,0.49c-17.84,5.44-35.55,11.39-53.56,16.2
		c-26.71,7.14-53.58,13.72-80.5,20.02c-8.58,2.01-17.55,2.31-26.33,3.53c-2.12,0.29-5.23-0.18-4.74,3.6
		c0.63,4.85,5.02,10.08,9.86,10.81C189.87,182.22,198.38,182.95,207.6,184z M787.28,59.88c0-0.29,0-0.58,0-0.88
		c-7.43,0.38-14.92,0.32-22.28,1.26c-8.11,1.04-16.32,2.33-24.1,4.75c-8.28,2.58-11.34,10.21-8,18.35
		c2.14,5.23,4.7,10.47,8.04,14.98c6.01,8.12,7.36,16.92,5.85,26.53c-0.34,2.19-0.99,4.4-0.85,6.57c0.12,1.84,1.27,5.19,1.77,5.16
		c3.12-0.23,6.37-0.83,9.16-2.17c0.92-0.44,1.21-3.62,0.73-5.23c-0.75-2.52-2.72-4.67-3.56-7.17c-0.45-1.35,0.36-3.12,0.6-4.7
		c1.58,0.28,3.54,0.07,4.66,0.94c1.96,1.53,3.39,3.72,5.06,5.62c2.89,3.3,5.47,3.51,8.45,0.7c2.89-2.72,2.81-5.64-0.19-8.51
		c-1.83-1.75-3.76-3.41-5.39-5.33c-1.71-2.01-3.15-4.78-0.52-6.61c1.42-0.99,4.52-0.69,6.27,0.2c3.19,1.63,5.81,4.36,8.92,6.2
		c3.15,1.87,6.44,1.87,8.77-1.56c2.51-3.67-0.93-4.96-2.94-6.7c-3.34-2.89-6.91-5.54-10.09-8.6c-0.9-0.86-1.49-3.3-0.93-4.11
		c0.8-1.14,2.86-2.04,4.28-1.93c1.94,0.15,3.97,1.09,5.64,2.18c3.31,2.16,6.37,4.69,9.58,6.99c3.86,2.77,6.59,2.47,8.95-0.84
		c2.81-3.95-0.17-5.64-2.88-7.44c-3.56-2.36-7.29-4.5-10.61-7.15c-1.16-0.92-1.33-3.08-1.95-4.68c1.7-0.49,3.53-1.63,5.07-1.33
		c2.41,0.48,4.62,1.94,6.91,3c2.57,1.2,5.04,3.01,7.73,3.44c1.85,0.29,4.8-0.75,5.85-2.2c1.7-2.35-0.2-4.36-2.55-5.61
		c-2.23-1.18-4.62-2.19-6.6-3.71c-1-0.77-2.03-2.87-1.63-3.72c0.48-1.04,2.48-1.99,3.75-1.9c1.97,0.14,3.84,1.32,5.82,1.82
		c1.78,0.45,3.98,1.32,5.39,0.68c1.85-0.85,3.09-3,4.6-4.58c-1.65-0.9-3.29-2.55-4.97-2.59C808.48,59.77,797.88,59.88,787.28,59.88z
		 M394.83,61.38c-8.07,0-16.15-0.13-24.21,0.1c-1.8,0.05-4.26,0.88-5.13,2.2c-0.76,1.14-0.32,4.27,0.72,5.12
		c1.42,1.15,4.03,1.53,5.94,1.2c2.59-0.45,4.93-2.18,7.51-2.78c1.19-0.28,2.71,0.83,4.08,1.31c-0.51,1.2-0.68,2.81-1.58,3.52
		c-2.47,1.95-5.48,3.26-7.79,5.35c-1.1,1-1.99,3.7-1.4,4.76c0.8,1.45,3.05,2.73,4.76,2.86c1.66,0.12,3.52-1.17,5.15-2.09
		c4-2.23,7.83-4.78,11.91-6.85c2.91-1.48,6.72-2.42,8.19,1.28c0.67,1.68-1.29,5.21-3.04,6.87c-3.06,2.9-6.9,4.99-10.39,7.45
		c-3.56,2.51-4.97,6.66-3,9.32c2.77,3.73,6.28,2.65,9.24,0.57c3.6-2.53,6.76-5.68,10.13-8.53c1.8-1.52,3.47-3.32,5.51-4.41
		c2.75-1.48,6.05-2.14,8.1,0.99c2.03,3.11,0.25,5.55-2.37,7.67c-4.17,3.38-8.31,6.84-12.18,10.56c-2.93,2.81-2.75,6.7,0.16,9.1
		c3.16,2.61,5.86,1.28,8.21-1.4c1.98-2.26,3.87-4.61,5.92-6.8c1.51-1.61,2.98-3.77,4.88-4.38c2.21-0.7,5.45-0.78,7.14,0.43
		c1.04,0.74,0.88,4.99-0.25,6.59c-2.43,3.44-5.97,6.07-8.79,9.27c-1.76,2-3.74,4.62-0.74,6.97c2.77,2.18,5.9,2.23,8.4-0.8
		c0.9-1.09,1.6-2.35,2.4-3.53c0.8-1.18,1.37-2.74,2.48-3.41c1.43-0.87,3.3-1.03,4.98-1.49c0.23,1.67,0.96,3.49,0.55,4.99
		c-0.57,2.08-2.37,3.82-2.94,5.9c-0.53,1.93-0.94,4.72,0.05,6.01c1.05,1.37,4.23,2.39,5.73,1.77c1.65-0.69,3.12-3.29,3.5-5.29
		c0.91-4.8,0.23-10.04,1.81-14.54c3.34-9.48,7.21-18.86,11.81-27.78c3.91-7.59,3.76-11.69-3.6-16.32c-3.7-2.33-7.85-4.12-12.01-5.48
		C428.46,62.34,411.56,62.81,394.83,61.38z M960.96,197.09c5.53-0.32,11.06-0.71,16.59-0.93c4.71-0.19,8.05-2.53,10.57-6.27
		c2.66-3.95,2.07-6.02-2.49-7.33c-3.78-1.09-7.73-1.59-11.59-2.43c-42.61-9.19-83.87-22.83-124.56-38.26
		c-5.33-2.02-9.77-1.83-14.28,1.12c-1.2,0.78-2.81,2.26-2.74,3.31c0.08,1.19,1.65,2.64,2.92,3.32c3.48,1.86,7.19,3.26,10.72,5.03
		c16.97,8.5,33.71,17.48,50.9,25.48C917.24,189.55,937.52,199.42,960.96,197.09z M263.7,204.87c9.38,0.54,18.14-1.22,26.55-5.68
		c23.18-12.3,46.54-24.28,69.79-36.45c3.07-1.61,6.15-3.35,8.83-5.53c1.64-1.33,3.88-4.13,3.42-5.33c-0.73-1.9-3.3-3.68-5.46-4.35
		c-7.87-2.44-15.18-0.39-22.31,3.36c-29.52,15.53-61.05,25.9-92.73,35.86c-5.72,1.8-11.59,3.18-17.24,5.17
		c-4.28,1.51-4.85,4.3-1.27,6.88c2.96,2.13,6.54,4.06,10.07,4.61C250.05,204.46,256.91,204.44,263.7,204.87z M397.34,166.6
		c-8.11-3.63-15.21-5.89-22.63-1.84c-27.36,14.91-54.65,29.92-81.92,44.99c-6.13,3.39-6.09,6.74,0.05,10.41
		c1.66,0.99,3.87,1.54,5.81,1.51c4.73-0.09,9.51-0.32,14.18-1.08c10.79-1.75,21.19-4.08,30.18-11.37
		c16.1-13.04,32.81-25.33,49.24-37.97C393.71,170.13,394.99,168.76,397.34,166.6z M919.48,217.58c4.91,0.84,8.74-0.49,12-3.78
		c4.63-4.68,4.03-6.93-1.95-9.39c-16.94-6.98-34.08-13.59-50.6-21.48c-17.82-8.51-35.04-18.29-52.49-27.57
		c-4.66-2.48-7.42-1.95-10.19,2.57c-2.83,4.64,1.66,5.64,4.07,7.4c4.22,3.06,8.7,5.76,12.98,8.73c13.64,9.49,27.19,19.1,40.86,28.55
		C887.89,212.1,902.85,217.99,919.48,217.58z M869.95,228.37c5.85,0.09,12.13-3.08,12.36-5.74c0.38-4.48-3.88-5.18-6.52-7.16
		c-0.5-0.38-1.11-0.61-1.65-0.94c-22.64-14.02-44.37-29.29-64.51-46.77c-2.1-1.82-4.63-3.52-7.24-4.22c-1.59-0.42-5,0.77-5.37,1.94
		c-1.25,3.98-5.43,7.36-3.12,12.19c0.23,0.48,1.03,0.69,1.55,1.05c3.07,2.16,6.42,4.01,9.15,6.54c9.76,9.04,19.86,17.81,28.79,27.62
		C843.89,224.42,858.1,225.25,869.95,228.37z M354.17,229.5c11.56-1.99,24.3-3.03,33.53-13.5c3.86-4.38,8.41-8.13,12.55-12.27
		c6.49-6.48,13.08-12.89,19.22-19.69c1.4-1.55,1.78-4.73,1.38-6.93c-0.28-1.55-20.14-1.76-21.76-0.48c-0.12,0.1-0.23,0.21-0.36,0.31
		c-16.96,13.71-33.97,27.34-50.8,41.21c-2.07,1.7-3.11,4.64-4.63,7.01c2.68,1.39,5.35,2.82,8.06,4.14
		C351.9,229.54,352.62,229.4,354.17,229.5z M588.94,15.41c-9.26,1.07-26.02,2.34-42.51,5.15c-12.41,2.12-24.5,6.12-36.67,9.49
		c-2.96,0.82-5.38,3.09-3.94,6.4c1.43,3.29,4.53,2.66,7.38,1.53c22.78-9.01,46.63-12.67,70.91-14.03
		c34.64-1.95,68.07,4.11,100.67,15.51c3.16,1.11,7.16,3.51,8.92-1.29c1.81-4.94-3.04-5.52-6.07-6.62
		C658.18,20.85,627.7,15.96,588.94,15.41z M826.5,234.71c1.94-1,4.91-2.53,7.87-4.05c-1.49-2.58-2.97-5.16-4.48-7.72
		c-0.15-0.26-0.47-0.42-0.69-0.64c-13.91-13.59-27.69-27.31-41.82-40.67c-2.97-2.81-7-4.96-10.92-6.07c-1.77-0.5-5.02,1.83-6.6,3.71
		c-1.84,2.2-0.58,4.59,1.68,6.51c2.5,2.12,4.88,4.47,6.87,7.06c7.51,9.78,14.82,19.71,22.24,29.57
		C806.75,230.5,815.59,233.05,826.5,234.71z M438.99,182.97c-4.84-2-8.5,0.21-11.56,3.34c-4.09,4.18-7.77,8.76-11.69,13.11
		c-7.63,8.47-15.4,16.82-22.87,25.43c-1.49,1.71-1.88,4.37-2.78,6.59c2.55,0.91,5.14,2.65,7.65,2.56c5.5-0.21,10.96-1.45,16.46-2.1
		c4.5-0.54,7.54-2.78,9.5-6.85c3.58-7.4,6.78-15.07,11.14-21.99C438.85,196.67,439.21,190.07,438.99,182.97z M791.98,237.07
		c0.54-0.22,3.21-0.55,3.56-1.62c0.49-1.53-0.53-3.7-1.31-5.41c-0.64-1.4-1.9-2.51-2.84-3.79c-8.33-11.36-16.89-22.56-24.83-34.19
		c-2.9-4.25-6.36-6.28-11.11-7.04c-2.43-0.39-3.46,0.25-3.53,2.88c-0.16,6.88,0.16,13.39,4.74,19.28c3.07,3.95,5.51,8.56,7.45,13.19
		C769.12,232.29,778.98,235.98,791.98,237.07z M658.83,356.49c-0.04-0.52,0.07-1.37-0.2-2.08c-5.7-14.91-11.27-29.87-17.28-44.65
		c-2.04-5.02-6.46-1.65-9.6-1.06c-1,0.19-2.29,3.9-1.9,5.67c2.6,12.06,5.59,24.03,8.5,36.02c0.75,3.07,1.45,6.19,2.62,9.1
		c1.47,3.65,7.94,7.02,11.39,6.32C655.67,365.13,658.75,360.83,658.83,356.49z M684.77,351.24c-0.25-0.34-0.51-0.68-0.76-1.01
		c-0.66-2.09-1.01-4.34-2.02-6.25c-6.65-12.58-13.32-25.15-20.25-37.58c-2.75-4.93-5.09-5.3-10.72-2.3c-3.75,2-1.89,5.18-0.92,7.82
		c4.72,12.91,9.57,25.78,14.42,38.65c0.55,1.47,1.25,2.93,2.15,4.21c2.06,2.93,8.82,5.79,11.36,4.06
		C680.74,356.99,682.56,353.83,684.77,351.24z M610.28,319.49c0.35,5.45,0.61,9.55,0.89,13.66c0.64,9.31,1.15,18.64,1.98,27.94
		c0.42,4.72,6.27,9.64,10.46,9.33c4.17-0.31,7.7-5.15,7.58-10.51c-0.04-1.57-0.21-3.16-0.51-4.71c-1.52-7.92-3.02-15.84-4.67-23.73
		c-1.2-5.71-2.46-11.42-3.99-17.06c-1.04-3.82-3.92-4.21-7.51-3.65c-3.69,0.57-4,3.04-4.2,5.79
		C610.19,317.98,610.28,319.41,610.28,319.49z M563.23,313.64c-1.11-1.45-2.19-4.15-4.11-5.08c-3.38-1.63-6.8-1.07-8.45,3.2
		c-1.14,2.95-2.49,5.81-3.68,8.74c-4.35,10.69-8.81,21.34-12.95,32.12c-1.71,4.45,1.49,11.34,5.43,12.88
		c3.96,1.55,9.28-1.17,11.28-6.28c1.61-4.1,2.72-8.42,3.86-12.69C557.44,336,560.15,325.43,563.23,313.64z M604.74,355.92
		c-0.48-6.73-0.92-13.67-1.48-20.6c-0.5-6.14-0.93-12.3-1.77-18.4c-0.47-3.38-2.23-5.57-6.44-5.3c-3.24,0.21-5.38,1.2-5.6,4.37
		c-1.05,15.29-2.09,30.59-2.74,45.9c-0.2,4.67,5.8,10.18,9.79,9.99c4.25-0.2,7.92-4.66,8.22-10.06
		C604.82,359.92,604.74,358.02,604.74,355.92z M581.8,320.47c0-1.11,0.03-2.21-0.01-3.32c-0.13-3.61-0.91-6.07-5.53-6.51
		c-4.46-0.42-6.03,1.4-6.85,5.1c-0.78,3.54-1.66,7.06-2.43,10.6c-2.29,10.48-4.62,20.95-6.79,31.45c-1.04,5.03,1.67,8.85,5.6,11.05
		c1.93,1.08,5.46,0.47,7.75-0.55c4.3-1.92,4.77-6.5,5.16-10.54C579.9,345.35,580.8,332.91,581.8,320.47z M516.41,357.78
		c3.67,0.04,6.74-2.11,8.43-5.83c6.02-13.25,11.98-26.52,17.65-39.92c1.03-2.43,2.38-5.94-1.6-7.73c-5.64-2.54-6.76-2.29-9.78,2.58
		c-7.09,11.44-14.1,22.93-21.1,34.42c-0.82,1.34-1.56,2.79-2,4.29C506.42,351.15,510.76,357.85,516.41,357.78z M500.12,346.18
		c0.29-0.6,0.58-1.2,0.87-1.81c-1.47-1-2.85-2.18-4.42-2.97c-5.08-2.56-10.33-4.8-15.33-7.5c-34.45-18.61-61.72-44.43-79.76-79.52
		c-1.37-2.67-2.81-5.32-4.47-7.81c-0.47-0.71-1.82-0.85-2.76-1.25c-0.38,0.94-1.17,1.95-1.04,2.82c0.22,1.52,0.83,3.06,1.6,4.4
		c2.76,4.8,5.61,9.54,8.5,14.27c21.46,35.12,51.01,60.88,89.03,76.81C494.85,344.68,497.52,345.34,500.12,346.18z M348.41,115.5
		c2.39-0.49,4.08-0.49,5.45-1.16c7.52-3.65,15.04-7.32,22.39-11.29c2.85-1.54,2.85-4.35,1.25-7.02c-2.26-3.79-7.09-6.04-11.37-4.72
		c-8.14,2.52-16.24,5.2-24.21,8.22c-5.59,2.12-6.39,9.02-1.47,12.48C342.95,113.75,346.13,114.53,348.41,115.5z M690.54,344.43
		c0.3,0.63,0.59,1.27,0.89,1.9c1.58-0.34,3.27-0.44,4.73-1.06c4.37-1.85,8.73-3.74,12.95-5.9c38.4-19.64,67.77-48.35,87-87.12
		c0.69-1.38,0.32-3.29,0.44-4.95c-1.23,1-2.82,1.78-3.64,3.05c-3.61,5.58-7.01,11.29-10.47,16.97
		c-13.99,22.92-31.74,42.31-54.71,56.4c-10.22,6.27-21.15,11.37-31.72,17.07C694.08,341.82,692.36,343.21,690.54,344.43z
		 M824.97,135.7c2.71-0.88,5.77-1.35,8.29-2.79c5.76-3.29,5.58-8.05-0.3-10.99c-7.49-3.74-15.11-7.21-22.62-10.89
		c-4.58-2.24-8.69-0.99-12.43,1.72c-4.02,2.91-3.8,6.45,0.42,8.93c6.94,4.09,13.93,8.11,20.97,12.03
		C820.89,134.62,822.8,134.96,824.97,135.7z M368.47,137.02c1.38-0.63,3.97-1.39,6.09-2.84c6.5-4.43,12.82-9.14,19.23-13.71
		c2.24-1.6,3.28-3.41,1.38-5.95c-2.59-3.46-10.42-5.81-14.21-3.68c-7.56,4.25-15.05,8.69-22.21,13.56
		c-1.51,1.03-2.43,4.41-2.07,6.44C357.69,136.59,362.84,136.2,368.47,137.02z M403.6,125.35c-0.98,0.45-3.33,1.05-5.06,2.43
		c-4.68,3.73-9.22,7.68-13.59,11.78c-2.97,2.79-7.43,5.33-4.46,10.56c2.31,4.08,7.28,4.95,13.15,2.48c1.71-0.72,3.33-1.82,4.74-3.04
		c4.52-3.94,9.14-7.81,13.27-12.14c1.88-1.96,4.36-5.76,3.62-7.25c-1.1-2.2-4.8-3.17-7.47-4.49
		C407.01,125.31,405.93,125.51,403.6,125.35z M858.37,92.43c5.75-0.64,8.02-2.12,8.72-6.18c0.88-5.17-2.51-6.58-6.47-7.56
		c-1.38-0.34-2.74-0.8-4.13-1.05c-8.4-1.47-16.8-3.01-25.23-4.28c-3.7-0.55-6.01,1.53-6.87,5.08c-0.79,3.25,0.29,5.75,3.67,6.6
		C838.13,87.58,848.26,89.98,858.37,92.43z M785.3,125.35c-0.09,0.27-0.18,0.54-0.28,0.8c-0.47,0.04-1.01-0.06-1.41,0.13
		c-2.25,1.06-5.36,1.62-6.5,3.42c-1.86,2.93,0.84,5.2,3.09,7.06c4.39,3.63,8.92,7.1,13.14,10.92c4.01,3.63,8.76,4.69,13.66,3.67
		c2.58-0.54,5.76-2.5,6.78-4.69c0.63-1.36-1.79-5.02-3.72-6.51c-5.73-4.45-11.82-8.48-17.95-12.39
		C790.14,126.5,787.59,126.13,785.3,125.35z M843.98,115.23c0.12-0.32,0.24-0.63,0.35-0.95c0.79,0,1.58-0.03,2.37,0
		c4.2,0.16,7.13-1.82,8.11-5.79c1.05-4.23-2.61-5.45-5.46-6.45c-8.16-2.86-16.36-5.71-24.73-7.84c-2.64-0.67-6.22,0.28-8.72,1.66
		c-4.58,2.52-4.19,5.5,0.52,7.69c5.28,2.46,10.52,5.01,15.87,7.31C836.11,112.51,840.08,113.79,843.98,115.23z M333.27,91.37
		c2.13,0,2.97,0.19,3.69-0.03c8.91-2.68,17.86-5.23,26.66-8.22c3.68-1.25,4.08-4.07,1.72-7.17c-2.21-2.9-5.09-3.35-8.47-2.55
		c-5.53,1.31-11.08,2.52-16.64,3.65c-3.87,0.79-7.8,1.26-11.65,2.08c-2.96,0.63-5.89,2.19-5.3,5.53c0.34,1.92,2.63,3.88,4.52,5.03
		C329.74,90.88,332.26,91.09,333.27,91.37z M765.9,138.41c-0.08,0.22-0.16,0.44-0.24,0.66c-0.95,0-2.05-0.31-2.81,0.06
		c-2.02,1-4.49,1.92-5.57,3.63c-0.51,0.8,1.58,3.52,2.83,5.09c2.64,3.32,5.69,6.32,8.22,9.71c3.49,4.69,7.91,8.01,13.67,8.34
		c2.32,0.13,5.53-1.58,6.91-3.49c0.89-1.23-0.14-4.95-1.5-6.49c-4.6-5.18-9.59-10.05-14.76-14.67
		C770.92,139.72,768.18,139.33,765.9,138.41z M425.33,138.84c-1.17,0.47-3.31,0.71-4.5,1.9c-5.34,5.35-10.54,10.84-15.5,16.53
		c-2.45,2.82-1.61,5.48,1.73,7.35c5.25,2.96,11.07,1.46,14.94-3.67c3.58-4.76,7.35-9.38,11.11-13.99c2.37-2.91,1.68-5.73-1.95-6.9
		C429.51,139.53,427.77,139.34,425.33,138.84z M752.04,180.58c3.44-2.21,6.58-4.11,9.59-6.21c3.77-2.63,4.28-5.87,1.66-9.75
		c-3.18-4.71-5.65-10.02-9.43-14.16c-2.28-2.5-6.32-3.85-9.81-4.63c-2.63-0.59-3.9,1.43-2.52,4.31c1.65,3.41,3.4,6.81,4.59,10.39
		C748.21,166.78,749.88,173.16,752.04,180.58z M873.88,60.76c0.16-2.8-0.21-5.23-3.89-4.98c-11,0.74-22.01,1.36-32.98,2.43
		c-1.67,0.16-3.13,2.45-4.69,3.76c1.66,1.22,3.15,2.89,5.01,3.54c2.18,0.76,4.67,0.59,7.01,0.89c6.38,0.83,12.81,1.46,19.13,2.61
		C870.97,70.37,873.61,68.47,873.88,60.76z M761.31,236.75c-2.15-7.88-4.24-15.77-6.53-23.61c-0.3-1.03-1.6-1.76-2.44-2.64
		c-0.83,1.01-2.03,1.88-2.44,3.04c-2.03,5.63-3.57,11.45-5.8,17c-3.39,8.45-3.3,8.96,5.56,11.86c1.05,0.34,2.12,0.66,3.2,0.88
		C758.55,244.44,760.43,242.86,761.31,236.75z M336.91,58.99c0,0.05-0.01,0.1-0.01,0.15c-2.36-0.15-4.72-0.36-7.08-0.45
		c-2.52-0.1-5.09-0.4-7.55-0.03c-1.37,0.21-3.41,1.4-3.69,2.52c-1.1,4.28,3.47,9.49,7.85,9c9.38-1.06,18.75-2.29,28.08-3.75
		c1.71-0.27,3.21-1.95,4.8-2.98c-1.64-1.18-3.18-3.18-4.94-3.39C348.59,59.36,342.74,59.3,336.91,58.99z M438.9,177.7
		c4.16-11.3,7.93-21.56,11.7-31.82c-3.8-1.3-7.44-0.45-9.63,2.55c-4.72,6.45-9.41,12.92-14.13,19.36c-1.42,1.94-1.9,3.92,0.62,5.11
		C431.24,174.71,435.2,176.17,438.9,177.7z M448,235.29c-3.23-10.37-6.2-19.94-9.38-30.15c-0.98,1.81-2.07,3.17-2.52,4.73
		c-1.7,5.9-3.59,11.79-4.66,17.82c-1.51,8.47,2.21,11.67,10.7,9.72C444.24,236.92,446.22,235.94,448,235.29z"/>
	<path class="st0" d="M191.67,34.3c-12.99,0-25.97-0.01-38.96,0.02c-1.42,0-3-0.07-4.19,0.53c-1.03,0.51-2.06,1.86-2.23,2.96
		c-0.1,0.68,1.32,2.17,2.23,2.32c4.67,0.77,9.39,1.6,14.11,1.73c17.73,0.49,35.49,0.24,53.2,1.15c30.49,1.57,60.21,7.78,89.37,16.71
		c1.38,0.42,2.4,2.01,3.59,3.05c-1.35,0.52-2.7,1.52-4.04,1.49c-61.92-1.15-123.84-2.36-185.75-3.63
		c-18.69-0.39-37.39-0.54-56.04-1.66c-12-0.72-23.01-5.62-33.21-11.9c-5.57-3.42-5.42-4.23-2.11-9.69c3.96-6.53,8.7-9.55,17.15-8.29
		c27.24,4.04,54.71,1.87,82.09,1.47c18.52-0.27,37.06-0.9,55.55-1.97c38.7-2.24,77.28,0.36,115.87,2.46
		c36.26,1.98,72.47,2.13,108.75,0.1c26.57-1.49,53.2-0.87,79.54,4.12c10.4,1.97,17.61,8.12,23.13,16.72
		c2.45,3.81,2.46,7.57-0.75,10.84c-5.43,5.53-10.84,11.11-16.63,16.25c-9.57,8.5-18.48,17.45-22.78,29.85
		c-1.1,3.16-1.82,6.75-1.5,10.02c0.32,3.18-0.2,5.4-2.35,7.67c-2.5,2.64-4.57,5.67-6.99,8.39c-0.84,0.94-2.46,2.23-3.2,1.96
		c-1.04-0.38-2.23-2.09-2.23-3.23c0-4.39,0.02-8.86,0.8-13.16c1.8-9.89,7.02-18.15,12.98-26.09c8.61-11.46,6.72-21.8-5.51-29.62
		C448.64,56.6,434,53.91,418.97,53.43c-24.86-0.8-49.73-1.69-74.59-1.71c-18.66-0.02-36.93-1.78-54.93-6.81
		C257.48,35.98,224.8,32.69,191.67,34.3z"/>
	<path class="st0" d="M736.71,141.07c-3.43-4.56-6.28-7.78-8.39-11.43c-0.76-1.31-0.4-4.19,0.6-5.41c3.65-4.48,3.21-8.98,0.19-13.07
		c-5.8-7.86-11.83-15.57-18.2-22.97c-6.8-7.91-14.36-15.17-21.1-23.13c-6.14-7.25-5.11-13.2,2.42-19.01
		c8.87-6.84,19.62-8.42,30.11-10.74c30.11-6.64,60.36-6.02,90.69-1.83c24.17,3.33,48.41,1.71,72.6,0.37
		c40.18-2.23,80.34-4.88,120.6-3.17c20.72,0.88,41.41,3.1,62.13,3.42c17.53,0.28,35.1-1.13,52.63-2.12
		c10.43-0.59,20.82-1.88,31.23-2.72c6.76-0.54,15.94,5.55,17.7,11.85c0.27,0.96-0.88,3.14-1.83,3.48
		c-12.09,4.33-23.33,10.56-37.03,10.51c-43.24-0.15-86.49,0.68-129.74,1.15c-26.45,0.29-52.91,0.44-79.36,0.99
		c-10.28,0.22-20.53,1.42-30.8,2.06c-1.9,0.12-3.83-0.28-5.75-0.45c-0.13-0.59-0.26-1.18-0.39-1.77c2.11-0.9,4.14-2.12,6.34-2.63
		c31.68-7.34,63.85-11.44,96.19-14.34c1.26-0.11,2.66,0.03,3.75-0.47c1.81-0.83,3.42-2.1,5.11-3.18c-1.72-0.95-3.42-2.67-5.18-2.72
		c-8.22-0.25-16.49-0.46-24.69,0.09c-32.75,2.21-64.97,8.15-97.21,14.05c-13.79,2.52-27.91,3.79-41.93,4.41
		c-20.88,0.92-41.81,0.48-62.7,1.18c-11.27,0.38-22.32,2.61-32.34,8.36c-11.2,6.43-13.41,13.4-7.65,24.82
		c4.35,8.62,8.87,17.15,13.25,25.75c3.43,6.72,4.74,13.78,2.48,21.14C739.77,135.82,738.33,137.88,736.71,141.07z"/>
	<path class="st0" d="M597.51,29.5c24.31,0.83,48.01,4.22,71,12.07c2.69,0.92,5.33,2.01,7.88,3.27c4.85,2.4,5.22,3.53,1.82,7.74
		c-3.35,4.15-2.53,8.19,0.26,11.72c5,6.32,10.27,12.45,15.83,18.28c7.2,7.56,14.9,14.64,22.16,22.15c2.16,2.23,3.99,5.02,5.14,7.89
		c0.66,1.64-0.35,3.95-0.61,5.96c-1.83-0.35-4.17-0.09-5.43-1.13c-12.72-10.55-26.04-20.09-41.23-26.88
		c-29.32-13.1-60.12-16.6-91.87-15.01c-25.14,1.26-49.19,6.74-71.77,17.85c-7.76,3.82-14.86,8.97-22.29,13.48
		c-2.88,1.75-6.23,5.24-9.19,1.94c-3-3.34,0.05-6.91,2.76-9.37c5.27-4.77,10.87-9.18,16.22-13.87c5.35-4.69,10.99-9.15,15.66-14.46
		c2.89-3.28,4.96-7.77,5.97-12.06c0.65-2.76-0.64-6.52-2.21-9.15c-2.88-4.81-2.79-6.7,2.79-8.1c11.95-3.01,23.91-6.19,36.06-8.09
		C570.03,31.64,583.82,30.86,597.51,29.5z"/>
	<path class="st0" d="M590.06,82.11c45.75,0.81,82.94,11.07,114.32,37.73c18.54,15.74,31.32,35.23,35.16,59.65
		c4.28,27.16-3.57,51.13-20.82,72.05c-21.22,25.72-49.26,40.38-81.3,47.41c-46.28,10.15-90.72,5.13-132.03-19.13
		c-23.61-13.87-42.04-32.86-50.59-59.44c-10.94-34-2.34-64.12,21.12-90.14c22.39-24.82,51.27-38.19,83.59-44.4
		C571.29,83.58,583.36,82.9,590.06,82.11z M596.94,88.79c-17.7,0.25-33.55,2.05-49.04,6.42c-27.41,7.73-51.59,20.81-70.19,42.9
		c-26.99,32.08-27.86,73.82-2.3,106.99c10.21,13.24,22.89,23.66,37.53,31.59c37.63,20.38,77.69,24.96,119.24,16.75
		c29.85-5.9,56.47-18.64,77.41-41.37c18.94-20.57,28.04-44.64,23.24-72.77c-4-23.44-16.93-41.73-35.05-56.42
		C667.95,98.68,633.01,89.44,596.94,88.79z"/>
	<path class="st0" d="M423.27,237.1c1.87,1.06,4.25,1.91,5.96,3.48c6.21,5.68,8.69,6.12,15.96,2.14c5.81-3.18,5.77-3.16,9.55,2.53
		c16.52,24.89,39.77,41.21,66.99,52.43c6.75,2.78,6.83,2.71,2.59,8.67c-5.59,7.86-11.3,15.65-16.86,23.53
		c-2.24,3.18-4.87,3.6-8.19,1.91c-27.01-13.74-52.16-30-71.42-53.95c-6.44-8.01-12.41-16.39-18.48-24.68
		c-1.19-1.63-1.9-3.63-2.78-5.48c-1.68-3.52-0.4-5.92,3.09-7C413.89,239.39,418.2,238.42,423.27,237.1z"/>
	<path class="st0" d="M738.57,243.38c1.4,0.71,2.8,1.42,4.2,2.12c2.54,1.27,5,2.73,7.63,3.77c4.98,1.97,9.13,0.85,12.78-3.29
		c1.62-1.84,4.57-4.38,6.22-3.95c4.46,1.17,8.64,3.6,12.65,5.99c0.53,0.32-0.06,3.63-0.95,5.03c-12.4,19.45-26.09,37.83-44.72,51.93
		c-13.94,10.55-28.71,19.66-44.85,26.52c-3.73,1.58-6.13,1.12-8.4-2.31c-5.43-8.18-11.13-16.18-16.66-24.29
		c-2.97-4.35-2.71-5.01,2.38-7.07c24.21-9.81,45.28-23.95,61.61-44.62c1.96-2.48,3.76-5.1,5.51-7.74c0.61-0.92,0.83-2.09,1.23-3.15
		C737.65,242.69,738.11,243.04,738.57,243.38z"/>
	<path class="st0" d="M176.14,72.57c33.41,0,66.82,0.12,100.22-0.07c10.91-0.06,21.82-0.95,32.73-1.38
		c3.42-0.14,7.89-0.96,8.78,3.42c0.8,3.96-3.4,5.21-6.4,6.49c-2,0.85-4.18,1.6-6.32,1.73c-66.38,3.81-132.77,7.54-199.16,11.27
		c-6.32,0.35-12.65,0.67-18.98,0.75c-2.15,0.03-4.44-0.4-6.43-1.2c-6.16-2.47-12.25-5.13-18.26-7.94c-1.81-0.84-3.97-2.09-4.74-3.73
		c-1.25-2.66-2.41-5.96-1.92-8.69c0.63-3.53,4.31-3.45,7.43-3.4c37.68,0.58,75.36,1.11,113.04,1.66
		C176.14,71.85,176.14,72.21,176.14,72.57z"/>
	<path class="st0" d="M1011.49,65.73c41.8,0,83.6,0.1,125.4-0.1c6.91-0.03,9.19,3.12,9.63,10c0.1,1.52-1.79,4.05-3.34,4.67
		c-14.84,5.9-30.09,8.95-46.3,7.95c-37.92-2.35-75.88-3.86-113.8-6.1c-29.07-1.71-58.11-4.04-87.17-6.01
		c-5.34-0.36-10.71-0.23-16.06-0.45c-1.02-0.04-2.63-0.42-2.87-1.06c-0.36-0.96-0.16-2.93,0.51-3.35c2.4-1.5,5.07-3.55,7.67-3.59
		c25.01-0.38,50.03-0.42,75.04-0.49c17.1-0.05,34.2-0.01,51.3-0.01C1011.49,66.71,1011.49,66.22,1011.49,65.73z"/>
	<path class="st0" d="M140.71,136.79c19.18-2.22,38.43-3.93,57.52-6.78c37.1-5.54,74.11-11.71,111.14-17.67
		c4.84-0.78,9.63-1.84,14.45-2.79c4.25-0.84,6.56,1.14,7.64,5.1c0.83,3.04,0.38,5.11-3.15,6.05c-36.07,9.6-71.99,19.82-108.24,28.68
		c-15.92,3.89-32.48,5.29-48.81,7.35c-13.6,1.71-26.79-1.3-39.8-4.95c-5.04-1.41-6.43-5.94-7.33-10.22
		c-0.25-1.18,2.19-3.9,3.81-4.31c4.09-1.04,8.42-1.17,12.65-1.67C140.62,135.98,140.66,136.39,140.71,136.79z"/>
	<path class="st0" d="M325.98,101.64c-8.01,1-15.96,1.99-23.9,2.99c-39.74,4.99-79.49,9.99-119.23,14.99
		c-17.91,2.25-35.78,4.82-53.74,6.63c-5.38,0.54-11.04-0.63-16.44-1.72c-6.34-1.27-12.58-3.16-18.77-5.09
		c-2.17-0.68-4.68-1.79-5.97-3.5c-4.1-5.44-1.85-9.79,5.24-10.15c15.98-0.81,31.99-1.05,47.96-2.08
		c50.9-3.26,101.78-6.76,152.67-10.22c6.32-0.43,12.61-1.19,18.93-1.72C318.15,91.33,324.38,95.81,325.98,101.64z"/>
	<path class="st0" d="M1075.29,118.65c-47.07-3.47-93.8-9.76-140.38-17.29c-16.71-2.7-33.45-5.27-50.18-7.85
		c-1.71-0.26-3.47-0.22-5.21-0.27c-2.16-0.07-4.93,0.56-4.99-2.76c-0.05-3.13,1.94-5.07,5.08-5.11c3.63-0.04,7.28,0.28,10.91,0.55
		c32.53,2.43,65.04,5.16,97.59,7.25c32.71,2.1,65.46,3.66,98.2,5.27c9.01,0.44,18.05,0.18,27.08,0.34c5.8,0.1,6.92,2.03,4.67,7.49
		c-1.96,4.75-5.42,8.09-10.34,8.95c-10.68,1.85-21.46,3.16-32.2,4.69C1075.43,119.49,1075.36,119.07,1075.29,118.65z"/>
	<path class="st0" d="M1016.34,175.52c-34.32-3.06-67.63-11.1-100.34-21.8c-19.24-6.29-38.38-12.88-57.53-19.42
		c-3.43-1.17-6.82-2.58-10.03-4.25c-3.13-1.62-3.24-4.11-0.05-5.61c6-2.83,11.47-5.09,19.16-3.1c37.35,9.65,74.91,18.6,112.59,26.9
		c18.98,4.18,38.39,6.41,57.57,9.66c1.83,0.31,3.48,1.66,5.21,2.53c-0.9,1.74-1.76,3.5-2.73,5.19c-0.3,0.52-1.03,0.79-1.36,1.31
		C1033.52,175.5,1025.46,176.78,1016.34,175.52z"/>
	<path class="st0" d="M1046.11,148.18c-12.06-1.76-25.7-3.59-39.28-5.77c-45.5-7.31-90.05-18.89-134.69-30.09
		c-1.53-0.38-3.67-0.55-4.36-1.59c-1.69-2.55-4-5.73-3.65-8.33c0.46-3.42,4.35-2.83,7.17-2.16c5.07,1.2,10.04,2.88,15.15,3.77
		c57.37,10.06,114.94,18.77,172.96,24.21c6.93,0.65,13.92,0.67,20.86,1.24c4.99,0.42,5.94,2.41,3.98,6.98
		c-2.45,5.69-6.97,8.41-12.87,9.09C1063.53,146.44,1055.65,147.19,1046.11,148.18z"/>
	<path class="st0" d="M207.6,184c-9.22-1.05-17.73-1.78-26.16-3.06c-4.84-0.73-9.23-5.96-9.86-10.81c-0.49-3.78,2.63-3.31,4.74-3.6
		c8.77-1.21,17.75-1.52,26.33-3.53c26.92-6.3,53.79-12.88,80.5-20.02c18.01-4.82,35.71-10.77,53.56-16.2
		c0.61-0.18,1.22-0.33,1.84-0.49c3.75-0.98,7.81-2.21,9.95,2.35c2.35,5-0.02,11.3-4.84,13.04c-35.97,13.02-71.84,26.32-108.07,38.6
		C226.66,183.31,216.57,182.9,207.6,184z"/>
	<path class="st0" d="M787.28,59.88c10.6,0,21.2-0.12,31.8,0.12c1.67,0.04,3.31,1.69,4.97,2.59c-1.51,1.59-2.75,3.74-4.6,4.58
		c-1.41,0.64-3.61-0.23-5.39-0.68c-1.97-0.5-3.85-1.68-5.82-1.82c-1.27-0.09-3.27,0.86-3.75,1.9c-0.39,0.85,0.63,2.96,1.63,3.72
		c1.98,1.52,4.36,2.53,6.6,3.71c2.35,1.24,4.25,3.26,2.55,5.61c-1.05,1.46-4,2.5-5.85,2.2c-2.69-0.43-5.16-2.24-7.73-3.44
		c-2.29-1.07-4.5-2.52-6.91-3c-1.54-0.31-3.37,0.83-5.07,1.33c0.62,1.6,0.79,3.76,1.95,4.68c3.32,2.65,7.05,4.79,10.61,7.15
		c2.71,1.79,5.7,3.49,2.88,7.44c-2.36,3.32-5.09,3.61-8.95,0.84c-3.21-2.31-6.27-4.84-9.58-6.99c-1.67-1.09-3.7-2.03-5.64-2.18
		c-1.43-0.11-3.48,0.79-4.28,1.93c-0.57,0.8,0.03,3.25,0.93,4.11c3.18,3.06,6.75,5.71,10.09,8.6c2.01,1.74,5.45,3.02,2.94,6.7
		c-2.34,3.43-5.62,3.42-8.77,1.56c-3.11-1.84-5.72-4.57-8.92-6.2c-1.75-0.89-4.85-1.18-6.27-0.2c-2.63,1.83-1.19,4.6,0.52,6.61
		c1.63,1.92,3.57,3.58,5.39,5.33c3,2.88,3.08,5.79,0.19,8.51c-2.98,2.81-5.56,2.6-8.45-0.7c-1.67-1.9-3.1-4.1-5.06-5.62
		c-1.12-0.87-3.08-0.66-4.66-0.94c-0.24,1.58-1.05,3.35-0.6,4.7c0.85,2.51,2.81,4.65,3.56,7.17c0.48,1.61,0.19,4.79-0.73,5.23
		c-2.79,1.34-6.04,1.94-9.16,2.17c-0.5,0.04-1.65-3.32-1.77-5.16c-0.14-2.16,0.51-4.38,0.85-6.57c1.51-9.61,0.16-18.41-5.85-26.53
		c-3.34-4.52-5.9-9.75-8.04-14.98c-3.34-8.14-0.28-15.77,8-18.35c7.78-2.42,15.99-3.71,24.1-4.75c7.36-0.94,14.85-0.88,22.28-1.26
		C787.28,59.3,787.28,59.59,787.28,59.88z"/>
	<path class="st0" d="M394.83,61.38c16.72,1.43,33.62,0.96,49.81,6.26c4.16,1.36,8.32,3.15,12.01,5.48
		c7.36,4.63,7.51,8.73,3.6,16.32c-4.6,8.93-8.47,18.3-11.81,27.78c-1.58,4.5-0.91,9.74-1.81,14.54c-0.38,1.99-1.84,4.6-3.5,5.29
		c-1.5,0.62-4.68-0.4-5.73-1.77c-0.99-1.29-0.58-4.08-0.05-6.01c0.57-2.08,2.37-3.82,2.94-5.9c0.41-1.5-0.33-3.31-0.55-4.99
		c-1.68,0.46-3.55,0.62-4.98,1.49c-1.11,0.67-1.68,2.24-2.48,3.41c-0.8,1.18-1.49,2.44-2.4,3.53c-2.5,3.03-5.63,2.99-8.4,0.8
		c-2.99-2.36-1.02-4.98,0.74-6.97c2.82-3.2,6.36-5.83,8.79-9.27c1.13-1.61,1.3-5.85,0.25-6.59c-1.69-1.2-4.93-1.13-7.14-0.43
		c-1.9,0.6-3.37,2.76-4.88,4.38c-2.05,2.2-3.94,4.54-5.92,6.8c-2.35,2.68-5.05,4-8.21,1.4c-2.9-2.4-3.08-6.29-0.16-9.1
		c3.87-3.72,8.01-7.18,12.18-10.56c2.62-2.13,4.4-4.56,2.37-7.67c-2.04-3.13-5.34-2.46-8.1-0.99c-2.04,1.09-3.71,2.89-5.51,4.41
		c-3.37,2.85-6.53,6-10.13,8.53c-2.95,2.08-6.47,3.16-9.24-0.57c-1.97-2.66-0.56-6.8,3-9.32c3.49-2.46,7.32-4.55,10.39-7.45
		c1.75-1.66,3.71-5.19,3.04-6.87c-1.47-3.69-5.29-2.76-8.19-1.28c-4.08,2.07-7.91,4.62-11.91,6.85c-1.64,0.91-3.49,2.21-5.15,2.09
		c-1.72-0.13-3.97-1.41-4.76-2.86c-0.59-1.06,0.3-3.76,1.4-4.76c2.31-2.1,5.32-3.4,7.79-5.35c0.89-0.7,1.07-2.32,1.58-3.52
		c-1.37-0.48-2.88-1.58-4.08-1.31c-2.58,0.6-4.93,2.33-7.51,2.78c-1.91,0.33-4.52-0.05-5.94-1.2c-1.04-0.84-1.48-3.97-0.72-5.12
		c0.87-1.32,3.33-2.15,5.13-2.2C378.69,61.25,386.76,61.38,394.83,61.38z"/>
	<path class="st0" d="M960.96,197.09c-23.44,2.34-43.72-7.53-63.95-16.95c-17.19-8.01-33.94-16.99-50.9-25.48
		c-3.53-1.77-7.24-3.17-10.72-5.03c-1.27-0.68-2.84-2.13-2.92-3.32c-0.07-1.05,1.54-2.52,2.74-3.31c4.5-2.95,8.95-3.14,14.28-1.12
		c40.69,15.43,81.95,29.07,124.56,38.26c3.86,0.83,7.81,1.34,11.59,2.43c4.56,1.31,5.15,3.38,2.49,7.33
		c-2.52,3.74-5.87,6.09-10.57,6.27C972.02,196.37,966.49,196.77,960.96,197.09z"/>
	<path class="st0" d="M263.7,204.87c-6.79-0.42-13.65-0.41-20.35-1.45c-3.53-0.55-7.1-2.48-10.07-4.61
		c-3.58-2.57-3.01-5.36,1.27-6.88c5.65-1.99,11.51-3.37,17.24-5.17c31.68-9.97,63.21-20.33,92.73-35.86
		c7.13-3.75,14.44-5.8,22.31-3.36c2.15,0.67,4.72,2.44,5.46,4.35c0.46,1.2-1.78,4-3.42,5.33c-2.68,2.17-5.75,3.92-8.83,5.53
		c-23.25,12.17-46.61,24.15-69.79,36.45C281.84,203.65,273.08,205.41,263.7,204.87z"/>
	<path class="st0" d="M397.34,166.6c-2.35,2.16-3.63,3.53-5.1,4.65c-16.43,12.64-33.14,24.93-49.24,37.97
		c-8.99,7.29-19.4,9.62-30.18,11.37c-4.67,0.76-9.44,0.99-14.18,1.08c-1.94,0.04-4.15-0.51-5.81-1.51
		c-6.14-3.67-6.18-7.03-0.05-10.41c27.27-15.07,54.57-30.08,81.92-44.99C382.13,160.72,389.23,162.97,397.34,166.6z"/>
	<path class="st0" d="M919.48,217.58c-16.63,0.41-31.59-5.48-45.32-14.97c-13.67-9.45-27.22-19.06-40.86-28.55
		c-4.28-2.98-8.76-5.67-12.98-8.73c-2.41-1.75-6.91-2.76-4.07-7.4c2.77-4.53,5.53-5.05,10.19-2.57
		c17.45,9.28,34.67,19.06,52.49,27.57c16.52,7.89,33.65,14.5,50.6,21.48c5.98,2.46,6.57,4.72,1.95,9.39
		C928.22,217.1,924.39,218.42,919.48,217.58z"/>
	<path class="st0" d="M869.95,228.37c-11.85-3.12-26.06-3.95-36.56-15.49c-8.93-9.82-19.03-18.58-28.79-27.62
		c-2.73-2.53-6.08-4.38-9.15-6.54c-0.52-0.36-1.31-0.57-1.55-1.05c-2.31-4.83,1.87-8.21,3.12-12.19c0.36-1.17,3.78-2.36,5.37-1.94
		c2.61,0.7,5.15,2.4,7.24,4.22c20.14,17.48,41.87,32.75,64.51,46.77c0.54,0.33,1.15,0.56,1.65,0.94c2.64,1.98,6.89,2.68,6.52,7.16
		C882.09,225.29,875.81,228.46,869.95,228.37z"/>
	<path class="st0" d="M354.17,229.5c-1.55-0.1-2.27,0.04-2.79-0.22c-2.71-1.32-5.38-2.75-8.06-4.14c1.52-2.37,2.56-5.3,4.63-7.01
		c16.82-13.87,33.84-27.5,50.8-41.21c0.12-0.1,0.23-0.22,0.36-0.31c1.62-1.28,21.48-1.06,21.76,0.48c0.4,2.21,0.01,5.38-1.38,6.93
		c-6.14,6.81-12.73,13.21-19.22,19.69c-4.14,4.13-8.7,7.89-12.55,12.27C378.47,226.47,365.72,227.51,354.17,229.5z"/>
	<path class="st0" d="M588.94,15.41c38.76,0.55,69.24,5.44,98.68,16.14c3.03,1.1,7.88,1.68,6.07,6.62c-1.76,4.8-5.76,2.4-8.92,1.29
		C652.17,28.06,618.74,22,584.1,23.95c-24.27,1.37-48.13,5.03-70.91,14.03c-2.85,1.13-5.95,1.76-7.38-1.53
		c-1.44-3.31,0.99-5.58,3.94-6.4c12.18-3.37,24.27-7.38,36.67-9.49C562.92,17.75,579.68,16.48,588.94,15.41z"/>
	<path class="st0" d="M826.5,234.71c-10.9-1.66-19.75-4.21-25.85-12.31c-7.42-9.85-14.73-19.78-22.24-29.57
		c-1.99-2.59-4.37-4.95-6.87-7.06c-2.27-1.92-3.52-4.31-1.68-6.51c1.58-1.88,4.83-4.21,6.6-3.71c3.92,1.11,7.95,3.26,10.92,6.07
		c14.13,13.36,27.91,27.08,41.82,40.67c0.23,0.22,0.54,0.38,0.69,0.64c1.51,2.57,2.99,5.15,4.48,7.72
		C831.4,232.18,828.44,233.71,826.5,234.71z"/>
	<path class="st0" d="M438.99,182.97c0.22,7.1-0.14,13.7-4.15,20.08c-4.36,6.93-7.56,14.59-11.14,21.99c-1.96,4.07-5,6.31-9.5,6.85
		c-5.5,0.65-10.95,1.89-16.46,2.1c-2.51,0.1-5.1-1.65-7.65-2.56c0.9-2.22,1.3-4.88,2.78-6.59c7.47-8.61,15.24-16.96,22.87-25.43
		c3.92-4.35,7.6-8.93,11.69-13.11C430.49,183.18,434.15,180.97,438.99,182.97z"/>
	<path class="st0" d="M791.98,237.07c-13-1.09-22.85-4.78-27.86-16.7c-1.95-4.64-4.38-9.24-7.45-13.19
		c-4.58-5.88-4.9-12.4-4.74-19.28c0.06-2.63,1.09-3.27,3.53-2.88c4.76,0.75,8.21,2.79,11.11,7.04c7.94,11.63,16.5,22.83,24.83,34.19
		c0.94,1.28,2.2,2.39,2.84,3.79c0.78,1.71,1.79,3.89,1.31,5.41C795.19,236.53,792.51,236.86,791.98,237.07z"/>
	<path class="st0" d="M658.83,356.49c-0.07,4.34-3.15,8.64-6.47,9.32c-3.44,0.7-9.92-2.66-11.39-6.32c-1.17-2.92-1.87-6.04-2.62-9.1
		c-2.92-11.99-5.9-23.96-8.5-36.02c-0.38-1.77,0.9-5.48,1.9-5.67c3.14-0.59,7.55-3.96,9.6,1.06c6.01,14.78,11.58,29.74,17.28,44.65
		C658.9,355.12,658.78,355.98,658.83,356.49z"/>
	<path class="st0" d="M684.77,351.24c-2.21,2.59-4.02,5.75-6.73,7.59c-2.54,1.73-9.3-1.14-11.36-4.06c-0.9-1.28-1.6-2.74-2.15-4.21
		c-4.85-12.87-9.7-25.73-14.42-38.65c-0.97-2.64-2.83-5.82,0.92-7.82c5.63-3.01,7.98-2.63,10.72,2.3c6.93,12.43,13.6,25,20.25,37.58
		c1.01,1.91,1.36,4.16,2.02,6.25C684.26,350.56,684.51,350.9,684.77,351.24z"/>
	<path class="st0" d="M610.28,319.49c0-0.08-0.09-1.52,0.02-2.93c0.2-2.75,0.52-5.22,4.2-5.79c3.59-0.56,6.48-0.17,7.51,3.65
		c1.53,5.63,2.8,11.34,3.99,17.06c1.65,7.89,3.15,15.81,4.67,23.73c0.3,1.55,0.47,3.13,0.51,4.71c0.12,5.36-3.41,10.2-7.58,10.51
		c-4.19,0.31-10.03-4.61-10.46-9.33c-0.83-9.3-1.35-18.62-1.98-27.94C610.88,329.05,610.63,324.94,610.28,319.49z"/>
	<path class="st0" d="M563.23,313.64c-3.08,11.79-5.8,22.36-8.62,32.9c-1.14,4.27-2.25,8.58-3.86,12.69c-2,5.1-7.33,7.83-11.28,6.28
		c-3.94-1.55-7.14-8.43-5.43-12.88c4.14-10.77,8.6-21.42,12.95-32.12c1.19-2.93,2.54-5.8,3.68-8.74c1.65-4.27,5.07-4.83,8.45-3.2
		C561.05,309.49,562.12,312.19,563.23,313.64z"/>
	<path class="st0" d="M604.74,355.92c0,2.1,0.09,4-0.02,5.89c-0.29,5.41-3.97,9.86-8.22,10.06c-4,0.19-10-5.32-9.79-9.99
		c0.66-15.31,1.69-30.61,2.74-45.9c0.22-3.17,2.36-4.16,5.6-4.37c4.21-0.27,5.97,1.93,6.44,5.3c0.85,6.1,1.28,12.25,1.77,18.4
		C603.82,342.25,604.26,349.19,604.74,355.92z"/>
	<path class="st0" d="M581.81,320.48c-1.01,12.43-1.91,24.87-3.11,37.29c-0.39,4.04-0.86,8.62-5.16,10.54
		c-2.28,1.02-5.82,1.63-7.75,0.55c-3.93-2.2-6.64-6.02-5.6-11.05c2.16-10.5,4.5-20.97,6.79-31.45c0.77-3.54,1.65-7.06,2.43-10.6
		c0.82-3.7,2.39-5.52,6.85-5.1c4.62,0.44,5.4,2.9,5.53,6.51C581.83,318.26,581.8,319.37,581.81,320.48z"/>
	<path class="st0" d="M516.41,357.78c-5.66,0.07-10-6.63-8.4-12.19c0.43-1.5,1.18-2.95,2-4.29c7-11.5,14.01-22.98,21.1-34.42
		c3.02-4.87,4.14-5.11,9.78-2.58c3.99,1.79,2.63,5.3,1.6,7.73c-5.66,13.4-11.63,26.68-17.65,39.92
		C523.16,355.67,520.09,357.82,516.41,357.78z"/>
	<path class="st0" d="M500.12,346.18c-2.6-0.84-5.27-1.5-7.79-2.56c-38.01-15.93-67.56-41.69-89.03-76.81
		c-2.89-4.72-5.74-9.47-8.5-14.27c-0.77-1.34-1.38-2.89-1.6-4.4c-0.13-0.87,0.66-1.88,1.04-2.82c0.94,0.4,2.29,0.53,2.76,1.25
		c1.66,2.5,3.1,5.15,4.47,7.81c18.04,35.09,45.31,60.92,79.76,79.52c5,2.7,10.26,4.93,15.33,7.5c1.57,0.79,2.95,1.97,4.42,2.97
		C500.7,344.98,500.41,345.58,500.12,346.18z"/>
	<path class="st0" d="M348.41,115.5c-2.28-0.97-5.46-1.74-7.94-3.49c-4.92-3.46-4.12-10.36,1.47-12.48
		c7.96-3.02,16.07-5.7,24.21-8.22c4.28-1.32,9.1,0.92,11.37,4.72c1.6,2.68,1.59,5.48-1.25,7.02c-7.35,3.98-14.87,7.64-22.39,11.29
		C352.5,115,350.81,115.01,348.41,115.5z"/>
	<path class="st0" d="M690.54,344.43c1.82-1.22,3.54-2.61,5.46-3.64c10.57-5.7,21.5-10.8,31.72-17.07
		c22.98-14.09,40.72-33.48,54.71-56.4c3.46-5.67,6.86-11.39,10.47-16.97c0.82-1.27,2.41-2.05,3.64-3.05
		c-0.12,1.66,0.24,3.57-0.44,4.95c-19.23,38.77-48.6,67.48-87,87.12c-4.22,2.16-8.58,4.05-12.95,5.9c-1.47,0.62-3.15,0.72-4.73,1.06
		C691.13,345.7,690.84,345.07,690.54,344.43z"/>
	<path class="st0" d="M824.97,135.7c-2.18-0.74-4.08-1.08-5.69-1.97c-7.04-3.92-14.02-7.94-20.97-12.03
		c-4.22-2.49-4.44-6.02-0.42-8.93c3.74-2.71,7.85-3.97,12.43-1.72c7.52,3.68,15.14,7.15,22.62,10.89c5.88,2.93,6.06,7.69,0.3,10.99
		C830.75,134.35,827.68,134.82,824.97,135.7z"/>
	<path class="st0" d="M368.47,137.02c-5.63-0.82-10.78-0.43-11.8-6.18c-0.36-2.02,0.56-5.41,2.07-6.44
		c7.17-4.87,14.65-9.31,22.21-13.56c3.79-2.13,11.62,0.23,14.21,3.68c1.9,2.54,0.86,4.35-1.38,5.95
		c-6.41,4.57-12.72,9.28-19.23,13.71C372.44,135.63,369.85,136.4,368.47,137.02z"/>
	<path class="st0" d="M403.6,125.35c2.33,0.16,3.41-0.05,4.19,0.34c2.68,1.32,6.37,2.28,7.47,4.49c0.75,1.49-1.74,5.29-3.62,7.25
		c-4.13,4.33-8.75,8.2-13.27,12.14c-1.4,1.22-3.03,2.32-4.74,3.04c-5.87,2.47-10.84,1.59-13.15-2.48
		c-2.97-5.24,1.48-7.78,4.46-10.56c4.37-4.1,8.91-8.04,13.59-11.78C400.27,126.4,402.62,125.81,403.6,125.35z"/>
	<path class="st0" d="M858.37,92.43c-10.11-2.45-20.24-4.85-30.33-7.39c-3.38-0.85-4.46-3.35-3.67-6.6
		c0.86-3.55,3.18-5.63,6.87-5.08c8.44,1.27,16.83,2.81,25.23,4.28c1.4,0.24,2.75,0.71,4.13,1.05c3.96,0.98,7.35,2.4,6.47,7.56
		C866.39,90.32,864.12,91.79,858.37,92.43z"/>
	<path class="st0" d="M785.3,125.35c2.29,0.78,4.84,1.14,6.82,2.4c6.13,3.91,12.22,7.93,17.95,12.39c1.93,1.5,4.35,5.15,3.72,6.51
		c-1.01,2.2-4.2,4.16-6.78,4.69c-4.9,1.02-9.65-0.04-13.66-3.67c-4.22-3.82-8.76-7.28-13.14-10.92c-2.25-1.86-4.94-4.13-3.09-7.06
		c1.14-1.8,4.25-2.36,6.5-3.42c0.4-0.19,0.94-0.09,1.41-0.13C785.12,125.89,785.21,125.62,785.3,125.35z"/>
	<path class="st0" d="M843.98,115.23c-3.9-1.44-7.87-2.72-11.69-4.36c-5.35-2.3-10.59-4.85-15.87-7.31
		c-4.71-2.19-5.1-5.17-0.52-7.69c2.51-1.38,6.09-2.33,8.72-1.66c8.37,2.13,16.57,4.98,24.73,7.84c2.85,1,6.51,2.22,5.46,6.45
		c-0.98,3.97-3.91,5.95-8.11,5.79c-0.79-0.03-1.58,0-2.37,0C844.22,114.6,844.1,114.91,843.98,115.23z"/>
	<path class="st0" d="M333.27,91.37c-1.01-0.28-3.53-0.5-5.47-1.67c-1.89-1.15-4.18-3.11-4.52-5.03c-0.59-3.34,2.34-4.9,5.3-5.53
		c3.86-0.82,7.79-1.29,11.65-2.08c5.56-1.13,11.11-2.34,16.64-3.65c3.38-0.8,6.26-0.35,8.47,2.55c2.36,3.09,1.96,5.92-1.72,7.17
		c-8.8,2.99-17.75,5.54-26.66,8.22C336.24,91.56,335.4,91.37,333.27,91.37z"/>
	<path class="st0" d="M765.9,138.41c2.28,0.92,5.02,1.32,6.74,2.85c5.18,4.61,10.16,9.49,14.76,14.67c1.37,1.54,2.39,5.26,1.5,6.49
		c-1.38,1.91-4.59,3.62-6.91,3.49c-5.76-0.33-10.19-3.65-13.67-8.34c-2.53-3.4-5.58-6.39-8.22-9.71c-1.25-1.58-3.34-4.3-2.83-5.09
		c1.08-1.71,3.55-2.64,5.57-3.63c0.76-0.38,1.86-0.06,2.81-0.06C765.74,138.85,765.82,138.63,765.9,138.41z"/>
	<path class="st0" d="M425.33,138.84c2.44,0.5,4.18,0.69,5.82,1.22c3.64,1.17,4.33,3.99,1.95,6.9c-3.77,4.61-7.53,9.23-11.11,13.99
		c-3.86,5.14-9.68,6.63-14.94,3.67c-3.33-1.87-4.18-4.54-1.73-7.35c4.96-5.7,10.17-11.19,15.5-16.53
		C422.02,139.55,424.16,139.31,425.33,138.84z"/>
	<path class="st0" d="M752.04,180.58c-2.16-7.42-3.83-13.8-5.91-20.05c-1.19-3.58-2.95-6.98-4.59-10.39
		c-1.39-2.88-0.12-4.9,2.52-4.31c3.49,0.78,7.53,2.13,9.81,4.63c3.78,4.14,6.25,9.45,9.43,14.16c2.61,3.88,2.11,7.12-1.66,9.75
		C758.63,176.47,755.48,178.37,752.04,180.58z"/>
	<path class="st0" d="M873.88,60.76c-0.28,7.7-2.92,9.61-10.4,8.25c-6.33-1.15-12.75-1.78-19.13-2.61c-2.35-0.3-4.84-0.13-7.01-0.89
		c-1.85-0.65-3.35-2.32-5.01-3.54c1.56-1.31,3.02-3.59,4.69-3.76c10.97-1.07,21.98-1.69,32.98-2.43
		C873.68,55.53,874.05,57.96,873.88,60.76z"/>
	<path class="st0" d="M761.31,236.75c-0.89,6.11-2.76,7.69-8.45,6.53c-1.08-0.22-2.15-0.54-3.2-0.88c-8.87-2.9-8.96-3.41-5.56-11.86
		c2.23-5.55,3.77-11.36,5.8-17c0.42-1.16,1.61-2.03,2.44-3.04c0.84,0.87,2.14,1.61,2.44,2.64
		C757.07,220.98,759.16,228.88,761.31,236.75z"/>
	<path class="st0" d="M336.91,58.99c5.82,0.31,11.68,0.36,17.46,1.07c1.76,0.21,3.3,2.21,4.94,3.39c-1.6,1.03-3.09,2.71-4.8,2.98
		c-9.33,1.46-18.7,2.69-28.08,3.75c-4.38,0.5-8.95-4.72-7.85-9c0.29-1.12,2.32-2.31,3.69-2.52c2.46-0.38,5.03-0.08,7.55,0.03
		c2.36,0.09,4.72,0.3,7.08,0.45C336.91,59.1,336.91,59.04,336.91,58.99z"/>
	<path class="st0" d="M438.9,177.7c-3.71-1.53-7.66-2.99-11.44-4.79c-2.51-1.2-2.04-3.18-0.62-5.11
		c4.72-6.45,9.41-12.92,14.13-19.36c2.19-2.99,5.83-3.85,9.63-2.55C446.83,156.14,443.06,166.4,438.9,177.7z"/>
	<path class="st0" d="M448,235.29c-1.78,0.65-3.76,1.63-5.86,2.11c-8.49,1.95-12.21-1.25-10.7-9.72c1.08-6.03,2.97-11.92,4.66-17.82
		c0.45-1.55,1.53-2.92,2.52-4.73C441.8,215.35,444.78,224.91,448,235.29z"/>
	<path d="M596.94,88.79c36.07,0.65,71.01,9.89,100.84,34.08c18.12,14.69,31.06,32.98,35.05,56.42c4.8,28.13-4.3,52.2-23.24,72.77
		c-20.93,22.73-47.56,35.47-77.41,41.37c-41.55,8.21-81.61,3.63-119.24-16.75c-14.64-7.93-27.32-18.34-37.53-31.59
		c-25.56-33.16-24.69-74.91,2.3-106.99c18.6-22.1,42.78-35.17,70.19-42.9C563.39,90.84,579.23,89.04,596.94,88.79z M655.51,187.85
		c2.39-1.58,4.47-2.98,6.57-4.33c20.9-13.43,23.09-38.55,5.03-55.69c-7.44-7.06-16.34-11.37-25.8-14.64
		c-23.98-8.27-48.53-7.9-73.22-4.22c-20.27,3.02-39.06,10.09-54.83,23.27c-11.38,9.51-10.66,11.42,0.18,20.12
		c1.51,1.21,3.01,3.53,3.02,5.35c0.06,22.97-0.27,45.94-0.2,68.91c0.01,4.79-1.28,8.35-4.71,11.74c-6.24,6.15-5.93,9.33,0.59,15.15
		c0.94,0.84,1.89,1.77,3,2.32c10.28,5.15,20.23,11.27,30.99,15.11c21.93,7.83,44.78,9.08,67.93,6.96
		c15.56-1.43,30.69-4.21,44.52-11.72c14.5-7.87,24.48-19.4,24.83-36.65c0.36-17.86-8.98-30.46-23.87-39.39
		C658.32,189.41,657.09,188.74,655.51,187.85z"/>
	<path class="st0" d="M655.51,187.85c1.59,0.9,2.82,1.56,4.01,2.28c14.89,8.94,24.23,21.54,23.87,39.39
		c-0.35,17.25-10.33,28.78-24.83,36.65c-13.83,7.51-28.96,10.29-44.52,11.72c-23.16,2.12-46,0.87-67.93-6.96
		c-10.76-3.84-20.7-9.96-30.99-15.11c-1.11-0.56-2.05-1.48-3-2.32c-6.52-5.82-6.83-9-0.59-15.15c3.44-3.39,4.73-6.95,4.71-11.74
		c-0.07-22.97,0.26-45.94,0.2-68.91c0-1.81-1.51-4.14-3.02-5.35c-10.83-8.7-11.55-10.61-0.18-20.12
		c15.77-13.18,34.56-20.25,54.83-23.27c24.69-3.68,49.23-4.05,73.22,4.22c9.47,3.27,18.37,7.58,25.8,14.64
		c18.06,17.14,15.87,42.26-5.03,55.69C659.97,184.87,657.9,186.27,655.51,187.85z M597.84,196.63c-0.01,0.07-0.02,0.14-0.03,0.21
		c-1.58,0-3.18-0.11-4.75,0.02c-11.57,0.98-22.23,3.78-28.55,14.83c-4.88,8.54-5.41,17.76-3.64,27.17
		c1.97,10.44,7.23,18.94,17.54,22.45c6.62,2.26,13.92,3.54,20.9,3.49c24.93-0.18,37.95-13.89,36.58-37.51
		c-0.97-16.67-10.41-27.12-26.74-29.48C605.41,197.27,601.62,197.02,597.84,196.63z M630.7,152.29
		c-0.33-15.21-6.73-25.55-19.35-28.93c-6.02-1.61-12.53-2.43-18.73-2.08c-11.27,0.64-21.53,3.57-27.92,14.68
		c-10.12,17.59-0.52,41.9,19.02,46.85c8.67,2.2,17.28,1.33,25.84-0.54c10.08-2.2,16.43-8.42,18.98-18.37
		C629.52,160.09,629.99,156.16,630.7,152.29z"/>
	<path d="M597.84,196.63c3.77,0.39,7.57,0.64,11.32,1.18c16.33,2.36,25.78,12.81,26.74,29.48c1.37,23.63-11.65,37.34-36.58,37.51
		c-6.98,0.05-14.29-1.24-20.9-3.49c-10.31-3.52-15.57-12.01-17.54-22.45c-1.77-9.41-1.24-18.62,3.64-27.17
		c6.31-11.05,16.98-13.86,28.55-14.83c1.57-0.13,3.17-0.02,4.75-0.02C597.83,196.77,597.83,196.7,597.84,196.63z"/>
	<path d="M630.7,152.29c-0.7,3.87-1.18,7.8-2.15,11.6c-2.55,9.95-8.9,16.18-18.98,18.37c-8.56,1.87-17.17,2.73-25.84,0.54
		c-19.55-4.95-29.15-29.26-19.02-46.85c6.39-11.11,16.65-14.03,27.92-14.68c6.2-0.35,12.71,0.46,18.73,2.08
		C623.96,126.74,630.37,137.08,630.7,152.29z"/>
</g>
</svg>
