<svg viewBox="0 0 400 400" xmlns="http://www.w3.org/2000/svg"><path d="m200 62.5a137.5 137.5 0 1 0 137.5 137.5 137.5 137.5 0 0 0 -137.5-137.5zm128.56 137.5a128.56 128.56 0 1 1 -128.56-128.56 128.56 128.56 0 0 1 128.56 128.56z"/><path d="m200 118.52v4.48a77.1 77.1 0 0 1 77 77h4.47a81.48 81.48 0 0 0 -81.47-81.48zm0 158.48a77.1 77.1 0 0 1 -77-77h-4.47a81.48 81.48 0 0 0 81.47 81.48"/><path d="m265.84 142c1.86 2 4.55 5.2 6.06 7.14l27.82-17.53c-1.39-1.81-3.6-4.55-5.26-6.48l-17.62 11.57-1.2 1 .9-1.3 7.78-15.4-5.51-5.47-15.53 7.73-1.31.89 1-1.2 11.65-17.48c-2.05-1.74-4-3.32-6.53-5.25l-17.66 27.6c2.24 1.71 5.19 4.22 7.07 5.93l16.62-8.57 1.07-.78-.79 1.06z"/><path d="m202.71 107 7.6-16.91.49-1.5-.14 1.56.8 22.6c2.67.25 5.42.62 8.13 1.06l-1.23-33.46q-5.7-.63-11.36-.87l-7.48 18.45-.27 1.37-.25-1.37-7.5-18.45q-5.67.24-11.35.87l-1.24 33.46c2.71-.44 5.47-.81 8.13-1.06l.8-22.6-.13-1.56.48 1.5 7.6 16.91z"/><path d="m141.24 133.67c4.39-4.6 6.88-9.91 2.49-15a8.61 8.61 0 0 0 -9.73-2l-.34.13.11-.29a7.93 7.93 0 0 0 -2.77-8.35 8.27 8.27 0 0 0 -6.15-1.7c-4.13.41-7.3 3.21-15.94 12.78-2.61 2.89-6.41 7.44-8.68 10.4l23.77 22.36c7.83-8.63 11-11.84 17.24-18.33zm-31-5.47a148.89 148.89 0 0 1 12.19-13.2 6.43 6.43 0 0 1 2.48-1.57 3 3 0 0 1 3.53 2.26c.36 1.6-.65 3.12-1.77 4.37-2.53 2.83-11.8 12.46-11.8 12.46zm9.3 8.76s9-9.49 12-12.52a10.9 10.9 0 0 1 2.73-2.32 3.11 3.11 0 0 1 3.2.06 2.79 2.79 0 0 1 1.21 2.95 8.76 8.76 0 0 1 -2.33 3.64l-12 12.72z"/><path d="m200 118.52v81.48h-81.48a81.44 81.44 0 0 1 81.48-81.48z"/><path d="m281.48 200a81.44 81.44 0 0 1 -81.48 81.48v-81.48z"/><path d="m0 0h400v400h-400z" fill="none"/></svg>