<svg viewBox="0 0 400 400" xmlns="http://www.w3.org/2000/svg" xmlns:xlink="http://www.w3.org/1999/xlink"><linearGradient id="a" gradientTransform="matrix(1 0 0 -1 0 2402)" gradientUnits="userSpaceOnUse" x1="249.64" x2="249.64" y1="2224.82" y2="2192.28"><stop offset="0" stop-color="#666"/><stop offset="1" stop-color="#e0e0e0"/></linearGradient><linearGradient id="b" x1="248.65" x2="248.65" xlink:href="#a" y1="2258.32" y2="2278.67"/><linearGradient id="c" gradientTransform="matrix(1 0 0 -1 0 2402)" gradientUnits="userSpaceOnUse" x1="338.08" x2="354.61" y1="2223.51" y2="2264.42"><stop offset="0" stop-color="#b3b3b3"/><stop offset=".58" stop-color="#b2b2b2"/><stop offset=".68" stop-color="#060606"/><stop offset=".76" stop-color="#262626"/><stop offset=".9" stop-color="#666"/></linearGradient><linearGradient id="d" gradientTransform="matrix(1 0 0 -1 0 2402)" gradientUnits="userSpaceOnUse" x1="265.28" x2="264.96" y1="2272.66" y2="2204.53"><stop offset="0" stop-color="#b1b1b1"/><stop offset="1" stop-color="#a6a6a6"/></linearGradient><linearGradient id="e" gradientTransform="matrix(1 0 0 -1 0 2402)" gradientUnits="userSpaceOnUse" x1="140.73" x2="114.7" y1="2207.61" y2="2279.13"><stop offset="0" stop-color="#cacaca"/><stop offset=".61" stop-color="#a1a1a1"/></linearGradient><linearGradient id="f" gradientTransform="matrix(1 0 0 -1 0 2402)" gradientUnits="userSpaceOnUse" x1="255.28" x2="255.28" y1="2262.45" y2="2278.74"><stop offset="0" stop-color="#404040"/><stop offset=".87" stop-color="#e0e0e0"/></linearGradient><linearGradient id="g" gradientTransform="matrix(1 0 0 -1 0 2402)" gradientUnits="userSpaceOnUse" x1="242.57" x2="373.17" y1="2259.98" y2="2259.98"><stop offset=".39" stop-color="#a1a1a1"/><stop offset="1" stop-color="#cacaca"/></linearGradient><linearGradient id="h" x1="50.29" x2="148.84" xlink:href="#e" y1="2260.22" y2="2260.22"/><linearGradient id="i" gradientTransform="matrix(1 0 0 -1 0 2402)" gradientUnits="userSpaceOnUse" x1="194.7" x2="254.89" y1="2198.6" y2="2198.6"><stop offset="0" stop-color="#666"/><stop offset="1" stop-color="#a6a6a6"/></linearGradient><linearGradient id="j" gradientTransform="matrix(1 0 0 -1 0 2402)" gradientUnits="userSpaceOnUse" x1="136.29" x2="256.66" y1="2190.14" y2="2190.14"><stop offset="0" stop-color="#cacaca"/><stop offset=".11" stop-color="#c3c3c3"/><stop offset=".27" stop-color="#b0b0b0"/><stop offset=".45" stop-color="#909090"/><stop offset=".53" stop-color="#808080"/></linearGradient><linearGradient id="k" gradientTransform="matrix(1 0 0 -1 0 2402)" gradientUnits="userSpaceOnUse" x1="178.38" x2="178.44" y1="2193.91" y2="2193.91"><stop offset="0" stop-color="#fff"/><stop offset="1"/></linearGradient><linearGradient id="l" gradientTransform="matrix(1 0 0 -1 0 2402)" gradientUnits="userSpaceOnUse" x1="158.59" x2="179.98" y1="2193.53" y2="2193.53"><stop offset="0" stop-color="#c6c6c6"/><stop offset="1" stop-color="#ebebeb"/></linearGradient><linearGradient id="m" gradientTransform="matrix(1 0 0 -1 0 2402)" gradientUnits="userSpaceOnUse" x1="25.2" x2="137.48" y1="2210.29" y2="2210.29"><stop offset=".39" stop-color="#8c8c8c"/><stop offset="1" stop-color="#b3b3b3"/></linearGradient><linearGradient id="n" gradientTransform="matrix(1 0 0 -1 0 2402)" gradientUnits="userSpaceOnUse" x1="138.73" x2="254.37" y1="2276.89" y2="2276.89"><stop offset="0" stop-color="#cacaca"/><stop offset=".19" stop-color="#c7c7c7"/><stop offset=".31" stop-color="#bfbfbf"/><stop offset=".4" stop-color="#b1b1b1"/><stop offset=".49" stop-color="#9d9d9d"/><stop offset=".5" stop-color="#999"/><stop offset=".51" stop-color="#9d9d9d"/><stop offset=".6" stop-color="#b1b1b1"/><stop offset=".69" stop-color="#bfbfbf"/><stop offset=".81" stop-color="#c7c7c7"/><stop offset="1" stop-color="#cacaca"/></linearGradient><linearGradient id="o" gradientTransform="matrix(1 0 0 -1 0 2402)" gradientUnits="userSpaceOnUse" x1="25.33" x2="69.79" y1="2236.45" y2="2236.45"><stop offset=".39" stop-color="#8c8c8c"/><stop offset="1" stop-color="#bfbfbf"/></linearGradient><linearGradient id="p" gradientTransform="matrix(1 0 0 -1 0 2402)" gradientUnits="userSpaceOnUse" x1="254.96" x2="349.66" y1="2211.1" y2="2211.1"><stop offset=".05" stop-color="#1a1a1a"/><stop offset=".25" stop-color="#808080"/><stop offset="1" stop-color="#b3b3b3"/></linearGradient><linearGradient id="q" gradientTransform="matrix(1 0 0 -1 0 2402)" gradientUnits="userSpaceOnUse" x1="255.23" x2="255.69" y1="2200.89" y2="2200.89"><stop offset="0" stop-color="#666"/><stop offset="1" stop-color="#1a1a1a"/></linearGradient><linearGradient id="r" gradientTransform="matrix(1 0 0 -1 0 2402)" gradientUnits="userSpaceOnUse" x1="245.36" x2="255.43" y1="2261.81" y2="2260.03"><stop offset=".85" stop-color="#333"/><stop offset="1" stop-color="#b3b3b3"/></linearGradient><linearGradient id="s" x1="194.97" x2="243.12" xlink:href="#d" y1="2204.46" y2="2204.46"/><linearGradient id="t" gradientTransform="matrix(1 0 0 -1 0 2402)" gradientUnits="userSpaceOnUse" x1="149.07" x2="192.11" y1="2203.15" y2="2191.49"><stop offset="0" stop-color="#fff"/><stop offset=".18" stop-color="#f9f9f9"/><stop offset=".41" stop-color="#e9e9e9"/><stop offset=".67" stop-color="#cecece"/><stop offset=".95" stop-color="#a9a9a9"/><stop offset="1" stop-color="#a1a1a1"/></linearGradient><linearGradient id="u" gradientTransform="matrix(1 0 0 -1 0 2402)" gradientUnits="userSpaceOnUse" x1="251.11" x2="253.43" y1="2212.58" y2="2213.65"><stop offset="0" stop-color="#a6a6a6"/><stop offset=".05" stop-color="#a0a0a0"/><stop offset=".12" stop-color="#909090"/><stop offset=".19" stop-color="#757575"/><stop offset=".27" stop-color="#505050"/><stop offset=".36" stop-color="#202020"/><stop offset=".4" stop-color="#040404"/></linearGradient><linearGradient id="v" gradientTransform="matrix(1 0 0 -1 0 2402)" gradientUnits="userSpaceOnUse" x1="254.6" x2="254.6" y1="2212.74" y2="2201.56"><stop offset=".08" stop-color="#4b4b4b"/><stop offset=".23" stop-color="#4c4c4c" stop-opacity=".93"/><stop offset=".43" stop-color="#4e4e4e" stop-opacity=".72"/><stop offset=".64" stop-color="#525252" stop-opacity=".39"/><stop offset=".83" stop-color="#565656" stop-opacity="0"/></linearGradient><linearGradient id="w" gradientTransform="matrix(1 0 0 -1 0 2402)" gradientUnits="userSpaceOnUse" x1="195.24" x2="197.91" y1="2193.69" y2="2193.69"><stop offset="0" stop-color="#212121"/><stop offset="1"/></linearGradient><linearGradient id="x" gradientTransform="matrix(1 0 0 -1 0 2402)" gradientUnits="userSpaceOnUse" x1="87.99" x2="93.09" y1="2215.38" y2="2200.52"><stop offset="0" stop-color="#a6a6a6"/><stop offset=".4" stop-color="#a6a6a6"/><stop offset="1" stop-color="#fff"/></linearGradient><linearGradient id="y" x1="243.25" x2="347.62" xlink:href="#a" y1="2219.32" y2="2219.32"/><path d="m35.63 270.73v-17.28c0-1.46.36-1.82 1.85-1.82h20.94v-5.28h-25.26c-5.24 0-8.1 1.85-8.1 8.41 0 0-.06 3.8-.06 7.4s.06 7.46.06 7.46c0 6.48 2.85 8.35 8.1 8.35h26v-5.37h-21.66c-1.5.01-1.87-.37-1.87-1.87z"/><path d="m90.45 258.77h-16.92v-12.42h-10.67v31.63h10.66v-14.15h16.93v14.15h10.66v-31.63l-10.66-.01z"/><path d="m165.22 272.21c-.18.45-.41.51-1.11.51s-.92-.06-1.11-.51l-10.23-25.87h-38.3c-5.23 0-8.08 1.85-8.08 8.41 0 0-.08 3.8-.08 7.4s.07 7.47.07 7.47c0 6.49 2.86 8.35 8.09 8.35h26.89v-5.37h-22.55c-1.5 0-1.86-.38-1.86-1.88v-6.86h22.38v-5.22h-22.33v-5.2c0-1.46.36-1.82 1.87-1.82h24c3.31 7.94 9.2 21.63 9.72 22.81.73 1.64 2 3.54 4.79 3.54h9.94c2.77 0 3.72-1.86 4.45-3.5s11.9-28.13 11.9-28.13h-8.12z"/><path d="m257.23 246.32h-22.23c-5.23 0-8.09 1.85-8.09 8.4 0 0-.06 3.81-.06 7.41s.06 7.52.06 7.52c0 6.48 2.85 8.36 8.09 8.36h22.22c5.25 0 8.1-1.88 8.1-8.36 0 0 .05-3.91.05-7.52s-.05-7.41-.05-7.41c.01-6.55-2.86-8.4-8.09-8.4zm-2.47 24.47c0 1.49-.36 1.87-1.83 1.88h-13.62c-1.47 0-1.82-.39-1.82-1.88v-17.39c0-1.45.35-1.81 1.84-1.82h13.6c1.48 0 1.84.37 1.84 1.82z"/><path d="m281.32 246.34h-10.61v31.65l32.82-.02v-5.34h-22.21z"/><path d="m312.71 246.35c-5.22 0-8.08 1.85-8.08 8.41s-.07 3.79-.07 7.41.06 7.45.06 7.45c0 6.48 2.86 8.35 8.09 8.35h26.89v-5.31h-22.54c-1.51 0-1.87-.39-1.87-1.89v-6.89h22.29v-5.25h-22.29v-5.17c0-1.45.36-1.82 1.86-1.82h35.16v26.36h10.62v-26.4h12.17v-5.25z"/><path d="m210.7 264h4.78c3.54 0 6.85-1.1 7.09-5.93a30.46 30.46 0 0 0 .06-4.48c0-5.23-2.7-7.15-6.74-7.15h-31.2v31.56h10.51v-26.38h15.56c1 0 1.23.28 1.26.84s.08 2 .08 3.19 0 2.35-.07 2.9-.59.84-1.29.84h-12.53v4.83l15.5 13.78h14.59s-17.6-13.46-17.76-13.57c-.32-.24-.14-.43.16-.43z"/><path d="m255 209.72c.82-.27.27-11.14.23-17.17 0-2.33-.13-4 .18-4l-.53-.53c-2.23-2.23-3.63-3.62-4.85-4.88s-2.37-2.47-4-4.24l-.76-.82-.48-.52a3.37 3.37 0 0 0 -.38-.28c-.27-.17-.4-.12-.53.09v4 16.48c0 .09 6.9 7.52 10.4 11a4.25 4.25 0 0 0 .77.87z" fill="url(#a)"/><path d="m242.57 143.35c.1 0 .18.12.27.23s.33.23.68-.83c.1-.29.61-.18.91-.27l1.23-.37c.26-.09.54-.16.82-.25a72.53 72.53 0 0 1 7.24-1.78 4.13 4.13 0 0 0 1.55-.56c.08-.06.09-.11.12-.13a3.49 3.49 0 0 0 0-.57l-.09-.76c-.18-1.61-.3-3-.38-4.31-.21-3.64-.29-5.47-.5-10.1a.5.5 0 0 0 -.48-.32 11.34 11.34 0 0 0 -2.58.92c-1.73.57-3.42 1.19-5.13 1.68l-.7.19c-.36.09-.73.18-1.1.25s-.29.15-.58.19a4.89 4.89 0 0 1 -1.08.19h-.88c1.2 1.44.76 7.12.76 10.56v6z" fill="url(#b)"/><path d="m318.84 176.37c11.64 5 14.94 5.86 25.79 11.62l.18.09 1.06.56 1.38.74c.55 0 .69-.16.79-.39a.14.14 0 0 1 .08-.15c2.62-5.67 5.75-11.42 9.57-18.59 4.78-9 10.69-19.61 14.87-27.67.07-.16.47-.93.55-1.08l-1.77.11-1.35.08h-.23c-13.83.85-17.76 1.7-34.34 3-.11.21-.22.41-.32.62s-.16.29-.23.44c-4 7.7-4.4 8.45-6.79 13.11-1.91 3.72-5.19 10.36-8.58 16.89a.8.8 0 0 1 -.08.16c-.11.2-.18.24-.58.46z" fill="url(#c)"/><path d="m242.74 144.49v-15.84l-46.29-2-.3 70.18 46.44 1.61.62-22.15 76.07.75 14.72-30.46z" fill="url(#d)"/><path d="m196.66 128-45.29.35-.79 15.65-79.41.9-15.82 34.98 89.4-.76-.75 21.1 52.62-1.76z" fill="url(#e)"/><path d="m320.72 177.23 12-24.35 1.7-3.46c.32-.66-.32-1.79 0-2.44l-12 24.35-1.69 3.46c-.33.66.31 1.79 0 2.44z" fill="#1f1f1f" opacity=".5"/><path d="m58.4 177.91-5.92.29 17.18-35.2 78.88-1.43 1.08-15.57 46.69-1.77h.07l46.38.84v5.79l-46.76-.31-41.8.45v15.42l-81.46 1.38z" fill="#383838" opacity=".8"/><path d="m242.74 143.43v-12.62h-3.34v15.37h2.11l93.32 1v-3.86z" fill="#383838" opacity=".8"/><path d="m195.84 194.35-45.22 1.3-.16-22-95.22 1.35v3.14l92.77-.83-.38 20.8 2-.13v1.61l46.23-1.32v-3.86z" fill="#505050" opacity=".5"/><path d="m195.94 194.35 43.82.72v-2.29l.41-1.28-.37-2.58.41-1.16-.37-2.57.41-1.24-.37-2.62.42-1.16-.3-2.57.41-1.17h4.1l-.24 21a1.93 1.93 0 0 1 -.58 1.38 1.88 1.88 0 0 1 -1.4.55l-46.29-1.2z" fill="#535353" opacity=".5"/><path d="m318.77 178.69-78.41-2.26-.44-2.57.64-1.28 76.89 1 14.6-28.37h4.36z" fill="#535353" opacity=".5"/><path d="m152.45 193.42v-21.65l-89.62.95 11.09-24.95-1.81-.06-12.7 27.23h2.29v-.05l88.43-.87v21.65l45.95-1.23.06-2.34z" fill="#dfdfdf"/><path d="m331 147.27-1.93-.08-12.2 25.06-78.22-.35v23.29h1.8v-21.11l77 .35z" fill="#dfdfdf" opacity=".8"/><path d="m155.94 132.86h40.65v-2.16h-42.3v15.74h1.65z" fill="#dfdfdf"/><path d="m237.75 132.44-41.81.52-.05-2.46 44.3-.22v2.21h-2.44z" fill="#8c8c8c"/><path d="m238.24 132.44h1.94v13.76h-1.94z" fill="#dfdfdf"/><path d="m255.4 139.55h1.07v-3.42c0-.35-.1-1.92-.11-2.26-.1-3.1-.25-4.51-.45-8.26a7.07 7.07 0 0 0 -.58-1c-.17-.25-.34-.61-.52-.85a1.81 1.81 0 0 0 -.73-.43c0 3.76.44 6.44.78 10.19 0 .41.15 2 .19 2.45.08 1.16.23 2.38.35 3.58z" fill="url(#f)"/><path d="m242.57 143.34c.32 0 .1.43.41.43 3.37 0 7.06-.06 10.06 0 33 .12 45.42.82 79.86.91h7.1c.19-.19 5.68-.66 12.15-1.17 7.44-.59 16.18-1.25 19.65-1.62a3 3 0 0 0 1.16-.31c.29-.17.3-.38-.11-.54h-7.28c-36.28-.11-63.59-1-99.29-1.42-3.24 0-6.47-.19-9.91-.26h-1q0 .12-.36.27a2.27 2.27 0 0 1 -.71.27c-2.41.44-4.91 1.26-7.58 2-2.27.58-4.15.87-4.15 1.44z" fill="url(#g)"/><path d="m69.79 144.13c8.34-.12 15.4-.32 21.8-.41 18.93-.27 31.88-.21 56.17-.74h1.08c.11-.58-2.05-1.36-4-2a29.31 29.31 0 0 1 -3.27-1.37.32.32 0 0 1 -.14-.14 1.9 1.9 0 0 0 -.46.15 1 1 0 0 1 -.29.08c-23.47.76-60.69 1.1-79.24 1.41-6.28.1-10.4.31-11.15.39a.4.4 0 0 0 .14.14c.72.39 4.09.89 7.84 1.33 4.92.53 10.47 1.03 11.52 1.16z" fill="url(#h)"/><path d="m194.7 208.75c5 0 10 .17 15 .17s10 .44 15 .44 10 .45 15 .45 9.39.51 14.39.51c1.89-.33-.07-1.85-.76-2.53l-4.27-4.24c-1.45-1.45-2.45-2.63-3.55-3.73a7 7 0 0 1 -1.77-1.95c-1.56 0-2.9-.26-4-.26-5 0-9.77-.14-15-.38-5-.24-10-.41-15-.41s-10-.34-15-.34v12.27z" fill="url(#i)"/><path d="m136.56 213.35c.09.58.19 1.05.7 1.22a1.85 1.85 0 0 0 .62.07c3.83 0 8-.08 11.91-.13l19.72-.19 13-.13c4.66 0 9.31-.1 14-.1 5.54 0 11.21.09 16.63.12 10.63.06 20.36.23 30.74.23 4.07 0 7.35.13 11.15.13h.63c-.18 0 .82-.41 1-1.12 0-.24-.67.22-.56-.32 0-.26-.35-.79-.39-.88a1.25 1.25 0 0 1 -.07-.43c0-.76-.23-1.71-.23-2.47-.33 0-.38.37-.46.68s-.16.44-.4.44c-3.71 0-7.4-.13-11.07-.22-10.16-.24-20.26-.49-30.41-.76-5.49-.14-11-.41-16.53-.41-4.65 0-9.3.28-14 .36-4.34.07-8.68.3-13 .37-6.57.1-13.14.5-19.72.51-3.77 0-9.15.36-12.07.33h-.46a1 1 0 0 1 -1-.67v1.43a16.27 16.27 0 0 1 .27 1.94z" fill="url(#j)"/><path d="m136.35 210.13c1.33 0 2.59-1.93 4.41-3.53.75-.65 1.27-1.69 2-2.27 1.7-1.43 2.24-3.38 4.36-4.88 0-5.46.73-.23.73-5.68s-.73-10.91-.73-16.35c-2 2.31-3.29 4.36-4.92 6-.58.57-1.14 1.19-1.67 1.8a37.82 37.82 0 0 1 -3.1 3.47c.53 1.55.29 1.77.1 4.95-.38 5.44-1.18 11-1.18 16.49z" fill="#696969"/><path d="m139.12 210.67h.07s-.08 0-.07 0z" fill="#868686"/><path d="m137.33 210.56h-.08a.11.11 0 0 0 0 .08c.07 0 .08.07.15.11h.13s-.21-.17-.2-.19zm.16.08a.61.61 0 0 1 -.05-.12z" fill="#868686"/><path d="m183 209.28h-.13a.15.15 0 0 0 .13 0z" fill="#868686"/><path d="m190.65 209h2.72l.23-.06h.81s.16 0 .2-.05a.38.38 0 0 0 .15 0h-1.29a8.7 8.7 0 0 1 -.87.13h-.76a.61.61 0 0 0 -.19 0h-.74-.26zm-5.45.2h.08zm4.97-.07s.06-.05 0 0z" fill="#868686"/><path d="m184 209.21h-.08a.11.11 0 0 1 .08 0z" fill="#868686"/><path d="m184.32 209.26s.03.01 0 0z" fill="#868686"/><g fill="#868686" opacity=".5"><path d="m168 209.81h-.15s.09.02.15 0z"/><path d="m180.48 209.41c-.09 0 .02-.01 0 0z"/><path d="m177.17 209.46h-6.23a.29.29 0 0 0 -.13 0h-2.07a.21.21 0 0 1 .11 0h5.33a.17.17 0 0 1 .1 0h.82a.54.54 0 0 1 .18 0h.83a.24.24 0 0 1 .12 0h4.28a1.22 1.22 0 0 1 .27 0h.94a1 1 0 0 1 .24 0h.47a.54.54 0 0 1 .18 0h.3a.38.38 0 0 0 -.15 0h-.88a.49.49 0 0 0 -.17 0h-.82c-.41 0-.63 0-1.06 0h-1.89a.33.33 0 0 1 -.14 0h-.17a.21.21 0 0 1 -.11 0 .83.83 0 0 0 -.35 0zm-.55.15s.07-.05 0-.05z"/><path d="m169.43 209.65s-.04.01 0 0z"/><path d="m170.52 209.58h.15a.38.38 0 0 0 -.15 0z"/></g><g opacity=".7"><path d="m178.44 208.09h-.06s.06.02.06 0z" fill="url(#k)"/><path d="m171.26 208.83a13.79 13.79 0 0 1 2.85-.54.17.17 0 0 0 -.12.1 6.46 6.46 0 0 0 .88 0c.51.12 2.23-.45 3.44-.34.09 0-.1.12-.07.11h.15c.26-.19 1.1.1 1.52-.07-.1-.05-.08-.07.07-.06-.7-.23-3.51-.61-4.46-.16-.6.3-1.82.06-2.72.2-1.77.15-2.72 0-4.44.25-.59.21-9.64.38-9.77.65.07.06 3.48.31 3.42.3a6.59 6.59 0 0 1 .86-.27 26 26 0 0 0 8.39-.14c.22-.07-.08-.02 0-.03z" fill="url(#l)"/></g><path d="m136.62 139.41s-.3.34-.26.35a3.38 3.38 0 0 1 1.08.24c2.39.86 6.64 1.68 9.54 2.81l1 .39.29.13c1.13 0 1.48-.31 1.56-1 .56-5.66.09-10.93.94-14.32 0-.22.72-1 .94-1l.29-.07h-.36a10.54 10.54 0 0 1 -1.13-.09c-3.36-.42-6.42-2.1-9.76-2.9-.54-.13-1.09-.23-1.63-.31h-.12a.54.54 0 0 0 -.56.38 2.31 2.31 0 0 0 -.18.62c-.45 2.34-1.13 8.66-1.47 13.81a7.87 7.87 0 0 1 -.12 1z" fill="#696969"/><path d="m26.67 194.44h2.79c22 0 43.22-.27 64.92-.35 14.09-.05 28.63.09 43 .09 0-.19.1-1.42.1-1.61 0-.8 0-1.6-.06-2.4v-.44c0-.15-.17-.61-.17-.76-14.34 0-28.26.42-42.6.41-22.06 0-44.4.85-66.47.85-.84 0-1.62-.1-2.46-.1-.09 0-.14-.17-.23-.17s-.29.57-.29.73v2.8a1.79 1.79 0 0 0 1.47.95z" fill="url(#m)"/><path d="m152.09 127.55c18-.74 26.47.69 43.73.2h3.12c18.33.73 41.87.75 44.53-1 .08 0 0-.11.05-.09a.58.58 0 0 0 .32 0c1.08-.55 7.14-2 9.73-3 .59-.23.73.12.8 0a.51.51 0 0 0 -.56-.45h-.35c-18.14-.21-36.55-.89-54.83-1.26h-3c-17.61.26-39.27 1-56.9 1.59.16.06.39.17.68.31 1.94 1 10.44 3.5 12.68 3.65z" fill="url(#n)"/><path d="m25.33 189.42a1.69 1.69 0 0 0 1.67-.12c4.64-2.07 14.35-6 16.36-7 1.57-.83 2.47-1.06 10.86-4.79a.54.54 0 0 1 .1-.24c0-.05 0-.09-.06 0s0 0 .09-.33c2.65-6.15 6.25-13.41 8.53-17.94 1-1.92 1.88-3.68 2.7-5.26 1.65-3.18 2.93-5.66 3.67-7.35.2-.48.37-.89.48-1.24.26-.8 0-.84 0-.91-1.16-.36-3.06-.39-12.61-1.8l-4.23-.63-1.28-.2c-1.75-.36-2 .27-2.35 1-.27.51-.59 1.12-1 1.84-1.29 2.54-3.18 6.36-5.57 11.16l-3.95 7.88c-3.35 6.68-8.29 16.34-12.73 24.77-.24.46-.28.56-.3.6a1.27 1.27 0 0 1 -.15.31c-.09-.02-.14.1-.23.25z" fill="url(#o)"/><path d="m138 214.73 10.31-.11 22-.19 20.41-.19c2.3 0 4.6-.07 6.91-.05l14.42.12 22.86.18 17.9.14h2.47a.58.58 0 0 0 .32 0 2.36 2.36 0 0 0 -.53-.1l-10.32-.08-22-.18-20.35-.17c-2.29 0-4.58-.06-6.87 0l-14.5.13-22.88.21-17.91.16h-2.91c-.15 0 .1.07.13.07a1.93 1.93 0 0 0 .53.11z" fill="#222" opacity=".5"/><path d="m242.1 197.79a3.75 3.75 0 0 1 .84.08 3.59 3.59 0 0 0 .82.08c0-.91.06-1.35.06-2.26v-19.63a1.11 1.11 0 0 0 -.57.07c-.2.12-.37.37-.37.91v1.08c0 6.42-.14 15.13-.14 19.2 0 .42-.54.4-.64.47z" fill="#dfdfdf" opacity=".8"/><path d="m256.85 193.18h2c5.54 0 11 .06 16.41 0h7.4c21.37-.09 40.82-.07 65.46.39.54-.12 1.65-.15 1.53-.55-.29-1-.47-1.7-.76-2.75l-.3-1c-22.46 0-44.87-.55-67.29-.84l-7.69-.08q-8.33-.09-16.65-.1a2.31 2.31 0 0 0 -2 .75 1.34 1.34 0 0 0 .17.59 18.85 18.85 0 0 1 1.22 2.08c.21.51.32 1 .5 1.51z" fill="url(#p)"/><path d="m255.5 210.93v.6a3.07 3.07 0 0 0 .07.42c.07.36.5 1.35 1 1.43v-18.17a10.75 10.75 0 0 1 .18-1.79v-.21c-.2-.8-.87-3.71-1-4 0-.12-.22-.15-.25-.22s-.11-.15-.15-.15h-.35c0 .06-.1.18-.1.24a16.51 16.51 0 0 0 .05 1.86c.32 6.09-.05 12.06-.05 18.16v.41c0 .27.24.28.38.64a1.38 1.38 0 0 1 .08.27 2.16 2.16 0 0 1 .16.51z" fill="url(#q)"/><path d="m137.54 188.69 9.79-11.43" style="opacity:.5;fill:none;stroke:#585858;stroke-linecap:round;stroke-linejoin:round;stroke-width:.35"/><path d="m319.87 176.69-76.37-.64v.22l78.25.57-.26-.26z" fill="#d5d5d5"/><path d="m56.8 177.46-2.49-.12" fill="#757575"/><path d="m138 210.36s.07-.1.12-.11 0-.06 0-.07v-.11-.06h.06c.06 0 0-.06 0-.07v-.05a.24.24 0 0 1 0 .12v-.01a.06.06 0 0 1 0 .06v-.17h.05v-.06.09c0 .07 0 0 .05 0v-.15c0-.05.07.1.08.08s0 0 0-.06.05 0 0 0v.05-.06h.05v-.08-.07c0-.07 0 0 0 .05s0 0 .06 0v-.05s0-.09-.06-.1v.08h.06c.06 0 0-.06 0 0v-.09.06c0-.06 0 0 0-.05h.07c.07 0 0 0 0-.07v.06-.08h-.12v-.06h-.05v.06l-.06-.06c0-.05 0 0 0 0 0-.06 0 0-.06 0s-.09 0-.1 0v.07s0 .05 0 0a.09.09 0 0 0 0 .07s-.08-.06-.07 0h-.08v.06.06h-.23c0-.06 0 .05-.07.05a.06.06 0 0 0 0 .06v.69c0-.06.06.06.09 0 .06.09.17.06.24.13a.21.21 0 0 1 .11 0s.09.06.14 0 0 .06 0 0a.27.27 0 0 0 .07-.08h.06a.15.15 0 0 1 .16 0v.05h.34a.43.43 0 0 0 .37-.26v-.08-.11.06s-.1-.16-.15-.12-.06-.06-.09 0-.1 0-.16-.05a.36.36 0 0 1 -.2-.06c-.07-.06-.18 0-.26 0s0 .06 0 .05 0 0-.07-.05-.09-.06-.13 0h-.11v-.07.62h-.11z" fill="#dbdbdb" opacity=".5"/><g fill="#dbdbdb" opacity=".4"><path d="m161.62 209.58h-.11s.1.03.11 0z"/><path d="m155.11 209.48h-.11a.14.14 0 0 0 .11 0z"/><path d="m150.75 210.08c.33-.06.75-.16 1.07-.19a.84.84 0 0 1 .27-.08v.05h.5c.07 0 0-.05.12 0 .25 0 .27-.14.5-.13h.11c0-.06 0 0-.11 0s.09 0 .08-.07.08 0 .13 0h.26a.35.35 0 0 1 .16-.08h.08.43s-.07 0 0 0 .09 0 .12 0h.53c-.06 0 0 0-.05-.06s.12-.05.25 0m-.07 0a.25.25 0 0 1 -.13.11c-.08 0 .11 0 .09 0h-.09s-.05-.05 0-.06 0 0 .05 0 0 0 .15 0 .18 0 .2.06h.15c.16-.1 0 .06.14.06a.54.54 0 0 0 .18 0 .08.08 0 0 1 .08.08c0 .08.17 0 .21 0h.57a.52.52 0 0 0 .32-.08h-.05c-.05 0 .13.06.1.08h.29a.13.13 0 0 0 .12 0c-.09 0 .13 0 .07-.06h.52v.09a.07.07 0 0 1 .09-.06c.09 0 .1 0 0 .08a.49.49 0 0 0 .24 0s-.08 0-.07-.05c.19 0 .2-.11.34-.09h.12a.36.36 0 0 0 .25.1c.14 0-.08 0-.06-.08h.27l.08.06h.13a.19.19 0 0 1 .18 0s-.06-.06 0-.07.16 0 .16.06.09 0 .09 0 .11-.06.2-.08.09 0 .14.06.15 0 .16-.07.06 0 .08.06a1 1 0 0 0 .24 0h.26c.05 0 .13-.1 0-.12s.05 0 .09 0v-.05h.13s-.1.1 0 .09c.13 0 0 0 .1.06h-.06s.1-.06.12 0 .16-.06.1-.09.08 0 .08 0a.06.06 0 0 1 .06.07c0 .07-.07 0 0 0h.19a.07.07 0 0 1 -.06.07c-.06 0 .2 0 .14 0s-.14-.05 0-.06h.86c0-.07 0 0 .06-.07s.14 0 0 .07h.07c.05 0-.12 0 0 .07s.14-.07.24 0 .07 0 0 0h-.12c.19 0 .05-.06.15-.09s.09 0 .1.06.07 0 .1 0-.13 0-.1-.06.17 0 .2 0c-.16 0-.11 0-.26-.06s0 .07-.11 0-.06 0-.09 0 .05-.07 0-.07v.06s0-.05-.06 0 0-.05.09-.06c-.13-.06-.19 0-.29.05h-.08c-.07 0 .05 0 0-.05h.28l.06-.06-.1.05s-.1 0 0-.05h-.16s-.24.09-.21 0a1.91 1.91 0 0 1 -.33.06c.12-.05-.14 0 0-.07h-.15c-.06 0 0-.05 0-.07h-.13c-.06 0 0 0-.08-.05h-.41c-.14 0-.23.05-.33 0 .05 0 0-.05 0 0a1.65 1.65 0 0 0 -.32.06s0-.06-.13-.07-.08 0-.1 0h-.28c-.12-.06-.19 0-.31 0h-.4c.09-.05-.07 0-.09 0h-.06a.1.1 0 0 0 -.14 0h-.9c-.12 0-.09-.05-.21 0 0-.06-.13 0-.21-.07-.2.09-.44-.07-.68 0h-.26a1.09 1.09 0 0 1 -.36 0h-.64a.15.15 0 0 0 -.13 0h-.21c0-.05-.21 0-.19 0h-.14a.17.17 0 0 0 -.11.06h-.16c-.15 0-.26-.1-.38 0h-1.16l-.12.06h-.78l-.37.08h-.73a2.22 2.22 0 0 0 -.7.07.62.62 0 0 1 -.23.07 4.5 4.5 0 0 1 -.51.08h-.14a.14.14 0 0 1 -.15 0l-.07.05h-.05s-.12 0-.14.08-.09 0 0 0h-.29s-.08.06-.13 0 0 0 0-.06a.25.25 0 0 1 -.17 0h-.17c-.06 0-.11 0-.09.07s0 0-.06 0h-.18s-.23 0-.24.07h-.08a.08.08 0 0 1 -.06.07c-.06 0-.05 0-.07-.06v.07a5.36 5.36 0 0 1 -1.06 0 3 3 0 0 1 -.51.08h-.13a3.86 3.86 0 0 0 -.68 0c-.15.08-.1-.06-.24 0l-.39.09c0-.07-.11 0-.09 0h-.51a4.31 4.31 0 0 1 -.88 0 .61.61 0 0 1 -.19 0h-.07c-.07 0-.14.06-.2 0h-.19c-.06 0-.15 0-.13-.06s-.16 0-.16 0-1-.08-2.05-.09a8.48 8.48 0 0 0 -2.79.29s-.11.06-.07.09-.11 0-.12 0 0 .07.07.1.07 0 .06 0a.17.17 0 0 1 .1 0 .17.17 0 0 1 .17-.08v.05h.19c0 .06.11 0 .17 0h.4s.06-.06.18 0-.1 0 0 0h.13a0 0 0 0 1 -.07 0 4.52 4.52 0 0 0 .82.13h-.06c.22 0 .31.06.5.06a6.38 6.38 0 0 0 .87.07h.2a8.13 8.13 0 0 0 1.21.12c.57 0 1.19.07 1.75.06-.08 0 0-.06 0-.05a2.7 2.7 0 0 1 .49.06 4.82 4.82 0 0 0 .93 0h.62c0 .06.2 0 .25 0a1.74 1.74 0 0 1 .39 0h.29c.1 0 .49-.07.74-.09h.16s0-.06.07 0h.05s0 0 .06.07c.22 0 .36-.11.58-.13h.15c.13 0 0-.05 0-.1s.08 0 .09 0h.09c.18-.06.33 0 .49-.07h-.06c.16-.07.15 0 .3 0s.07 0 .15 0-.06 0-.1.06.2 0 .15-.06.09 0 .13 0a2 2 0 0 0 .35 0s0-.38.15-.4z"/><path d="m161.31 209.6h-.06a.06.06 0 0 0 .06 0z"/></g><path d="m139.23 210.73h.07z" fill="#868686"/><path d="m155.45 209.94h-1c-.78 0-1.6.09-2.32.16-1.16.08-2.29.16-3.44.18h-5.84a5.68 5.68 0 0 0 .94-.05h.88a1.93 1.93 0 0 0 .34 0h2.88a5 5 0 0 0 .55 0h.5 1.37 1.53a1.71 1.71 0 0 1 .32 0h1.39-.46 1.6a.61.61 0 0 1 -.19 0h7a.67.67 0 0 0 .2 0h.17a1.61 1.61 0 0 0 .31 0h2.09a.85.85 0 0 0 .33 0h.52a1.22 1.22 0 0 0 -.27 0h-1.85a1.5 1.5 0 0 0 -.3 0h-6.7a.59.59 0 0 0 -.55-.24zm-11.43.53h.27a1.17 1.17 0 0 0 -.29 0zm10.47-.28h.08s0-.1-.09-.1z" fill="#868686"/><path d="m141.29 210.64h-.11a.4.4 0 0 0 .11 0z" fill="#868686"/><path d="m143.85 210.43h.25a.93.93 0 0 0 -.25 0z" fill="#868686"/><path d="m153.4 210.22c-.11 0 .07-.01 0 0z" fill="#868686"/><path d="m154.3 210.14h-.1a.17.17 0 0 0 .1 0z" fill="#868686"/><path d="m154.48 210.13h-.15z" fill="#868686"/><path d="m155.25 210.08h.11z" fill="#868686"/><path d="m199.23 209.2h-.37c.65.02.03 0 .37 0z" fill="#474747"/><path d="m196.44 205.69.08.09v.22a.54.54 0 0 0 0 .18v-.23a.38.38 0 0 1 0-.15l-.06-.07-.05-.07a.75.75 0 0 1 -.07-.12v.14a.81.81 0 0 1 -.12-.14z" fill="#474747"/><path d="m225.53 209.43h.11c1.14 0 2.45.09 3.36.09 1.39.08.91 0 2.19.07 4.2.16 8.65.32 12.58.43h2.88l2.87.07 2.85.07h1a2 2 0 0 0 .35.09h.76a.62.62 0 0 0 .19-.07l.18-.14v-.13l.08-.16h-.2v.25a.16.16 0 0 1 -.06.13.38.38 0 0 1 -.15.09.66.66 0 0 1 -.2.06 1.51 1.51 0 0 1 -.42.05h-2.29l-3.66-.07h-1.46a1.93 1.93 0 0 0 .34 0h-2.53c-1.33 0-1 0-2.15 0h-2.25l-1.9-.26h-6.11a15.84 15.84 0 0 0 1.72 0h1.32c-.45 0-1.1-.05-1.66-.06h-2.57l1.3.06h-1c-.77 0 .1 0-.53-.05h-3.7a5.34 5.34 0 0 1 -.8 0h-8.8c-.91 0-1.41 0-2.39-.07h-.78a13.06 13.06 0 0 1 -1.57-.09h-.31a9.37 9.37 0 0 0 -1.06 0c-.59 0-.25 0-.38 0h.41l2.31.08h-.24a4.7 4.7 0 0 0 .75 0h.21a1.82 1.82 0 0 0 .33 0h.65a5.47 5.47 0 0 1 .81 0h.13c1.66 0 3.72.1 5.13.11h.34l1.49.02h-.35a1.88 1.88 0 0 1 .58 0h4.41c1.92.06 3.5.1 5.31.17h.94c1.9.06 3.36.09 5.17.13h3.39a3.69 3.69 0 0 1 .47 0h4.08a3.11 3.11 0 0 0 -.61 0h3.34l2.81.06h1.84a2.34 2.34 0 0 0 .38-.09l.18-.09a.61.61 0 0 0 .15-.17.34.34 0 0 0 .05-.22v-.12l-.08-.15-.08.15-.1.2-.06.06a.71.71 0 0 1 -.35.13h-.39l-.4-.09c-.21 0-.13 0 0 0h-3.11c-.34 0-.76-.07-1-.06l.38.06h-.62s-1 0-.55 0h-8.7a7.21 7.21 0 0 1 -.75-.05h-3.73c.92 0 1.63 0 2.54.06a7.53 7.53 0 0 0 -1.06 0h-.08c-.5 0-.91-.05-1.22-.06a11.42 11.42 0 0 1 -1.17 0h-1.61a3.53 3.53 0 0 1 -1-.06h-1.45a8.39 8.39 0 0 1 -1-.06h1c-.22 0-.71 0-1.44-.06h-8.09c-.39 0-1.1 0-1-.06h-2.61l-.95-.05h-1l-1.24-.06c-1.19 0-2.28-.08-3.52-.11h-.49c.14 0-.59 0-.92-.05-1.23-.06-2.13 0-3.26-.1h.3c-.86 0-1.55 0-2.34 0l-1.83-.06h-5.1a1.47 1.47 0 0 1 -.28-.14 1 1 0 0 1 -.21-.19 1 1 0 0 1 -.24-.55v-1.27a.43.43 0 0 1 0-.16v-.2l-.09-.09a.57.57 0 0 1 -.08-.13.38.38 0 0 1 0-.15.49.49 0 0 1 0-.17.28.28 0 0 0 0 .18v.08a.29.29 0 0 1 0-.13.29.29 0 0 1 0-.13v-2.2a1.22 1.22 0 0 1 0-.27 3.54 3.54 0 0 0 -.05-.7c0-.25 0-.5 0-.71 0 .2 0 .83 0 .59a7.61 7.61 0 0 0 -.08-1 5.3 5.3 0 0 1 0-.69v-2.31a.14.14 0 0 0 0-.09 1.28 1.28 0 0 0 -.11-.33c-.05-.1-.11-.19-.16-.28a1.5 1.5 0 0 0 -.19-.25c-.07-.08-.25-.3-.38-.44l.09.1.12.14-.25-.27h-.08a.15.15 0 0 0 -.16 0 .27.27 0 0 0 -.07.14v.11a.54.54 0 0 0 0 .18v.08 2.36-1a4.21 4.21 0 0 1 0 .71v2.26c0 1.37.06-.68 0 .87v.1a11.07 11.07 0 0 0 0 1.29v3.54.16a.39.39 0 0 0 .08.1v.06.13a.54.54 0 0 1 0 .18v.16a.7.7 0 0 0 .08-.2.57.57 0 0 0 0-.26v-.11l-.05-.06v-.06a.3.3 0 0 1 -.09-.13.14.14 0 0 1 0-.09.11.11 0 0 1 0-.08v-.4c0 .45 0-.7.05-.47v-.06c0-1.17.06-2.67.09-4.15v-5.38a0 0 0 0 1 0-.05 0 0 0 0 1 .07 0h.05l.07.08a.93.93 0 0 1 .14.14l.12.15v-.06l-.24-.26c.14.17.28.31.38.45a1.92 1.92 0 0 1 .27.46.81.81 0 0 1 .07.22v3.4.45c.05.44 0 .61.08 1.18v1.59a.67.67 0 0 0 0 .2 1 1 0 0 0 .09.29.65.65 0 0 0 .15.18v1.24a1.31 1.31 0 0 0 .14.59.85.85 0 0 0 .17.25 1.16 1.16 0 0 0 .24.2 1.46 1.46 0 0 0 .53.22 4.85 4.85 0 0 0 .55.09l1.09.06 2.25.1 2.62.09h4.72c1.37.06 1.75 0 3 .1a4.69 4.69 0 0 1 .75 0h.69c.61 0 1.2 0 2.1.09h5.13l1.58.05h-.08a5.67 5.67 0 0 1 1.06.05 8.39 8.39 0 0 0 2.73.41zm-2.69.25h-.49 1.56.39c-.3 0-1.73-.07-1.46 0zm8.16-.17h-.33s-.36-.03.33 0z" fill="#474747"/><path d="m224 209.82h-.19c-.12 0 .54.02.19 0z" fill="#474747"/><path d="m247.27 209.9h-.42c.36 0 .15-.01.42 0z" fill="#474747"/><path d="m246.44 209.89h-.26z" fill="#474747"/><path d="m242.11 209.75h-.49z" fill="#474747"/><path d="m242.31 209.79h-.61c.15-.02.4 0 .61 0z" fill="#474747"/><path d="m239.89 209.69h-.35-.09z" fill="#474747"/><path d="m238.58 209.64h.33c-.11 0-.62-.02-.33 0z" fill="#474747"/><path d="m230.85 209.39h.79c-.54 0-.41 0-.79 0z" fill="#474747"/><path d="m232.21 209.49h-.75c.1 0 .54-.01.75 0z" fill="#474747"/><path d="m227.13 209.28h-.76.25z" fill="#474747"/><path d="m194.89 205.89v.11c-.01.44 0-.2 0-.11z" fill="#474747"/><path d="m195 209.09s.23-.42 0-.65-.13-.34-.13-.34l.1-10.23s0-.62.26-.31a2.62 2.62 0 0 1 .81 1.35v3l.13 1.81v1.49a.72.72 0 0 0 .23.65 4.43 4.43 0 0 0 -.12.89c0 .37-.21 1.55 1.59 1.65s6.73.26 7.85.26 12.85.41 13.06.41l25.47.85 9 .22a4.49 4.49 0 0 0 .81.17c.24 0 .56 0 .68-.28l.12-.24s.4.67-1.06.67-11.93-.25-11.93-.25l-34.69-.91z" fill="#222" opacity=".9"/><path d="m196.49 203.06a.66.66 0 0 1 0 .28v.07.09.14.12.13.11a0 0 0 0 1 -.05-.05v.1.15.05.14.06.1s-.07 0-.07.06v.07.06h.06v.05a.09.09 0 0 1 0 .07v.12.02-.09-.16-.1-.09-.19-.06-.06-.14c0-.07.06-.12.06-.2v-.06a.17.17 0 0 1 0-.1v-.08-.13-.11s.06-.07 0-.11v-.05a.24.24 0 0 0 0-.12v-.15-.13-.11a.61.61 0 0 0 0-.19.74.74 0 0 0 0-.21v-.22-.08-.06-.3a.33.33 0 0 1 0-.14.67.67 0 0 0 0-.2v-.19-.17a1.13 1.13 0 0 1 0-.26v-.12-.05a2 2 0 0 0 -.18-.63 2 2 0 0 0 -.47-.65.34.34 0 0 0 .06.24v.14c0 .08.06.14.07.22a1.82 1.82 0 0 0 0 .33 3.53 3.53 0 0 1 0 .46v.39.09.07a.21.21 0 0 1 0 .11.11.11 0 0 0 0 .08v.28a.49.49 0 0 1 0 .17v.13.08.11s.5.77.51.83z" fill="#424242" opacity=".3"/><g opacity=".24"><path d="m196.8 201.71-.15-.45.07.09a1.55 1.55 0 0 1 .08.36z" fill="#b8b8b8"/><path d="m196.91 202.12-.09-.35a.61.61 0 0 1 .09.35z" fill="#b8b8b8"/><path d="m197.43 204.09c-.13-.15-.24-.31-.36-.46s0-.07 0-.1v-.32a.83.83 0 0 0 .21.16s0-.13.06-.13a.43.43 0 0 1 .24.22q-.09.31-.15.63z" fill="#d1d1d1"/><path d="m197.33 204.57a1.31 1.31 0 0 1 -.15.37l-.14-.18a.28.28 0 0 0 -.09.1 4.66 4.66 0 0 0 .08-.64 2.85 2.85 0 0 0 .3.35z" fill="#dcdcdc"/><path d="m197.39 204.17v.15a1 1 0 0 1 -.06.25 1 1 0 0 1 -.24-.29h-.09v-.6a.06.06 0 0 0 0-.08c.12.15.23.31.36.46s.02.09.03.11z" fill="#d7d7d7"/><path d="m197 202a.87.87 0 0 0 .32.22.49.49 0 0 0 0 .17c0 .09 0 .3.06.33a1.79 1.79 0 0 0 -.28-.27.26.26 0 0 1 -.16-.09h-.05v-.2c.05 0 0-.11 0-.11v-.05l.07.06a.1.1 0 0 0 .04-.06z" fill="#c1c1c1"/><path d="m197.31 203.24a.43.43 0 0 1 .24.22v-.15h-.06v-.18a.27.27 0 0 1 0-.19v-.15h-.06v-.1s-.18-.26-.28-.27a.26.26 0 0 1 -.16-.09v.24.3h.06a.44.44 0 0 0 -.07.19v.12a.83.83 0 0 0 .21.16s0-.1.07-.1z" fill="#c4c4c4"/><path d="m196.23 199.59a.42.42 0 0 1 .08-.3 1.28 1.28 0 0 1 .42-.15 3.38 3.38 0 0 0 .07 1c-.08-.07-.08-.22-.2-.26s-.1-.22-.17-.21l-.14.07a.62.62 0 0 1 -.06-.15z" fill="#a1a1a1"/><path d="m196.32 200.26-.07-.25.09.28z" fill="#ababab"/><path d="m196.57 199.92a1.64 1.64 0 0 0 .2.26c.08.07.06.25.09.37v-.05c0 .07-.07.11-.05.18-.16-.17-.26-.44-.46-.57a1.64 1.64 0 0 0 -.07-.28l.14-.07c.05-.06.09.08.15.16z" fill="#ababab"/><path d="m196.79 200.63c0-.07.07-.11.05-.18v.05l.14.44.08.32-.22-.16a2 2 0 0 0 0-.49c0 .06-.07.06-.08.1s-.17.26-.25.23l-.23-.66v-.06l-.07-.19c.32.16.42.43.58.6z" fill="#b0b0b0"/><path d="m196.89 201.13.22.16v.31a.14.14 0 0 1 0 .09v.09a2.22 2.22 0 0 0 .09.37v.06a1 1 0 0 1 -.2-.21h-.06l-.07-.06a.55.55 0 0 0 -.1-.35v-.07a.53.53 0 0 0 -.16-.45.35.35 0 0 0 .25-.23c0-.12.06-.15.08-.1a1.3 1.3 0 0 1 -.05.44z" fill="#b8b8b8"/><path d="m197 205.46-.07.14v-.14a.09.09 0 0 0 0-.07z" fill="#ebebeb"/><path d="m196.78 205.31s.05 0 0 .07-.12-.06-.11-.08.1 0 .11.01z" fill="#ebebeb"/><path d="m197 204.86a.28.28 0 0 1 .09-.1l.14.18-.17.37m0-.07v-.06a2.33 2.33 0 0 0 .08-.36z" fill="#e6e6e6"/></g><path d="m28.14 189.51c7-2.74 13.85-5.82 20.65-9l5.73-2.71c.68-.32-.7-.55-1-.39-6.89 3.26-13.76 6.63-20.82 9.52-1.85.76-3.71 1.5-5.56 2.22-.69.27.7.53 1 .4z" fill="#b4b4b4"/><path d="m244.92 142.66h10.36c0-.16.15-.53.15-.7a7.56 7.56 0 0 0 0-2.42c-.06 0 .24-.11.1-.09s-.66.18-.7.19c-.87.28-1.46.46-2 .6a6.8 6.8 0 0 0 -1 .33c-1.16.58-4.44 1.09-6.16 1.72a4.35 4.35 0 0 0 -.75.37z" fill="url(#r)"/><path d="m252.07 140.5h-.06z" fill="#5b5b5b"/><path d="m251.83 140.55s0 0 0 0z" fill="#5b5b5b"/><path d="m245.72 142.52h-.51c-.19 0-.08 0 .13-.11l.53-.2c.55-.19 1.09-.35 1.64-.51h.06.2l.19-.05a.83.83 0 0 1 .22-.08h.64s-.17 0-.15 0h.3a.14.14 0 0 0 .09 0h.68a.21.21 0 0 0 .11 0h.2.22 1a.54.54 0 0 0 -.18 0h-.67l-.45.12h-.43l-.16.05-.48.11-.46.12-.24.08h-.11l-.26.08h-.26l-.65.19h-.09l-.19.07h-.45l-.15.06-.17.08-.14.05h-.07l-.14.06-.13.06h-.09.08l.21-.11h-.21l-.12.07c-.13.07 0 0-.13.1h.28a.14.14 0 0 1 -.09 0h2.68a.67.67 0 0 0 .2 0h-2.43zm-.45.04s0 0-.05 0z" fill="#5b5b5b"/><path d="m245.71 142.2h-.19l.14-.06z" fill="#5b5b5b"/><path d="m243.87 142.54s-.09.4 1.13.53-.08-.13-.08-.13l-1.69.13.35-.25z" fill="#424242" opacity=".9"/><path d="m247.28 139.4a1 1 0 0 1 .73.36c.36.37 1 .06 1.39.12h.08c.34.13.42-.14.73-.14a1.15 1.15 0 0 0 .71-.22.45.45 0 0 1 .23 0 1 1 0 0 0 .59-.2c.07-.08.17-.08.3-.09a1.06 1.06 0 0 0 .58-.11 6.68 6.68 0 0 1 1.59-.43h.21c.29 0 .39-.24.42-.49a1.27 1.27 0 0 0 0-.39.33.33 0 0 0 0-.14v-.2c0-.2 0-.41 0-.61a2.92 2.92 0 0 0 -.06-.64c-.06-.28 0-.37-.06-.57l-.12-1.17c0-.14 0-.21-.07-.23a.16.16 0 0 0 -.17.05.32.32 0 0 0 -.1.18 1.1 1.1 0 0 1 -.17.42 1.9 1.9 0 0 1 -.33.47 4.44 4.44 0 0 1 -1.07.58h-.06a2.33 2.33 0 0 0 -.55.32c-.09.06 0 0-.23 0a1.77 1.77 0 0 0 -.71.21c-.14.08-.25.18-.25.27a1.72 1.72 0 0 1 -.9.43.42.42 0 0 0 -.28.14c-.18.16-.36.41-.46.51a2.52 2.52 0 0 1 -.79.54l-.25.1-.36.13a1.68 1.68 0 0 0 -.69.35c-.06.06-.2 0-.21.14v.13z" fill="#2b2b2b"/><g fill="#222" opacity="0"><path d="m246.17 139.64a.37.37 0 0 1 .31-.18.92.92 0 0 1 .52 0c.18.09.31.32.13.32s-.52.19-.58.12-.48-.06-.38-.24"/><path d="m247 139.52a.34.34 0 0 1 .13.16c0 .11-.17 0-.25.11h-.54.66z"/></g><path d="m246.17 139.64a.37.37 0 0 1 .31-.18.92.92 0 0 1 .52 0c.18.09.31.32.13.32s-.52.19-.58.12-.48-.06-.38-.24" fill="#2b2b2b"/><path d="m247 139.52a.34.34 0 0 1 .13.16c0 .11-.17 0-.25.11h-.54.66z" fill="#484848"/><path d="m252.46 138.35a1.69 1.69 0 0 0 -.45 0 .79.79 0 0 0 .61.17c0-.27-.36-.25-.57-.21" fill="#373737"/><path d="m253.34 137.78c-.13 0-.41 0-.43.19s.45.16.53 0h-.12" fill="#373737"/><path d="m251.81 137.86a1.92 1.92 0 0 0 -.31.18l-.06.07a.33.33 0 0 0 -.14.1v.07a.48.48 0 0 0 .08.26l.07.08h.92a.11.11 0 0 1 .07-.1h.07v-.06h1c-.05 0 0 0-.08.07v.05h-1l.15-.09.17-.08a.06.06 0 0 1 .06 0 .31.31 0 0 1 .13-.06h.06a1.38 1.38 0 0 0 .34-.12c.05 0 .06-.06.1-.07h.29a.23.23 0 0 0 .15-.12s.06-.15.08-.15h.05s.45-.37.39-.31a.9.9 0 0 1 .07.27 1.86 1.86 0 0 0 .06.34v-.06-.05-.06-.02c0-.1.05-.17 0-.26a.31.31 0 0 0 -.06-.18.25.25 0 0 0 -.33-.12h-.05v.06c-.07 0-.21.21-.25.22a.73.73 0 0 0 -.53.24c-.19.24 0 .15-.06.13l-.06.06h-.19l-.13.07h-.16l-.11.05h-.64a2.11 2.11 0 0 0 -.1-.45z" fill="#636363" opacity=".8"/><path d="m254.34 137.15c0 .16-.55 1 0 1 .18 0 .36-1 .06-.92" fill="#373737"/><path d="m340.58 189.24h7s.42.07.59-.13" fill="#727272"/><path d="m345.74 189.26h.18a.67.67 0 0 0 .2 0z" fill="#c2c2c2"/><path d="m345.56 189.24h-.1s-.16 0-.13 0h.24z" fill="#c2c2c2"/><path d="m345 189.24h-.91a1 1 0 0 1 .25 0h.58c-.06 0 .08 0 .08 0z" fill="#c2c2c2"/><path d="m342.26 189.23h1.47a1.22 1.22 0 0 0 .27 0h-1a.17.17 0 0 0 -.14 0h-.23c-.25-.02-.31.03-.37 0z" fill="#c2c2c2"/><path d="m341.29 189.26h.59a.31.31 0 0 0 -.19 0h-.33c-.06 0-.07 0-.07 0z" fill="#c2c2c2"/><path d="m340.76 189.28h.06a.25.25 0 0 1 -.17 0z" fill="#c2c2c2"/><path d="m254.32 123.77s0-.28-.49-.28-9.65 3-9.65 3-.37.41-2.51.23" fill="none" stroke="#585858" stroke-linecap="round" stroke-miterlimit="10" stroke-width=".48"/><g fill="#6b6b6b" opacity=".85"><path d="m136.7 203v-.93.77.6a1.65 1.65 0 0 0 0-.44z"/><path d="m136.63 204.62v-.09a2.54 2.54 0 0 0 0-.39v.06a3.38 3.38 0 0 0 0 .45s-.01.01 0-.03z"/><path d="m136.81 202.22.09-1.09a.11.11 0 0 1 0-.08v-.28-1.29a1.31 1.31 0 0 1 0-.28 1.31 1.31 0 0 1 0 .28v.33-.52c.1-1.24.18-2.15.29-3.36l.17-1.86c.1-1.2 0-2.3.13-3.51v-.9a2.06 2.06 0 0 0 -.09-.92c-.17-.31-.31-.3-.3-.29s0 .1 0 .12c.2.31.2.6.15 1.36v.86c-.09.7 0 1.7-.08 2.57v.7c-.13 1.34-.2 2.59-.32 4v1l-.06.66v2.2.42.09z"/><path d="m136.93 200.68v-.22a1.46 1.46 0 0 1 0 .22z"/></g><path d="m147.06 181.49c0 .49-.06 2.13-.08 2.85v-.75l-.06 1v.35c0 .23-.1 2.62-.1 3v2.06s-.06.48 0 .51a1.84 1.84 0 0 1 0 .32v.23a5.81 5.81 0 0 0 0 .59v5.64.48a.66.66 0 0 0 .29.48h.25c.05 0 .2 0 .15-.08a.54.54 0 0 1 -.34-.12h.06-.18s-.09-.28-.08-.5 0-.41 0-.59v-.57a4.22 4.22 0 0 0 0-.87v-6.65c0-3 .09-6.36.11-7.11z" fill="#393939" opacity=".8"/><path d="m107.58 188.16 29.74-.49s.56-.06.56.35l.39-.68-.78-.29s-.12.29-2.28.29-27.63.82-27.63.82z" fill="#c6c6c6"/><g opacity=".5"><path d="m137.68 188.91a4.88 4.88 0 0 0 2-1.14s-1.7 1.6-2.07 6.27-1.31 15.67-1.31 15.67z" fill="#585858"/><g fill="#6f6f6f"><path d="m137.61 189.71a3.38 3.38 0 0 0 0-.45 3.38 3.38 0 0 0 0 .45z"/><path d="m137.65 189.37v.24z"/><path d="m137.57 190.25v-.16-.32a2.16 2.16 0 0 1 0 .36z"/><path d="m136.92 201.55v-.06s.01.01 0 .06z"/><path d="m137.4 192.71v.12a.24.24 0 0 0 0-.12z"/><path d="m137.39 192.83a.74.74 0 0 0 0 .21z"/><path d="m138.06 191.6v.15c0 .13.06-.26 0-.07v-.07c-.06.12.01-.07 0-.01z"/><path d="m136.78 204.66v.1l.05-.88v.12z"/><path d="m137 201.05v.25l-.1 1.19v-1.07.41l.06-.67c-.07.8 0-.38 0-.07a5 5 0 0 1 -.11 1.11v-.75-.35a1 1 0 0 0 0-.25v.2-1.18a1.61 1.61 0 0 0 0-.31v-.16a2.16 2.16 0 0 1 0-.36v-.52a2.54 2.54 0 0 0 0-.39v-.88-.25a1.13 1.13 0 0 0 0-.26v-.08a.14.14 0 0 1 0-.09v-.49l.05-.77v-.31a3.26 3.26 0 0 1 .06-.51v-.12a1.93 1.93 0 0 0 0-.34v-.79a1.93 1.93 0 0 1 0-.34v-2.06a3.09 3.09 0 0 1 0-.43v-.19 1.4a4.51 4.51 0 0 1 0-.52v.26a.74.74 0 0 0 0 .21v.43a1.93 1.93 0 0 1 0 .34v1.41a.38.38 0 0 0 0 .15v.1l-.06.74v-.08a1 1 0 0 0 0 .25v.38a1.13 1.13 0 0 1 0 .26l-.09 1.65v.45a.54.54 0 0 1 0 .18v1.42l-.13 1.76v.48l-.16 2.55-.06.67a4.47 4.47 0 0 0 0 .85l-.06.67v.85l-.08.92v1.57-.18.11a.24.24 0 0 1 0 .12v-.44l.06-.72v.59l.08-1.09v-.55 1l.07-.87v-1.28l.09-1.31-.06 1v.19l-.12 1.61v.27c-.06 1 0 0 0 .07v.21l-.06.82.06-.74v-.14l.12-1.58-.05.68.1-1.36v-.3l.06-.78v-.26l.06-.79v-.66.12l-.05.73.06-.73v.49.76l.06-.67v-1.71l.09-1.26v-.36-.28a1.22 1.22 0 0 0 0-.27v-.33a2.67 2.67 0 0 1 0-.4v-.28a.38.38 0 0 0 0 .15v-.77l.05-.4.09-1.13v-.19a1.41 1.41 0 0 0 0-.29l.08-1.05a.17.17 0 0 1 0 .1l.07-.75.1-1.18v.07l.07-.69.08-.47v.05l.08-.42a7.6 7.6 0 0 1 .16-.83s0 .25 0 .26 0-.15.06-.26v.06l.07-.33v.1a4.9 4.9 0 0 1 .16-.58l-.06.18.14-.52c.09-.23 0 .18 0 .14s.06-.13 0 0c.07-.21.12-.36.19-.54a6.66 6.66 0 0 1 .31-.73l-.06.11.11-.24s.09-.14.06-.08a6.11 6.11 0 0 1 .38-.65 1.27 1.27 0 0 0 -.18.27.59.59 0 0 1 .13-.18 3.65 3.65 0 0 1 .32-.45c-.07.06-.12.1-.1.07-.33.3.18-.11-.19.21-.19.13.16-.15-.09 0s-.12.11-.33.25a2.92 2.92 0 0 1 -.48.29c-.14.07-.4.18-.54.23l-.33.1h-.06a4 4 0 0 0 .45-.15c-.13.06.22-.07.16 0a4.3 4.3 0 0 0 1.16-.66l.26-.24a1.91 1.91 0 0 0 -.31.38c0 .05 0 0-.18.28.07-.12 0 0-.06.06l-.09.16a4.23 4.23 0 0 0 -.25.47c-.08.15 0 0 0-.07s-.06.12-.09.17c-.11.24-.18.38-.27.63 0 0-.1.25-.13.37l-.08.21v.14c0 .14-.06.19-.11.37l-.17.6a24.64 24.64 0 0 0 -.45 3.2v1.28.23a3.62 3.62 0 0 1 -.08.95 1 1 0 0 1 0 .24v.16a2.49 2.49 0 0 1 -.07.67v.59a.81.81 0 0 0 0 .22v.9a4.17 4.17 0 0 1 0 .5 1.93 1.93 0 0 1 0 .34c.13.32.13 0 .13.17zm.27-4.94s0-.11 0 0zm-.12 1.73v.34.17s0-.6 0-.51zm.14-2.89v.05zm-.4 8.11v.41c0-.39 0-.54 0-.34z"/><path d="m137.59 190.6v-.06a1.22 1.22 0 0 0 0-.27z"/><path d="m137.35 193.08v-.19c.02-.07-.01.16 0 .19z"/><path d="m137.49 192.23v-.1a.89.89 0 0 0 0 .23.29.29 0 0 1 0-.13z"/><path d="m137.41 193.46a1.31 1.31 0 0 0 0-.28 1.28 1.28 0 0 1 0 .28z"/><path d="m137.28 194.61a.54.54 0 0 1 0-.18v-.19a1.31 1.31 0 0 1 0 .28c-.02.09-.02.2 0 .09z"/><path d="m137.4 193.75v-.08c-.02.08.01-.1 0 .08z"/><path d="m137.33 194.71c.03-.17.01.03 0 0z"/><path d="m137.15 197.56v.44c-.01-.13.01-.46 0-.44z"/><path d="m136.93 201.4v.17c-.02.08-.01-.06 0-.17z"/><path d="m136.39 209.34v-.08l.08-1.14-.07.87z"/><path d="m136.44 209.18c0-.08.08-1.09 0-.52z"/><path d="m136.72 205.73v.35c-.04.16-.02-.15 0-.35z"/><path d="m136.77 205.08v.18l.06-.7v-.46a5 5 0 0 1 -.07.91l-.06.87z"/><path d="m136.77 204.69v-.45c.05-.32.01.33 0 .45z"/><path d="m136.94 202.88v-.44.12z"/><path d="m137 202.66v-.4z"/><path d="m137 202.27v.29z"/><path d="m137.08 201.37v.07a1.61 1.61 0 0 0 0 .31z"/><path d="m137.45 195.58v.11l.05-.56v.2z"/></g></g><path d="m136.69 210.11a.38.38 0 0 0 -.15 0c-.09.06 0 .16.05.21a1.2 1.2 0 0 0 .4.22.61.61 0 0 0 .27 0h.27c.05 0 0 0 0-.06a.15.15 0 0 0 -.13 0h-.52l-.13-.08s-.14-.11-.08-.16a.29.29 0 0 1 .13 0v-.06a.29.29 0 0 0 -.13 0z" fill="#222"/><path d="m137.31 210.37h-.06a0 0 0 0 0 -.05-.05l-.11-.06h-.37a.37.37 0 0 0 .29.19.33.33 0 0 0 .14 0 .28.28 0 0 0 .25 0s0 0-.09-.08z" fill="#f9f9f9"/><path d="m195 197.29c1.22 0 47.55 1.7 48 1.23 0-.1 0-.2.05-.3a.49.49 0 0 0 0-.17l-.42-.55c-.2.09-.37.08-.57.17-15.57-.43-31.16-.75-46.73-1.19a1.09 1.09 0 0 0 -.4.5.42.42 0 0 0 0 .31z" fill="url(#s)"/><g fill="#e7e7e7"><path d="m254.31 209.65h-.06z"/><path d="m254.06 209.38c0 .06.09.09.13.15h.06c-.07-.04-.17-.1-.19-.15z"/><path d="m253.9 209.06c0 .05-.01-.06 0 0z"/><path d="m253.92 209.12c0-.06.08.07 0 0z"/><path d="m253.68 208.85h-.06s.05.01.06 0z"/><path d="m253.78 209.08h.1l-.11-.05z"/><path d="m253.45 208.54h-.1s.08-.04.1 0z"/><path d="m253.56 208.75a.06.06 0 0 0 0-.06z"/><path d="m253.7 209h-.07s.02-.06.07 0z"/><path d="m253.38 208.53-.08-.05a.27.27 0 0 0 .07.08s.03 0 .01-.03z"/><path d="m253.25 208.38v.05s.01-.05 0-.05z"/><path d="m252.87 208.32a.11.11 0 0 1 .11.08c0 .08.1-.07.1-.14s0 0-.07 0 .07.12 0 .1 0-.05 0-.09-.11 0-.14 0h.07s0 0 0 0z"/><path d="m253.16 208.34a.14.14 0 0 1 0-.09h-.06l.08.09z"/><path d="m253.26 208.44s0 0 0-.06h.05l-.09-.07z"/><path d="m253.52 208.93c-.06 0 0-.11 0-.11a.21.21 0 0 0 0 .11z"/><path d="m253.38 208.68-.08-.06v.06z"/><path d="m247.06 202.39h-.06s0 .01.06 0z"/><path d="m252.11 207.2-.05-.07s.02.08.05.07z"/><path d="m252 207.05.06.06a.09.09 0 0 0 -.06-.06z"/><path d="m250.07 205.55h.08v-.09z"/><path d="m247.51 202.83v.07c-.09 0-.11-.08-.1 0 .08-.07.19.18.27.12 0 .09.1 0 .16.09s0 .06 0 0l.08.05.09.09h.07c0 .12.06 0 .12.18h-.06a.2.2 0 0 0 .07.18c.07.08 0-.17 0-.13a.13.13 0 0 0 .07.06l.05.09c0 .09.06 0 .1 0a.08.08 0 0 1 0 .11c.06.08 0-.09.08 0a.42.42 0 0 0 .19.16h.16c.1 0 0 .15.14.18a.5.5 0 0 0 .2.08v.09c0-.07.07 0 .14 0s0-.05 0-.06l.09.06s0 .05-.05 0h-.1v.05l.07.13a1.09 1.09 0 0 1 .35.15s0 0-.08.06-.1-.07-.15-.14l.13.08v.08c0 .08.11.05.17.07s0 0-.09 0 .13 0 .15.11.1.1.07.1.25.26.3.23h.22s-.09.16-.18.11a.14.14 0 0 0 .08.09v.08c0 .15.08-.06.1 0s0 .06-.07.05h.14s-.06 0-.06.08.07.07.1.08.17 0 .25.1-.1 0-.06.1a.65.65 0 0 1 .34 0h.08-.38v.14c0 .08 0 0-.07 0l.11.13s.12.06.15 0l-.16-.1a.46.46 0 0 1 .25.07c.08.07-.08 0-.09.06s.1.06.1.08h-.05c0 .06.12 0 .14.12s0 .11 0 .09a.37.37 0 0 1 .18-.21.6.6 0 0 1 .06.19c0 .06-.12 0-.12.08v.06c0 .06.08.1 0 0s0 .06.09.11.12 0 .17 0c.08.1.11.16.19.25s0 .07 0 .06h.07-.06s.09 0 .14.07-.07-.09-.12-.12.15 0 .26 0 0 .06 0 .06a.28.28 0 0 1 .25.18c.07.18-.05.06-.07.09s-.06-.11-.1-.14v.06a.08.08 0 0 1 -.08-.07c0-.07.21.23.28.35s.07 0 .06 0 .09 0 .06 0a.34.34 0 0 1 .18.13v-.07s0 .14.11.13v.34a.27.27 0 0 1 .18.11c0 .06 0 0 0-.08 0 .08-.13-.14-.13 0 0-.08 0-.09-.06-.17s-.12-.07-.15-.08h-.06s0-.11 0-.06v-.06a.27.27 0 0 0 -.1-.11h-.05l-.1-.08c-.08-.09-.21-.15-.26-.29a.43.43 0 0 1 -.12-.11c-.05 0-.09-.13-.13-.13s-.16-.2-.22-.27l-.15-.13c-.07 0-.11-.14-.18-.22 0-.14-.23-.16-.27-.28s0 0-.07-.06c0-.06-.08-.06-.06-.12s-.13-.11-.18-.08a.08.08 0 0 0 -.08-.08h-.1c0-.06 0-.08 0-.07-.12 0-.08-.06-.19-.09s-.09 0-.09-.07-.26-.3-.37-.49c0 .09 0-.09-.09 0s0-.06 0 0-.08-.14-.18-.16c-.08-.08-.13 0-.18 0s0-.07-.09-.07 0-.07 0 0-.14-.19-.17-.16 0 0-.05 0a1.23 1.23 0 0 0 0-.54c-.07 0-.06-.05-.11-.09s-.06 0-.13-.18c-.06 0-.06-.13-.14-.17s0-.17 0-.21h-.12c-.12 0 .06 0 0-.07s-.18-.08-.2-.18 0 .06-.05 0-.07-.18-.15-.18-.13-.1-.18-.1-.26-.19-.18-.27l-.11-.11a.21.21 0 0 0 -.15-.09.31.31 0 0 0 -.22-.18.91.91 0 0 0 -.24-.27c-.15-.09-.19-.35-.33-.3l-.1-.06c.09.11-.06 0 0 .08s-.07-.13 0-.08-.1-.14-.06-.17c-.19-.2-.34-.42-.52-.61v.06l-.06-.07s0-.05.06 0-.1-.06-.11-.06h.11a.13.13 0 0 1 -.11-.06c0-.06 0 0 0-.06l-.08-.09v.06c-.05 0-.07-.07-.07 0 0-.11-.27-.33-.28-.38a.39.39 0 0 1 -.17-.14s0 .06-.07 0-.06-.12-.05-.22c0 .07-.15-.14-.14 0v-.08c0-.08-.2-.25-.34-.38v-.11s-.08 0-.09-.06c-.2-.31-.54-.5-.7-.84l-.06-.14c-.06 0-.12-.12-.16-.1s0 .15-.09.19c.1 0 .06.2.21.23s.07 0 .11.08.2.24.29.37v-.01c.07 0-.08-.1 0-.1s.22.23.18.31 0 0 .07 0a.14.14 0 0 1 0 .09c0 .06.12.12.13.14v-.06l.44.41c.12.08.07.09.18.2l.1.07v.06c.13.09.07 0 .18.06a.21.21 0 0 1 .11 0c-.06 0 0 .07-.07 0 .07.15.21.13.19.24s-.06-.13 0-.11.08 0 .11 0 0 .13.08.22.08 0 .1.12 0 .06.1 0l-.09-.07a.22.22 0 0 1 .2.14h-.07l.06.08c.06.08-.11-.1-.19-.12s.12.07 0 .09c.1 0 .08.1.19.12.08 0 .07.12.13.16-.09-.1 0-.05 0-.12.15.1 0 .14.15.27 0 0-.06-.09 0-.07a.22.22 0 0 1 0 .11c.09.09 0 0 .07 0s0 0 .1.06.08 0 .15.09a.37.37 0 0 1 .13.12h.1c.1 0 0 0 0 .07s-.07 0-.07 0 .08.1.1.12l.13.06.12.07v.06a.48.48 0 0 1 .2.18c0 .07.08.15.18.2v.08c.07 0 0-.1.11 0s0 .06 0 .09.15 0 .18.14zm.71.73s-.07 0-.06-.05.04.01.06.05zm1.11 1.06v-.05a0 0 0 0 1 0 .05z"/><path d="m252.86 208a0 0 0 0 1 0 .05s-.01-.11 0-.05z"/><path d="m252.81 208.07.05.07c.05.07-.01-.05-.05-.07z"/><path d="m252.56 207.91v.09s.01-.1 0-.09z"/><path d="m252.09 207.4-.05-.05z"/><path d="m252 207.48c.09 0 .05.05 0 0z"/><path d="m250.55 206.1c0 .07 0 0 .08.05s0-.06 0-.05-.06-.1-.08 0z"/><path d="m243.59 198.12v-.05z"/><path d="m243.48 198.08s0-.01 0 0z"/><path d="m247.77 203.17v-.05z"/><path d="m247.31 202.76.06.06s-.02-.1-.06-.06z"/></g><path d="m241.18 196.53v.05s-.02-.05 0-.05z" fill="#5f5f5f"/><path d="m137.88 210.53c8 0 14.87-.54 22.43-.74 1.82-.06 3.69-.08 5.62-.08 3.78 0 8.82 0 13.73-.17 2-.07 3.88-.07 5.7-.14h1.13l2.56-.1 2.71-.1h3.24c.57 0-.09-1.07-.14-1.25v-10.61a1 1 0 0 1 .16-.57l.08-.14v-.1a42 42 0 0 0 -4.76.2c-.21 0-.64.07-.86.08-1.74 0-3.63.07-5.64.14l-4.5.15c-1.3 0-2.62.08-4 .1h-1.68c-2.69.05-5.41.14-8 .23-6.62.22-12.69.47-16.47.47a7.64 7.64 0 0 0 -1.26.1c-1.48.24-1.7.94-2.47 1.72l-.4.56c-.13.17-.25.35-.4.54-.33.46-.71 1-1.12 1.51s-1.06 1.39-1.63 2.1-.93 1.18-1.4 1.74l-1 1.2c-.31.37-.43.49-.64.71a13.47 13.47 0 0 1 -1 1 6.13 6.13 0 0 1 -.68.56c-1.5 1 .28.55.62.89z" fill="url(#t)"/><path d="m252.2 191.07a2.17 2.17 0 0 0 .6.22l.2.06a.59.59 0 0 1 .17.1 4.14 4.14 0 0 1 .38.55 2.3 2.3 0 0 1 .38 1.1c0 .69.09 1.67.09 1.67v-2.28a6.44 6.44 0 0 0 -.28-1.8 10.23 10.23 0 0 1 -.56-1.61c-.14-.31-.71-.82-.71-1s-.24-.58-.24-.75-.41-.49-.41-.76-.35-.4-.21-.4 0-.3 1.87 1.55c0 0 1.06 1.09 1.35.8-.09 0-.56-.1-.65-.1s-1.14-1.26-2.33-2.5c-.52-.55-1-1.09-1.5-1.52l-.43-.41a2.17 2.17 0 0 0 -.29-.24.63.63 0 0 0 -.31-.19c-.07 0-.12.25-.12.25a1.13 1.13 0 0 1 0 .26 2.35 2.35 0 0 0 .19 1.11 1.12 1.12 0 0 1 .29.52 1.05 1.05 0 0 0 .15.6.68.68 0 0 1 .25.46 2 2 0 0 0 .38.78 3.64 3.64 0 0 1 .46 1c0 .06.38.87.72 1.57l.11.23c.08.17.16.32.23.44a1.75 1.75 0 0 0 .2.35z" fill="url(#u)"/><path d="m254.63 194.8v.58.14.17.24.12.13a.21.21 0 0 1 0 .11v.05.06.08.13.07a.17.17 0 0 0 0 .1v.11.11.08a.24.24 0 0 0 0 .12v.05.06.06.63a.17.17 0 0 0 0 .1v.31.22.29a.17.17 0 0 0 0 .1v.06.05.06a.14.14 0 0 1 0 .09v.18.1.07a.07.07 0 0 0 0 .09v-.12-.13-.06-.23-.07-.24-.14-.13-.13-.14-.06-.08-.14a.24.24 0 0 0 0-.12v-.09-.38-.07a.38.38 0 0 1 0-.15v-.12-.12-.23-.65-.44-.56a.17.17 0 0 1 0-.1v-.21-.06a.06.06 0 0 1 0-.06v-.06-.11-.15a.11.11 0 0 1 0-.08v-.11-.68a1.41 1.41 0 0 0 0-.29v-.28-.15a2.29 2.29 0 0 1 0-.37.14.14 0 0 1 0-.09v-1.16a7.65 7.65 0 0 0 -.06-1.17v-.05.06.12.08.13a1.93 1.93 0 0 0 0 .34v.64 1.47a2.54 2.54 0 0 0 0 .39.24.24 0 0 1 0 .12v.16a.43.43 0 0 1 0 .16.24.24 0 0 0 0 .12v.4.26.2.13a.06.06 0 0 1 0 .06.38.38 0 0 0 0 .15s.06-.2.06-.15z" fill="url(#v)"/><path d="m196.28 207.6-1 1.21 2 .2.67-.6a2.63 2.63 0 0 1 -1.52-.69" fill="url(#w)"/><path d="m266.45 143.21h.33a1.82 1.82 0 0 0 -.33 0z" fill="#5b5b5b"/><path d="m247.62 141.63h-.11c-.09 0 .19 0 .06 0-.04.02.09-.02.05 0z" fill="#5b5b5b"/><path d="m247.64 143.05h.19a.61.61 0 0 0 -.19 0z" fill="#5b5b5b"/><path d="m245.92 143.14h8.65a.54.54 0 0 0 .18 0h5.13a1.31 1.31 0 0 0 .28 0h.94a.61.61 0 0 0 .19 0h1.71a1 1 0 0 0 .24 0h-.83a.61.61 0 0 1 -.19 0h-7.06a.89.89 0 0 1 -.23 0h-4.33a2.81 2.81 0 0 1 -.41 0h-1a2.67 2.67 0 0 1 -.4 0h.16a1 1 0 0 1 -.25 0 1.31 1.31 0 0 1 -.28 0 .66.66 0 0 1 -.28 0h-.14a1.41 1.41 0 0 1 -.29 0h-.57a1 1 0 0 1 -.24 0h-3.53l.15-.13a.87.87 0 0 1 .36-.18c.21-.08-.1 0 .12-.06l.2-.08.72-.24h-.07l.53-.15.84-.23h-.05a1.66 1.66 0 0 0 .49-.14l.34-.08.31-.07c.25-.07.3-.1.59-.17 0 0-.17 0-.18.07l.19-.05.24-.08h-.08a3 3 0 0 1 .43-.11h-.14s.25-.08.38-.11-.13 0-.09 0l.4-.11.56-.15h-.09.19.07c-.05 0 .44-.12.53-.16h-.07l.39-.12h.13c.31-.08-.16 0 .19-.07.16 0-.15.05.07 0s.11 0 .29-.09a1.1 1.1 0 0 1 .4-.11l.42-.1.24-.05-.34.07h-.03l-1 .2c-.21.06-.37.08-.59.14a1 1 0 0 0 -.24.07h-.17a2.33 2.33 0 0 0 -.38.08h-.08l-.48.11-.27.08h-.26a.44.44 0 0 0 -.27.07l-.44.1c-.87.25-1.36.33-2.28.58h.13l-.21.07-.17.05h-.07l-.22.01-.33.1.23-.08h-.45c-.32.11-.37.18-.64.26l-.17.11-.09.08-.29.22s-.09.06-.05.06h2.09a.65.65 0 0 0 .67.38zm1.29-.04h-.08s-.13 0 .08 0z" fill="#5b5b5b"/><path d="m263.61 143.14h-.17a.49.49 0 0 0 .17 0z" fill="#5b5b5b"/><path d="m262.86 143.16h.07c-.07-.02-.15-.01-.07 0z" fill="#5b5b5b"/><path d="m263.5 143.23h.09c-.09-.02.04 0-.09 0z" fill="#5b5b5b"/><path d="m260.72 143.2h-.33a1.82 1.82 0 0 0 .33 0z" fill="#5b5b5b"/><path d="m244.75 142.26h-.08l.39-.12-.17.05z" fill="#5b5b5b"/><path d="m242.57 127.81v16.56h2.5l6.8.1 10.05.14 12.27.17 13.43.19 13.57.19 12.65.18 10.7.15 7.69.11a31.93 31.93 0 0 0 3.66.05h.16c.24 0 .65-.76.76-.93s.58-1.08.56-1.08h-3.37l-9.13-.13-13.08-.18-15.43-.22-16-.22-14.88-.21-12.13-.18-7.63-.1h-1.74s0-.41 0-.53v-16c0-.17-.55.56-.59.62-.2.3-.74.89-.74 1.29z" fill="#e7e7e7"/><path d="m195.53 208.58 58 1.56s2.1.48 2.1-2" style="opacity:.5;fill:none;stroke-linecap:round;stroke-linejoin:round;stroke:#212121;stroke-width:.96"/><path d="m136.64 210.35a19.28 19.28 0 0 0 3.21.39c1.33 0 55.39-1.93 55.39-1.93" fill="none" stroke="#a7a7a7" stroke-miterlimit="10" stroke-width=".96"/><path d="m71.68 144.7-2.41-.52 1.65-1.05 78.28-.13c.09 0 .34-.41.34-1.29v-14.71l1.92 1.84v12.9c0 2.55-1.47 3.22-1.48 3.1z" fill="#ebebeb"/><path d="m255.7 188.31h88.16a7.88 7.88 0 0 0 1.19 0h.15c.23 0 .42-.81.52-.81h-89.5c-.22 0-.42.81-.52.81z" fill="#e8e8e8"/><path d="m255.52 189h89.48q.6 0 1.2 0h.15c.25 0 .46-.8.54-.8h-90.83c-.25 0-.46.8-.54.8z" fill="#212121"/><path d="m25 191.88.33-2.46c1.86 0 111.3-1.08 112.42-1.09l-.07 2.35c-4.52.04-110.8 1.2-112.68 1.2z" fill="#4c4c4c" opacity=".8"/><path d="m149.19 127.38h89.53a24.44 24.44 0 0 0 3.63 0h.16c.33 0 .76-.5 1-.71s.74-.93.78-.93h-89.54a24.44 24.44 0 0 0 -3.63 0h-.12c-.33 0-.76.51-1 .71s-.74.93-.78.93z" fill="#fff"/><path d="m149.54 127h46.61v1.62h-46.61z" fill="#ebebeb"/><path d="m195.93 127h46.92v1.62h-46.92z" fill="#bcbcbc"/><g opacity=".32"><path d="m185 197.47-5.39.15c-1.77.06-3.47.25-5 .35l-1 .09h.53c1 0 2-.06 3-.13s2.05-.12 3.09-.16l6.19-.18 3.82-.13a33.41 33.41 0 0 1 4-.12h.36a4.22 4.22 0 0 0 -.69-.21c-1.13-.06-2.24.15-3.39.17l-3.44.07c-.76 0-1.61.1-2.08.1z" fill="#eee"/><path d="m194 197.12h-.38z" fill="#e5e5e5"/><path d="m188.48 197.34h-2.24c-.49 0-.93.08-1.23.08l-5.39.15c-1.77.06-3.47.25-5 .35l-1 .08h.57c1.36 0 2.81-.11 4.22-.21h.23c.8-.08 1.54-.07 2.3-.09 2.19-.1 4-.11 6.21-.18.78 0 1.6-.1 2.53-.1h.91a23.1 23.1 0 0 1 3.72-.12.54.54 0 0 0 .36 0l-.37-.13a17.45 17.45 0 0 0 -3.15.05c-.94.05-1.87.05-2.81.08z" fill="#ebebeb"/><path d="m188.38 197.26c-.13 0-.29 0 0 .07.94 0 1.87 0 2.81-.08-.96.03-1.87.01-2.81.01z" fill="#e5e5e5"/><path d="m188.53 197.09c-1.85 0-3.6.11-5.12.11h-3c-6.23.48-12.43.66-18.58.79-1.54 0-3 .12-4.5.08a23.38 23.38 0 0 0 -4.57.46 18.8 18.8 0 0 1 -2.6 0 9.75 9.75 0 0 0 -2.64.15 1.8 1.8 0 0 0 -.55.24 1 1 0 0 0 -.26.23.56.56 0 0 0 -.09.17v.13c-2.71 3-5.06 5.85-7.85 9-.83 1-.79 1.21-.58 1 3-3.37 5.82-6.55 8.76-9.81v-.1c0-.34.45-.47.81-.58a6.56 6.56 0 0 1 1.17-.14h2.42c1.66.1 3.27-.4 4.91-.44 3 .1 6-.09 8.83-.13l8.53-.21 1-.09c1.52-.1 3.22-.29 5-.35l5.39-.15c.46 0 1.31-.1 2.08-.12l3.44-.07c1.15 0 2.26-.23 3.39-.17a8 8 0 0 0 -1.29-.19c-.7 0-1.39.14-2.06.15z" fill="#f4f4f4"/><path d="m188.53 197.09h2c.67 0 1.36-.1 2.06-.15a5.21 5.21 0 0 0 -.79 0c-3.34 0-7.18.1-10.69.25h2.26c1.56.01 3.31-.09 5.16-.1z" fill="#e3e3e3"/><path d="m188.53 197.09a31.8 31.8 0 0 0 3.9-.16l-1.34.07-6.93.08c2.46-.07 5-.07 7.39-.16-3.27 0-7 .1-10.39.24h2.25c1.52.04 3.27-.06 5.12-.07z" fill="#ebebeb"/><path d="m184.78 197.19 4.17-.05h2.1s1.4-.11 2.11-.14h-.73a31.8 31.8 0 0 1 -3.9.16c-1.85 0-3.6.11-5.12.11h-3c-.8 0-1.59.07-2.39.13s-1.58.14-2.38.18l-4.74.22c-2.75.17-5.75.25-8.63.29l4.08-.14-4.52.11c-1.3 0-2.57.09-3.82.09a9.1 9.1 0 0 1 -1.38 0 19.29 19.29 0 0 0 -3.3.38h-.43c.85-.09 1.55-.24 2.16-.34-.76.1-1.52.25-2.3.34-1.44.14-2.69-.07-4.06 0h-.45a3.72 3.72 0 0 0 -.92.21 1.66 1.66 0 0 0 -.45.25.66.66 0 0 0 -.26.46l-.18.21.19-.2a.72.72 0 0 1 .37-.46.7.7 0 0 0 -.33.5l-.62.69.41-.5-1.46 1.62c.57-.62 1.17-1.32 1.61-1.84-1.05 1.17-2.08 2.34-3.17 3.5l.08-.09-4.78 5.57c-.82.94-.79 1.2-.58 1 3-3.35 5.81-6.52 8.73-9.77v-.1c.07-.4.59-.53 1-.62a8.06 8.06 0 0 1 1.39-.11 6.19 6.19 0 0 0 -1.77.12 1.37 1.37 0 0 0 -.63.33 1.24 1.24 0 0 1 .63-.33 8.11 8.11 0 0 1 2.25-.17 3.48 3.48 0 0 0 .79 0 16.06 16.06 0 0 0 1.7 0l1.69-.17h.29a16.72 16.72 0 0 1 2-.2c1.87.06 3.75 0 5.57 0l5.42-.15h-2.46c-1 0-3.25.09-5.12.15h-1.22c1.64-.11 3.75-.11 5.62-.18 2.49-.08 6-.11 8.66-.29 1.11-.08 2.16-.08 3.06-.09-.33 0-.95.07-1.26.08l-8.34.3c2.9 0 5.7-.16 8.59-.23-1.7.08-3.36.09-4.95.2h.41l3.34-.09 1-.08c1.52-.1 3.22-.29 5-.35l5.39-.15a7.41 7.41 0 0 0 1.23-.08l-3.46.07h1.29c-1.09 0-2 0-3.07.05l1.75-.07h-2.17c1.42-.09 2.73 0 4.17-.12l2.69-.11c-1.6 0-3 0-4.61.06 1.79-.06 3.59-.09 5.39-.1h2.69c.9 0 1.8-.13 2.69-.1h.47l-.29-.06c-3 .12-6 .06-8.93.1z" fill="#e2e2e2"/></g><path d="m254.91 188.49.33.29s.17-.05.11-.1-.45-.31-.44-.19z" fill="#434343"/><path d="m25.33 189.42c5.54 0 10.89.24 16.1.2 14.74-.11 28.37-.36 42.06-.6 3.56-.06 7.13-.13 10.72-.18l10-.16c4.34-.07 8.82-.09 13.32-.13 6.56-.07 13 .08 20 .08.35-.49 1.09-1.16 1.47-1.65.52-.67 1-1.36 1.53-2s2.36-2.37 3-3.12c.31-.35 2.53-3.23 2.83-3.57l.72-.8a7.84 7.84 0 0 1 .81-.82s.06-.07.21-.28a12.43 12.43 0 0 0 -1.83 0c-6.37 0-12.05.15-17.22.2l-11 .13-7.74.1-8 .11c-10.12.13-20 .28-33.1.43l-15.15.18-4.46 2c-3.66 1.63-7.18 3.19-10.5 4.62-.72.32-1.44.62-2.14.92l-2.11.89c-1.46.62-2.88 1.2-4.24 1.75l-3.22 1.25c-.63.25-1.39.25-2.06.5z" fill="url(#x)"/><path d="m255 189.26h92.62c-1.14-.65-2.4-1.33-3.74-2-4.09-2.14-9-4.49-13.43-6.58l-3.16-1.47c-.88-.4-2.12-1.22-2.92-1.58-1-.47-1.61-.48-2.5-.87h-2c-17.77 0-28.8-.15-40.41-.27l-10-.1c-6.49-.06-13.68-.11-22.6-.11h-2.86c-.48 0 .12-.18-.38-.18.36.3-.71.42-.25.84s1.14 1.12 1.55 1.51 1 .94 1.52 1.47c2.17 2.13 4.65 4.72 6.71 7.11.67.75 1.3 1.51 1.85 2.23z" fill="url(#y)"/><path d="m0 0h400v400h-400z" fill="none"/></svg>