<svg viewBox="0 0 400 400" xmlns="http://www.w3.org/2000/svg" xmlns:xlink="http://www.w3.org/1999/xlink"><linearGradient id="a" gradientUnits="userSpaceOnUse" x1="266.39" x2="266.39" y1="178.1" y2="160.26"><stop offset="0" stop-color="#fff"/><stop offset=".25" stop-color="#1e1e1e"/><stop offset=".66" stop-color="#c7c7c7"/><stop offset=".9" stop-color="#c7c7c7"/></linearGradient><linearGradient id="b" x1="87.96" x2="87.96" xlink:href="#a" y1="178.1" y2="160.26"/><linearGradient id="c" x1="178.61" x2="178.61" xlink:href="#a" y1="178.1" y2="160.2"/><linearGradient id="d" x1="308.69" x2="308.69" xlink:href="#a" y1="178.1" y2="160.26"/><linearGradient id="e" x1="220.67" x2="220.67" xlink:href="#a" y1="178.87" y2="159.47"/><linearGradient id="f" x1="40.39" x2="40.39" xlink:href="#a" y1="178.87" y2="159.5"/><linearGradient id="g" x1="138.1" x2="138.1" xlink:href="#a" y1="179.19" y2="159.98"/><linearGradient id="h" x1="354.7" x2="354.7" xlink:href="#a" y1="179.19" y2="159.98"/><linearGradient id="i" gradientUnits="userSpaceOnUse" x1="266.39" x2="266.39" y1="179.19" y2="160.12"><stop offset=".03" stop-color="#3c3c3c"/><stop offset=".06" stop-color="#2d2d2d"/><stop offset=".24" stop-color="#787878"/><stop offset=".34" stop-color="#a1a1a1"/><stop offset=".58" stop-color="#fff"/><stop offset=".78" stop-color="#e9e9e9"/><stop offset=".91" stop-color="#ccc"/><stop offset="1" stop-color="#8b8b8b"/></linearGradient><linearGradient id="j" x1="87.96" x2="87.96" xlink:href="#i" y1="179.19" y2="160.12"/><linearGradient id="k" x1="178.62" x2="178.62" xlink:href="#i" y1="179.19" y2="160.12"/><linearGradient id="l" x1="308.69" x2="308.69" xlink:href="#i" y1="179.19" y2="160.12"/><linearGradient id="m" x1="220.67" x2="220.67" xlink:href="#i" y1="180.01" y2="159.28"/><linearGradient id="n" x1="40.39" x2="40.39" xlink:href="#i" y1="180.01" y2="159.32"/><linearGradient id="o" x1="138.1" x2="138.1" xlink:href="#i" y1="179.19" y2="159.83"/><linearGradient id="p" x1="354.7" x2="354.7" xlink:href="#i" y1="179.19" y2="159.83"/><linearGradient id="q" gradientUnits="userSpaceOnUse" x1="99.08" x2="102.51" y1="234.21" y2="195.1"><stop offset=".03" stop-color="#3c3c3c"/><stop offset=".06" stop-color="#2d2d2d"/><stop offset=".22" stop-color="#8f8f8f"/><stop offset=".29" stop-color="#b8b8b8"/><stop offset=".52" stop-color="#474747"/><stop offset=".58" stop-color="#fff"/><stop offset=".78" stop-color="#e9e9e9"/><stop offset=".88" stop-color="#ccc"/><stop offset=".94" stop-color="#8b8b8b"/><stop offset="1" stop-color="#606060"/></linearGradient><linearGradient id="r" gradientTransform="matrix(-1 0 0 1 -836.25 0)" x1="-1137.17" x2="-1133.74" xlink:href="#q" y1="234.21" y2="195.1"/><linearGradient id="s" gradientUnits="userSpaceOnUse" x1="213.48" x2="213.48" y1="218.47" y2="214.38"><stop offset=".03" stop-color="#686868"/><stop offset=".34" stop-color="#a1a1a1"/><stop offset=".58" stop-color="#fff"/><stop offset=".78" stop-color="#e9e9e9"/><stop offset=".91" stop-color="#ccc"/><stop offset="1" stop-color="#8b8b8b"/></linearGradient><linearGradient id="t" x1="175.21" x2="175.21" xlink:href="#s" y1="218.47" y2="214.38"/><linearGradient id="u" x1="194.65" x2="194.65" xlink:href="#s" y1="218.47" y2="214.38"/><linearGradient id="v" x1="222.55" x2="222.55" xlink:href="#s" y1="218.47" y2="214.38"/><linearGradient id="w" x1="203.67" x2="203.67" xlink:href="#s" y1="218.64" y2="214.2"/><linearGradient id="x" x1="165.01" x2="165.01" xlink:href="#s" y1="218.64" y2="214.2"/><linearGradient id="y" x1="185.97" x2="185.97" xlink:href="#s" y1="218.47" y2="214.32"/><linearGradient id="z" x1="232.42" x2="232.42" xlink:href="#s" y1="218.47" y2="214.32"/><linearGradient id="A" gradientUnits="userSpaceOnUse" x1="152.75" x2="128.76" y1="215.72" y2="215.72"><stop offset=".15" stop-color="#dadada"/><stop offset="1" stop-color="#666"/></linearGradient><linearGradient id="B" gradientTransform="matrix(-1 0 0 1 -937.17 0)" x1="-1184.48" x2="-1208.47" xlink:href="#A" y1="215.72" y2="215.72"/><linearGradient id="C" gradientUnits="userSpaceOnUse" x1="101.37" x2="101.37" y1="209.28" y2="200"><stop offset=".03" stop-color="#b0b0b0"/><stop offset=".33" stop-color="#dcdcdc"/><stop offset=".58" stop-color="#b5b5b5"/><stop offset=".68" stop-color="#9d9d9d"/><stop offset=".94" stop-color="#8b8b8b"/></linearGradient><linearGradient id="D" gradientTransform="matrix(-1 0 0 1 -842.63 0)" x1="-1140.97" x2="-1140.97" xlink:href="#C" y1="209.28" y2="200"/><g fill="#202020" stroke="#202020" stroke-miterlimit="10" stroke-width="2"><path d="m250.73 179.94h31.33v-3.56h-21.75l.01-15.5h-9.59z"/><path d="m70.06 160.88v19.06h9.59v-7.77h16.65v7.77h9.56v-19.06h-9.56v7.76h-16.65v-7.76z"/><path d="m190 160.88-8.91 8.05-9.23-8.05-11.13-.76v.76l13.59 11.3v7.76h9.58v-7.94c.08 0 12.58-11.13 12.58-11.13v-.76l-6.48.76"/><path d="m292.72 179.94h31.94v-3.21h-22.36v-4.86h21.52v-3.19h-21.52v-4.6h21.95l.01-3.2h-31.54z"/><path d="m204.4 165.84c0 4.41 5.11 5.47 12 6.33 7.09.88 10.4 1.12 10.4 2.79 0 1.48-2.1 2.27-8.2 2.27a51.89 51.89 0 0 1 -13.57-1.93c0 .14-.66 2.15-.91 3.23a2.12 2.12 0 0 0 0 .76 68.53 68.53 0 0 0 14.88 1.48c9.23 0 18.14-1.61 18.14-6.61 0-3.43-3.62-5.2-13.91-6.39-4.25-.5-8.75-.81-8.75-2.46 0-1.23 1.24-1.79 7.32-1.79a51.09 51.09 0 0 1 11.92 1.48l.77-4.45c-1.06-.18-7.07-.52-15-.52-6.56 0-15.12.9-15.12 5.8"/><path d="m24.19 170.42c0 6.16 6.49 10.35 20 10.35a91 91 0 0 0 11.61-.89l.84-4.75c-1.17.12-5.63 1.56-10.44 1.56-7.46 0-12.51-1.8-12.51-6.27s4.8-6.28 12.65-6.28a76.76 76.76 0 0 1 10.3.8v-.76l-.84-3.24a90.75 90.75 0 0 0 -11.32-.87c-13.66 0-20.24 4.05-20.24 10.35"/><path d="m120.7 179.94h9.58v-15.67c1.32-.08 2.78-.24 5-.24a39.44 39.44 0 0 1 5.39.25c2.92.45 3.87 1.39 3.84 2.64s-1.29 2.47-4.24 2.9a32 32 0 0 1 -4.94.3 13.53 13.53 0 0 1 -2.92-.82v.75l10.89 9.89h12.2v-.75l-11-7.18a16.46 16.46 0 0 0 5.13-.94c2.93-.95 4.36-2.46 4.37-4.15 0-2.22-1.41-4.15-6.77-5.35a54.94 54.94 0 0 0 -11.81-1c-6.88 0-14 .27-14.69.29v19.06"/><path d="m337.3 179.94h9.58v-15.67c1.31-.08 2.76-.24 5-.24a39.94 39.94 0 0 1 5.41.25c2.9.45 3.85 1.39 3.82 2.64s-1.29 2.47-4.25 2.9a31.47 31.47 0 0 1 -4.93.3 12.72 12.72 0 0 1 -2.91-.82v.75l10.89 9.89h12.17v-.75l-11-7.18a16.46 16.46 0 0 0 5.14-.94c2.91-.95 4.35-2.46 4.38-4.15 0-2.22-1.42-4.15-6.79-5.35a54.71 54.71 0 0 0 -11.8-1c-6.9 0-14 .27-14.69.29v19.06"/></g><path d="m250.73 178.1h31.33v-3.33h-21.75l.01-14.51h-9.59z" fill="url(#a)"/><path d="m70.06 160.26v17.84h9.59v-7.27h16.65v7.27h9.56v-17.84h-9.56v7.26h-16.65v-7.26z" fill="url(#b)"/><path d="m190 160.26-8.91 7.54-9.23-7.54-11-.06 13.51 10.64v7.26h9.58v-7.42c.08-.05 12.48-10.48 12.48-10.48l-6.38.06" fill="url(#c)"/><path d="m292.72 178.1h31.94v-3h-22.36v-4.55h21.52v-2.99h-21.52v-4.3h21.95l.01-3h-31.54z" fill="url(#d)"/><path d="m204.4 164.9c0 4.13 5.11 5.12 12 5.93 7.09.82 10.4 1 10.4 2.6 0 1.39-2.1 2.13-8.2 2.13a55.12 55.12 0 0 1 -13.57-1.8c0 .17-.91 4.77-.91 4.77 1 .2 6.47.34 14.87.34 9.23 0 18.14-1.5 18.14-6.19 0-3.21-3.62-4.86-13.91-6-4.25-.47-8.75-.76-8.75-2.31 0-1.14 1.24-1.67 7.32-1.67a55 55 0 0 1 11.89 1.39l.77-3.45a91.77 91.77 0 0 0 -15-1.2c-6.56 0-15.12.84-15.12 5.43" fill="url(#e)"/><path d="m24.19 169.19c0 5.76 6.49 9.68 20 9.68a97.76 97.76 0 0 0 11.56-.87l.84-2.91v-.82a92.84 92.84 0 0 1 -10.44.74c-7.46 0-12.51-1.68-12.51-5.86s4.8-5.88 12.65-5.88a81.51 81.51 0 0 1 10.3.75l-.84-3.75a97.25 97.25 0 0 0 -11.32-.81c-13.66 0-20.24 3.79-20.24 9.69" fill="url(#f)"/><path d="m120.7 178.1h9.58v-14.67c1.32-.08 2.78-.22 5-.22a41.72 41.72 0 0 1 5.39.23c2.92.42 3.87 1.3 3.84 2.47s-1.29 2.32-4.24 2.72a36 36 0 0 1 -4.94.28c-1 0-1.74 0-2.92-.07v.46l10.89 8.8 12.18 1.09v-1.09l-11-7.42a17.6 17.6 0 0 0 5.13-.88c2.93-.89 4.36-2.31 4.37-3.89 0-2.08-1.41-3.88-6.77-5a59.85 59.85 0 0 0 -11.81-.92c-6.88 0-14 .25-14.69.28v17.83" fill="url(#g)"/><path d="m337.3 178.1h9.58v-14.67c1.31-.08 2.76-.22 5-.22a42.25 42.25 0 0 1 5.41.23c2.9.42 3.85 1.3 3.82 2.47s-1.29 2.32-4.25 2.72a35.44 35.44 0 0 1 -4.93.28c-1 0-1.74 0-2.91-.07v.46l10.89 8.8 12.17 1.09v-1.09l-11-7.42a17.61 17.61 0 0 0 5.14-.88c2.91-.89 4.35-2.31 4.38-3.89 0-2.08-1.42-3.88-6.79-5a59.6 59.6 0 0 0 -11.81-.91c-6.9 0-14 .25-14.69.28v17.82" fill="url(#h)"/><path d="m250.73 179.19h31.33v-3.56h-21.75l.01-15.51h-9.59z" fill="url(#i)"/><path d="m70.06 160.12v19.07h9.59v-7.78h16.65v7.78h9.56v-19.07h-9.56v7.76h-16.65v-7.76z" fill="url(#j)"/><path d="m190 160.12-8.91 8-9.23-8h-11.11l13.59 11.31v7.76h9.58v-7.94c.08-.05 12.58-11.13 12.58-11.13z" fill="url(#k)"/><path d="m292.72 179.19h31.94v-3.21h-22.36v-4.86h21.52v-3.2h-21.52v-4.59h21.95l.01-3.21h-31.54z" fill="url(#l)"/><path d="m204.4 165.09c0 4.4 5.11 5.47 12 6.32 7.09.89 10.4 1.12 10.4 2.79 0 1.48-2.1 2.27-8.2 2.27a51.43 51.43 0 0 1 -13.57-1.93c0 .19-.91 4-.91 4a68.53 68.53 0 0 0 14.88 1.46c9.23 0 18.14-1.61 18.14-6.61 0-3.43-3.62-5.19-13.91-6.39-4.25-.49-8.75-.81-8.75-2.46 0-1.22 1.24-1.78 7.32-1.78a51.34 51.34 0 0 1 11.89 1.48l.77-3.69a87.54 87.54 0 0 0 -15-1.28c-6.56 0-15.12.9-15.12 5.81" fill="url(#m)"/><path d="m24.19 169.66c0 6.16 6.49 10.35 20 10.35a91 91 0 0 0 11.61-.89l.84-4a85.78 85.78 0 0 1 -10.44.8c-7.46 0-12.51-1.8-12.51-6.27s4.8-6.28 12.65-6.28a78.54 78.54 0 0 1 10.3.8l-.84-4a91.43 91.43 0 0 0 -11.32-.86c-13.66 0-20.24 4-20.24 10.34" fill="url(#n)"/><path d="m120.7 179.19h9.58v-15.68c1.32-.08 2.78-.23 5-.23a39.71 39.71 0 0 1 5.39.24c2.92.45 3.87 1.39 3.84 2.64s-1.29 2.47-4.24 2.91a33.25 33.25 0 0 1 -4.94.3c-1 0-1.74 0-2.92-.07l10.89 9.89h12.2l-11-7.94a16.17 16.17 0 0 0 5.13-.94c2.93-.94 4.36-2.46 4.37-4.15 0-2.22-1.41-4.14-6.77-5.35a54.94 54.94 0 0 0 -11.81-1c-6.88 0-14 .27-14.69.29v19.07" fill="url(#o)"/><path d="m337.3 179.19h9.58v-15.68c1.31-.08 2.76-.23 5-.23a40.21 40.21 0 0 1 5.41.24c2.9.45 3.85 1.39 3.82 2.64s-1.29 2.47-4.25 2.91a32.73 32.73 0 0 1 -4.93.3c-1 0-1.74 0-2.91-.07l10.89 9.89h12.17l-11-7.94a16.18 16.18 0 0 0 5.14-.94c2.91-.94 4.35-2.46 4.38-4.15 0-2.22-1.42-4.14-6.79-5.35a54.71 54.71 0 0 0 -11.8-1c-6.9 0-14 .27-14.69.29v19.07" fill="url(#p)"/><path d="m200.6 237.6c-4.7-.2-12.41.51-14.71 1.42-2.61 1-3.41 1.7-9.75 1.7s-18.85-1.7-18.85-1.7-132.76-20.27-136.36-21.5a73.7 73.7 0 0 1 -13.07-6.63c-5-3-7.86-5.77-7.86-7.76s3.12-2.46 3.12-2.46l146.47-.92s6.06-.25 8.08.25 10.9 4.53 13.64 5.05c6.56 1.27 29.29.76 29.29.76" fill="url(#q)" stroke="#b8b8b8" stroke-width=".76"/><path d="m24.66 207 91 1.49a26.86 26.86 0 0 1 4.82.67 14.8 14.8 0 0 1 4 2.06h23s-7.9.22-8.55.54-.22.54-.22.54h-16.54l.65.65 5 .65 3.79 3.14h18.18s-3.46.65-4.11 1.19l-.65.54h-13.66s.44.76 2.38.87a8.35 8.35 0 0 1 3 .75c.87.22 4.77 3.57 12.67 5.85s22 4.65 22 4.65-20.35-.43-29.23-4.22-20.88-12.55-23.59-13.64a12.7 12.7 0 0 0 -5.52-.75s-61.79-2.49-68.83-3-19.59-1.98-19.59-1.98z"/><path d="m199.4 237.6c4.7-.2 12.41.51 14.71 1.42 2.61 1 3.41 1.7 9.75 1.7s18.85-1.7 18.85-1.7 132.76-20.27 136.36-21.5a73.7 73.7 0 0 0 13.07-6.63c5-3 7.86-5.77 7.86-7.76s-3.12-2.46-3.12-2.46l-146.47-.92s-6.06-.25-8.08.25-10.9 4.53-13.64 5.05c-6.56 1.27-29.29.76-29.29.76" fill="url(#r)" stroke="#b8b8b8" stroke-width=".76"/><path d="m375.34 207-91 1.49a26.86 26.86 0 0 0 -4.82.67 14.8 14.8 0 0 0 -4 2.06h-23.02s7.9.22 8.55.54.22.54.22.54h16.56l-.65.65-5 .65-3.79 3.14h-18.16s3.46.65 4.11 1.19l.65.54h13.64s-.43.76-2.38.87a8.35 8.35 0 0 0 -3 .75c-.87.22-4.77 3.57-12.67 5.85s-22 4.65-22 4.65 20.35-.43 29.23-4.22 20.88-12.55 23.59-13.64a12.7 12.7 0 0 1 5.52-.75s61.79-2.49 68.83-3 19.59-1.98 19.59-1.98z"/><path d="m249.82 210.83s.73 2.34-5.3 7.42c-4.5 3.79-6.81 5.33-17.71 5.27s-26.2 0-26.2 0-17.11-.06-28 0-13.21-1.48-17.71-5.27c-6-5.08-5.3-7.42-5.3-7.42z" fill="#fff"/><path d="m233.19 223.42c10.73.07 13.53-1.84 17.49-5.3 5.84-5.11 5.17-7.2 5.17-7.2h-105.5s-.68 2.09 5.17 7.2c4 3.46 6.76 5.37 17.49 5.3s27.59 0 27.59 0 21.86-.06 32.59 0z"/><path d="m209.91 218.59h7.13v-.81h-4.95v-3.53h-2.18z" fill="#fff"/><path d="m210.12 218.47h6.72v-.77h-4.67l.01-3.32h-2.06z" fill="url(#s)"/><path d="m171.19 214.28v4.28h2.15v-1.74h3.74v1.74h2.15v-4.28h-2.15v1.72h-3.74v-1.74h-2.15" fill="#fff"/><path d="m171.37 214.38v4.09h2.06v-1.67h3.57v1.67h2.05v-4.09h-2.05v1.62h-3.57v-1.66h-2.06" fill="url(#t)"/><path d="m197.3 214.21-2.07 1.87-2.14-1.87h-2.58l3.15 2.62v1.8h2.22v-1.84l2.92-2.58z" fill="#fff"/><path d="m197.1 214.38-1.91 1.72-2-1.72h-2.39l2.92 2.42v1.67h2v-1.71l2.7-2.38z" fill="url(#u)"/><path d="m218.91 218.59h7.28v-.73h-5.1v-1.11h4.9v-.72h-4.9v-1.05h5l.01-.73h-7.19z" fill="#fff"/><path d="m219.12 218.47h6.85v-.69h-4.79v-1.04h4.61v-.69h-4.61v-.99h4.7l.01-.68h-6.77z" fill="url(#v)"/><path d="m199.93 215.37c0 1 1.18 1.26 2.77 1.46s2.39.25 2.39.64-.48.52-1.88.52a12.42 12.42 0 0 1 -3.12-.44l-.21.91a15.57 15.57 0 0 0 3.42.34c2.12 0 4.16-.37 4.16-1.52 0-.79-.83-1.19-3.19-1.47-1-.11-2-.18-2-.56s.28-.41 1.68-.41a12.06 12.06 0 0 1 2.73.34l.18-.85a20.51 20.51 0 0 0 -3.44-.29c-1.51 0-3.48.21-3.48 1.33" fill="#fff"/><path d="m200.18 215.44c0 .95 1.1 1.18 2.59 1.36s2.23.24 2.23.6-.46.48-1.76.48a10.85 10.85 0 0 1 -2.91-.41s-.2.86-.2.85a14.35 14.35 0 0 0 3.19.32c2 0 3.89-.34 3.89-1.42 0-.73-.77-1.11-3-1.36-.91-.11-1.88-.18-1.88-.53s.27-.39 1.57-.39a11 11 0 0 1 2.55.32l.17-.79a18.92 18.92 0 0 0 -3.21-.27c-1.41 0-3.25.19-3.25 1.24" fill="url(#w)"/><path d="m161.35 216.42c0 1.4 1.46 2.34 4.51 2.34a20.34 20.34 0 0 0 2.62-.2l.19-.9a18.72 18.72 0 0 1 -2.36.18c-1.69 0-2.83-.41-2.83-1.42s1.09-1.42 2.86-1.42a17.27 17.27 0 0 1 2.33.18l-.19-.9a19.14 19.14 0 0 0 -2.56-.2c-3.08 0-4.57.92-4.57 2.34" fill="#fff"/><path d="m161.54 216.42c0 1.32 1.39 2.22 4.27 2.22a19.08 19.08 0 0 0 2.49-.19l.18-.85a19.63 19.63 0 0 1 -2.23.17c-1.61 0-2.69-.39-2.69-1.35s1-1.34 2.71-1.34a16.23 16.23 0 0 1 2.21.17l-.18-.86a19.57 19.57 0 0 0 -2.42-.19c-2.93 0-4.34.87-4.34 2.22" fill="url(#x)"/><path d="m182.11 218.53h2.12v-3.47c.29 0 .62-.05 1.11-.05a9.71 9.71 0 0 1 1.2.05c.64.1.85.31.85.59s-.29.55-.94.64a7.14 7.14 0 0 1 -1.1.07c-.21 0-.38 0-.64 0l2.41 2.19h2.7l-2.44-1.75a3.75 3.75 0 0 0 1.13-.21c.65-.21 1-.55 1-.92s-.31-.92-1.5-1.19a12.14 12.14 0 0 0 -2.62-.21c-1.52 0-3.09.06-3.25.06v4.22" fill="#fff"/><path d="m182.23 218.47h2.06v-3.37h1.07a7.35 7.35 0 0 1 1.16.06c.63.09.83.29.82.56s-.27.53-.91.63a7.89 7.89 0 0 1 -1.06.06c-.21 0-.37 0-.62 0l2.33 2.13h2.62l-2.37-1.71a3.24 3.24 0 0 0 1.1-.2c.63-.2.94-.52.94-.89s-.3-.89-1.45-1.15a12.2 12.2 0 0 0 -2.54-.2c-1.47 0-3 .05-3.15.06v4.09" fill="url(#y)"/><path d="m228.46 218.59h2.18v-3.59c.3 0 .63-.06 1.14-.06a8.28 8.28 0 0 1 1.22.06c.66.1.87.31.87.6s-.3.56-1 .66a7.4 7.4 0 0 1 -1.12.07c-.23 0-.4 0-.66 0l2.47 2.25h2.77l-2.51-1.8a3.67 3.67 0 0 0 1.17-.22c.66-.21 1-.56 1-.94s-.32-.94-1.54-1.22a12.69 12.69 0 0 0 -2.69-.22c-1.57 0-3.19.06-3.34.07v4.33" fill="#fff"/><path d="m228.69 218.47h2.05v-3.37h1.07a7.35 7.35 0 0 1 1.16.06c.62.09.83.29.82.56s-.27.53-.91.63a7.8 7.8 0 0 1 -1.06.06c-.21 0-.37 0-.62 0l2.33 2.13h2.62l-2.37-1.71a3.24 3.24 0 0 0 1.1-.2c.63-.2.94-.52.94-.89s-.3-.89-1.45-1.15a12.16 12.16 0 0 0 -2.53-.2c-1.48 0-3 .05-3.15.06v4.09" fill="url(#z)"/><path d="m150.16 214.4h-21.4l3.09 2.65h20.9" fill="url(#A)"/><path d="m147.5 211.26s-5.57 0-7.3.15a2.73 2.73 0 0 0 -2.1 1 28.9 28.9 0 0 0 5.84 1.16l5.52.35z" fill="#929292"/><path d="m144.92 218.5h-14.14a4.33 4.33 0 0 0 3.15 1.58c2 .06 18.94 0 18.94 0z" fill="#f2f2f2"/><path d="m254.64 218.5h14.14a4.33 4.33 0 0 1 -3.15 1.58c-2 .06-18.94 0-18.94 0z" fill="#f2f2f2"/><path d="m151.1 217.17c-1.72.07-2.32 0-2.9 0a6.18 6.18 0 0 0 -3.5 1.33 28.63 28.63 0 0 0 3.88 1c2 .38 5.3.63 5.3.63" fill="#8a8a8a"/><path d="m249.91 214.4h21.4l-3.1 2.65h-20.89" fill="url(#B)"/><path d="m252.57 211.26s5.26 0 7 .17a4.11 4.11 0 0 1 2.4.95 28.9 28.9 0 0 1 -5.84 1.16l-5.52.35z" fill="#929292"/><path d="m249 217.17c1.72.07 2.33 0 2.9 0a8.1 8.1 0 0 1 3.82 1.33s-2.18.67-4.2 1-5.3.63-5.3.63" fill="#8a8a8a"/><path d="m200.47 237a70.94 70.94 0 0 0 -8.9.52c-7.19 1-6.15 1.75-9.94 2.7s-18.09-.85-18.09-.85-125.47-19.12-132.48-20.24c-10.13-1.61-9.71-1.33-17.61-5.3-10.61-5.33-13.36-10-13.36-10a51.31 51.31 0 0 1 4.55 2.65c13.45 8.67 14.63 8.24 17.24 9.22 7.48 2.81 123.86 19.57 123.86 19.57s26.32 4.73 30.68 3 6.84-3.31 8.9-3.79c7.39-1.7 17.7-1.16 17.7-1.16"/><path d="m199.53 237a70.94 70.94 0 0 1 8.9.52c7.19 1 6.15 1.75 9.94 2.7s18.09-.85 18.09-.85 125.47-19.15 132.48-20.27c10.13-1.61 9.64-1.49 17.61-5.3 11-5.26 13.36-10 13.36-10a51.31 51.31 0 0 0 -4.55 2.65c-13.45 8.67-14.63 8.24-17.24 9.22-7.48 2.81-123.86 19.57-123.86 19.57s-26.32 4.73-30.68 3-6.84-3.31-8.9-3.79c-7.39-1.7-17.14-1.1-17.14-1.1"/><path d="m201.52 206.44s-28.22 0-31.35-.95c-2.15-.65-8.71-3.88-10.79-4.54a39.52 39.52 0 0 0 -6.63-.95s-148 .89-149.31 1.08a7.71 7.71 0 0 0 -2.68 1.1s9.24 1.54 13.48 1.82c44.25 3.41 140.12 1.74 143.62 2.21s6 3 10.61 3h33.53" fill="url(#C)"/><path d="m198.2 206.44s28.22 0 31.35-.95c2.15-.65 8.71-3.88 10.79-4.54a39.38 39.38 0 0 1 6.66-.95s148 .89 149.3 1.08a7.7 7.7 0 0 1 2.69 1.1s-9.22 1.54-13.48 1.86c-44.25 3.41-140.12 1.74-143.62 2.21s-6 3-10.61 3h-33.55" fill="url(#D)"/><path d="m0 0h400v400h-400z" fill="none"/></svg>