<svg viewBox="0 0 400 400" xmlns="http://www.w3.org/2000/svg"><g fill-rule="evenodd"><path d="m116.37 250.43c2.87-1.4 5.9-4.58 7.76-6.2 15.87-13.42 57.45-46.23 75.68-46.37 18.06-.16 64.2 35.43 80.25 49.93 1.16 1 2.09 2.25 3.64 3 2.17.93 2.64.77 3.26-1.32 1.47-4.81 1.16-15 .08-18.61-2-6.43-6-10.23-9.31-13.88-13.57-14.5-59.08-61.72-77.38-62.11-15.74-.38-55.21 38.15-66.14 49.71-3.8 4-7.14 7.67-11.32 11.78-3 2.95-7.83 8.22-9.62 13.57-1.39 4-1.55 13.88-.31 19.08.54 2.48.93 2.71 3.41 1.47zm3.26-9.46c4.58-3.33 14.42-11.63 16-12.79 6.36-5 12.18-9.31 19.08-14.12 8.68-6 31.32-21.24 45-21.32 13.57-.08 35.59 14.34 45.2 21.09 11.48 8.06 18 13.1 28.38 21.48 1.09.85 5.35 4.73 7.76 6.28 1.78 1.16 1.47.7 1.55-1.16.54-12.72-5.2-16-13.8-25.28-3.11-3.34-7.06-7-10.24-10.39-9.15-9.69-47.38-46.45-58.54-44.51-.54 6.13 1.32 14.27-3.1 17.6-2.56 1.94-10.32 4.73-14 6.59-16.82 8.3-36 20.09-50.48 32-11.94 9.84-15.19 10.31-15.12 22.33.08 3.72-.54 4.34 2.33 2.17z"/><path d="m197.25 94.34c-14.42 3-39.47 26.44-47.22 34-7 6.83-13.42 12.95-20.24 20-4.73 4.88-15.59 14.5-17.22 23.34-.62 3.33-.85 17.29 1.48 18.38 2 .93 5.19-2.41 6.28-3.34 8.37-7.44 19.15-15.66 28.3-22.56 9.85-7.45 38.85-28.92 54.74-26.75 18.22 2.48 58.86 34.11 74 47.22 1.55 1.32 3.56 3.18 5.42 4.65 3.73 2.95 4.42-.15 4.66-3.57 1.39-20.78-2.25-22.33-19.85-40.08-12.33-12.41-53.2-54.82-70.33-51.26zm-79.64 87.08c2.25-.78 16.29-12.79 18.61-14.58 6.44-5 12.41-9.46 18.85-13.88 9.46-6.36 30.93-21.17 45.28-21 13.49.15 36.13 14.81 45 21.24l28.07 21.25c1.55 1.24 5.74 5.2 8.07 6.51 1.24.7 1.08.55 1.16-.62.39-14.11-4.27-15.74-13.73-26-10.46-11.32-55.36-56.45-68.7-55-.46 5.74 1.09 14.11-2.79 17.37-2.48 2-10.62 5-14 6.67-21.79 10.86-43.58 25.12-61.49 41.17-4.81 4.27-4.5 8.76-4.35 16.83z"/><path d="m240 301.68s-2.71.08-4.73 0c-5.19 0-10.78-3.87-10.78-10.08s5.51-9.84 10.78-9.84a41.91 41.91 0 0 1 4.73 0c5.27 0 10.78 3.72 10.78 9.84 0 6.28-5.66 10.08-10.78 10.08zm5-23.8c-7.36-.16-14.89 0-15 0-9 0-16.36 6.12-16.36 13.72s7.28 14 16.36 14c.07 0 7.52.15 15 0 9 0 16.36-6.28 16.36-14 0-7.52-7.21-13.49-16.36-13.72z"/><path d="m340.85 305.17h9.15v-13.17c0-7.68-7-13.72-15.9-13.72h-23.26c-.39 0-1.24.07-1.24 1v24.89a.94.94 0 0 0 1 1h9.69v-20.78a1.34 1.34 0 0 1 1.4-1.39h10.7c3 0 7.36 2.63 7.36 8.29v12.8a1 1 0 0 0 1.09 1.08z"/><path d="m147 283.62h14.35v-4.27a1 1 0 0 0 -1-1.08h-39.94a1 1 0 0 0 -1 1v4.35h9.54a6 6 0 0 1 6 5.89v14.65a1.09 1.09 0 0 0 1.08 1h9.69v-20.16a1.29 1.29 0 0 1 1.32-1.39z"/><path d="m102.88 304.16a1 1 0 0 0 1.09 1h9.69v-25.9a1 1 0 0 0 -1-1h-8.76a1 1 0 0 0 -1 1z"/><path d="m177.78 290.83v-5.35a2.42 2.42 0 0 1 2.56-2.48h14.27a3.92 3.92 0 1 1 0 7.83zm20.86 14.34h10.63c-.31-7-7.91-9.85-7.91-9.85 4.8-1.08 7.91-4.49 7.91-8.37 0-4.19-4.11-8.68-10.86-8.68h-25.74a5.5 5.5 0 0 0 -5.59 5.5v20.39a1 1 0 0 0 1 1h9.69v-9.54h9.15c8.15 0 11.48 5.74 11.71 9.54z"/><path d="m86.6 287.26h10.4c-2.25-5.66-8.76-9.61-15.74-9.61-3.8 0-10.55-.24-14.89 0-5.12.23-8.37 1.39-11.55 4.11a13 13 0 0 0 -4.82 9.92c0 7.68 7 13.72 16.13 14 3 .08 4.81.16 6.74.16h.13c2 0 4.26-.08 8.37-.16 7.68-.23 13.19-3.64 15.51-9.61h-10.28a1 1 0 0 0 -.93.54 11 11 0 0 1 -9.31 5.2h-4.8c-5.43-.08-10.78-3.8-10.78-10.16 0-6.2 5.5-10 10.78-10 .62 0 2.71-.08 4.73 0a11.15 11.15 0 0 1 9.46 5.12.94.94 0 0 0 .85.46z"/><path d="m303.86 300.36h-25.27a1.35 1.35 0 0 1 -1.48-1.31v-5.2h21.89v-4.73h-21.89v-4.65a1.45 1.45 0 0 1 1.63-1.4h25.05v-3.8c0-1.08-1.17-1.08-1.24-1.08h-35.05a1 1 0 0 0 -1.09 1v20.54a5.51 5.51 0 0 0 5.59 5.35h30.78a1 1 0 0 0 1-1v-3.73z"/><path d="m295.88 268.5a8.49 8.49 0 0 0 -4.11-.93 8.25 8.25 0 0 0 -4.11.93c-1.09.62-1.94 1.39-3.26 1.39s-2.09-.77-3.25-1.39a8.71 8.71 0 0 0 -4.11-.93 8.46 8.46 0 0 0 -4.11.93c-1.09.62-1.71 1.31-1.71 2.17v.15c0 .85.62 1.55 1.71 2.17a8.46 8.46 0 0 0 4.11.93 8.7 8.7 0 0 0 4-.85c1-.54 2.17-1.47 3.33-1.47s2.25.85 3.26 1.39a8.27 8.27 0 0 0 4.11.93 8.82 8.82 0 0 0 4.26-.92 2.79 2.79 0 0 0 1.7-2.25 3.09 3.09 0 0 0 -1.78-2.24z"/></g><path d="m0 0h400v400h-400z" fill="none"/></svg>