<svg viewBox="0 0 400 400" xmlns="http://www.w3.org/2000/svg"><g fill-rule="evenodd"><path d="m52 306.84h-37.15c-7.09 0-9.2 3-10.93 6.85-.77 1.75-2.46 5.68-3.23 7.46-2 4.66.51 7.54 5.38 7.54h37.36a1.59 1.59 0 0 0 1.32-1c.26-.58.69-1.57.92-2.11a1.07 1.07 0 0 0 -1-1.45h-34.2c-1.54 0-1.86-1.38-1.31-2.65 1-2.41 2.31-5.33 3.49-8.05a3.35 3.35 0 0 1 3.25-2.09h35a1.59 1.59 0 0 0 1.31-1c.25-.57.68-1.52.89-2.08a1.07 1.07 0 0 0 -1.1-1.42z"/><path d="m395.18 315.31h-45.4a1.61 1.61 0 0 0 -1.31 1c-.78 1.75-1.38 3.09-2.14 4.87-2 4.66.49 7.54 5.36 7.54h38.53a1.62 1.62 0 0 0 1.31-1l.89-2.06a1.08 1.08 0 0 0 -1-1.5h-35.32c-1.53 0-1.86-1.38-1.31-2.65l.44-1a1 1 0 0 1 .47-.52 1.22 1.22 0 0 1 .5-.15h37.8a1.63 1.63 0 0 0 1.31-1l.87-2a1.07 1.07 0 0 0 -1-1.53z"/><path d="m258.63 315.31h-45.41a1.64 1.64 0 0 0 -1.31 1c-.76 1.75-1.38 3.09-2.14 4.87-2 4.66.49 7.54 5.37 7.54h38.52a1.59 1.59 0 0 0 1.31-1c.26-.58.66-1.52.9-2.06a1.08 1.08 0 0 0 -1-1.5h-35.32c-1.54 0-1.86-1.38-1.31-2.65l.43-1a1 1 0 0 1 .47-.52 1.28 1.28 0 0 1 .52-.15h37.79a1.62 1.62 0 0 0 1.31-1l.89-2a1.09 1.09 0 0 0 -1.02-1.53z"/><path d="m151.16 306.83h-83.56c-7.09 0-9.17 2.89-10.93 6.85-1 2.28-2.34 5.44-3.21 7.46-2 4.64.46 7.54 5.37 7.54h34.17c7.47 0 9.45-3 11.14-6.92.37-.86 1.68-4 2.11-5a1.08 1.08 0 0 0 -1-1.48h-5.87a1.62 1.62 0 0 0 -1.37 1c-.44 1.07-1.84 4.31-2.48 5.68-.84 1.73-1.44 2.2-3.42 2.2h-28.88c-1.53 0-1.85-1.38-1.31-2.65 1-2.41 2.3-5.33 3.48-8.05a3.36 3.36 0 0 1 3.26-2.09h77.24a1.13 1.13 0 0 1 1.24 1.37 8.73 8.73 0 0 1 -.55 1.43c-.38.77-.75 1.13-2 1.13h-25.35a1.54 1.54 0 0 0 -1.34.82c-.37.69-1.17 2.67-1.49 3.39a1.12 1.12 0 0 0 .59 1.49c4.88 1.64 14.74 4.75 21.69 7a10.65 10.65 0 0 0 3.17.74h10.48c1.06 0 1.64-1.77.34-2.1-9.34-2.36-10.69-2.67-18.5-4.67a1.07 1.07 0 0 1 -.67-1.32 1.09 1.09 0 0 1 1.07-.78h12.08c3.48 0 6-1.31 7.12-3.34a24.29 24.29 0 0 0 2-4.61c.67-2.07.39-5.09-4.62-5.09z"/><path d="m398.91 306.84h-194.55a3.77 3.77 0 0 0 -2.39.74c-.67.49-22.3 16.06-22.74 16.4a1.07 1.07 0 0 1 -1.7-.38c-.4-.83-7.49-15.24-7.73-15.79a1.65 1.65 0 0 0 -1.38-1h-6.59a1.08 1.08 0 0 0 -1 1.59c.25.46 9 17.43 9.69 18.78s1.73 1.66 3.57 1.66h4.58a7.22 7.22 0 0 0 4.42-1.34c.78-.56 14.94-10.38 22.55-15.93l.32-.17.34-.06h75.37a1.09 1.09 0 0 1 1 1.51c-1.48 3.41-6 13.84-6.19 14.34a1.1 1.1 0 0 0 1 1.48h5.91a1.42 1.42 0 0 0 1.32-1l6.31-14.6a2.89 2.89 0 0 1 2.63-1.76h24.87a1.09 1.09 0 0 1 1 1.51c-1.48 3.41-6 13.84-6.19 14.34a1.09 1.09 0 0 0 1 1.48h5.92a1.42 1.42 0 0 0 1.31-1l6.3-14.64a2.88 2.88 0 0 1 2.55-1.72h67.18a1.59 1.59 0 0 0 1.31-1c.19-.41.6-1.36.87-2a.86.86 0 0 0 .11-.45 1.08 1.08 0 0 0 -.97-.99z"/><path d="m347.34 71.15a2.66 2.66 0 0 0 -1.23.3c-4.35 2.27-27.37 14.41-53.43 30.9a4.46 4.46 0 0 0 -1.87 2.22l-.06.12c-.69 1.7-4.3 10.32-6.29 13.85a13.91 13.91 0 0 1 -5 5.08c-14.57 8.74-29.13 18-49.29 30.75 0 0-.69.45-1.53 1a23.54 23.54 0 0 0 -2.77 2.26 29.25 29.25 0 0 0 -5 7.48l-20.87 43.31-20.88-43.26a29.61 29.61 0 0 0 -5-7.48 23.16 23.16 0 0 0 -2.76-2.26c-.85-.61-1.51-1-1.55-1.06-20.15-12.77-34.71-22-49.28-30.75a13.84 13.84 0 0 1 -5-5.08c-2-3.53-5.6-12.15-6.3-13.84l-.07-.16a4.5 4.5 0 0 0 -1.9-2.21c-26-16.46-49-28.6-53.36-30.86a2.65 2.65 0 0 0 -3.9 2.34 3.08 3.08 0 0 0 .08.68c5.06 19.76 13.15 48.09 16.74 59.3a22.41 22.41 0 0 0 4.5 7.86 21 21 0 0 0 4.51 3.84l24 14.15c.41 1.29 1 3 1.57 4.89l1.27 3.93a22.65 22.65 0 0 0 4.5 7.86 20.85 20.85 0 0 0 4.47 3.81l58.23 36.08a6.8 6.8 0 0 1 2.58 2.85c1.25 2.5 4.27 8.76 7.76 16 5.8 12 13 26.93 17.48 35.83a2.63 2.63 0 0 0 2.14 1.44h.17a2.66 2.66 0 0 0 2.35-1.44c4.46-8.9 11.67-23.84 17.47-35.84 3.49-7.24 6.5-13.49 7.77-16a6.82 6.82 0 0 1 2.58-2.84l58.22-36.07a21.09 21.09 0 0 0 4.47-3.81 22.5 22.5 0 0 0 4.5-7.86s2.43-7.53 2.84-8.82l24-14.18a20.8 20.8 0 0 0 4.47-3.8 22.72 22.72 0 0 0 4.51-7.87c3.58-11.2 11.66-39.54 16.72-59.28a2.86 2.86 0 0 0 .09-.7 2.6 2.6 0 0 0 -2.66-2.65m.82 2.89c-5 19.56-13.09 47.91-16.7 59.19a20.66 20.66 0 0 1 -4.13 7.22 18.71 18.71 0 0 1 -4.08 3.47l-24.56 14.51c-.66 2.06-1.84 5.74-3 9.46a21 21 0 0 1 -4.13 7.22 19 19 0 0 1 -4.08 3.48l-58.22 36.06a8.69 8.69 0 0 0 -3.25 3.59c-3.28 6.55-18 37.39-25.23 51.84a.81.81 0 0 1 -.73.44.81.81 0 0 1 -.73-.45c-7.25-14.44-22-45.28-25.23-51.83a8.71 8.71 0 0 0 -3.26-3.59l-58.21-36.07a19 19 0 0 1 -4.08-3.47 21 21 0 0 1 -4.13-7.22c-1.19-3.72-2.38-7.4-3-9.46l-24.65-14.52a18.76 18.76 0 0 1 -4.08-3.48 20.57 20.57 0 0 1 -4.13-7.22c-3.61-11.22-11.69-39.63-16.7-59.22a1 1 0 0 1 0-.24.78.78 0 0 1 .86-.85.91.91 0 0 1 .4.1c10.15 5.3 31.41 17 53.25 30.8a2.73 2.73 0 0 1 1.24 1.48s4.18 10.12 6.43 14.1a15.67 15.67 0 0 0 5.66 5.74c14.51 8.71 29.09 17.94 49.24 30.72 0 0 .65.41 1.46 1a23.56 23.56 0 0 1 2.55 2.07 27.94 27.94 0 0 1 4.59 7l22.45 46.49h.15l22.4-46.41a27.82 27.82 0 0 1 4.59-7 22.52 22.52 0 0 1 2.55-2.08c.81-.58 1.46-1 1.46-1 20.15-12.77 34.73-22 49.24-30.72a15.6 15.6 0 0 0 5.66-5.74c2.25-4 6.42-14.08 6.43-14.1a2.77 2.77 0 0 1 1.24-1.48c21.85-13.82 43.1-25.5 53.25-30.79a.79.79 0 0 1 .4-.1.77.77 0 0 1 .85.84.93.93 0 0 1 0 .24" stroke="#000" stroke-miterlimit="10" stroke-width="1.02"/></g><path d="m165.85 161c-.3-.58-.54-1.09-.79-1.54a10.79 10.79 0 0 0 -.72-1.23 7.4 7.4 0 0 0 -2.12-2c-39.41-25.05-63.49-38.78-71.22-43.16l15.34 47.27a12.2 12.2 0 0 0 2.44 4.41 14 14 0 0 0 2.78 2.34l67.71 42.23a7.23 7.23 0 0 1 1.2 1 7.9 7.9 0 0 1 .68 1l16.62 32.76v-18.61zm-26.24-17.28 7.08 16.46-24.24-14.18-6.31-16.64zm-35.75 4.85-5.39-16.37 23.93 13.85 6.32 16.7zm31.23 31.43-6.34-17.08 25.52 15 7.75 18 .45 1.07zm19.29-2.15-7.58-17.53 24.3 14.17 9.37 19z"/><path d="m86 105.05h14.82c-33.2-20.32-43.14-25.21-43.14-25.21 5.07 19.31 11.18 39.27 13.91 48a13.24 13.24 0 0 0 2 4.25 13.75 13.75 0 0 0 2.2 1.8l22.07 12.93-12.86-39.68a3.25 3.25 0 0 1 -.1-.47 1.78 1.78 0 0 1 .12-1 .92.92 0 0 1 1-.61m3.57 21-21-12.35c-1.18-4.1-3-10.08-4.6-15.92 3.27 1.76 10.13 5.65 20.37 11.84zm-5.59-22.14-3.13-9.4c4.84 2.76 8.42 5 15.68 9.4z"/><path d="m299.19 105h14.81a.94.94 0 0 1 1 .62 1.79 1.79 0 0 1 .1 1 3 3 0 0 1 -.09.47l-12.87 39.68 22.07-12.93a13.18 13.18 0 0 0 2.2-1.8 13.24 13.24 0 0 0 2-4.25c2.72-8.73 8.84-28.69 13.91-48 0 0-9.94 4.89-43.15 25.18m25.59 19.07-13.15 7.37 1-3.36 13.15-7.37zm6.64-17.87a4.23 4.23 0 0 0 -4.4 1.13 15.74 15.74 0 0 0 -3.62 6.51s-.17 1.2.83 1h.1a.19.19 0 0 1 .2.16 5.57 5.57 0 0 1 0 1.14.59.59 0 0 1 -.11.32.72.72 0 0 1 -.24.17 8.26 8.26 0 0 0 -2 1.5l-1 2.11a5.52 5.52 0 0 1 -.75.27c-.06 0-.16 0-.15 0l.05-1.35c-.07-.13-1 0-1.34.17a.28.28 0 0 1 -.13 0 .21.21 0 0 1 -.2-.22 11.17 11.17 0 0 1 .45-1.47 1.31 1.31 0 0 1 .11-.2.82.82 0 0 1 .2-.12 4.62 4.62 0 0 0 2-2.57c.91-4.22.16-4.52.16-4.52-.7-.38-3.6 2.44-4.77 3.63a.3.3 0 0 1 -.14 0 .22.22 0 0 1 -.22-.22s0 0 0-.07c.47-1.58 1.72-5.81 4.47-7.63a2 2 0 0 1 2.7.84 15.52 15.52 0 0 1 .66-4.39s1.23-3.85 3.36-5.88a.25.25 0 0 1 .17-.08.22.22 0 0 1 .18.1 4.65 4.65 0 0 1 .47 3.52 30.64 30.64 0 0 1 -2.32 5.32c3-3.91 4.36-3.62 4.36-3.62 1.81-.06 1.3 3 1.18 4.23a.22.22 0 0 1 -.22.22"/><path d="m237.8 156.3a6.87 6.87 0 0 0 -2.11 2 9.83 9.83 0 0 0 -.73 1.22c-.26.46-.51 1-.78 1.55l-32 64.44v18.61l16.62-32.76a9.55 9.55 0 0 1 .67-1 8.07 8.07 0 0 1 1.21-1l67.71-42.22a13.93 13.93 0 0 0 2.77-2.35 12 12 0 0 0 2.44-4.41l15.4-47.3c-7.73 4.37-31.82 18.11-71.22 43.22m41.7-.58-11 6.66-.67 5.09-15.23 9.53.71-5.1-16.2 10.1 6.63-13.16 10.85-6.65.66-4.9 15.17-9.52-.65 4.93 16.25-10.08z"/><path d="m0 0h400v400h-400z" fill="none"/></svg>