<?xml version="1.0" encoding="utf-8"?>
<!-- Generator: Adobe Illustrator 24.0.0, SVG Export Plug-In . SVG Version: 6.00 Build 0)  -->
<!DOCTYPE svg PUBLIC "-//W3C//DTD SVG 1.1//EN" "http://www.w3.org/Graphics/SVG/1.1/DTD/svg11.dtd" [
	<!ENTITY ns_extend "http://ns.adobe.com/Extensibility/1.0/">
	<!ENTITY ns_ai "http://ns.adobe.com/AdobeIllustrator/10.0/">
	<!ENTITY ns_graphs "http://ns.adobe.com/Graphs/1.0/">
	<!ENTITY ns_vars "http://ns.adobe.com/Variables/1.0/">
	<!ENTITY ns_imrep "http://ns.adobe.com/ImageReplacement/1.0/">
	<!ENTITY ns_sfw "http://ns.adobe.com/SaveForWeb/1.0/">
	<!ENTITY ns_custom "http://ns.adobe.com/GenericCustomNamespace/1.0/">
	<!ENTITY ns_adobe_xpath "http://ns.adobe.com/XPath/1.0/">
]>
<svg version="1.1" id="Ebene_2" xmlns:x="&ns_extend;" xmlns:i="&ns_ai;" xmlns:graph="&ns_graphs;"
	 xmlns="http://www.w3.org/2000/svg" xmlns:xlink="http://www.w3.org/1999/xlink" x="0px" y="0px" viewBox="0 0 600 400"
	 style="enable-background:new 0 0 600 400;" xml:space="preserve">
<metadata>
	<sfw  xmlns="&ns_sfw;">
		<slices></slices>
		<sliceSourceBounds  bottomLeftOrigin="true" height="389.4" width="593.4" x="-96.6" y="4.6"></sliceSourceBounds>
	</sfw>
</metadata>
<path d="M411.9,101.9c-10-3.9-19.5-7.6-29.1-11.4c5.7-9.6,11.2-19,16.8-28.4c-0.1-0.1-0.2-0.2-0.2-0.4c-18,8.9-36,17.7-54.7,26.9
	c1.3,0.5,2,0.9,2.7,1.2c11.2,4.3,22.4,8.6,33.6,13.1c3.5,1.4,6.9,3.2,9.9,5.4c6.8,5,8.9,12.3,6.1,20.3c-1.3,3.5-3.1,7-5.1,10.1
	c-28.1,44.1-56.2,88.1-84.3,132.2c-0.4,0.6-0.8,1.1-1.7,1.5c0-2.9,0-5.8,0-8.7c0.1-7.6,0.1-15.2,0.3-22.8c0-1.7,0.7-3.3,1.1-4.9
	c10-33.1,20-66.1,30-99.2c1.3-4.4,0.7-6.4-3.3-8.7c-4.2-2.4-8.7-4.5-13.1-6.6c-6.7-3.2-13.4-6.5-20.1-9.6c-0.9-0.4-2.3-0.4-3.2,0
	c-10.6,5.1-21.2,10.3-31.7,15.5c-1.2,0.6-2.2,1.4-3.2,2.3c-1.8,1.6-2.3,3.5-1.6,5.9c9.1,30,18.1,60.1,27.2,90.1
	c1.2,4.1,2.7,8.1,3.7,12.2c0.7,2.8,0.9,5.8,1,8.7c0.1,8.7,0,17.3,0,26c-0.2,0-0.5,0.1-0.7,0.1c-0.4-0.6-0.9-1.2-1.3-1.8
	c-27.9-43.8-55.9-87.6-83.7-131.4c-2.5-3.9-4.7-8.3-6-12.7c-2-6.8-0.2-13.1,5.5-17.5c3-2.4,6.4-4.4,10-5.8
	c11.4-4.7,22.9-9,34.4-13.5c0.7-0.3,1.4-0.6,2.8-1.1c-18.5-9.1-36.5-18-54.5-26.9c-0.1,0.1-0.2,0.2-0.4,0.3
	c5.6,9.4,11.1,18.8,16.8,28.4c-9.8,3.8-19.3,7.5-29.2,11.4C166.5,70,146.2,38.2,126,6.4c0.1-0.1,0.2-0.3,0.3-0.4
	c5.9,2.1,11.8,4.1,17.7,6.2c50.3,17.7,100.7,35.4,151,53.1c3.1,1.1,5.9,1,9-0.1c49-17.3,98-34.5,147-51.8c6.4-2.3,12.9-4.5,19.3-6.8
	c0.6-0.2,1.1-0.3,2.1-0.1C452.3,38.4,432.1,70.1,411.9,101.9z"/>
<path d="M596.8,395.4c-4.8,0-9.2,0-13.7,0c-1.8,0-2.8-0.8-2.9-2.6c-0.1-2.7-0.2-5.4-0.2-8.1c0-2.1,0-4.1,0-6.3
	c-24.1,0-48.1,0-72.3,0c0,5.6,0,11,0,16.7c-5.9,0-11.6,0-17.4,0c-0.1-0.8-0.2-1.4-0.2-2c0-12.9-0.1-25.8-0.1-38.6
	c0-9.4,6.5-15.7,15.8-15.7c28.8,0,57.6,0,86.3,0c1.5,0,2.9,0,4.6,0C596.8,357.5,596.8,376.1,596.8,395.4z M580,351.6
	c-24.1,0-48.1,0-72.1,0c0,4.5,0,8.7,0,12.8c24.1,0,48,0,72.1,0C580,360.1,580,356,580,351.6z"/>
<path d="M465.5,378.7c3.8,5.4,7.4,10.6,11.4,16.4c-5.7,0.2-10.8,0.5-16,0.4c-3.1-0.1-5.5-1.9-7.1-4.6c-2.1-3.7-4.3-7.3-6.6-10.9
	c-0.5-0.7-1.5-1.5-2.3-1.5c-19.5-0.1-38.9-0.1-58.7-0.1c0,5.5,0,11,0,16.7c-6.1,0-11.8,0-17.8,0c0-18.8,0-37.4,0-56.3
	c0.9,0,1.8,0,2.6,0c29.3,0,58.6,0,87.9,0.1c3,0,6.2,0.7,9,1.9c4.7,2,7.5,5.6,7.5,11c0,4.6-0.1,9.1,0,13.7c0,4.6-2.2,8-5.8,10.5
	C468.3,376.9,466.9,377.7,465.5,378.7z M386.4,364.6c1,0,2,0,2.9,0c9.3,0,18.6,0.1,27.9,0c12.9-0.1,25.9-0.2,38.8-0.3
	c2.6,0,3.7-1.2,3.8-3.8c0-1.1,0.1-2.2,0.2-3.2c0.2-4.7-1.1-6.2-5.8-6.3c-22.1-0.1-44.2-0.1-66.3-0.2c-0.4,0-0.9,0.1-1.5,0.1
	C386.4,355.4,386.4,359.8,386.4,364.6z"/>
<path d="M110,379.9c0,5.2,0,10,0,14.9c-0.8,0.1-1.6,0.1-2.3,0.1c-28.9,0.1-57.7,0.3-86.6,0.3c-2.8,0-5.7-0.5-8.5-1.2
	c-5.6-1.6-9-5.3-9.1-11.2c-0.2-10.4-0.3-20.8,0-31.2c0.2-7.5,6.4-12.6,14.7-12.9c3.8-0.1,7.6,0,11.4,0c25.8,0,51.5,0,77.3,0
	c0.9,0,1.9,0,3,0c0,5.2,0,10.2,0,15.6c-4,0-8,0-12,0c-24.8,0-49.6,0.1-74.5,0.1c-3.6,0-4.5,0.9-4.6,4.5c0,6,0,11.9-0.1,17.9
	c0,1.5,0.4,2.2,1.8,2.3c2.6,0.3,5.2,0.8,7.8,0.8c26.1,0,52.3,0,78.4,0C107.8,379.9,108.8,379.9,110,379.9z"/>
<path d="M263.8,378.3c0,5.7,0,11.1,0,16.8c-5.7,0-11.4,0-17.2,0c0-18.7,0-37.4,0-56.3c0.9,0,1.7,0,2.6,0c29.8,0,59.6,0,89.4,0.1
	c2.3,0,4.7,0.3,6.9,1c4.9,1.6,8.2,4.8,8.3,10.3c0.1,6,0.2,12.1-0.2,18.1c-0.3,5.6-6.3,10.1-12.9,10.1c-10.5,0.1-21.1,0-31.7,0
	c-14.1,0-28.2,0-42.4,0C265.7,378.3,264.9,378.3,263.8,378.3z M337.6,351.6c-24.7,0-49.2,0-73.8,0c0,3.6,0.1,7.1,0,10.6
	c-0.1,1.9,0.6,2.5,2.5,2.5c22.3-0.2,44.7-0.2,67-0.3c3.4,0,4.8-1.2,4.8-4.7C338.1,357.2,337.8,354.6,337.6,351.6z"/>
<path d="M124.8,338.9c6.1,0,12.1,0,18.5,0c0,13.6,0,27,0,40.7c1.2,0.1,2,0.1,2.8,0.1c21.4,0.1,42.8,0.1,64.2,0.2
	c2.1,0,2.6-0.6,2.6-2.6c0-11.8,0.1-23.6,0.2-35.4c0-0.9,0-1.8,0-3c6.3,0,12.5,0,18.9,0c0,0.7,0,1.5,0,2.2c0,13,0,26.1,0,39.1
	c0,8.6-5.9,14.7-14.5,14.8c-16.1,0.2-32.1,0.1-48.2,0.2c-7.5,0-15,0.2-22.6,0.1c-3.8,0-7.6-0.3-11.3-0.9
	c-5.9-0.9-10.9-6.6-10.9-12.5c-0.1-13.9,0-27.8,0-41.7C124.7,339.9,124.7,339.4,124.8,338.9z"/>
</svg>
