<svg viewBox="0 0 400 400" xmlns="http://www.w3.org/2000/svg"><path d="m337.44 87.41h-274.85v161.59h273.41c1.54 0 1.54 0 1.54-1.5v-158.68c-.04-.45-.08-.9-.1-1.41zm-19.52 77a19.46 19.46 0 0 1 -3.92 3.79 63.81 63.81 0 0 1 -15.42 8.31 458.89 458.89 0 0 1 -50.14 16.69c-21.2 5.85-42.63 10.67-64.22 14.76-14.2 2.7-28.46 5.12-42.69 7.62-4 .71-8.12 1.28-12.18 1.91a6.32 6.32 0 0 1 -.87 0c1.67-2.58 3.18-5 4.79-7.37q5.81-8.52 11.72-16.94a1.5 1.5 0 0 0 -.18-2.34l-62.65-62.64a5.73 5.73 0 0 0 -1.2-.73l.33-.49c1.72-.09 3.44-.19 5.16-.26 2.83-.12 5.66-.26 8.49-.29a2.64 2.64 0 0 1 1.71.67q30.61 30.48 61.16 61a2.76 2.76 0 0 0 2.43.95c7.53-.68 15.07-1.27 22.6-2 6.46-.6 12.9-1.23 19.33-2 9-1.08 18-2.09 27-3.51 12-1.9 24-4 36-6.33a319.93 319.93 0 0 0 39.83-10.36 40.39 40.39 0 0 0 4.29-1.79 11.75 11.75 0 0 0 2.27-1.4c2.18-1.71 2.24-3.6-.09-5.07a32.56 32.56 0 0 0 -6.76-3.3 204.35 204.35 0 0 0 -35.47-8.88c-7.86-1.21-15.72-2.4-23.6-3.4-7.58-.95-15.18-1.73-22.79-2.42q-12.81-1.17-25.64-2-25.35-1.67-50.74-1.24a2.49 2.49 0 0 0 -.37.09l46.31 46.56-8.35.8-21.32 2a16.64 16.64 0 0 1 -2.43.17 2.19 2.19 0 0 1 -1.25-.64q-17-17-33.95-34l-22.86-22.93-1.12-1.19h1.53c12.61.07 25.23 0 37.84.28 10.62.22 21.24.76 31.87 1.3 9 .46 18.12 1 27.17 1.73 11.06.87 22.11 1.81 33.15 3a409.65 409.65 0 0 1 46.57 7.48 189.37 189.37 0 0 1 28.94 8.61 36.8 36.8 0 0 1 8.11 4.46c4.2 3.04 4.69 7.07 1.61 11.32z"/><path d="m95.22 279.44c-2.64-5.85-7.37-8.78-13.67-9-5.46-.19-10.94-.06-16.41-.06-2.51 0-2.64.12-2.64 2.59v18.16q0 9.48 0 19c0 1.53.36 1.95 1.65 1.95 5.74 0 11.49.15 17.22-.05 6.68-.25 11.58-3.44 14.14-9.75 2.25-5.54 2.36-11.34 1.4-17.16a23.75 23.75 0 0 0 -1.69-5.68zm-7.37 13.85a42.61 42.61 0 0 1 -1 7.81c-1.08 4.47-3.89 6.51-8.5 6.58-2.16 0-4.33 0-6.6 0v-32.91c3.35.15 6.69-.47 9.94.54 2.92.91 4.38 3.2 5.18 6a35.43 35.43 0 0 1 .98 11.98z"/><path d="m198.47 270.37h-5.82c-1.27 0-1.68.41-1.68 1.67v7.56 8.34h-12.6c-1.6 0-1.6 0-1.6-1.66 0-4.74 0-9.47 0-14.21 0-1.39-.34-1.72-1.73-1.72-1.94 0-3.88 0-5.82 0-1.08 0-1.56.52-1.55 1.57v37.61c0 2.46.06 2.52 2.58 2.52h4.43c1.84 0 2.1-.25 2.1-2.06 0-5.47 0-10.95 0-16.42 0-.95.25-1.27 1.23-1.26 3.92.05 7.84 0 11.76 0 .39 0 .76 0 1.23.07v17.79c0 1.47.38 1.85 1.85 1.85h4.9c2.23 0 2.38-.14 2.38-2.37v-37.65c-.13-1.29-.41-1.63-1.66-1.63z"/><path d="m133.64 296.07q-4.12-11.91-8.28-23.82c-.56-1.61-1-1.89-2.62-1.89s-3.49.06-5.23 0c-1.2-.06-1.7.41-2.07 1.52q-5.19 15.45-10.44 30.92c-.84 2.5-1.69 5-2.53 7.49-.58 1.74-.56 1.76 1.21 1.76a18.39 18.39 0 0 1 2.1 0 1.68 1.68 0 0 0 2-1.43c.88-2.89 1.88-5.75 2.78-8.63a1.15 1.15 0 0 1 1.3-1q6.41.06 12.81 0a1.14 1.14 0 0 1 1.3.95c.89 2.81 1.86 5.59 2.76 8.39a2.08 2.08 0 0 0 2.32 1.66h3 2.95c1.82 0 2.08-.35 1.49-2zm-21.24.54c1.93-5.95 3.82-11.77 5.72-17.59h.3c1.91 5.82 3.81 11.63 5.77 17.62z"/><path d="m237.73 295.72-8.17-23.49c-.55-1.59-1-1.86-2.64-1.87s-3.34.08-5 0a2 2 0 0 0 -2.34 1.63c-2.47 7.54-5.05 15.06-7.58 22.59q-2.72 8-5.41 16.08c-.44 1.31-.37 1.41 1 1.41.82 0 1.65-.07 2.46 0 1.22.15 1.72-.45 2.05-1.52.89-2.85 1.87-5.67 2.75-8.52a1.14 1.14 0 0 1 1.29-1q6.39 0 12.8 0a1.13 1.13 0 0 1 1.3.95c.87 2.77 1.81 5.53 2.71 8.29a2.18 2.18 0 0 0 2.39 1.75c1-.06 2 0 3 0h2.9c1.84 0 2.07-.31 1.46-2.07q-2.49-7.1-4.97-14.23zm-21.14.9 5.76-17.7h.25c1.93 5.86 3.86 11.72 5.83 17.73z"/><path d="m336.47 270.36c-.93 0-1.86 0-2.8 0-1.43 0-1.51.08-1.51 1.51v15 14.78a6.15 6.15 0 0 1 -4.86 6.35 13.92 13.92 0 0 1 -4.94.26c-3.39-.46-5.31-2.43-5.92-5.81a21.51 21.51 0 0 1 -.24-3.94c0-8.73 0-17.46 0-26.19 0-1.55-.38-1.92-1.91-1.92h-5.24c-1.71 0-2.05.32-2.05 2v9.31c0 6.05 0 12.11.2 18.15a11.88 11.88 0 0 0 7.28 10.81c5.22 2.49 10.67 2.41 16.11.79a8.85 8.85 0 0 0 6.41-7 16.69 16.69 0 0 0 .42-3.45q.07-14.59.07-29.21v-.35c.04-.78-.26-1.12-1.02-1.09z"/><path d="m295.91 292.15c-2-1.95-4.34-3.6-6.53-5.39s-4.17-3.23-6.09-5a4.2 4.2 0 0 1 -1.27-4.68 4.65 4.65 0 0 1 4-3c3.5-.61 6.67.4 9.73 2 .5.27 1 .49 1.86.89 0-1.29-.08-2.33 0-3.34a1.92 1.92 0 0 0 -1.5-2.25 24.25 24.25 0 0 0 -13-1.1c-5.91 1.16-9.23 6.06-8.39 12a14 14 0 0 0 5.28 8.72c2.46 2.09 5.11 3.92 7.6 6a24 24 0 0 1 3.6 3.6 4.77 4.77 0 0 1 .61 5.36c-.94 1.81-2.72 2.31-4.62 2.42a20.17 20.17 0 0 1 -8.1-1.27c-1.23-.45-2.42-1-4-1.66v3.81a1.52 1.52 0 0 0 1.16 1.65 27.63 27.63 0 0 0 14.59 1.09c6.13-1.27 9.36-5.62 8.86-11.85a12.22 12.22 0 0 0 -3.79-8z"/><path d="m271 270.36h-28.53c-2.57 0-2.53-.44-2.52 2.49 0 1.94 0 1.94 1.91 1.94h9.91v35.33c0 1.55.37 1.93 1.9 1.93h5c2.1 0 2.34-.23 2.34-2.32v-35h8.78s2.81.5 2.81-2.79c.01-1.52-.05-1.58-1.6-1.58z"/><path d="m153.73 270.36h-5.73c-1.78 0-2 .24-2 2v23.27q0 7.33 0 14.67c0 1 .24 1.73 1.38 1.73h6.62a1.24 1.24 0 0 0 1.36-1.27c0-.46 0-.93 0-1.39v-36c0-.47 0-.93 0-1.4 0-1.25-.36-1.61-1.63-1.61z"/><path d="m0 0h400v400h-400z" fill="none"/></svg>