<svg viewBox="0 0 400 400" xmlns="http://www.w3.org/2000/svg"><path d="m187.14 256.8c-14.32 0-28.64.06-43-.05h-.14a11.09 11.09 0 0 0 -4.19.79 11.88 11.88 0 0 0 -3.62 2.34 20.1 20.1 0 0 0 -3 3.45 31.27 31.27 0 0 0 -3.51 7.2h59.14v-13.65c-.65 0-1.19-.08-1.73-.08z"/><path d="m305.08 282.73c5.43 0 10.86 0 16.28-.05a4.57 4.57 0 0 0 2.64-1c8.05-7 16-14 24.05-21.07a13.31 13.31 0 0 1 1.45-1l-.34-.47c-5.77 0-11.53 0-17.29.05a4.38 4.38 0 0 0 -2.61 1c-6.29 5.62-12.51 11.31-18.75 17-1.88 1.72-3.74 3.44-5.6 5.16 0 .12.11.24.17.36z"/><path d="m265.21 270.52v-13.65c-.44 0-.81-.09-1.18-.09-14.55 0-29.1-.1-43.65.07a17.38 17.38 0 0 0 -13.11 6 13.14 13.14 0 0 0 -3.45 7.66h61.39z"/><path d="m213.2 90.14c-2.83-.52-5.68-.88-8.53-1.31h-9.33c-2.25.33-4.5.64-6.74 1a72.73 72.73 0 1 0 24.6.33zm-24.77 9.12a63.45 63.45 0 0 1 68 33.32 4 4 0 0 1 0 4c-3.62 7.47-7.59 14.7-13.07 21-1.2 1.37-2.36 2.78-3.53 4.18-.27-.13-.53-.28-.79-.42-.14-.93-.31-1.85-.42-2.79-1.31-11-4.36-21.43-10.6-30.71-8.44-12.53-20.5-19.72-35.02-22.84-4.75-1-9.68-1.24-14.52-1.8-.58-.07-1.17-.07-1.76-.1 0-.24-.07-.49-.11-.73 3.92-1.08 7.82-2.37 11.82-3.11zm10.84 19a6.13 6.13 0 0 1 1.71.93 64.93 64.93 0 0 1 15.87 28.53c5.65 21.73-.4 40.51-15.28 56.82-.25.27-.57.49-1 .88-1-1-1.91-1.9-2.75-2.9-8.52-10.06-14.14-21.5-15.89-34.63a55.91 55.91 0 0 1 8.19-37.48c2.62-4.3 6.07-8.11 9.15-12.14zm-56.9 69.6c-.24-.48-.53-.94-.74-1.43a63.22 63.22 0 0 1 20.16-75.39 110.45 110.45 0 0 1 11.36-6.9 3.6 3.6 0 0 1 2.51-.22 53.68 53.68 0 0 1 22.5 12.48 7.61 7.61 0 0 1 1.08 1.82c-3.86.56-7.78.88-11.58 1.71-10.93 2.38-20.85 6.87-29 14.72-8.34 8-13 18-15.21 29.2a74 74 0 0 0 -.76 23 1.29 1.29 0 0 1 -.32 1.02zm69.9 35.9c-28.25 5.34-55.45-7.86-68.7-33.26a2.8 2.8 0 0 1 -.28-2.11c3.82-8.43 8.19-16.52 14.51-23.4 1-1.08 2.14-2 3.42-3.24.54 3.42.94 6.48 1.52 9.51 2.33 12.08 7 23 15.81 31.9 8.27 8.37 18.4 13.28 29.83 15.53 4.17.82 8.47 1.05 12.71 1.55l1.45.16.12.61c-3.46.99-6.88 2.09-10.39 2.76zm14.73-4.85a5.16 5.16 0 0 1 -3.29.26 52.8 52.8 0 0 1 -21.9-12.54 4.6 4.6 0 0 1 -.55-.62c-.06-.07 0-.2-.06-.45 3-.48 6-.87 8.95-1.45 12.27-2.44 23.47-7.09 32.46-16.14 8.33-8.38 12.8-18.68 14.71-30.19a86.37 86.37 0 0 0 .74-21.51c.22.45.48.88.67 1.34 12.75 30.92-1.38 67.21-31.73 81.3z"/><path d="m107.09 257a4.2 4.2 0 0 0 -1.46-.21h-55.63q0 7 0 14c.72.06 1.43.15 2.15.15q21 0 42 0c.88 0 1.77 0 2.66.11a6.36 6.36 0 0 1 5.55 6.21c-.22 5.21 0 10.44-.07 15.66a10 10 0 0 1 -.33 2.62 3.27 3.27 0 0 1 -3.43 2.54c-9.17 0-18.33 0-27.49 0-1.28 0-1.73-.33-1.71-1.68.07-5.77 0-11.55 0-17.32v-1.9a7 7 0 0 0 -1.18-.22c-5.78 0-11.56 0-17.33 0a4.55 4.55 0 0 0 -.81.13v34h56.11a11.37 11.37 0 0 0 11.69-11.63v-27a16.22 16.22 0 0 0 -10.72-15.46z"/><path d="m348.57 309.77c-7.84-7.22-15.65-14.46-23.51-21.64a3.84 3.84 0 0 0 -2.3-1c-5.76-.08-11.54 0-17.31 0a6.36 6.36 0 0 0 -1.1.19 4.71 4.71 0 0 0 .41.54c8.05 7.55 16.09 15.12 24.19 22.63a3.29 3.29 0 0 0 2.07.67c6.32.05 12.65 0 19 0 0-.11 0-.23 0-.33a16.41 16.41 0 0 1 -1.45-1.06z"/><path d="m248 275.88h-42.5c-.54 0-1.08.05-2.11.1.54 1.78.7 3.54 1.55 4.84a20.22 20.22 0 0 0 16.15 9.54h.94c8.55.45 17.15.08 25.72.09 3.08 0 4.69 1.94 4.21 5-.39 2.53-2.35 4-5.52 4h-41.16v11.55c.41 0 .74.11 1.06.11h.09c14.75 0 29.5.11 44.24 0 4.6-.05 9.12-1.15 12.62-4.46 4.92-4.65 5.61-10.58 4.16-16.78-1.74-7.38-11.14-13.98-19.45-13.99z"/><path d="m129.83 276v35.06h18.73v-20.5h40.31v-14.56h-59z"/><path d="m284.32 298v13.09h16.55v-52.56h-16.55z"/><path d="m0 0h400v400h-400z" fill="none"/></svg>