<svg viewBox="0 0 400 400" xmlns="http://www.w3.org/2000/svg" xmlns:xlink="http://www.w3.org/1999/xlink"><clipPath id="a"><path d="m297.75 171v11.21h39.9a4.86 4.86 0 0 1 4.85 4.79v2.39a4.72 4.72 0 0 1 -2.51 4.25 4.94 4.94 0 0 1 .55 2.24v2a4.86 4.86 0 0 1 -.4 2 4.72 4.72 0 0 1 3.07 4.53v2.42a4.8 4.8 0 0 1 -4.85 4.85h-40.61v17.83h102.25v-58.51z"/></clipPath><g clip-path="url(#a)"><path d="m346.3 173.12-46.32 53.76h22.56l46.33-53.76z"/><path d="m377.91 173.12-46.32 53.76h22.57l45.84-53.21v-.55z"/></g><path d="m1.47 207.61a1.49 1.49 0 0 1 -1.47-1.51v-18.45a1.49 1.49 0 0 1 1.47-1.51h39.2a28.86 28.86 0 0 1 13.91 3.34c3.57 2 5.54 4.65 5.54 7.41s-2 5.39-5.54 7.4a29 29 0 0 1 -14 3.31zm13.53-17.35a1.6 1.6 0 0 0 -1.57 1.64v10a1.61 1.61 0 0 0 1.57 1.6h20.06c6 0 10.8-2.93 10.8-6.62s-4.75-6.64-10.8-6.64z"/><path d="m144 207.61a1.49 1.49 0 0 1 -1.47-1.51v-18.45a1.49 1.49 0 0 1 1.47-1.51l39.19.1a28.85 28.85 0 0 1 13.91 3.25c3.58 2 5.55 4.65 5.55 7.41s-2 5.39-5.55 7.4a28.74 28.74 0 0 1 -13.91 3.25zm13.5-17.35a1.61 1.61 0 0 0 -1.5 1.64v9.95a1.62 1.62 0 0 0 1.58 1.65h20.08c6.06 0 10.8-2.89 10.8-6.58s-4.74-6.58-10.8-6.58z"/><path d="m101.34 208.26c-3.19 0-5.48-.07-7.7-.15h-.15c-6.74-.22-13-1.48-17.51-3.55s-7-4.76-7-7.61c0-5.85 10.77-10.75 24.53-11.15 2.58-.08 5.32-.15 7.85-.15s5.26.07 7.84.15c13.76.4 24.53 5.3 24.53 11.15 0 2.85-2.5 5.56-7 7.61s-10.78 3.33-17.51 3.55h-.22c-2.21.08-4.5.15-7.68.15m0-18.51c-1.41 0-2.9 0-4.3.09-8.21.24-14.16 3.24-14.16 7.11s6 6.84 14.16 7.12h.08c1.27 0 2.47.08 4.22.08s2.94 0 4.22-.08h.08c8.2-.28 14.14-3.27 14.14-7.12s-6-6.87-14.15-7.11c-1.41-.05-2.89-.09-4.29-.09"/><path d="m233.88 207.65h-.63c-14.64-.07-22.38-3.78-22.38-10.75 0-5.63 9.83-10.35 22.39-10.74h2.74 36.14a.74.74 0 0 1 .83.79v2.55a.72.72 0 0 1 -.83.76h-31.43c-1.21 0-2.46 0-3.73.08-2.9.11-12.36 1-12.36 6.57 0 3.93 5.08 6.31 12.36 6.6 1.12 0 2.18.08 3.7.08h17.1c.89 0 1.62-.21 1.62-1.15v-2.44c0-.95-.73-1.27-1.62-1.27h-17.22a.71.71 0 0 1 -.73-.74v-2.19a.79.79 0 0 1 .82-.78h30.85a1.5 1.5 0 0 1 1.49 1.5v9.62a1.49 1.49 0 0 1 -1.49 1.49h-37.62"/><path d="m284.52 207.6a1.45 1.45 0 0 1 -1.45-1.44v-18.55a1.45 1.45 0 0 1 1.45-1.45h53.13a.91.91 0 0 1 .85.84v2.39a.84.84 0 0 1 -.85.84h-38.88a1.8 1.8 0 0 0 -2 1.73v1.41c0 1.12.92 1.62 2 1.62h36.92a.84.84 0 0 1 .85.85v2a.81.81 0 0 1 -.85.85h-37a1.8 1.8 0 0 0 -2 1.74v1.46c0 1.12.91 1.6 2 1.6h39.66a.79.79 0 0 1 .85.85v2.42a.83.83 0 0 1 -.85.85z"/><path d="m0 0h400v400h-400z" fill="none"/></svg>