<svg viewBox="0 0 400 400" xmlns="http://www.w3.org/2000/svg" xmlns:xlink="http://www.w3.org/1999/xlink"><linearGradient id="a" gradientTransform="matrix(43.1 0 0 -67.24 -39863.94 72038.39)" gradientUnits="userSpaceOnUse" x1="930.63" x2="930.63" y1="1069.18" y2="1067.19"><stop offset=".04" stop-color="#8b8b8b"/><stop offset=".19" stop-color="#b6b6b6"/><stop offset=".4" stop-color="#ebebeb"/><stop offset=".51" stop-color="#fff"/><stop offset=".56" stop-color="#fbfbfb"/><stop offset=".63" stop-color="#ebebeb"/><stop offset=".71" stop-color="#d3d3d3"/><stop offset=".79" stop-color="#b2b2b2"/><stop offset=".87" stop-color="#878787"/><stop offset=".95" stop-color="#535353"/><stop offset=".96" stop-color="#4d4d4d"/></linearGradient><linearGradient id="b" gradientTransform="matrix(26.08 0 0 -20.78 -23651.65 22567.91)" gradientUnits="userSpaceOnUse" x1="916.75" x2="916.87" y1="1075.74" y2="1073.97"><stop offset="0" stop-color="#bebebe"/><stop offset=".21" stop-color="#676767"/><stop offset=".27" stop-color="#5a5a5a"/><stop offset=".52" stop-color="#292929"/><stop offset=".7" stop-color="#0b0b0b"/><stop offset=".81" stop-color="#020202"/></linearGradient><linearGradient id="c" gradientTransform="matrix(43.08 0 0 -67.04 -39849.95 71781.1)" x1="930.62" x2="930.62" xlink:href="#a" y1="1069.75" y2="1067.77"/><linearGradient id="d" gradientTransform="matrix(23.98 0 0 -63.34 -21649.55 67843.4)" gradientUnits="userSpaceOnUse" x1="913.81" x2="913.81" y1="1067.96" y2="1069.94"><stop offset=".04" stop-color="#4d4d4d"/><stop offset=".05" stop-color="#5b5b5b"/><stop offset=".08" stop-color="#808080"/><stop offset=".11" stop-color="#a2a2a2"/><stop offset=".14" stop-color="#c0c0c0"/><stop offset=".18" stop-color="#d8d8d8"/><stop offset=".23" stop-color="#e9e9e9"/><stop offset=".28" stop-color="#f6f6f6"/><stop offset=".35" stop-color="#fefefe"/><stop offset=".51" stop-color="#fff"/><stop offset=".63" stop-color="#fefefe"/><stop offset=".7" stop-color="#f4f4f4"/><stop offset=".76" stop-color="#e7e7e7"/><stop offset=".8" stop-color="#d3d3d3"/><stop offset=".85" stop-color="#bababa"/><stop offset=".89" stop-color="#9b9b9b"/><stop offset=".93" stop-color="#777"/><stop offset=".96" stop-color="#4d4d4d"/></linearGradient><linearGradient id="e" gradientTransform="matrix(23.98 0 0 -63.56 -21667.01 68118.86)" x1="913.07" x2="913.07" xlink:href="#d" y1="1067.41" y2="1069.39"/><linearGradient id="f" gradientTransform="matrix(23.59 0 0 -65 -21339.46 69615.48)" gradientUnits="userSpaceOnUse" x1="908.64" x2="911.01" y1="1069.65" y2="1068.17"><stop offset=".02" stop-color="#f4f4f4"/><stop offset=".33" stop-color="#f0f0f0"/><stop offset=".69" stop-color="#e2e2e2"/><stop offset=".73" stop-color="#e0e0e0"/><stop offset=".96" stop-color="#b3b3b3"/></linearGradient><linearGradient id="g" gradientTransform="matrix(24.84 0 0 -64 -22533.54 68543.03)" x1="912.73" x2="912.73" xlink:href="#d" y1="1067.93" y2="1069.91"/><linearGradient id="h" gradientTransform="matrix(25.35 0 0 -20.76 -22975.56 22507.33)" x1="915.32" x2="915.2" xlink:href="#b" y1="1077.47" y2="1075.69"/><linearGradient id="i" gradientTransform="matrix(43.12 0 0 -69.28 -39927.35 74167.94)" x1="929.64" x2="929.64" xlink:href="#a" y1="1069.61" y2="1067.63"/><linearGradient id="j" gradientTransform="matrix(25.83 0 0 -20.77 -23455.16 22514.04)" x1="914.75" x2="914.88" xlink:href="#b" y1="1077.47" y2="1075.69"/><path d="m32 310.28c7.63 0 11.3 4 11.3 11.11 0 6.71-3.67 11.12-11.57 11.12h-6.73v-22.23zm8.09 11.11c0-6-3-8.54-8.82-8.54h-3.51v17.36h3c6.7 0 9.28-2.85 9.28-8.82z"/><path d="m65.05 314a6.84 6.84 0 0 0 -4.59-1.38c-3.22 0-4.87 1.38-4.87 3.22s1.19 2.57 4.13 3.95c5.33 2.3 7.45 3.21 7.45 7 0 3-2.3 6.25-8.09 6.25a14.08 14.08 0 0 1 -7.9-2.3l1.38-2.3a11.82 11.82 0 0 0 6.71 2.12c3.49 0 5-1.66 5-3.68 0-1.83-1.66-2.57-5.33-4.13-4.59-1.84-6.52-3.22-6.52-6.71 0-3.21 2.29-6 7.9-6a9.86 9.86 0 0 1 5.78 1.84z"/><path d="m106.39 332.69h-2.75c-.74-2.11-1.38-4.13-2.12-6.25h-10.38c-.73 2.12-1.38 4.14-2.11 6.25h-2.94a131.75 131.75 0 0 1 8.82-22.41h2.57a144.44 144.44 0 0 1 8.91 22.41zm-5.69-8.69a81.67 81.67 0 0 0 -4.41-10.38c-1.38 2.3-3.22 7.44-4.41 10.38z"/><path d="m129.82 310.28h3v13.72c0 4.6-1.38 8.82-8.36 8.82-3 0-5.51-.92-7-2.75a9.87 9.87 0 0 1 -1.66-6.25v-13.73h3v13.23c0 3.95.74 7 5.33 7s5.51-3 5.51-7v-13z"/><path d="m152.51 332.69h-2.85v-19.66h-6.71v-2.48h16.45v2.48h-6.89z"/><path d="m167.3 321.39c0-6.7 4.41-11.3 10.84-11.3s10.84 4.6 10.84 11.3c0 6.25-3.68 11.58-10.84 11.58-6.43 0-10.84-4.69-10.84-11.58m2.94 0c0 4.87 2.75 9 7.9 9 5.32 0 7.9-4.41 7.9-9 0-4.87-3-8.82-7.9-8.82-4.6 0-7.9 3.49-7.9 8.82"/><path d="m223.7 310.28v22.23h-3v-19.2c-.92 1.38-3 4.87-3.95 6.52s-2.11 4.41-3 6.25h-3.22a89.3 89.3 0 0 0 -7-12.68v19.2h-3v-22.23h4.13a48.32 48.32 0 0 1 4.6 7 31.8 31.8 0 0 1 2.75 5.51 64.57 64.57 0 0 1 7.44-12.49h4.32z"/><path d="m235 321.39c0-6.7 4.41-11.3 10.84-11.3s10.84 4.6 10.84 11.3c0 6.25-3.67 11.58-10.84 11.58-6.43 0-10.84-4.69-10.84-11.58m3.31 0c0 4.87 2.75 9 7.9 9 5.33 0 7.9-4.41 7.9-9 0-4.87-3-8.82-7.9-8.82s-7.9 3.49-7.9 8.82"/><path d="m283.6 326.44a5.68 5.68 0 0 1 -2.58 4.87c-1.65 1.2-3.49 1.38-6 1.38h-6.7v-22.23h6.52c4.41 0 6.7 2.3 6.7 5.79a4.61 4.61 0 0 1 -3 4.59 5.63 5.63 0 0 1 5.06 5.6zm-12.22-6.24h3c2.76 0 4.41-.92 4.41-3.68 0-2.57-1.65-3.67-4.41-3.67h-3zm9.28 6.06c0-3-2.3-3.95-5.79-3.95h-3.49v8.09h3.67c3.95 0 5.61-1.38 5.61-4.14z"/><path d="m295.91 310.28h3.03v22.23h-3.03z"/><path d="m316.02 330.21h9.74v2.48h-12.77v-22.41h3.03z"/><path d="m338.9 313.03v6.53h7.9v2.48h-7.9v8.17h10.38v2.48h-13.41v-22.41h12.76v2.75z"/><path d="m372.89 314a6.87 6.87 0 0 0 -4.6-1.38c-3.21 0-4.86 1.38-4.86 3.22s1.19 2.57 4.13 3.95c5.33 2.3 7.44 3.21 7.44 7 0 3-2.3 6.25-8.08 6.25a14 14 0 0 1 -7.9-2.3l1.37-2.3a11.87 11.87 0 0 0 6.71 2.12c3.49 0 5-1.66 5-3.68 0-1.83-1.65-2.57-5.33-4.13-4.59-1.84-6.52-3.22-6.52-6.71 0-3.21 2.3-6 7.9-6a9.91 9.91 0 0 1 5.79 1.84l-1.1 2.11z"/><path d="m284.48 205.56c-.74-.73-4.41-3.95-4.41-3.95l-73.58-57.14c12.67 12.5 31.41 32.89 37.2 50.9a42.09 42.09 0 0 1 2.3 13.68 39.63 39.63 0 0 1 -2.3 12c-3 7.62-9.28 16.44-18.74 26.36-3.21 3.49-17.36 17.36-21.95 22a6.6 6.6 0 0 0 -1.84 3.95l-.09.46c-.09.36-.19 1.19-.19 1.19l-.09 2.85 82.86-64.58c.92-.74 2.76-2.11 2.76-4.41-.09-1.47-1.47-2.85-1.93-3.31z" fill="url(#a)"/><path d="m231.29 251.13c-.46-.46 15.71-12 24.71-31.7 2.57-5.51 3.68-7.9 9-8.36 5.52-.45 12.22-.91 15.53-1.19 1.38 0 1.84.28 2.11.92.28.46-.27 1.19-1.38 1.84-8.54 6-21.31 16.44-38.67 30-.74 1-11.12 8.63-11.3 8.45z" fill="url(#b)"/><path d="m243.32 150.9a42.33 42.33 0 0 1 -2.32-13.68 39.9 39.9 0 0 1 2.29-12c3-7.62 9.28-16.44 18.74-26.36 3-3.22 15.53-15.71 22-22a7.89 7.89 0 0 0 2.11-4 15.08 15.08 0 0 0 .28-3v-1.27l-82.78 64.31a13.23 13.23 0 0 0 -2.57 3 4 4 0 0 0 0 2.57 6.12 6.12 0 0 0 1.65 2.3c.74.46 4.13 3.49 4.13 3.49l73.59 57.14c-13.14-12.56-31.44-32.86-37.12-50.5z" fill="url(#c)"/><path d="m239.1 149.8a41 41 0 0 1 -2.3-12.68c0-4 1.2-7.62 2.57-11.57 6.71-16.44 38.4-44.37 44.83-49.7-5.32 4.14-28.66 24.07-34.72 30.32-9.92 9.73-17.55 20.57-17.55 31.23 0 11.58 8.09 23.33 17.37 34.27a151.19 151.19 0 0 0 16.9 17.82c5.79 5.32 9.74 8.82 13.87 12-4.59-4.59-33.35-30-41-51.72z"/><path d="m243.32 150.9a42.33 42.33 0 0 1 -2.32-13.68 39.9 39.9 0 0 1 2.29-12c3-7.62 9.28-16.44 18.74-26.36 3-3.22 15.53-15.71 22-22a3.64 3.64 0 0 0 .73-.92c-6.52 5.06-38.12 33.35-44.82 49.7a29.25 29.25 0 0 0 -2.58 11.58 36.29 36.29 0 0 0 2.3 12.67c7.62 21.78 35.83 47 40.7 51.63-13.23-12.86-31.33-33-37-50.62z" fill="url(#d)"/><path d="m247.64 196.28c-7.62-21.77-36.56-47.67-41.15-51.81 12.67 12.5 31.41 32.89 37.2 50.9a42.09 42.09 0 0 1 2.3 13.68 39.63 39.63 0 0 1 -2.3 12c-3 7.62-9.28 16.44-18.74 26.36-3.21 3.49-17.36 17.36-21.95 22a3.89 3.89 0 0 0 -.74.92c6.52-5.33 37.94-33.35 44.83-49.7a29.4 29.4 0 0 0 2.57-11.58 28.55 28.55 0 0 0 -2-12.77z" fill="url(#e)"/><path d="m237.72 174.79a152.85 152.85 0 0 0 -16.9-17.79c-5.79-5.33-10.2-9.28-14.33-12.5 4.87 4.14 33.8 30.32 41.15 51.81a41.07 41.07 0 0 1 2.3 12.68c0 3.95-1.2 7.63-2.57 11.58-7 16.44-38.4 44.37-45.11 49.69v.28c5.51-4.13 28.94-24.07 34.91-30.31 9.92-9.74 17.55-20.58 17.55-31.24.09-11.57-8-23.33-17-34.17z"/><path d="m169.74 137c0 11.58-7.9 23.15-18.28 33.81a216.68 216.68 0 0 1 -19.66 17.54c-6.52 5.33-11.57 8.82-16.17 12 5.33-4.14 37.94-29.4 46.49-50.89a31.66 31.66 0 0 0 0-25c-8.55-21.46-41.12-46.59-46.49-50.81 4.6 3.21 9.74 6.7 16.17 12a216.88 216.88 0 0 1 19.66 17.55c10.38 10.65 18.28 22.5 18.28 33.8z"/><path d="m115.63 200.42-1.37.92v-128.61l1.37.92c4.87 4.13 35.19 29.39 43 50.89a31.66 31.66 0 0 1 0 25c-8.09 21.49-38.22 46.75-43 50.89" fill="url(#f)"/><path d="m115.63 200.42c5.33-4.14 37.94-29.4 46.49-50.89a31.66 31.66 0 0 0 0-25c-8.55-21.53-41.12-46.66-46.49-50.88 4.87 4.13 35.19 29.39 43 50.89a31.66 31.66 0 0 1 0 25c-8.09 21.49-38.22 46.75-43 50.89z" fill="url(#g)"/><path d="m284.94 205.1c-6-5.78-33.53-31.87-41-54.38a38.71 38.71 0 0 1 -2.3-13.41 34.57 34.57 0 0 1 2.3-11.58c3.49-8.82 10.84-18.28 18.46-26.18 3.22-3.49 17.36-17.36 22-22.23a7.65 7.65 0 0 0 2.11-3.95 20.51 20.51 0 0 0 .49-3.67v-2.48l-84 65a6.92 6.92 0 0 0 -2.76 3.67 7.34 7.34 0 0 0 -2.76-3.67l-83.96-65.22v140.4l84-65.22a7 7 0 0 0 2.76-3.68 5.41 5.41 0 0 0 1.84 2.76c6 5.79 33.8 31.88 41.15 54.38a38.71 38.71 0 0 1 2.3 13.41 34.57 34.57 0 0 1 -2.3 11.58c-3.49 8.82-10.84 18.28-18.46 26.18-3.22 3.49-17.36 17.55-22 22.23a8.7 8.7 0 0 0 -2.11 3.96 15.32 15.32 0 0 0 -.46 3.68v2.57l84-65.23c1.2-.91 3-2.57 3-4.86a6.92 6.92 0 0 0 -2.3-4.05zm-87.94-63.66-82.77 64.31v-137.16l82.58 64.31c.92.73 2.76 2.3 2.76 4.41 0 1.84-1.66 3.49-2.57 4.13zm3.95-3a4 4 0 0 1 0-2.57 6.54 6.54 0 0 1 2.57-3l82.48-64.28v1.2a15.62 15.62 0 0 1 -.27 3 6 6 0 0 1 -2.12 4c-6.24 6.25-18.92 18.74-21.95 22-9.46 9.92-15.71 18.74-18.74 26.36a31.59 31.59 0 0 0 -2.3 12 49 49 0 0 0 2.3 13.69c5.78 17.82 24.07 37.94 36.74 50.44l-73.12-56.87s-3.49-3-4.13-3.49c-.37-.64-1-1.56-1.47-2.48zm82.58 75-82.53 64.24v-1.2c0-1.19.09-1.93.18-3a6 6 0 0 1 2.11-3.95l22-22c9.46-9.92 15.71-18.74 18.74-26.36a31.76 31.76 0 0 0 2.29-12 49 49 0 0 0 -2.32-13.71c-6-18-24.53-38.4-37.21-50.89l73.77 57.32s3.67 3.21 4.41 4a5.45 5.45 0 0 1 1.84 3.49 8.65 8.65 0 0 1 -3.22 4z"/><path d="m254.16 179.2c.28-.28-8.36-8.55-9.46-9.46-9.46-8.82-17.08-22.42-17.08-22.42-2.76-5.51-3.68-7.9-9-8.36-5.51-.46-9.28-.73-12.49-.73-1.38 0-1.84.27-2.11.92-.28.45.27 1.19 1.37 1.83 8.55 6 21.32 16.17 38.68 30 1.1.74 9.83 8.36 10.1 8.18z" fill="url(#h)"/><path d="m114.16 201.61 1.38-.92c4.6-3.21 9.74-6.7 16.17-12a216.88 216.88 0 0 0 19.66-17.55c10.38-10.65 18.28-22.23 18.28-33.8s-7.81-23.15-18.19-33.81a218.2 218.2 0 0 0 -19.66-17.53c-6.52-5.33-11.57-8.82-16.17-12l-1.37-1v-4.41l82.58 64.31c.92.73 2.76 2.3 2.76 4.41s-1.66 3.49-2.76 4.41l-82.58 64v-4.14z" fill="url(#i)"/><path d="m145.21 179.2s2.12-2.11 7-6.52a35.09 35.09 0 0 0 3.21-3c9.46-8.81 17.09-22.41 17.09-22.41 2.75-5.51 3.67-7.9 9-8.36 5.51-.46 9.28-.73 12.49-.73 1.38 0 1.84.27 2.12.91.27.46-.28 1.2-1.38 1.84-8.54 6-21 16.44-38.68 30a39.42 39.42 0 0 1 -3.49 2.57c-4.59 3.59-7.16 5.88-7.35 5.7z" fill="url(#j)"/><path d="m0 0h400v400h-400z" fill="none"/></svg>