<svg viewBox="0 0 400 400" xmlns="http://www.w3.org/2000/svg" xmlns:xlink="http://www.w3.org/1999/xlink"><clipPath id="a"><path d="m330 200a130 130 0 1 1 -130-130 130 130 0 0 1 130 130"/></clipPath><clipPath id="b"><path d="m302.3 136a50.91 50.91 0 0 0 -19.86-23.18 155.25 155.25 0 0 0 -72.76-23.61c-3-.18-6.06-.28-9.11-.29h-.23c-3 0-6.09.11-9.1.29a155.25 155.25 0 0 0 -72.77 23.61 51 51 0 0 0 -19.87 23.18c-5.44 12.76-8.09 27.15-8.09 44a209 209 0 0 0 2.3 29.66c4.5 31.65 19.7 65.4 28.61 75.66l2.47 2.62c21.61 17.66 41.62 23.92 76.45 23.92h.23c34.84 0 54.88-6.29 76.59-24.05v.06c.15-.19.55-.62 1.88-2l.57-.6c8.87-10.22 24-43.92 28.53-75.57a209 209 0 0 0 2.3-29.66c0-16.84-2.65-31.23-8.11-44m-11.54 65.96c-3.72 25.73-10.18 53.41-19.26 77.5-1.68 4.57-3.44 6.47-7 9.24a74.84 74.84 0 0 1 -29.03 12.26 184.13 184.13 0 0 1 -34.73 3.17h-.32a185 185 0 0 1 -34.73-3.17 74.91 74.91 0 0 1 -29.07-12.27c-3.53-2.77-5.28-4.68-7-9.26-9.07-24.07-15.53-51.77-19.25-77.48-4.3-29.65-4.14-56.32 2.23-72.56a23.88 23.88 0 0 1 2.47-4.75 13.18 13.18 0 0 1 1.18-1.51c13.18-13.17 48.73-19.77 84.3-19.78s71.13 6.61 84.29 19.78a12.37 12.37 0 0 1 1.18 1.5 23.88 23.88 0 0 1 2.47 4.75c6.37 16.24 6.53 42.92 2.24 72.57"/></clipPath><path d="m337.5 200a137.5 137.5 0 1 1 -137.5-137.5 137.49 137.49 0 0 1 137.5 137.5z" fill="none" stroke="#000" stroke-width="5"/><g clip-path="url(#a)"><path d="m200.59 332.56c-104.86 0-127.09-90.26-131.4-109.51s1.33-29.53 8.62-33.85 9.29-15.39 10-22l.13-.69c-.43 4.4-.77 8.8-.77 13.55a215.89 215.89 0 0 0 2.32 30.14c4.6 32.26 20.23 66.83 29.41 77.41-.08-.1.52.55.52.55l2.14 2.25.09.08c22.4 18.32 43 24.81 78.73 24.81h.23c35.73 0 56.33-6.49 78.74-24.81l.09-.08 2.07-2.19.58-.62c9.21-10.61 24.81-45.14 29.4-77.4a213 213 0 0 0 2.29-30.2 145 145 0 0 0 -.7-14.56l.06.06c.66 6.64 4.23 23.83 11.1 28.78 10.13 7.29 11.23 17.45 6.91 36.7s-26.54 101.54-131.4 101.54" opacity=".2"/></g><path d="m302.3 136a50.91 50.91 0 0 0 -19.86-23.18 155.25 155.25 0 0 0 -72.76-23.61c-3-.18-6.06-.28-9.11-.29h-.23c-3 0-6.09.11-9.1.29a155.25 155.25 0 0 0 -72.77 23.61 51 51 0 0 0 -19.87 23.18c-5.44 12.76-8.09 27.15-8.09 44a209 209 0 0 0 2.3 29.66c4.5 31.65 19.7 65.4 28.61 75.66l2.47 2.62c21.61 17.66 41.62 23.92 76.45 23.92h.23c34.84 0 54.88-6.29 76.59-24.05v.06c.15-.19.55-.62 1.88-2l.57-.6c8.87-10.22 24-43.92 28.53-75.57a209 209 0 0 0 2.3-29.66c0-16.84-2.65-31.23-8.11-44m-11.54 65.96c-3.72 25.73-10.18 53.41-19.26 77.5-1.68 4.57-3.44 6.47-7 9.24a74.84 74.84 0 0 1 -29.03 12.26 184.13 184.13 0 0 1 -34.73 3.17h-.32a185 185 0 0 1 -34.73-3.17 74.91 74.91 0 0 1 -29.07-12.27c-3.53-2.77-5.28-4.68-7-9.26-9.07-24.07-15.53-51.77-19.25-77.48-4.3-29.65-4.14-56.32 2.23-72.56a23.88 23.88 0 0 1 2.47-4.75 13.18 13.18 0 0 1 1.18-1.51c13.18-13.17 48.73-19.77 84.3-19.78s71.13 6.61 84.29 19.78a12.37 12.37 0 0 1 1.18 1.5 23.88 23.88 0 0 1 2.47 4.75c6.37 16.24 6.53 42.92 2.24 72.57" fill="none"/><g clip-path="url(#b)"><path d="m201.57 87.33c62.38 0 94.24 35.18 94.24 35.18 38.57 54.9-3.31 142.35-3.31 142.35-5.73 13-14.06 16.37-16.1 15.15-1.89-1.12-2.11-11.42 1.82-23.11 0 0 26.26-96.95 7.64-130.75-8-14.6-46.6-20.1-76.73-21.07h-17.13c-30.12 1-68.65 6.48-76.7 21.07-18.61 33.85 7.64 130.75 7.64 130.75 3.94 11.69 3.71 22 1.82 23.11-2 1.21-10.37-2.18-16.09-15.15 0 0-41.88-87.45-3.32-142.35 0 0 31.85-35.18 94.24-35.18" opacity=".5"/></g><g clip-path="url(#b)"><path d="m201.34 312.66c26.53 0 44.34-6.29 44.34-6.29 4.38-1.49 12.21-7.5 11.69-9.41s-19.28 3.72-21.69 3.7a240.27 240.27 0 0 1 -34.86 2.23h-.64a240.44 240.44 0 0 1 -34.86-2.23c-2.4 0-21.16-5.63-21.68-3.7s7.3 7.93 11.68 9.41c0 0 17.81 6.29 44.34 6.29" opacity=".2"/></g><path d="m283.44 132.65a20.29 20.29 0 0 0 -2.12-4.09 9 9 0 0 0 -.86-1.11c-11.92-11.92-45.27-18.39-79.85-18.39s-67.93 6.47-79.84 18.39a10.13 10.13 0 0 0 -.86 1.11 19.78 19.78 0 0 0 -2.12 4.09c-5.92 15.08-6.18 40.35-2 69 3.6 24.79 9.81 51.44 18.53 74.56 1.44 3.91 2.74 5.34 5.88 7.8a69.46 69.46 0 0 0 27.14 11.44 175.54 175.54 0 0 0 33.15 3h.31a175.72 175.72 0 0 0 33.16-3 69.36 69.36 0 0 0 27.1-11.45c3.14-2.46 4.45-3.89 5.89-7.8 8.71-23.12 14.92-49.77 18.52-74.56 4.15-28.64 3.89-53.91-2.03-68.99zm-117.86 30.35h-14.58v32h11.3v12.41h-11.3l.19 47.28-12.71-.14-3-104.1 30.11.19zm20.63 91.64h-13.11l-2-104.23h15.42zm51 0h-12v-.27c0-2.76-.16-38.2-1.54-46.78h-15.67l-.1 47h-12.41l-1.21-104.06h30.63c14.78 28.41 12.72 77.62 12.27 104.06zm35.94-91.92h-10.98l-3.07 91.92h-12.8l.46-91.92h-11.12v-12.24l37.48-.14z"/><path d="m215.36 162.35h-.17l-7.6-.06-.3 33.16h15.71s-.62-5.73-1.85-12.54c-1.15-6.28-3-14.71-5.79-20.56z"/><path d="m0 0h400v400h-400z" fill="none"/></svg>