<svg viewBox="0 0 400 400" xmlns="http://www.w3.org/2000/svg" xmlns:xlink="http://www.w3.org/1999/xlink"><clipPath id="a"><path d="m306.36 156.21a106.36 106.36 0 1 1 -106.36-106.37 106.36 106.36 0 0 1 106.36 106.37"/></clipPath><clipPath id="b"><path d="m283.7 103.87a41.75 41.75 0 0 0 -16.25-19 127.05 127.05 0 0 0 -59.53-19.32c-2.46-.15-5-.22-7.45-.23h-.19c-2.48 0-5 .08-7.45.23a127.13 127.13 0 0 0 -59.54 19.32 41.75 41.75 0 0 0 -16.25 19c-4.46 10.44-6.62 22.22-6.62 36a170.85 170.85 0 0 0 1.88 24.27c3.7 25.86 16.12 53.51 23.41 61.86l2 2.15c17.68 14.44 34.05 19.56 62.55 19.56h.19c28.5 0 44.9-5.14 62.66-19.67.12-.16.45-.51 1.54-1.67l.46-.49c7.26-8.37 19.66-35.94 23.34-61.83a170.85 170.85 0 0 0 1.88-24.27c0-13.78-2.16-25.56-6.63-36m-9.42 54c-3 21-8.33 43.7-15.75 63.4-1.38 3.75-2.82 5.3-5.7 7.56a61.28 61.28 0 0 1 -23.83 10.1 150.65 150.65 0 0 1 -28.41 2.59h-.26a151.67 151.67 0 0 1 -28.33-2.59 61.3 61.3 0 0 1 -23.78-10.05 14.69 14.69 0 0 1 -5.71-7.57c-7.41-19.7-12.7-42.35-15.75-63.39-3.51-24.26-3.38-46.08 1.83-59.37a19.54 19.54 0 0 1 2-3.89 10.31 10.31 0 0 1 1-1.23c10.78-10.77 39.87-16.17 69-16.18s58.2 5.41 69 16.18a9.34 9.34 0 0 1 1 1.23 19.4 19.4 0 0 1 2 3.88c5.21 13.29 5.34 35.12 1.83 59.38"/></clipPath><path d="m312.5 156.21a112.5 112.5 0 1 1 -112.5-112.5 112.5 112.5 0 0 1 112.5 112.5z" fill="none" stroke="#000" stroke-width="4.09"/><g clip-path="url(#a)"><path d="m200.48 264.67c-85.79 0-104-73.86-107.51-89.6s1.09-24.16 7.06-27.7 7.6-12.59 8.14-18l.11-.56c-.35 3.6-.63 7.2-.63 11.09a176.4 176.4 0 0 0 1.9 24.66c3.76 26.4 16.55 54.68 24.06 63.33-.06-.08.43.45.43.45l1.75 1.85.07.06c18.33 15 35.19 20.3 64.42 20.3h.19c29.23 0 46.09-5.31 64.42-20.3l.07-.06 1.7-1.79.47-.51c7.54-8.68 20.3-36.93 24.06-63.33a174.89 174.89 0 0 0 1.9-24.66 117 117 0 0 0 -.57-11.91h.05c.54 5.43 3.46 19.49 9.08 23.54 8.29 6 9.19 14.28 5.66 30s-21.72 83.08-107.52 83.08" opacity=".2"/></g><path d="m283.7 103.87a41.75 41.75 0 0 0 -16.25-19 127.05 127.05 0 0 0 -59.53-19.32c-2.46-.15-5-.22-7.45-.23h-.19c-2.48 0-5 .08-7.45.23a127.13 127.13 0 0 0 -59.54 19.32 41.75 41.75 0 0 0 -16.25 19c-4.46 10.44-6.62 22.22-6.62 36a170.85 170.85 0 0 0 1.88 24.27c3.7 25.86 16.12 53.51 23.41 61.86l2 2.15c17.68 14.44 34.05 19.56 62.55 19.56h.19c28.5 0 44.9-5.14 62.66-19.67.12-.16.45-.51 1.54-1.67l.46-.49c7.26-8.37 19.66-35.94 23.34-61.83a170.85 170.85 0 0 0 1.88-24.27c0-13.78-2.16-25.56-6.63-36m-9.42 54c-3 21-8.33 43.7-15.75 63.4-1.38 3.75-2.82 5.3-5.7 7.56a61.28 61.28 0 0 1 -23.83 10.1 150.65 150.65 0 0 1 -28.41 2.59h-.26a151.67 151.67 0 0 1 -28.33-2.59 61.3 61.3 0 0 1 -23.78-10.05 14.69 14.69 0 0 1 -5.71-7.57c-7.41-19.7-12.7-42.35-15.75-63.39-3.51-24.26-3.38-46.08 1.83-59.37a19.54 19.54 0 0 1 2-3.89 10.31 10.31 0 0 1 1-1.23c10.78-10.77 39.87-16.17 69-16.18s58.2 5.41 69 16.18a9.34 9.34 0 0 1 1 1.23 19.4 19.4 0 0 1 2 3.88c5.21 13.29 5.34 35.12 1.83 59.38" fill="none"/><g clip-path="url(#b)"><path d="m201.29 64c51 0 77.1 28.77 77.1 28.77 31.56 44.93-2.71 116.48-2.71 116.48-4.69 10.61-11.5 13.39-13.17 12.39s-1.73-9.34 1.49-18.91c0 0 21.48-79.32 6.25-107-6.58-12-38.13-16.45-62.78-17.24h-14c-24.65.79-56.17 5.3-62.76 17.24-15.23 27.65 6.25 107 6.25 107 3.23 9.57 3 18 1.49 18.91s-8.49-1.78-13.17-12.39c0 0-34.26-71.55-2.71-116.48 0 0 26.06-28.77 77.11-28.77" opacity=".5"/></g><g clip-path="url(#b)"><path d="m201.1 248.38c21.7 0 36.28-5.14 36.28-5.14 3.58-1.22 10-6.14 9.56-7.7s-15.77 3-17.75 3a197 197 0 0 1 -28.52 1.82h-.52a197.26 197.26 0 0 1 -28.53-1.82c-2 0-17.31-4.61-17.73-3s6 6.48 9.55 7.7c0 0 14.57 5.14 36.28 5.14" opacity=".2"/></g><path d="m268.27 101.11a16.86 16.86 0 0 0 -1.73-3.35 7.76 7.76 0 0 0 -.71-.91c-9.75-9.75-37-15-65.33-15s-55.58 5.3-65.33 15a8.64 8.64 0 0 0 -.7.91 16.34 16.34 0 0 0 -1.73 3.35c-4.85 12.33-5.06 33-1.66 56.46 2.94 20.29 8 42.09 15.16 61 1.17 3.19 2.24 4.37 4.81 6.38a56.84 56.84 0 0 0 22.2 9.36 144.32 144.32 0 0 0 27.13 2.48h.25a143.49 143.49 0 0 0 27.13-2.48 56.72 56.72 0 0 0 22.24-9.31 12 12 0 0 0 4.82-6.38c7.12-18.92 12.21-40.73 15.15-61 3.35-23.5 3.14-44.18-1.7-56.51zm-96.43 24.78h-12v26.16h9.25v10.14h-9.25l.15 38.69-10.4-.11-2.39-85.17 24.64.15zm16.88 75h-10.72l-1.65-85.27h12.62zm41.7 0h-9.85v-.22c0-2.25-.13-31.25-1.26-38.27h-12.8l-.08 38.45h-10.12l-1-85.14h25.06c12.1 23.29 10.42 63.53 10.05 85.16zm29.4-75.2h-8.95l-2.51 75.2h-10.48l.38-75.2h-9.1v-10l30.66-.12z"/><path d="m212.57 125.41h-.14l-6.22-.06-.21 27.14h12.82s-.5-4.7-1.51-10.26c-.95-5.14-2.46-12.04-4.74-16.82z"/><path d="m37.79 341.29c-.79 0-1.64-.06-2.54-.11l-1.25-.12v14.67h-9v-37.26a27.92 27.92 0 0 1 11.83-2.26c10.81 0 15 5.49 15 12.46 0 6.73-4.13 12.62-14.04 12.62zm-1-19.87a7.68 7.68 0 0 0 -2.78.45v13.93l1.25.05h.85c5.09 0 7-2.43 7-7.24s-1.69-7.19-6.33-7.19z"/><path d="m75.89 355.73-9.23-17.21h-.11v17.21h-9.06v-37.26a27.94 27.94 0 0 1 11.72-2.26c10.53 0 15.4 4.76 15.4 12.17 0 5.1-3.91 9.12-9 9.91v.11l10.39 17.33zm-6.68-34.31a6.79 6.79 0 0 0 -2.66.51v14.26a7.57 7.57 0 0 0 2 .23c4.76 0 7.08-2.89 7.08-7.58-.02-4.99-1.55-7.42-6.42-7.42z"/><path d="m104.65 356.29c-10.87 0-15.23-9-15.23-20s4.36-20 15.23-20 15.23 9.06 15.23 20-4.36 20-15.23 20zm0-34c-4.93 0-5.89 7-5.89 13.64s.91 13.64 5.89 13.64 5.89-7 5.89-13.64-1.02-13.66-5.89-13.66z"/><path d="m135.27 323v9.9h9.29v6h-9.29v16.87h-9.27v-39h19.87v6.23z"/><path d="m151.69 355.73v-39h19.92v6.27h-10.7v9.9h9.34v6h-9.34v10.69h10.7v6.18z"/><path d="m185.93 356.29c-4.81 0-8-.85-10.19-2.32l2.1-6.4a11.65 11.65 0 0 0 6.28 1.82c3.23 0 5.21-1.87 5.21-4.65 0-2.49-1.47-4-5.43-5.77-6.06-2.72-7.76-7-7.76-10.76 0-6.56 4.76-12 12.34-12a16.64 16.64 0 0 1 9.12 2.26l-1.93 5.61a11.28 11.28 0 0 0 -5.83-1.7c-3.06 0-4.7 1.7-4.7 4.47s2 4.25 5.27 5.72c7.53 3.4 8.6 7.53 8.6 11.49-.01 7.02-5.38 12.23-13.08 12.23z"/><path d="m212.77 356.29c-4.82 0-8-.85-10.19-2.32l2.09-6.4a11.68 11.68 0 0 0 6.28 1.82c3.23 0 5.21-1.87 5.21-4.65 0-2.49-1.47-4-5.43-5.77-6.06-2.72-7.76-7-7.76-10.76 0-6.56 4.76-12 12.34-12a16.64 16.64 0 0 1 9.12 2.26l-1.93 5.61a11.28 11.28 0 0 0 -5.83-1.7c-3.06 0-4.7 1.7-4.7 4.47s2 4.25 5.27 5.72c7.53 3.4 8.6 7.53 8.6 11.49 0 7.02-5.38 12.23-13.07 12.23z"/><path d="m232 355.73v-39h9.17v39z"/><path d="m262.69 356.29c-10.87 0-15.23-9-15.23-20s4.36-20 15.23-20 15.23 9.06 15.23 20-4.36 20-15.23 20zm0-34c-4.92 0-5.89 7-5.89 13.64s.91 13.64 5.89 13.64 5.89-7 5.89-13.64-1.02-13.66-5.89-13.66z"/><path d="m306.68 355.73-13-21.86a38.14 38.14 0 0 1 -2-4.07h-.11s.23 2.09.23 4.24v21.69h-7.7v-39h8.09l11.95 20a39.71 39.71 0 0 1 2 3.74h.11a37.85 37.85 0 0 1 -.22-3.91v-19.78h7.75v39z"/><path d="m342.45 355.73-2.38-8.33h-11.72l-2.49 8.33h-8.2l12.68-39h8.94l12.63 39zm-7.08-26.27a30 30 0 0 1 -.9-4.7h-.11a33.76 33.76 0 0 1 -1 4.7l-3.63 12.68h9.12z"/><path d="m355.92 355.73v-39h9.17v32.77h9.91v6.18z"/><path d="m0 0h400v400h-400z" fill="none"/></svg>