<svg viewBox="0 0 400 400" xmlns="http://www.w3.org/2000/svg"><path d="m200.81 62.5c-76.54 0-138.3 61.3-138.31 137.35 0 75.43 61.54 137.27 136.39 137.65 76 .38 138.45-60.84 138.61-137.1.16-75.97-61.28-137.87-136.69-137.9zm9.58 262h-21v-35.6h21zm0-39.38h-21.13v-84.7h21.14zm13.66-157.32c-4.38-1.12-8.71-2.42-13.38-3.75v72.17h-21.34v-72.12c-5.15 1.47-9.93 2.76-14.63 4.28-.61.19-1.11 1.67-1.12 2.56-.07 10.6 0 21.2 0 31.8v33.69h-60.17c1.66-28.44 13.27-51.65 36.63-67.82 29.29-20.25 60.65-22.1 91.88-5 28.23 15.42 42.41 40.49 44.83 72.81h-60.33v-3c0-20.79 0-41.58.06-62.36 0-2-.61-2.79-2.43-3.26zm-50.83 72.56v80.77c-38-11.84-60.23-49-59.44-80.77zm113.32-.05a85.24 85.24 0 0 1 -14.48 46.49c-11.14 16.65-26.32 28.07-45.52 34.61v-81.1zm-60 121.41c0-.82-.1-1.6-.1-2.39 0-10.52 0-21-.05-31.55 0-2 .54-2.8 2.43-3.5 33-12.14 53.51-35.42 60-69.95 8.73-46.48-21.85-92.3-67.92-103a90.31 90.31 0 0 0 -109.63 71.54c-8 43.5 17.27 86.79 59.31 101.3 2.2.76 2.88 1.67 2.84 4-.13 10.19-.05 20.37-.05 30.56v2.94c-50.33-9.72-99.06-57.86-98.1-123.12 1-67 54.49-121.46 120.54-123.37 67.42-2 122.23 48.73 128.49 112.11 6.86 69.54-42.62 123.47-97.77 134.43z"/><path d="m308.83 144.67-26.59 10.2 3.11 8 6.63-2.42c1.16 3.08 2.24 5.94 3.28 8.8.64 1.72 0 2.89-1.61 3.61l-3.83 1.72 3.16 8c3.85-2 9-2 8.45-8.89 3.08 4.27 6.41 3.38 9.78 2a21.68 21.68 0 0 0 2.23-1.07c3.45-1.94 4.69-4.3 3.41-8.05-2.46-7.33-5.27-14.48-8.02-21.9zm-2.74 23.55c-1.56.57-3 .48-3.71-1.27-1.21-3-2.35-5.95-3.63-9.22l6.19-2.39c1.19 3.28 2.48 6.43 3.49 9.68.57 1.81-.84 2.66-2.34 3.2z"/><path d="m281.08 133 4.25-4.52c-2.54-2.43-4.88-4.66-7.21-6.87l-7.26-6.9 2.7-2.69 15.24 14.44 4.55-4.9-21.48-20.35c-6.61 7-13 13.71-19.52 20.57l21.65 20.61 4.52-4.85-15.37-14.6 3.5-3.66z"/><path d="m174 92.35c-3.26.92-6.5 1.94-9.81 2.61-.88.18-2-.79-3-1.23.57-1 .92-2.24 1.75-2.78a20.3 20.3 0 0 1 4.37-1.68c2-.71 3.77-.71 4.71 1.71l7.98-2.76c-1.43-5.75-4.07-7.69-9.41-6.37a105.43 105.43 0 0 0 -14 4.73c-4 1.62-5 4.29-3.86 8.49a23.72 23.72 0 0 0 1.27 3.76c1.59 3.57 3.49 4.57 7.3 3.68 4-.94 8-2.08 12-3.1 1.32-.34 2.52-.2 3 1.35s-.3 2.38-1.65 2.85c-1.87.65-3.75 1.26-5.63 1.89-1.67.56-3.23.83-4.29-1.12a1.36 1.36 0 0 0 -1.22-.46c-2.48.77-4.94 1.64-7.38 2.48 2 6 4.45 8 9.14 6.77a135.12 135.12 0 0 0 14.61-4.71c5-2 6.32-5.55 4.39-10.88s-4.82-6.76-10.27-5.23z"/><path d="m237.66 84.7a5.84 5.84 0 0 0 -3.64.67c-3.07 1.77-6 3.89-9 5.71-.89.54-2.09.56-3.62.93 1-4 1.79-7.3 2.64-10.75l-8.39-2c-2.3 9.27-4.53 18.23-6.81 27.4l8.32 2c.9-3.53 1.73-6.68 2.7-10.44a14.38 14.38 0 0 1 2.7 2.12 56 56 0 0 1 5.47 8c2.62 5.24 7.69 4.63 12.66 6.25l-11.85-17.59c5.56-3.46 10.95-6.81 16.7-10.36-2.93-.74-5.38-1.54-7.88-1.94z"/><path d="m109 151.77-6.13-2.3c-2.32 6.27-4.6 12.41-6.9 18.65l-5-1.87 7.13-19.75-6.1-2.22-10.21 27.88 26.64 9.71c1-2.79 1.93-5.39 2.9-8.15l-9-3.32c2.3-6.4 4.47-12.4 6.67-18.63z"/><path d="m112.43 116 19.25 20 5.82-6.4-19.2-19.92z"/><path d="m0 0h400v400h-400z" fill="none"/></svg>