<svg viewBox="0 0 400 400" xmlns="http://www.w3.org/2000/svg"><path d="m200 133.19c-97.13 0-175 29.64-175 66.81 0 36.94 78.51 66.81 175 66.81s175-30 175-66.82-78.51-66.8-175-66.8zm0 127.81c-92.62 0-167.7-27.3-167.7-61s75.08-61 167.69-61 167.68 27.29 167.68 61-75.07 61-167.67 61z"/><path d="m269.48 205.38c-3.11-1.5-7.84 1.24-12.12 6.51-3.52 4.31-5.41 8.7-5.48 13 0 1.52.55 3.4 1.89 4.1 3 1.59 6.69-.78 9.32-3a22.06 22.06 0 0 0 4.46-4.83 37.81 37.81 0 0 0 3.52-5.82c.16-.32.08-.42-.05-.47a1.24 1.24 0 0 1 -.85-.74.83.83 0 0 1 .06-.59c1.44-2.91 2.46-6.62-.75-8.16z"/><path d="m200 144.12c-89.36 0-161.79 25.13-161.79 55.9s72.42 55.92 161.79 55.92 161.78-25.15 161.78-55.94-72.43-55.88-161.78-55.88zm-84.6 92.65c-9.73.07-18.3-5.94-19.28-16.35a21.06 21.06 0 0 1 4.34-15.15 21.59 21.59 0 0 1 12-7.67c1.35-.25 3.17-.09 3.92.8 1.17 1.37.83 2.88-.34 3.47-3.17 1.62-7 4.39-8.85 8.17a10 10 0 0 0 .49 10.33c3.91 5.9 14.81 6.06 24.93-3.35a87.82 87.82 0 0 0 7-7.13 161.06 161.06 0 0 0 11.87-15.18c.07-.1.1-.22.06-.28s-.14-.14-.3-.15a18.07 18.07 0 0 0 -10.77 3.8 2.09 2.09 0 0 1 -3-.33 2.37 2.37 0 0 1 .92-3.18c5.39-3.75 11.29-4.43 17.31-5.45a1 1 0 0 0 .76-.44c2.47-3.17 4.34-6 7-9.23a69.46 69.46 0 0 1 8.7-8.49 38.75 38.75 0 0 1 8.38-5.51c.62-.32-.08-.72-.27-.72-13.31-2.5-27.14-5.73-40.35-.85-9.14 3.42-13.16 10.68-11.22 15.52 1.36 3.44 5.89 4 10.13 1.93a22.85 22.85 0 0 0 9.08-8.08c1.29-2 4-.55 2.55 2.9-3.88 9.09-11.26 16.3-20.25 16.6-7.67.25-12.61-5.38-12.59-12.34 0-13.7 15.29-22.73 31.33-24.08 19.32-1.6 37.61 3.54 56.78 5.87 14.7 1.77 28.79 1.81 43.55-1.58a2.23 2.23 0 0 1 2.86 2.5c-.15 2.55-2.12 5-7 7.66-5.53 3-11.31 3.95-17.36 4-14.61.13-28.23-5.56-42.32-8.63 0 .61.18 1.35-.34 1.74-7.8 5.76-14.85 11.6-19.57 19.81-.16.19-.08.37.2.35 4.1-.22 7.79-.32 11.62-.63.67 0 .69-.21.63-.71a9.52 9.52 0 0 1 3-8.27c2.54-2.28 5.74-2.55 7.85-.9 2.41 1.87 2.2 5.24.88 7.77a9.41 9.41 0 0 1 -5.67 4.6s-.45.09-.39.5c.09.64 3 2.25 3.22 2.67a1.35 1.35 0 0 1 -.32 1.52 1.85 1.85 0 0 1 -1.4.67 2.82 2.82 0 0 1 -1.42-.53 13.58 13.58 0 0 1 -4-3.22c-.37-.46-.56-.47-1.48-.42-4.14.24-10.6.86-15 1.41-1.06.13-1.22.33-1.44.7-7 11.51-14.43 23.92-22.61 32.22-8.79 8.93-16.08 11.28-23.83 11.34zm189.28-55.93c-1.36 2.34-27.45 42.07-29.07 46.19-.53 1.3-.59 2.3-.06 3 1.37 1.83 4.4.76 6.31-.57 5.66-3.9 9.57-8.61 13.91-12.74a.82.82 0 0 1 1 0c.64.6 1.58 1.37 2.22 2.05a.59.59 0 0 1 0 .84 87.37 87.37 0 0 1 -13.42 13.54c-7 5.4-13.94 6.77-17.4 3.31a7.55 7.55 0 0 1 -2.07-4.69c0-.84-.47-.89-.87-.49-4.12 4.08-11.28 8.58-17.79 5.37-5.44-2.68-6.7-9.17-5.68-14.64 0-.13-.1-.89-.76-.43a19.9 19.9 0 0 1 -4.46 2.39 12.69 12.69 0 0 1 -5.43 1.14 7.68 7.68 0 0 1 -6.7-3.75 11.18 11.18 0 0 1 -1.41-5.15c0-.18-.24-.48-.49-.08-4.45 6.78-8.59 13.35-13 20.24a1 1 0 0 1 -.88.55c-2.73 0-5.71 0-8.71 0-.55 0-.79-.4-.51-.92 1.55-3 10-15.31 15.73-25.78 1.59-2.89 1.27-4.37.28-5-1.22-.8-3.66.41-5.73 2-5.63 4.26-10.36 10.9-12.76 13.87-1.41 1.75-2.74 4.33-6.43 8.33-5.8 6.31-13.49 9.93-20.91 7.43a12.59 12.59 0 0 1 -8.1-8.61c-.22-.77-.66-1-1.08-.48a30.62 30.62 0 0 1 -5.69 5.08 1.37 1.37 0 0 1 -1.26.25 12.77 12.77 0 0 1 -2.25-3 1 1 0 0 1 .24-1.18 46 46 0 0 0 5.8-5.63 17.56 17.56 0 0 0 2.54-4.69c1.77-4.48 5.83-12.87 13.92-17.19a26.62 26.62 0 0 1 9.67-3.25c1.5-.16 2.73 0 3.16 1.19.17.49.59 1.55.84 2.34a.74.74 0 0 1 -.52 1.05c-4.76 1.82-9.55 4.62-12.85 9-3.75 5-4.77 11.08-2.25 14.56 1.83 2.52 4.78 3 7.63 2.06 4.32-1.36 8-5.39 9.88-9.85a23.62 23.62 0 0 0 .87-15.71 1.77 1.77 0 0 1 .55-2 19.16 19.16 0 0 1 3.18-1.91 2.1 2.1 0 0 1 2.71.67 17.38 17.38 0 0 1 2.51 9c.1.71.4.73.76.36 2.81-3 5.43-6.2 8.43-8.61 2.74-2.18 6.26-4 9.54-3.89 4.25.09 6.36 3 6.21 8.1 0 .65.46.61.77.17a17.05 17.05 0 0 1 3.57-3.92 12.59 12.59 0 0 1 9.06-3.29 6.87 6.87 0 0 1 6.32 7.82 7.89 7.89 0 0 1 -4.19 6 5.39 5.39 0 0 1 -6-.66 5 5 0 0 1 -1.43-4.78c.08-.37-.4-.71-.79-.3-3.77 3.93-4 9-1.59 11.28 2.72 2.53 6.79.84 9.76-1.1 5.45-3.56 9.65-8.38 14.54-12.09 3.24-2.46 6.93-4.65 11.07-5.2a13.08 13.08 0 0 1 6.75.77c3 1.2 4.83 3.7 5.07 5.87.06.64.54.71.93.16 2.35-3.66 14.93-22.52 16-24.5.31-.62.66-.7 1.33-.7h9c.46.09.7.38.47.8z"/><path d="m0 0h400v400h-400z" fill="none"/></svg>