<svg viewBox="0 0 400 400" xmlns="http://www.w3.org/2000/svg"><path d="m170.43 179.56-8.28 18.36-8.27-18.36h-28.43v39.54h22.41v-20.11l8.35 20.11h11.89l8.36-20.11v20.11h22.39v-39.54z"/><path d="m248.65 179.56-8.28 18.36-8.28-18.36h-28.42v39.54h22.4v-20.11l8.35 20.11h11.9l8.36-20.11v20.11h22.4v-39.54z"/><path d="m34.92 179.56v14.51h-11.17v-14.51h-23.75v39.54h23.75v-14.95h11.17v14.95h23.75v-39.54z"/><path d="m332.93 189.08v-9.52h-50.93v39.54h50.93v-9.52h-27.18v-5.91h27.18v-8.66h-27.18v-5.93z"/><path d="m86.73 179.57v26.53c0 3.41 2.29 4.27 5.35 4.27s5.26-.91 5.26-4.35v-26.45h23.66v26.61c0 11.73-8.54 14.27-28.95 14.27s-29.05-2.45-29.05-14.27v-26.61z"/><path d="m368.05 197.61c4.43 0 6.55-1.61 6.55-4.88 0-4.11-2.67-5.21-6.57-5.21h-6.95v10.09zm6.61 21.48-13.57-14.18v14.19h-23.75v-39.54h38.15c8 0 21.25-.21 20.55 13-.34 6.16-6.78 10.66-11.89 11.77l15.85 14.75h-25.34z"/><g fill="none"><path d="m0 0h400v400h-400z"/><path d="m0 0h400v400h-400z"/></g></svg>