<svg viewBox="0 0 400 400" xmlns="http://www.w3.org/2000/svg"><path d="m153.63 180.26v15.04h-17.05v-15.04h-9.4v39.49h9.4v-15.88h17.05v15.88h9.4v-39.49h-.47z"/><path d="m197.48 180.26-9.83 15.63-9.83-15.63h-11.09l16.23 25.81v13.68h9.39v-13.68l16.23-25.81h-.86z"/><path d="m238.81 180.26v29a1.94 1.94 0 0 1 -2 2h-15.06v-31h-9.39v39.49h27.77a7.49 7.49 0 0 0 8.08-8.07v-31.42z"/><path d="m284.69 180.26h-27.78v39.49h9.4v-30.94h15.07a2 2 0 0 1 2 2v29h9.39v-31.48a7.5 7.5 0 0 0 -8.07-8.07z"/><path d="m329.25 180.26h-27.77v39.49h27.77a7.5 7.5 0 0 0 8.07-8.07v-23.35a7.5 7.5 0 0 0 -8.07-8.07zm-1.32 28.89a2 2 0 0 1 -2 2h-15.07v-22.34h15a2 2 0 0 1 2.06 2z"/><path d="m347.8 182.44a8 8 0 0 0 -2.18 5.89v31.42h9.38v-12.22h17.07v12.22h9.39v-39.49h-27.77a7.92 7.92 0 0 0 -5.89 2.18zm7.2 8.37a2 2 0 0 1 2-2h15.06v10.19h-17.06z"/><path d="m390.61 180.26h9.39v39.49h-9.39z"/><path d="m53.72 172.49c-29.67 0-53.72 12.32-53.72 27.51s24.05 27.51 53.72 27.51 53.72-12.32 53.72-27.51-24.05-27.51-53.72-27.51zm-10 13.44c.9-2.08 2.45-6.51 6-8.28a8.93 8.93 0 0 1 3.59-.82h.53a93.34 93.34 0 0 1 26.88 3.73l.29.11c.71.24 1.08.56 1.08 1a1.21 1.21 0 0 1 -.45.87 5.06 5.06 0 0 1 -.49.43c-1.78 1.5-7.15 5.38-17.27 9.25a84.4 84.4 0 0 1 -12.63 4c-2.71.58-12.83 2.12-7.49-10.29zm-27.27 27.77a1.07 1.07 0 0 1 -.9.65 2 2 0 0 1 -1.12-.37c-6.3-3.89-10-8.73-10-14 0-9.49 12.2-17.64 29.64-21.2 1.12-.22 1.86-.22 2.13.07a.71.71 0 0 1 0 .84 6.66 6.66 0 0 1 -.47.65c-9.5 11.2-16.74 27.71-18.79 32.49-.21.33-.36.66-.49.87zm47.38.31c-.89 2.09-2.44 6.52-6 8.29a8.89 8.89 0 0 1 -3.59.82h-.53a93.41 93.41 0 0 1 -26.86-3.72l-.31-.12c-.71-.23-1.07-.56-1.07-1a1.18 1.18 0 0 1 .44-.87 5 5 0 0 1 .49-.44c1.79-1.48 7.16-5.38 17.27-9.25a84 84 0 0 1 12.65-4c2.74-.58 12.85-2.13 7.51 10.28zm9.58 7.18c-1.12.22-1.87.22-2.13-.07s-.21-.47 0-.85a5.8 5.8 0 0 1 .47-.65c9.5-11.2 16.73-27.7 18.79-32.48.15-.32.31-.65.43-.86a1.12 1.12 0 0 1 .9-.65 1.89 1.89 0 0 1 1.13.37c6.31 3.89 10.05 8.73 10.05 14-.05 9.47-12.21 17.63-29.64 21.19z"/><path d="m0 0h400v400h-400z" fill="none"/></svg>