<svg viewBox="0 0 400 400" xmlns="http://www.w3.org/2000/svg"><path d="m122.31 203.74c-2.63-1-5.25-1.94-7.87-2.93l-29.81-11.18-4.32-1.63a1.54 1.54 0 0 1 -1.14-1.36 1.58 1.58 0 0 1 .88-1.56 3.08 3.08 0 0 1 1.11-.36 11.16 11.16 0 0 1 1.42 0h39.42 1.47a112.6 112.6 0 0 0 -.1-13.2h-14.26c-9.84 0-19.67 0-29.5 0a26 26 0 0 0 -12.13 2.68 11.79 11.79 0 0 0 -6 6.25 17 17 0 0 0 -1 7.67 12.73 12.73 0 0 0 1.75 5.6 10.86 10.86 0 0 0 5.75 4.49c3 1.1 5.92 2.17 8.88 3.26l17.14 6.31c4.1 1.51 8.2 3.05 12.29 4.59a5.18 5.18 0 0 1 1.14.6 1.13 1.13 0 0 1 .6 1.19 1.19 1.19 0 0 1 -1.06 1 9.88 9.88 0 0 1 -1.63.15h-46.34v13.23h54.8a35.37 35.37 0 0 0 4.25-.21 12 12 0 0 0 8-4.14c4-4.67 4.29-10 1.8-15.39a9.49 9.49 0 0 0 -5.54-5.06z"/><path d="m246 212.75c2.52-1.31 5-2.59 7.58-3.88 5.48-2.79 10.94-5.61 16.43-8.38 4.49-2.28 9-4.52 13.52-6.8a18.41 18.41 0 0 0 2.57-1.44 11.43 11.43 0 0 0 4.13-13.06 8.6 8.6 0 0 0 -4-5.21 17.5 17.5 0 0 0 -3.93-1.56 38.22 38.22 0 0 0 -9.88-.94q-22.58 0-45.14 0c-.38 0-.76 0-1.18.06v13.16h41.63 2a6.68 6.68 0 0 1 .87.17c0 .12.05.25.08.36-.42.26-.82.54-1.25.77l-13 6.61q-13 6.62-26 13.23a9.62 9.62 0 0 0 -4.31 4.08 14.5 14.5 0 0 0 -.85 12.46 8.71 8.71 0 0 0 5.32 5.22 15.21 15.21 0 0 0 5.45.9q26.72 0 53.43 0c.34 0 .68-.05 1-.08a109.15 109.15 0 0 0 -.12-13.15h-43.35a7 7 0 0 1 -1.65-.13.86.86 0 0 1 -.53-1.45 3.5 3.5 0 0 1 1.18-.94z"/><path d="m190.14 171.67v1.33 32.93a19.83 19.83 0 0 1 -.45 4 5.87 5.87 0 0 1 -3.5 4.2 10.26 10.26 0 0 1 -4.12 1c-4.82 0-9.63.06-14.44 0a12.23 12.23 0 0 1 -3.36-.67 6.19 6.19 0 0 1 -4.51-5.13 21.71 21.71 0 0 1 -.27-3.42q0-16.4 0-32.81v-1.58h-17.4v1.57q0 18.78 0 37.55a39.26 39.26 0 0 0 .23 4.6 13.4 13.4 0 0 0 5.64 9.86 17.08 17.08 0 0 0 5.71 2.47 30.53 30.53 0 0 0 7.49.91c7.74.05 15.48 0 23.21 0q3.38 0 6.74-.2a23.15 23.15 0 0 0 7.15-1.48 13.11 13.11 0 0 0 8.61-9.49 23.61 23.61 0 0 0 .6-5.87q0-19.36 0-38.74c0-.38 0-.76-.06-1.12-1.31-.2-16.26-.17-17.27.09z"/><path d="m374.9 171.54h-17.23v1.46q0 16.33 0 32.69a24.23 24.23 0 0 1 -.25 3.41 6.27 6.27 0 0 1 -4.8 5.43 12.86 12.86 0 0 1 -3.24.6c-4.62.07-9.23.11-13.85 0a14.2 14.2 0 0 1 -4.15-.85 5.91 5.91 0 0 1 -4.08-4.93 22 22 0 0 1 -.28-3.53q0-16.53 0-33c0-.42 0-.84-.05-1.29h-17.37v1.3q0 19.13 0 38.25a33.73 33.73 0 0 0 .22 4c.48 3.95 2 7.37 5.32 9.79a17.52 17.52 0 0 0 8.43 3.16 77.64 77.64 0 0 0 8.49.47c6.56.07 13.11 0 19.67 0 2.17 0 4.33-.12 6.5-.17a23.37 23.37 0 0 0 6.73-1.22c4.47-1.45 7.69-4.23 9.16-8.82a19.81 19.81 0 0 0 .87-6.07v-39.67a8.85 8.85 0 0 0 -.09-1.01z"/><path d="m25 171.67v56.79h17.2v-56.84c-1.2-.24-16.2-.2-17.2.05z"/><path d="m0 0h400v400h-400z" fill="none"/></svg>