<svg viewBox="0 0 400 400" xmlns="http://www.w3.org/2000/svg"><path d="m349.44 191a25.18 25.18 0 0 0 -1.35-5.95 26.23 26.23 0 0 0 -11.39-13.79 24.78 24.78 0 0 0 -9.19-3.32 81.42 81.42 0 0 0 -10.22-.85c-3.06-.06-6.12-.06-9.18 0a96.48 96.48 0 0 0 -12.25.86 24.61 24.61 0 0 0 -8.46 2.8 25.81 25.81 0 0 0 -8.93 8 25.44 25.44 0 0 0 -4.31 10.64 71.5 71.5 0 0 0 -.8 9.13 66.47 66.47 0 0 0 .29 7.86 40.75 40.75 0 0 0 .85 5.83 26.23 26.23 0 0 0 17.91 19.17 20.43 20.43 0 0 0 4.16.89c2 .18 4.07.29 6.1.46 3 .25 5.93.36 8.9.36s6-.1 9-.36c1.49-.13 3-.26 4.47-.34a21.9 21.9 0 0 0 4.89-.8 26.57 26.57 0 0 0 13-8 25.41 25.41 0 0 0 6.31-13.22c.3-1.85.49-3.72.62-5.59s.15-3.57.17-5.35a70 70 0 0 0 -.59-8.43zm-25 13.26a22 22 0 0 1 -.41 4.51 10.58 10.58 0 0 1 -3.55 6.06 8.14 8.14 0 0 1 -5.21 1.95c-2.25 0-4.51 0-6.77 0a8.42 8.42 0 0 1 -6-2.43 10.64 10.64 0 0 1 -3.31-6.77c-.32-2.7-.24-5.42-.29-9.12.05-1.41.1-3.82.2-6.22a9.63 9.63 0 0 1 2.29-6.06 9.39 9.39 0 0 1 5.35-3.18 18.71 18.71 0 0 1 4.66-.51q1.88.08 3.75.27a12.43 12.43 0 0 1 2.52.45 9 9 0 0 1 6.46 7.52 28.06 28.06 0 0 1 .33 4.4q.03 4.52-.03 9.08z"/><path d="m207.72 216a4.83 4.83 0 0 0 -1.14-.09h-23a7.26 7.26 0 0 1 -1.14-.06 2.92 2.92 0 0 1 -2.49-2.09 5 5 0 0 1 -.19-1.4c0-1.51 0-3 0-4.54 0-.19 0-.39 0-.63h2.12 18.09a3.41 3.41 0 0 0 3.44-3.46c0-2.59 0-5.17 0-7.76a3 3 0 0 0 -.33-1.48 3.42 3.42 0 0 0 -3.2-2l-6.45.08-11.36.17c-.74 0-1.49 0-2.33 0 0-.27 0-.47 0-.65 0-1.29 0-2.59 0-3.88 0-.56 0-1.13 0-1.69a2.72 2.72 0 0 1 2.34-2.64 6.28 6.28 0 0 1 1.3-.1h23.44a3.11 3.11 0 0 0 3.35-3.35c0-3.12 0-6.23 0-9.35a3 3 0 0 0 -2.25-2.91 6 6 0 0 0 -1.46-.15h-38a14.69 14.69 0 0 0 -2.39.16 12.44 12.44 0 0 0 -9.06 6.11 12.77 12.77 0 0 0 -1.78 6.78v38.64a12.58 12.58 0 0 0 3.69 8.68 12.37 12.37 0 0 0 9.07 3.8q19.38 0 38.75 0h.38a3.08 3.08 0 0 0 3-3.11q0-5 0-10a3.27 3.27 0 0 0 -2.4-3.08z"/><path d="m148.5 168.83a3.36 3.36 0 0 0 -2.33-.78h-10.87a3.18 3.18 0 0 0 -3.22 2.71q-3.36 13.68-6.74 27.35-1.91 7.71-3.8 15.42a1.18 1.18 0 0 1 -1.11 1 1.42 1.42 0 0 1 -1.36-1c-.85-3.67-1.74-7.33-2.62-11q-1.83-7.65-3.67-15.29-2-8.36-4-16.72a3.06 3.06 0 0 0 -1.4-1.94 3.94 3.94 0 0 0 -2.25-.54c-3.19 0-6.37 0-9.56 0h-9.37c-.36 0-.73 0-1.09 0a3 3 0 0 0 -2.73 2.96 4 4 0 0 0 .15 1.46c.18.61.32 1.23.48 1.85q3.38 13 6.74 26 2.66 10.26 5.32 20.5a27.62 27.62 0 0 0 1 3.5 12.82 12.82 0 0 0 11.84 8q8.11 0 16.23 0a14.57 14.57 0 0 0 2.55-.23 12.05 12.05 0 0 0 8.08-5.3 15.08 15.08 0 0 0 2.06-4.85q2.13-8.44 4.28-16.88 4.1-16.11 8.19-32.22a6.33 6.33 0 0 0 .21-1.78 2.84 2.84 0 0 0 -1.01-2.22z"/><path d="m249.16 184.16c1.87-.23 3.78-.29 5.67-.34 3.91-.1 7.83 0 11.74.23a2.82 2.82 0 0 0 2.9-1.8 3.51 3.51 0 0 0 .28-1.32q0-5 0-10a3.13 3.13 0 0 0 -2.87-3.17c-2.11-.21-4.24-.39-6.36-.55-3.11-.23-6.23-.28-9.34-.23-2.55 0-5.1.1-7.64.26-2.29.14-4.58.35-6.84.68a24.22 24.22 0 0 0 -10.49 4.24 26.17 26.17 0 0 0 -9.56 12.39 36.62 36.62 0 0 0 -1.52 5.91 46.91 46.91 0 0 0 -.83 8.36 60.11 60.11 0 0 0 .25 6.71 47.72 47.72 0 0 0 1.26 6.93 26.18 26.18 0 0 0 18.54 19.07 19.26 19.26 0 0 0 3.91.73l2.84.22c2.36.16 4.72.39 7.08.46 2.73.08 5.47 0 8.9 0l9.78-.19a2.53 2.53 0 0 0 .48-.07 3.16 3.16 0 0 0 2.41-3.07c0-3.34 0-6.67 0-10a3.09 3.09 0 0 0 -3.39-3.16c-1.94.15-3.89.19-5.84.25a72.08 72.08 0 0 1 -8.57-.35 23 23 0 0 1 -3.72-.52 9.18 9.18 0 0 1 -7.19-7.77 52.14 52.14 0 0 1 -.57-5.59 46.7 46.7 0 0 1 .53-10.47 9.16 9.16 0 0 1 8.16-7.84z"/><path d="m75.83 171.17a3 3 0 0 0 -2.41-3 5.76 5.76 0 0 0 -1.25-.1q-9.24 0-18.47 0a7 7 0 0 0 -.92 0 3.25 3.25 0 0 0 -2.73 2.56 6.38 6.38 0 0 0 0 1v56.72a3.86 3.86 0 0 0 0 .76 4.73 4.73 0 0 0 .36 1.3 3.21 3.21 0 0 0 3 1.81h19.4a3.09 3.09 0 0 0 3-2.69 7.18 7.18 0 0 0 0-1v-42.11q.03-7.62.02-15.25z"/><path d="m0 0h400v400h-400z" fill="none"/></svg>