<svg viewBox="0 0 400 400" xmlns="http://www.w3.org/2000/svg"><path d="m381.53 277.57 2.33-.2c1-.08 1.9-.18 2.8-.31a18.93 18.93 0 0 0 5.85-1.79 11.88 11.88 0 0 0 1.59-1 7.4 7.4 0 0 0 3.19-6.1 10.84 10.84 0 0 0 0-1.41 9.1 9.1 0 0 0 -1.18-4.2 8.42 8.42 0 0 0 -3.48-3.13 18.91 18.91 0 0 0 -5.75-1.67 55.35 55.35 0 0 0 -8.25-.52h-37.75v31.76h11.85v-11.21h16.11l18.16 11.21h13zm-5.41-3.45h-23.4v-13.24h23.61c1.33 0 2.5.08 3.49.19a8.81 8.81 0 0 1 3.17.87 4 4 0 0 1 1.93 2 6.78 6.78 0 0 1 .53 2.74v2.38a6.18 6.18 0 0 1 -.51 2.19 4 4 0 0 1 -1.18 1.54 3.55 3.55 0 0 1 -.47.32 8 8 0 0 1 -2.95.82 37.32 37.32 0 0 1 -4.22.19z"/><path d="m38.92 272.16c0 4.48-1.64 7.8-4.89 9.88-2.8 1.8-6.84 2.71-12 2.71h-22.03v4.25h18.3c5.1 0 9.76-.19 13.84-.57a36.46 36.46 0 0 0 10.2-2.29 13.89 13.89 0 0 0 6.23-4.78 13.48 13.48 0 0 0 2.16-7.36c0-.26 0-.62 0-1v-15.78h-11.81z"/><path d="m174.67 274.4v10.35h-18.08c-9.48 0-15-3-16.49-9a13.07 13.07 0 0 1 0-5.75c1.47-6 6.88-9 16.5-9h28.32v-3.8h-24.6c-5.16 0-9.85.18-13.91.53a35.74 35.74 0 0 0 -10.2 2.27 13.55 13.55 0 0 0 -6.19 4.73 14 14 0 0 0 -2.16 7.83 2.35 2.35 0 0 0 0 .26v.49a14 14 0 0 0 2.19 8.08 13.89 13.89 0 0 0 6.23 4.78 36.88 36.88 0 0 0 10.2 2.3c4.08.37 8.73.57 13.84.57h26.21v-14.64z"/><path d="m83.46 257.2-27.35 31.8h7.08l6.15-7.15h34.4l6.16 7.15h13.17l-27.4-31.8zm-11.2 21.21 14.25-16.55 14.25 16.55z"/><path d="m290.76 257.21-27.35 31.79h7.09l6.17-7.17h34.33l6.17 7.17h13.18l-27.35-31.79zm-11.22 21.22 14.26-16.57 14.29 16.57z"/><path d="m246.23 273.31a15 15 0 0 1 -.48 3.79c-1.53 5.87-7 8.85-16.39 8.86h-1.19c-9.45 0-14.95-3-16.44-9a15.41 15.41 0 0 1 -.42-3.64v-16.1h-11.85v16.6a14.37 14.37 0 0 0 2.19 8.34 13.21 13.21 0 0 0 3.46 3.32 15.91 15.91 0 0 0 2.79 1.44 26.29 26.29 0 0 0 3.35 1.13 44.06 44.06 0 0 0 6.83 1.16c3.18.31 6.78.49 10.68.51s7.51-.21 10.68-.51a43.72 43.72 0 0 0 6.82-1.16 25.09 25.09 0 0 0 3.37-1.13 16.17 16.17 0 0 0 2.78-1.44 13 13 0 0 0 3.47-3.32 14.45 14.45 0 0 0 2.18-8.34v-16.6h-11.83z"/><path d="m75.41 119.2h1.18a13 13 0 0 0 5.31-1.38 6.89 6.89 0 0 0 1.54-.86h-4.09c-3.34 0-5.09 1.89-5.1 2.06s.44.16 1.16.18z"/><path d="m220.1 181c6.21.46 11.87 4.64 13.59 7.39 7 11.18 15.85 33.39 46.61 30.68l13.92-1.25c8.49-.5 15.4-.84 22.42 2.85 3.06 1.6 4.74 2.2 9.92 7.14 7.1 6.74 13.62 14 22.29 10.06 3.07-1.43 6.54-6.92 6.54-6.92a10 10 0 0 0 -4.21-7c7.87 1.87 25.65 3.08 32.54-9 1.79-2.78 2-5.27 1.31-6.78-1.89-4.22-7.11-2.85-7.11-2.85-2.46.52-5.28 3.34-9.46 4.58a25.63 25.63 0 0 1 -16.14-.43c-13.81-6-58.23-31.41-80.82-42.51 0 0-26.25-12.15-64.34-27.24 0 0-74.81-31.94-124.77-29.32 0 0-26.62.71-35 12.45a3.34 3.34 0 0 0 -.61 3.37.92.92 0 0 1 -.18.84 46.39 46.39 0 0 0 -6.77 7.59c-.8 1.3-1.57 3.38 0 5a5.3 5.3 0 0 1 1.06 1.07 28.81 28.81 0 0 0 2.06 3.59c1.16 1.39 3.52 3.79 6.83 3.22 1.48-.27 1.49-.69 1.49-.69a6.64 6.64 0 0 0 4.35 1.6c-.34-1.06-1.49-3.12-1.65-4.38a7.24 7.24 0 0 1 .22-2.69 11.79 11.79 0 0 1 2.42-4.53c.9-.88 3.2-1.91 5-.63 1.48 1.05 3.25 4.46 1.78 9.34-.07.37-1.69 3.82-3.42 4.34a1.65 1.65 0 0 1 -.5.06 10.11 10.11 0 0 1 -3.34-1.22 5.38 5.38 0 0 0 .26 1.57c.19.72.44 1.51.65 2.13 0 0-.41.75-.7 1.19s-.77 2.19.13 2.84c0 0 3.85 2.62 7.58 2.84a3.71 3.71 0 0 0 3.55-1.58 42.28 42.28 0 0 1 5.31-6.65c5.46-5 13.12-6.34 13.12-6.34.51-.07 8.88-2.4 23.11 9-4.07.33-8.9 1.29-12.6 1.95-10.53 1.88-17.3 11.83-19.27 15.87-5.12 10.56 5.35 14.19 5.35 14.19a19.3 19.3 0 0 0 14.75-11.38s1.76-4.65 6.39-3.15c3 1 29.85 10.36 35.88 11.94 0 0 18 4.68 24.71-3.58 10.81 3.55 21 5.27 47.51 1.83a56.36 56.36 0 0 1 8.24-.4zm-54.32-6.45c1.61-6.94-3.24-14.09-3.24-14.09 2.67.86 19.73 6.62 35.94 3.33 0 0-26.37.14-44.86-14.61 0 0 11.51 14.42 8.78 23.86 0 0-1.89 10.06-22 6-2.14-.42-4.66-1.14-34.69-9.47-7.06-2.11-9.49 1.26-10.76 3.28-.06 3-3.55 6.43-5.32 7.52-9.28-1.67-5.59-10.3-5.59-10.3-5.84 8.36.28 12.06 2.21 12.32a32.39 32.39 0 0 1 -3.18 1.31s-7.6-4.51-3.35-11.93c5.92-10.33 11.94-13.64 23-14.65 4.83-.46 8.86-.81 11.93-.38 8 1.11 13 5.63 25 6.8-25.39-7.54-25.45-22.3-25.54-22.54a19.34 19.34 0 0 0 .61 12.43c-.36-.12-5.93-3.78-8-5.07-9.14-5.59-16.37-6.56-16.37-6.56-3-.39-4.44-4.08-4.44-4.08l-.33-.54c-4.22-7.2-8.39-7.35-8.39-7.35 2.35 3.19 2.4 7.74 2.4 7.74 1.25 9-8.89 11.72-8.89 11.72-6.21 7.88-5.89 8.05-7.26 8.25s-4.44-1.42-4.44-1.42a1.23 1.23 0 0 1 .2-1.47c1.17-.93 2.12-1.85 2.12-1.85 6.56-6.71 7.35-10 6.54-14.35-1.66-8.72-7.89-7.71-7.89-7.71a5.42 5.42 0 0 0 -4.27 2.79c-1 1.61-3.25 6.54-3.25 6.54-1.35 2.93-2.74 3.59-3.46 3.72a5.15 5.15 0 0 1 -1.08 0 5.84 5.84 0 0 1 -3.71-2 3.45 3.45 0 0 1 -.27-.29c-1.93-2.07-.53-4.77-.53-4.77 2.6-6.07 7.65-6.95 8.34-7l3-.42c6.41-1.09 9.45-7.77 9.45-7.77a50.86 50.86 0 0 0 -6.45.23c-4.25.75-5.7 5.77-5.7 5.75-3.61.83-3.51-2.27-2.88-3.22s2.68-4.59 16.52-7.8c0 0 6.83-2 21.42-1.39l-.6 1.12c-1.29 2.43-6.41 7.47-14.87 5.6 0 0 .08 3.76 9.25 5.11 0 0 8.3 1.48 22.36 12.78 0 0-6.73-13.36-18.15-16.83 0 0-1.42-.3-.72-1.2 0 0 7-6.55 16.12-6.81 0 0 30.76-3 47.83 20.54 0 0-5.14-10-9-14.33 0 0 17.85 5 45.3 14.6 0 0 18.74 6.64 30.74 11.37 16.18 6.38 56.65 22.13 82.46 36.2 4.6 2.5 51.3 26.86 51.3 26.86 12.88 5.78 21.88 2.25 21.88 2.25 2.9-1.1 8.18-5.16 10.49-2.87a4 4 0 0 1 .77 4.38c-.67 2.33-4 5.45-8.05 7.24-4.25 1.9-13.11 2.4-18.23 1.56 0 0-9.93-1-18.62-10.09-2.74-2.86-6.11-6.11-9.22-9.32a17.36 17.36 0 0 0 -10.35-5.55c-5.83-.79-20.07-1.18-25.44-2.95-3.58-1.19-7.9-3.62-13.64-12.13-2.77-4.09-4.73-5.2-8.49-7.59a21 21 0 0 1 4.52 5.19c2.36 4.21 3.55 7.27 4.83 9.51a20.37 20.37 0 0 0 4.92 6 13.15 13.15 0 0 0 7.39 3.09c2.82.48 12.36.39 20.55.26s11.64 2.48 14.28 4.71c2.45 2.06 6.64 7.95 9.23 10.55 3.07 3 5.32 6.18 11.4 9.25 2.12 1.07 5.57 3.7 5.39 6.24-2.73 2.73-6.12 3.45-14.26 1.27a11.82 11.82 0 0 0 12.12 2.93 9.31 9.31 0 0 1 -6.6 2.49c-7.64-.42-15.11-9.82-19.29-13.29a83.36 83.36 0 0 0 -9-7c-8.21-5.69-26.64-4.09-26.64-4.09l-13.53.7c-26.35 2-37.41-21.33-40.33-26.21a41.87 41.87 0 0 0 -2.79-4.16c-1.35-1.8-8.55-11.13-15.83-14.2 0 0 7.15 6.16 6.74 10.23 0 0-3-1.38-11-.22-34.73 4.91-46.54-3.79-46.54-3.79zm-112.37-47.14s.29-.8.35-1 .85-2.28 2.76-2.49c0 0 1.1-.06 2.8-.06a5.18 5.18 0 0 1 -4.1 3.25 14.13 14.13 0 0 1 -1.81.3z"/><path d="m0 0h400v400h-400z" fill="none"/></svg>