<svg viewBox="0 0 400 400" xmlns="http://www.w3.org/2000/svg"><path d="m345.39 181.32c-3.69-7.29-9-13.31-15.08-18.67a114.11 114.11 0 0 0 -25-16.32 194.66 194.66 0 0 0 -41.31-14.46q-11.26-2.67-22.73-4.29c-7.7-1.09-15.42-1.9-23.19-2.3-3.77-.19-7.54-.31-11.31-.47-.38 0-12.9 0-13.17 0-6.24.32-12.49.53-18.72 1-8 .61-16 1.68-23.92 3.06a235 235 0 0 0 -29.89 7.13 164.78 164.78 0 0 0 -36.43 15.88c-8.81 5.32-16.88 11.54-23.46 19.53a47.79 47.79 0 0 0 -10.18 19.7c-.41 1.79-.59 3.64-.88 5.46 0 .25-.1.49-.15.73v5.25c.19 1.33.37 2.66.59 4a43.36 43.36 0 0 0 6.44 16.16 72.62 72.62 0 0 0 18 18.79 127 127 0 0 0 23.61 13.84 186.9 186.9 0 0 0 34.42 11.84c6 1.44 12.11 2.77 18.23 3.83s12.15 1.79 18.25 2.49c4.39.5 8.81.73 13.22 1.09 10.27.52 22.81 1 34 .14l3.35-.3c5.07-.46 10.16-.85 15.22-1.42 4.14-.47 8.26-1.12 12.38-1.79q10.74-1.75 21.3-4.51a200.73 200.73 0 0 0 27.31-9.13 136 136 0 0 0 26.5-14.48 80.4 80.4 0 0 0 16.76-15.56 47.06 47.06 0 0 0 9.5-19.08 39.57 39.57 0 0 0 -3.66-27.14zm-16.76 34.53c-3.35 6.64-8.2 12-13.72 16.87a93.62 93.62 0 0 1 -18.54 12.37 162.22 162.22 0 0 1 -33.71 12.91 192 192 0 0 1 -19.53 4.26c-5.3.85-10.63 1.53-16 2.17-12.91 1.56-25.89 1.46-38.87 1.17-4.51-.1-9-.52-13.53-1-6.22-.69-12.45-1.47-18.63-2.46a185.66 185.66 0 0 1 -25.06-5.88 149.48 149.48 0 0 1 -34.36-15 75.57 75.57 0 0 1 -21-18.41 38.61 38.61 0 0 1 -8.1-19.47 33.7 33.7 0 0 1 3.2-18.14 52.52 52.52 0 0 1 12.1-16.07 88 88 0 0 1 17-12.28 150.26 150.26 0 0 1 31.61-13.29 201.92 201.92 0 0 1 27.14-6.2c5.72-.89 11.48-1.54 17.24-2.17 8-.86 21.15-1.35 24.2-1.31s14.34.55 21.49 1.08a223.51 223.51 0 0 1 29.79 4.25 184.64 184.64 0 0 1 33.34 10.09 116.84 116.84 0 0 1 26 14.37 67.34 67.34 0 0 1 14.31 14.29 39.08 39.08 0 0 1 7 15.53 34.4 34.4 0 0 1 -3.37 22.32z"/><path d="m173.83 233.89q-12-17-23.94-34c-1.94-2.77-1.94-2.13 0-5 4.68-7 9.44-14 14.16-21 2.24-3.32 4.45-6.65 6.68-10a1.28 1.28 0 0 0 .07-1.47 1.31 1.31 0 0 0 -1.22-.82c-6 0-11.95 0-17.93 0-3.31 0-3.32.05-5.23 2.74q-7.94 11.15-15.85 22.3a8.8 8.8 0 0 1 -1.21 1.43 1.28 1.28 0 0 1 -1 .23c-.2-.05-.39-.49-.42-.78a22 22 0 0 1 -.17-2.69q0-10.83 0-21.68a1.46 1.46 0 0 0 -1.53-1.58l-20.25.06h-2.99v4.42h2.3c1.32.05 1.84.6 1.84 1.9q0 21.42 0 42.84c0 8.47.08 16.95.14 25.43 0 1.35.36 1.68 1.7 1.68q8.52 0 17 0c1.15 0 1.63-.47 1.63-1.61q0-10.55 0-21.07c0-2.55.08-5.11.12-7.65 0-.48.1-.9.64-1.06a1 1 0 0 1 1.19.56c.7 1 1.41 1.93 2.12 2.91l19 26.45a3.36 3.36 0 0 0 2.21 1.42 11.54 11.54 0 0 0 1.86.09q9.6 0 19.21 0a1.28 1.28 0 0 0 1.17-2c-.36-.69-.82-1.37-1.3-2.05z"/><path d="m298.4 234.89q-9.3-27.87-18.61-55.75-2.7-8.1-5.46-16.17c-.36-1-.58-1.19-1.69-1.23-.9 0-1.8-.09-2.7-.09h-25.66c-.16 0-.33 0-.52 0v4.35c1 .07 1.8.12 2.64.2a1.18 1.18 0 0 1 1.12 1.62c-.12.49-.26 1-.41 1.44q-6.68 19.95-13.35 39.91-4.45 13.38-8.84 26.8c-.44 1.34 0 2 1.42 2h16c2.93 0 3.06-.14 3.95-2.92 1.86-5.82 3.7-11.65 5.56-17.47q4.47-14 9-27.95c.17-.54.24-1.39 1-1.3.36 0 .75.79.91 1.29q4.83 14.81 9.6 29.63 2.82 8.66 5.67 17.28a1.88 1.88 0 0 0 1.89 1.43h17.85a1.22 1.22 0 0 0 1.18-1.55c-.22-.52-.38-1.02-.55-1.52z"/><path d="m208.83 161.6h-22.73-.74v4.48h2.33a1.61 1.61 0 0 1 1.72 1.8q0 17.21 0 34.43 0 16.95.13 33.9c0 1.4.32 1.7 1.75 1.7h17.55c1.15 0 1.67-.53 1.67-1.68v-73a1.6 1.6 0 0 0 -1.68-1.63z"/><path d="m0 0h400v400h-400z" fill="none"/></svg>