<svg viewBox="0 0 400 400" xmlns="http://www.w3.org/2000/svg"><path d="m254.83 88.57a117.76 117.76 0 0 0 -36.44-12.85c-8.57-1.48-25.39-1.79-33.49-.62-27.8 4.12-52.33 17.36-69.93 37.76-25.15 29.14-33.56 67.6-22.97 104.66 8.64 30.14 30.84 56.23 59.34 69.86a121.23 121.23 0 0 0 36 10.27 129.72 129.72 0 0 0 24.61.16 113.39 113.39 0 0 0 55.21-21.57 137.84 137.84 0 0 0 19.78-19.08 117.07 117.07 0 0 0 23.26-49.16c1.4-6.7 1.48-7.95 1.55-21.19 0-12.22-.15-14.79-1.16-20.32a113.46 113.46 0 0 0 -55.76-77.92zm44.31 101.23a88.16 88.16 0 0 1 -3.43 22.82 99.09 99.09 0 0 1 -73.9 70.08c-3.42.78-7.47 1.56-8.88 1.72l-2.64.31-.94-2.11c-2.65-6.22-5.92-24.68-7.32-40.57-.31-3.89-.7-7.55-.85-8.09-.32-.94-2.11-1.33-2.65-.47-.16.23-.94 6.07-1.71 12.92-2.34 20.56-5.53 36.53-7.56 37.77-.7.55-.54.55-5.76-.31-34-5.76-63.62-29.36-75.85-60.58a89.29 89.29 0 0 1 -6.93-33.57 88.8 88.8 0 0 1 2.57-26.72c9.66-38.23 39.17-66.5 77.09-73.82 8.41-1.63 9-1.56 10.05.86 2.26 5.53 4.44 16.9 6.46 35.35.86 1.64-.23 14.41 3.43 12.85.7-.47 1.09-1.71 1.4-4.9 2.26-23 5.84-42 8.41-44.7.7-.7 1.48-.7 6.39.07a97.6 97.6 0 0 1 53.73 27.88 88 88 0 0 1 17.52 23.68c8.57 16.51 12.07 31.86 11.37 49.53z"/><path d="m192.92 156.86c.16 1.56.39 1.79 2.1 2l1.95.23.16 12.85c.07 7-.08 12.69-.31 12.54s-3.12-6.86-6.39-14.88l-6-14.64-7.16.16-7.24.15v1.64c0 1.48.15 1.64 2.1 1.79l2 .16-.07 25.93-.16 25.93h-5l-5.69-26.4c-6.85-31.93-6.46-30.29-7.55-30.68-2.26-.86-2.57.08-7.55 22.82-5 23-6.47 27.48-9.58 30.83a11.58 11.58 0 0 1 -8.34 3.66h-2.8l.16-25.93.15-25.93 2-.23c1.71-.24 1.95-.47 1.95-1.95v-1.61h-17.15l-.23 1.64c-.15 1.79.62 2.49 2.8 2.49h1.56v51.63h-1.32c-2.26 0-3.12.55-3.12 2.26a2.87 2.87 0 0 0 .39 1.79c.24.16 7.09.08 15.27-.08l14.79-.31 1.71-8.25 1.72-8.26 4.51-.15c4.29-.16 4.52-.08 4.75 1.09a109.78 109.78 0 0 1 1.95 10.9c0 .7-.47 1-1.79 1.17-1.56.15-1.79.39-1.79 1.79v1.63l13.24.16c11.44.15 13.24 0 13.78-.7 1.17-1.56.23-3-1.95-3.12l-1.94-.15-.16-20.33c-.08-11.13.08-20.48.31-20.71s4.21 9 8.88 20.56c11.45 28.5 10.2 25.77 12 25.54l1.48-.16.16-28.42.15-28.42 2-.16c1.87-.15 2.1-.31 2.26-1.95l.15-1.71-5.76-.15c-7.46-.24-7.61-.24-7.38 1.94zm-36.21 36.21c-.08.24-2 .39-4.28.39s-4.13-.15-4.13-.39c0-1.32 4.13-19.93 4.44-19.93.47 0 4.26 19.31 3.97 19.93z"/><path d="m284.89 211.37-6.23-28.58c-3.43-15.73-6.23-28.65-6.23-28.73a4.4 4.4 0 0 0 -1.64-.16c-1.94 0-1.55-1.09-5.21 16-1.41 6.46-4 18.37-5.69 26.4l-3.19 14.56-2.65.15-2.65.16.16-26 .15-26 1.95-.23c1.71-.24 2-.47 2-1.95v-1.69h-17v1.64c0 1.48.16 1.64 2 1.95l1.87.23v51.71l-1.87.31c-1.71.23-2 .47-2.1 2.1l-.16 1.79 13.08-.15 13.09-.16.15-1.56c.16-1.32-.08-1.55-1.56-1.87-.93-.15-1.63-.46-1.63-.7s.62-3 1.24-6.38l1.25-6.08 4.52-.15c4.28-.16 4.51-.08 4.75 1.09 1 4.67 1.94 10 1.94 10.9 0 .7-.39 1-1.32 1a2.31 2.31 0 0 0 -1.95 1.09c-.78 1.4-.7 1.48.32 2.5 1.24 1.24 15.73 1.32 16.74.07 1.24-1.48.46-2.72-1.87-3zm-16.28-17.91c-4.36 0-4.44 0-4.2-1.24.15-.7 1.09-5.22 2.1-10.21s1.95-8.95 2.18-8.95 1.17 4.28 2.18 9.5 1.95 9.81 2 10.2c.18.55-.87.7-4.26.7z"/><path d="m235.67 195.72c-1.94 0-2 0-3.35 5.3-1.47 5.76-3.27 8.72-5.84 9.57-3.58 1.25-6.85-.39-8.64-4.28-1.09-2.34-1.17-3.66-1.32-16.82-.31-20.25.93-27.64 4.82-29.67 5.14-2.65 9.43 1 11 9.35.71 3.58 1.09 4.28 2.65 4.05.94-.16 1-1 1.33-8.73a89.17 89.17 0 0 0 .07-9.19c-.46-1.24-2.8-.77-3.5.63l-.62 1.32-2.65-1.63c-2.41-1.48-3-1.64-6.23-1.41-2.88.16-4.05.55-5.92 1.87-6.46 4.52-10.9 16.36-10.9 28.74 0 14.33 5.68 27.18 13.47 30.6a11.29 11.29 0 0 0 7 0c4.75-1.32 8.33-6.38 10-14.09 1.13-4.75.89-5.61-1.37-5.61z"/><path d="m348.82 107.34-.23-3-2.49-1.71c-50.1-34.85-99.52-53.15-148.51-53.54s-97.18 17.29-144.37 54.59l-2.22 1.71-.15 2.8c-3.43 53.66 3.81 102.25 26.71 143.52s61.28 74.83 120 98.27l2.33.94 2.34-.94c54.12-21.64 93.13-53 117.51-93.68s33.83-90.4 29.08-148.96zm-40 142.5c-22.58 37.61-58.71 66.89-109 87.45-54.43-22.27-90-53.5-111.2-91.73s-28.19-83.48-25.3-133.71c44.15-34.18 88.92-50.38 134.25-50.07s91.73 17.37 138.84 49.53q6.03 81.89-27.62 138.53z"/><path d="m0 0h400v400h-400z" fill="none"/></svg>