<svg viewBox="0 0 400 400" xmlns="http://www.w3.org/2000/svg"><path d="m200 119.16c-89.75 0-162.5 36.2-162.5 80.85s72.77 80.83 162.5 80.83 162.5-36.19 162.5-80.84-72.75-80.84-162.5-80.84zm109.25 134.57c-29.25 13.68-68.04 21.27-109.25 21.27s-80-7.54-109.24-21.22c-30.14-14.15-46.76-33.23-46.76-53.78s16.6-39.63 46.74-53.73c29.26-13.67 68.06-21.21 109.26-21.21s80 7.54 109.24 21.22c30.14 14.1 46.76 33.18 46.76 53.72s-16.62 39.64-46.75 53.73z"/><path d="m161.23 177.67-.81-8.61-4.96 8.61z"/><path d="m237.5 182.15a8.41 8.41 0 0 0 3.24-2.33 20.63 20.63 0 0 0 3.67-5.77c1.73-4.13 3.8-12.5-1.29-12.5h-3l-7.38 21h2.79a5.11 5.11 0 0 0 1.97-.4z"/><path d="m292.54 210.33h-2.63l-2.33 7h3.18c4.62-.05 8.9-6.9 1.78-7z"/><path d="m145.84 210.33h-2.64l-2.33 7h3.18c5.01-.05 8.49-6.9 1.79-7z"/><path d="m180.67 212.32a21.61 21.61 0 0 0 -4.67 10.68 13.55 13.55 0 0 0 .65 6.65c1.22 3.44 5.58 3.13 7.8.76a19.21 19.21 0 0 0 4.93-15.94c-.64-4.26-6.06-5.4-8.71-2.15z"/><path d="m200 128.78c-84.09 0-152.27 31.89-152.27 71.23s68.18 71.22 152.27 71.22 152.27-31.89 152.27-71.23-68.18-71.22-152.27-71.22zm64.65 54.79 15.79-6.57h-13.53l3.63-10.1h26.55l-3.86 10.1-29.72 10zm-21.5-32.51a22.22 22.22 0 0 1 10.6 2.68 13 13 0 0 1 5.65 8.91 31.07 31.07 0 0 1 -2.45 14.4 26.61 26.61 0 0 1 -9.06 11.29 18.75 18.75 0 0 1 -12.31 4.09l-19 .07 12.85-37.34a6.76 6.76 0 0 0 -.12-4.1zm-54.05 4.16a5.37 5.37 0 0 0 0-4.09l12.5-.07 3.52 18.5 6.54-18.5h11.55l-15.07 41.39h-11.28l-3.25-18-7.22 18h-10.39zm-30.54-4.22h12.62l2.22 41.37h-11.5l-.77-5.4h-11.5l-3.87 5.4h-11.76l24-37.12a5.59 5.59 0 0 0 .56-4.25zm-40 4.17a6.93 6.93 0 0 0 0-4.13h14.13l-10.81 31.84h12.33l-4 9.56h-24.34zm-1.56 59.83-3.62 10.13h-26.61l3.86-10.13 29.73-10-1.14 3.4-15.79 6.6zm44 2a12.93 12.93 0 0 1 -4.92 6.19 16.7 16.7 0 0 1 -7 3.09l8.02 15.72h-12.23l-7.68-14.84-5.25 14.84h-12.26l13.23-37.32a5.2 5.2 0 0 0 0-4.13h16.51a15.85 15.85 0 0 1 7.57 1.83 8 8 0 0 1 3.86 3.67 12.83 12.83 0 0 1 .07 10.95zm36.19 15.53a26.7 26.7 0 0 1 -9.67 7.91 20.39 20.39 0 0 1 -11.58 1.69 15.54 15.54 0 0 1 -11.94-11.41 21 21 0 0 1 .38-12.45 27.24 27.24 0 0 1 16.75-17.56 17.09 17.09 0 0 1 14.25 1.91 15.64 15.64 0 0 1 6.27 9.45 23.33 23.33 0 0 1 -4.54 20.5zm9.84 9.36-.79-37.24a8.3 8.3 0 0 0 -.89-4.13l12.74.05.1 22.33 14.81-22.29h13.42l-30.42 41.32zm54.18.08h-26.15l12.58-36.19a8.76 8.76 0 0 0 0-5.17h27.68l-3.09 9h-13.38l-2.45 7.19h10.36l-3.37 9.06h-10.21c-.88 2.32-1.64 4.74-2.29 7.15h13.64zm46.55-25a13 13 0 0 1 -4.94 6.19 16.85 16.85 0 0 1 -7.07 3.09l8.1 15.75h-12.23l-7.7-14.84-5.23 14.84h-12.27l13.23-37.32a5.2 5.2 0 0 0 0-4.13h16.52a15.59 15.59 0 0 1 7.53 1.83 8 8 0 0 1 3.9 3.67 12.87 12.87 0 0 1 .08 10.95z"/><path d="m0 0h400v400h-400z" fill="none"/></svg>