<svg viewBox="0 0 400 400" xmlns="http://www.w3.org/2000/svg"><path d="m363.19 188.16h33.5v-7.07h-33.69c-12.61 0-22.89 9.65-23.4 21.72h40.61c2.63 0 4.76 1.71 4.76 3.83s-2.13 3.84-4.76 3.84h-44.72v-29.39h-13.24v29.14h-26.63c-3.88-.6-5.2-3.47-5.11-9v-20.14h-21.4l-19.21 12.48-16.71-12.48h-51.44a23.26 23.26 0 0 0 -23 18.33h10.34a22.64 22.64 0 0 0 -8.58 10.81h-32.7c-3.88-.6-5.19-3.47-5.11-9v-20.14h-13.24v18.83c-.56 12.42 6.18 16.88 13.89 17.6h102.76l19-12.25 16.5 12.38h20.25l-25.75-19.38 21.19-13.75v15.4c-.56 12.42 6.86 16.88 14.56 17.6h96.14c6.62 0 12-4.88 12-10.9s-5.37-10.88-12-10.88h-33.22a8.35 8.35 0 0 1 8.41-7.58zm-138.73 22.17 14.61-9.58-22.07-16.51v4h-32.68a8.39 8.39 0 0 0 -8.4 7h37.86v7.18h-29a8.37 8.37 0 0 0 -8.51 7.87zm-177.19-40.6c1.46.05 1.29 1.06 1.07 1.4-4.3 6.69-14.45 18.46-21.81 31.35-1.22 2.12-2.11 3.65-2.15 6a9.18 9.18 0 0 0 5.86 8.36 17.05 17.05 0 0 0 6.92 1.13c20.55.6 28.8.06 47.2-.56a3.47 3.47 0 0 0 2.4-1.18c3.54-3.7 5.59-10.36 5.59-16.24 0-13.1-9.41-24.91-24.11-30.61l-2.39 3c12.9 5.33 19.58 16 19.58 27.4a23.66 23.66 0 0 1 -1.24 7.45c-.6 1.62-1.28 2.58-3.37 2.62-15 .31-23.5.56-38.51.18-1.94 0-2.57-.78-2.9-2.28a3.52 3.52 0 0 1 .59-2.8c8-14.17 21.85-30.3 24.59-34.16.52-.72.29-2.11-1.52-2.61a61.9 61.9 0 0 0 -17-2.16c-26.75.11-45.63 15.2-46.07 33.92 1.07 22.48 20.59 34.06 46.12 34.06 15.64 0 30-5.52 38.32-14.28l-7.74.28c-7.17 6.36-18.59 9.77-30.41 9.77-21.61 0-39.25-10.75-39.13-30 0-16.58 17.52-30.08 39.13-30.08.3-.01.27.01.98.04z" fill-rule="evenodd"/><path d="m0 0h400v400h-400z" fill="none"/></svg>