<svg viewBox="0 0 400 400" xmlns="http://www.w3.org/2000/svg" xmlns:xlink="http://www.w3.org/1999/xlink"><linearGradient id="a" gradientUnits="userSpaceOnUse" x1="177.09" x2="223.61" y1="78.6" y2="252.22"><stop offset=".07"/><stop offset=".27" stop-color="#0b0b0b"/><stop offset=".59" stop-color="#262626"/><stop offset=".85" stop-color="#b2b2b2"/><stop offset="1" stop-color="#fff"/></linearGradient><linearGradient id="b" gradientUnits="userSpaceOnUse" x1="177.09" x2="223.61" y1="78.6" y2="252.22"><stop offset="0"/><stop offset=".56"/><stop offset=".6" stop-color="#0e0e0e"/><stop offset=".66" stop-color="#202020"/><stop offset=".71" stop-color="#262626"/><stop offset=".84" stop-color="#fff"/><stop offset=".89" stop-color="#fff"/><stop offset="1" stop-color="#a5a5a5"/></linearGradient><linearGradient id="c" gradientTransform="matrix(-1 0 0 1 3106.33 0)" gradientUnits="userSpaceOnUse" x1="2930.45" x2="2975.66" y1="73.71" y2="242.4"><stop offset="0" stop-opacity="0"/><stop offset=".61"/><stop offset=".65" stop-color="#030303"/><stop offset=".69" stop-color="#0d0d0d"/><stop offset=".71" stop-color="#191919"/><stop offset=".87" stop-color="#eee"/><stop offset="1" stop-color="#dcdcdc" stop-opacity="0"/></linearGradient><linearGradient id="d" gradientUnits="userSpaceOnUse" x1="233.3" x2="165.53" y1="259.47" y2="73.27"><stop offset=".19"/><stop offset=".29" stop-color="#343434"/><stop offset=".45" stop-color="#8a8a8a"/><stop offset=".58" stop-color="#c9c9c9"/><stop offset=".68" stop-color="#f0f0f0"/><stop offset=".73" stop-color="#fff"/><stop offset="1" stop-color="#6d6d6d"/></linearGradient><linearGradient id="e" gradientUnits="userSpaceOnUse" x1="117.72" x2="142.96" y1="157.99" y2="69.96"><stop offset="0" stop-color="#fff" stop-opacity="0"/><stop offset=".11" stop-color="#fff" stop-opacity=".25"/><stop offset=".28" stop-color="#fff" stop-opacity=".65"/><stop offset=".4" stop-color="#fff" stop-opacity=".9"/><stop offset=".46" stop-color="#fff"/><stop offset=".81" stop-color="#bcbcbc" stop-opacity=".34"/><stop offset="1" stop-color="#9a9a9a" stop-opacity="0"/></linearGradient><linearGradient id="f" gradientUnits="userSpaceOnUse" x1="130.54" x2="269.45" y1="96.79" y2="96.79"><stop offset="0"/><stop offset=".03" stop-color="#101010" stop-opacity=".94"/><stop offset=".13" stop-color="#3f3f3f" stop-opacity=".74"/><stop offset=".24" stop-color="#616161" stop-opacity=".6"/><stop offset=".36" stop-color="#767676" stop-opacity=".52"/><stop offset=".5" stop-color="#7c7c7c" stop-opacity=".5"/><stop offset="1"/></linearGradient><linearGradient id="g" gradientTransform="matrix(-1 0 0 -1 2873 -674)" gradientUnits="userSpaceOnUse" x1="2606.7" x2="2737.48" y1="-910.22" y2="-910.22"><stop offset="0"/><stop offset=".24" stop-color="#262626"/><stop offset=".5" stop-color="#565656"/><stop offset="1"/></linearGradient><linearGradient id="h" gradientTransform="matrix(-1 0 0 1 3069 0)" gradientUnits="userSpaceOnUse" x1="2780.44" x2="2773.81" y1="209.04" y2="227.25"><stop offset=".24" stop-opacity="0"/><stop offset=".44"/><stop offset=".69" stop-opacity=".74"/><stop offset="1" stop-opacity="0"/></linearGradient><linearGradient id="i" gradientUnits="userSpaceOnUse" x1="152.57" x2="96.22" y1="67.91" y2="169.57"><stop offset="0" stop-color="#fff" stop-opacity="0"/><stop offset=".05" stop-color="#fff" stop-opacity=".11"/><stop offset=".16" stop-color="#fff" stop-opacity=".39"/><stop offset=".31" stop-color="#fff" stop-opacity=".84"/><stop offset=".37" stop-color="#fff"/><stop offset="1" stop-color="#9a9a9a" stop-opacity="0"/></linearGradient><linearGradient id="j" gradientUnits="userSpaceOnUse" x1="259.49" x2="292.75" y1="98.5" y2="98.5"><stop offset="0"/><stop offset=".09" stop-opacity=".8"/><stop offset="1" stop-opacity="0"/></linearGradient><linearGradient id="k" gradientTransform="matrix(-1 0 0 1 2954 0)" gradientUnits="userSpaceOnUse" x1="2833.13" x2="2833.13" y1="89.67" y2="111.21"><stop offset="0"/><stop offset="1" stop-opacity="0"/></linearGradient><linearGradient id="l" gradientUnits="userSpaceOnUse" x1="131.16" x2="121.77" y1="217.06" y2="242.86"><stop offset=".05" stop-opacity="0"/><stop offset=".26"/><stop offset=".53" stop-opacity=".85"/><stop offset=".61" stop-color="#050505" stop-opacity=".84"/><stop offset=".69" stop-color="#161616" stop-opacity=".79"/><stop offset=".74" stop-color="#262626" stop-opacity=".74"/><stop offset=".76" stop-color="#1c1c1c" stop-opacity=".54"/><stop offset=".79" stop-color="#0c0c0c" stop-opacity=".23"/><stop offset=".85" stop-color="#030303" stop-opacity=".05"/><stop offset="1" stop-opacity="0"/></linearGradient><linearGradient id="m" gradientTransform="matrix(-1 0 0 1 2922 0)" gradientUnits="userSpaceOnUse" x1="2642.31" x2="2665.6" y1="151.57" y2="70.33"><stop offset="0" stop-color="#fff" stop-opacity="0"/><stop offset=".17" stop-color="#c8c8c8" stop-opacity=".32"/><stop offset=".46" stop-color="#565656"/><stop offset=".47" stop-color="#565656"/><stop offset=".58" stop-color="#595959" stop-opacity=".95"/><stop offset=".7" stop-color="#636363" stop-opacity=".81"/><stop offset=".82" stop-color="#747474" stop-opacity=".56"/><stop offset=".93" stop-color="#8b8b8b" stop-opacity=".23"/><stop offset="1" stop-color="#9a9a9a" stop-opacity="0"/></linearGradient><linearGradient id="n" gradientUnits="userSpaceOnUse" x1="109.96" x2="291.69" y1="172.52" y2="172.52"><stop offset="0"/><stop offset=".03" stop-color="#171717"/><stop offset=".1" stop-color="#3c3c3c"/><stop offset=".16" stop-color="#5b5b5b"/><stop offset=".23" stop-color="#737373"/><stop offset=".3" stop-color="#848484"/><stop offset=".38" stop-color="#8e8e8e"/><stop offset=".48" stop-color="#919191"/><stop offset=".5" stop-color="#fff" stop-opacity=".77"/><stop offset=".5" stop-opacity=".9"/><stop offset=".52" stop-color="#090909" stop-opacity=".92"/><stop offset=".55" stop-color="#212121" stop-opacity=".99"/><stop offset=".55" stop-color="#262626"/><stop offset=".55" stop-color="#272727"/><stop offset=".56" stop-color="#323232"/><stop offset=".57" stop-color="#393939"/><stop offset=".59" stop-color="#3b3b3b"/><stop offset="1"/></linearGradient><linearGradient id="o" gradientTransform="matrix(-1 0 0 1 2646.71 0)" gradientUnits="userSpaceOnUse" x1="2534.76" x2="2455.1" y1="168.36" y2="152.88"><stop offset="0"/><stop offset=".55" stop-color="#181818"/><stop offset="1" stop-color="#262626"/></linearGradient><linearGradient id="p" gradientUnits="userSpaceOnUse" x1="199.96" x2="297.4" y1="150.28" y2="150.28"><stop offset="0"/><stop offset=".01" stop-color="#0b0b0b"/><stop offset=".04" stop-color="#363636"/><stop offset=".08" stop-color="#5e5e5e"/><stop offset=".11" stop-color="#808080"/><stop offset=".16" stop-color="#9c9c9c"/><stop offset=".2" stop-color="#b3b3b3"/><stop offset=".26" stop-color="#c5c5c5"/><stop offset=".32" stop-color="#d2d2d2"/><stop offset=".41" stop-color="#d9d9d9"/><stop offset=".61" stop-color="#dbdbdb"/><stop offset=".82" stop-color="#fff"/></linearGradient><linearGradient id="q" gradientUnits="userSpaceOnUse" x1="241.11" x2="254.79" y1="142.56" y2="193.62"><stop offset=".19"/><stop offset=".57" stop-color="#404040"/><stop offset=".81"/></linearGradient><linearGradient id="r" gradientTransform="matrix(-1 0 0 1 2646.71 0)" gradientUnits="userSpaceOnUse" x1="2446.68" x2="2543.88" y1="149.94" y2="149.94"><stop offset="0"/><stop offset=".01" stop-color="#080808"/><stop offset=".05" stop-color="#303030"/><stop offset=".09" stop-color="#4f4f4f"/><stop offset=".14" stop-color="#656565"/><stop offset=".18" stop-color="#727272"/><stop offset=".21" stop-color="#777"/><stop offset=".31" stop-color="#9e9e9e"/><stop offset=".43" stop-color="#c1c1c1"/><stop offset=".54" stop-color="#dcdcdc"/><stop offset=".65" stop-color="#f0f0f0"/><stop offset=".77" stop-color="#fbfbfb"/><stop offset=".89" stop-color="#fff"/><stop offset="1" stop-color="#b2b2b2"/></linearGradient><linearGradient id="s" gradientUnits="userSpaceOnUse" x1="96.85" x2="302.87" y1="189.8" y2="189.8"><stop offset="0" stop-color="#262626"/><stop offset=".08" stop-color="#3f3f3f"/><stop offset=".25" stop-color="#7e7e7e"/><stop offset=".5" stop-color="#e3e3e3"/><stop offset=".57" stop-color="#fff"/><stop offset=".71" stop-color="#fdfdfd" stop-opacity=".99"/><stop offset=".76" stop-color="#f6f6f6" stop-opacity=".96"/><stop offset=".81" stop-color="#e9e9e9" stop-opacity=".91"/><stop offset=".85" stop-color="#d7d7d7" stop-opacity=".84"/><stop offset=".88" stop-color="#c0c0c0" stop-opacity=".75"/><stop offset=".91" stop-color="#a3a3a3" stop-opacity=".64"/><stop offset=".93" stop-color="#818181" stop-opacity=".51"/><stop offset=".96" stop-color="#5a5a5a" stop-opacity=".35"/><stop offset=".98" stop-color="#2e2e2e" stop-opacity=".18"/><stop offset="1" stop-opacity="0"/></linearGradient><linearGradient id="t" gradientUnits="userSpaceOnUse" x1="103.29" x2="103.29" y1="126.85" y2="106.65"><stop offset="0" stop-color="#f8f8f8"/><stop offset=".94" stop-color="#f8f8f8"/><stop offset="1" stop-color="#f8f8f8"/></linearGradient><linearGradient id="u" gradientTransform="translate(-241.06)" gradientUnits="userSpaceOnUse" x1="516.27" x2="536.81" y1="112.47" y2="112.47"><stop offset="0"/><stop offset=".31" stop-color="#060606"/><stop offset=".71" stop-color="#151515"/><stop offset="1" stop-color="#262626"/></linearGradient><linearGradient id="v" gradientTransform="matrix(-1 0 0 1 3244.75 0)" x1="3119.98" x2="3140.51" xlink:href="#u" y1="111.76" y2="111.76"/><linearGradient id="w" gradientUnits="userSpaceOnUse" x1="103.94" x2="125" y1="112.13" y2="112.13"><stop offset="0" stop-color="#b2b2b2"/><stop offset=".01" stop-color="#b0b0b0"/><stop offset=".26" stop-color="#666"/><stop offset=".44" stop-color="#383838"/><stop offset=".53" stop-color="#262626"/></linearGradient><linearGradient id="x" gradientTransform="matrix(-1 0 0 1 2984.56 0)" gradientUnits="userSpaceOnUse" x1="2688.51" x2="2709.38" y1="112.55" y2="112.55"><stop offset="0" stop-color="#9a9a9a"/><stop offset=".07" stop-color="#878787"/><stop offset=".28" stop-color="#535353"/><stop offset=".44" stop-color="#323232"/><stop offset=".53" stop-color="#262626"/></linearGradient><path d="m200 259.83c-38 0-69.2-8.65-87.87-24.34-18.13-15.26-27.52-37.8-28.61-68.93-1-28.77 10.81-56.14 30.85-71.44 19-14.48 46-21.23 85.1-21.23 40.26 0 67.51 6.79 85.76 21.37 19.42 15.5 31.42 43.56 30.58 71.48-.94 31.14-10.16 52.9-29 68.49-19.17 15.86-50 24.6-86.81 24.6zm-.12-172.64a150.39 150.39 0 0 0 -28.76 2.5c-13.31 2.71-20.28 5.5-29.83 11.92-24.59 16.55-29.75 44-29.75 64.07 0 30.63 10.24 52.94 30.45 66.3 12.52 8.27 30.41 12 58 12 25.64 0 41.36-3.32 56.1-11.83 14.52-8.39 31.82-26.75 31.82-66.6 0-29.28-9.94-50.77-29.57-63.89-9.21-6.15-15.11-8.87-29.93-11.94a148 148 0 0 0 -28.53-2.48z" fill="#fff"/><path d="m200.29 208.77c-1.79 0-2.29-1.12-3.95-4.84-.74-1.66-1.85-4.17-3.54-7.53a64.17 64.17 0 0 0 -32.91-30.34c-4-1.59-9.44-3.22-14.74-4.79h-.08c-10.86-3.23-23.17-6.9-32.44-12.42l-.34-5.83v-14.83l9.92-6.67a96.46 96.46 0 0 0 12.18 6.56c3.07 1.39 6.43 2.87 9.9 4.4l.19.08c11.75 5.18 25.07 11.05 30.48 14.94a82.34 82.34 0 0 1 23 26c.8 1.44 1.47 2 1.82 2s1-.44 1.89-2.08c5.65-11.06 15.7-21.21 23.15-26.37 7.19-5 19.37-9.84 30.12-14.14h.08c4.95-2 9.63-3.86 13.17-5.5a69.76 69.76 0 0 0 9.56-5.3l9.37 5.81v15.08l-.34 5.52c-6.3 3.68-10.11 5.89-25.56 9.86l-.77.2c-28.12 7.16-46.08 19.9-53.38 37.85-.87 2.14-1.54 4-2.09 5.54l-.1.29c-1.52 4.34-2.3 6.51-4.59 6.51z" fill="#fff"/><g fill-rule="evenodd"><path d="m173.38 242.71c-24.35-3.4-62-16.25-62-78.08.02-35.34 15.84-77.63 88.62-77.63 65.68 0 88.11 35.32 88.11 77.5 0 58.21-33.7 73.39-61.5 78-13.55 2.22-37.36 2.42-53.23.21zm130.67-77.71c0-47.13-22.18-86.15-103.8-86.15-85.72 0-103.79 47.27-103.79 86.24 0 65.25 43.78 81.08 75.61 84.85a270.17 270.17 0 0 0 54.4 0c31.53-3.64 77.58-19.36 77.58-84.94z" fill="url(#a)"/><path d="m173.38 242.71c-24.35-3.4-62-16.25-62-78.08.02-35.34 15.84-77.63 88.62-77.63 65.68 0 88.11 35.32 88.11 77.5 0 58.21-33.7 73.39-61.5 78-13.55 2.22-37.36 2.42-53.23.21zm130.67-77.71c0-47.13-22.18-86.15-103.8-86.15-85.72 0-103.79 47.27-103.79 86.24 0 65.25 43.78 81.08 75.61 84.85a270.17 270.17 0 0 0 54.4 0c31.53-3.64 77.58-19.36 77.58-84.94z" fill="url(#b)"/><path d="m200.37 80.27v5.91c-66.37.16-89 35.23-89 79.7 0 40.57 17.52 61.15 37.4 70.39 22.27 10.36 48.17 8.55 36 13.2-3 1.13-5.45 3-16.17 1.74-31.55-3.69-71.88-19.25-71.88-84.8.02-47.09 22.17-86.09 103.65-86.14z" fill="url(#c)"/><path d="m315.23 167c0 25.08-8.44 51.08-28.65 67.8-21.17 17.5-54.06 24.9-86.94 24.9-35.23 0-65.68-6.66-88.68-26-18.27-15.36-27.08-42.74-27.08-67 0-26.43 8.5-54.45 30.67-71.38 20.34-15.53 56.52-21.18 85-21.18 32.65 0 64.3 5.34 85.41 22.19 20.47 16.32 30.27 44.67 30.27 70.67zm-11.67-.88c0-43.79-25.55-86.14-103.78-86.14-85.78-.05-103.78 47.21-103.78 86.19 0 66.5 45.47 81.67 77.43 85a242.86 242.86 0 0 0 53.43-.06c18.85-2.06 76.7-14.65 76.7-85.04z" fill="url(#d)"/><path d="m98.38 144.45c4-11.36 9-30.17 23.59-43.16 16.5-14.64 45.49-19.81 54-20.79-3.32-2-5.06-2.36-10-3.93-23.85 3.49-44 10.09-58.44 25.25s-20.53 34.18-22.43 46.82c4.98-1.83 6.99-2.27 13.28-4.19z" fill="url(#e)" opacity=".74"/><path d="m199 83.82c27.65 0 54 4.72 70.5 26-25.29-31.33-110.74-32.06-138.91 0 16.46-18.89 40.7-26 68.41-26z" fill="url(#f)"/><path d="m200 247c-30.22 0-48-3.82-63.15-17.69-1.89-1.74-1.77-1.63.39-.07a67.62 67.62 0 0 0 15.53 8.76c13.85 5.16 31.24 6.62 47.29 6.62s30-1.66 42.35-5.57c9-2.83 15.85-7.76 22.06-12.38 2.24-1.67 2.46-1.58.44.17-16.59 14.3-36.02 20.16-64.91 20.16z" fill="url(#g)"/><path d="m306.8 206.94a28.4 28.4 0 0 0 2-5c.26-.89-.24.53-.84 1.66a16.45 16.45 0 0 1 -1.78 3c-1.21 1.68-1.57 1.86-3.8 3.27-1.79 1.13-4 1.86-7.54 3.8-.91.5-1.35.86-3.21 3.28-1.34 1.73-2.77 3.72-3.51 4.57-2.3 2.65-8.4 7.53-11.74 10.46-2.91 2.54-1.94 2.73 2.19 1.3 3.69-1.27 9.16-3.55 12.4-4.89a12.67 12.67 0 0 0 4.39-3 85.06 85.06 0 0 0 11.44-18.45z" fill="url(#h)"/><path d="m96.46 166c0-21.08 7.46-48.53 25.42-64.48 16.5-14.64 44.7-20.12 53.21-21.1-3.32-1.94-5.07-2.36-10-3.93-23.81 3.51-44.09 10.43-58.49 25.59-15.41 16.17-22.62 42.71-23 60.5 4.21 1.22 7.4 2.1 12.86 3.42z" fill="url(#i)" opacity=".9"/></g><path d="m199.88 87.22a147.64 147.64 0 0 1 28.52 2.49c14.82 3.06 20.72 5.79 29.92 11.93 19.61 13.1 29.56 34.59 29.56 63.86 0 39.84-17.3 58.19-31.81 66.57-14.73 8.51-30.45 11.83-56.08 11.83-27.6 0-45.48-3.69-58-12-20.19-13.35-30.44-35.65-30.44-66.27 0-20.09 5.17-47.5 29.74-64 9.54-6.42 16.5-9.21 29.81-11.92a150.39 150.39 0 0 1 28.78-2.49zm0-.26a150.32 150.32 0 0 0 -28.81 2.51c-13.19 2.68-20.31 5.49-29.9 12-23.26 15.65-29.85 41.39-29.85 64.26 0 31.42 10.56 53.28 30.55 66.49 14.49 9.57 35.24 12 58.13 12 23.63 0 40.38-2.71 56.21-11.86 18.32-10.59 31.93-31.39 31.93-66.8 0-27.08-8.67-50-29.67-64.08-9.44-6.31-15.41-9-30-12a148.81 148.81 0 0 0 -28.59-2.48z"/><path d="m199.88 87a148.81 148.81 0 0 1 28.59 2.49c14.59 3 20.56 5.66 30 12 21 14 29.67 37 29.67 64.08 0 35.41-13.61 56.21-31.93 66.8-15.83 9.15-32.58 11.86-56.21 11.86-22.89 0-43.64-2.42-58.13-12-20-13.21-30.55-35.07-30.55-66.49 0-22.87 6.59-48.61 29.85-64.26 9.59-6.46 16.71-9.27 29.9-12a150.32 150.32 0 0 1 28.81-2.48zm0-.52a151.36 151.36 0 0 0 -28.88 2.52c-13.42 2.74-20.45 5.55-30.09 12-24.86 16.73-30.08 44.41-30.08 64.69 0 30.9 10.36 53.42 30.79 66.93 12.64 8.35 30.65 12.08 58.42 12.08 25.78 0 41.62-3.35 56.48-11.94 14.69-8.49 32.19-27 32.19-67.25 0-29.54-10.06-51.25-29.9-64.52-9.29-6.2-15.25-9-30.2-12a148.53 148.53 0 0 0 -28.68-2.5z" fill="#595959"/><path d="m199.47 74.12c33.87 0 64.87 4.75 85.62 21.32s31.26 45.71 30.49 71.29c-.87 28.92-8.7 51.6-28.92 68.32-21.16 17.51-53.79 24.55-86.66 24.55-33.05 0-66.63-6.55-87.73-24.28-19.26-16.2-27.51-40-28.52-68.76-.99-28.26 10.25-55.56 30.76-71.26 22.67-17.3 54.92-21.18 84.96-21.18zm0-.26c-39.1 0-66.15 6.75-85.12 21.24-20 15.3-31.87 42.68-30.87 71.47 1.1 31.12 10.46 53.68 28.63 69 18.68 15.64 49.89 24.29 87.89 24.29 36.81 0 67.65-8.74 86.82-24.61 18.86-15.59 28.08-37.37 29-68.51.84-27.93-11.17-56-30.59-71.51-18.23-14.58-45.5-21.37-85.76-21.37z"/><path d="m199.47 74.65c40.07 0 67.18 6.73 85.29 21.2 19.24 15.36 31.13 43.15 30.29 70.86-.93 30.9-10.06 52.5-28.73 67.94-19 15.75-49.69 24.43-86.32 24.43-37.82 0-68.85-8.58-87.39-24.17-18-15.12-27.25-37.49-28.34-68.37-.99-28.54 10.73-55.67 30.56-70.82 18.83-14.38 45.72-21.07 84.64-21.07zm0-.53c-30 0-62.29 3.87-85 21.18-20.47 15.7-31.71 43-30.72 71.26 1 28.74 9.26 52.56 28.52 68.76 21.1 17.73 54.73 24.28 87.73 24.28 32.87 0 65.5-7 86.66-24.55 20.22-16.72 28-39.4 28.92-68.32.77-25.58-9.74-54.72-30.49-71.29s-51.75-21.32-85.62-21.32z" fill="#262626"/><path d="m259.49 90.63c4.9.67 22.51 4.5 28.48 8.13 5.68 3.44 4.72 3.58 4.72 3.58l-10.58 4s-7.42-8.28-22.62-15.71z" fill="url(#j)" fill-rule="evenodd" opacity=".2"/><path d="m139.05 90.37c-10.48 2.49-24.57 6.08-30.14 9.7-2.62 1.7-9.83 11.14-9.83 11.14l10.22-8.52c5-1.31 5.24-1.58 9-2.49 4.24-1 6.65-1.35 11.31-4.47s19.93-7.85 9.44-5.36z" fill="url(#k)" fill-opacity=".42" fill-rule="evenodd" opacity=".2"/><path d="m200.19 253.22a250.72 250.72 0 0 1 -33.41-2.42c-26.6-3.52-71.24-19.23-71.24-84.94 0-38.74 18.63-67.67 51.11-79.37 14.09-5.08 32.08-7.65 53.48-7.65 38.46 0 65.91 9.38 83.91 28.69 13.55 14.52 20.13 33.57 20.13 58.24 0 62.25-40.94 80.83-75.3 85.44a209.91 209.91 0 0 1 -28.68 2.01zm-.06-172.81c-21.22 0-39 2.54-52.94 7.55-31.82 11.47-50.07 39.86-50.07 77.9 0 61.28 38 79.16 69.87 83.38 23.68 3.13 40.47 3.26 61.67.42 33.73-4.54 73.94-22.78 73.94-83.89 0-24.25-6.44-43-19.7-57.17-17.7-18.97-44.77-28.19-82.77-28.19z" fill="#fff"/><path d="m200.2 253.47a250.81 250.81 0 0 1 -33.45-2.41c-19.49-2.58-35.4-9.45-47.32-20.42-16-14.74-24.15-36.54-24.15-64.78 0-38.86 18.72-67.86 51.28-79.62 14.11-5.08 32.13-7.67 53.57-7.67 38.54 0 66.05 9.42 84.1 28.78 13.6 14.57 20.21 33.68 20.21 58.42 0 62.44-41.08 81.07-75.53 85.7a210.28 210.28 0 0 1 -28.71 2zm-.07-174.37c-21.37 0-39.34 2.57-53.39 7.63-32.37 11.66-50.93 40.51-50.93 79.13 0 28.09 8.06 49.76 24 64.4 11.83 10.89 27.65 17.72 47 20.28a249.94 249.94 0 0 0 33.39 2.46 209.17 209.17 0 0 0 28.64-2c34.25-4.6 75.07-23.12 75.07-85.18 0-24.6-6.56-43.59-20.06-58.07-17.95-19.29-45.33-28.65-83.72-28.65z" fill="#c8c8c8" opacity=".5"/><path d="m200.13 80.41c-21.22 0-39 2.54-52.94 7.55-31.82 11.47-50.07 39.86-50.07 77.9 0 61.28 38 79.16 69.87 83.38a249.44 249.44 0 0 0 33.21 2.41 208.25 208.25 0 0 0 28.46-2c33.73-4.54 73.94-22.77 73.94-83.89 0-24.25-6.44-43-19.7-57.17-17.7-18.96-44.77-28.18-82.77-28.18z" fill="none"/><path d="m91.92 204c.7 1.48 1.38 3.69 4.1 4.9 2.11.94 3.79 1.64 5.89 2.46 3.39 1.32 6 5.83 8.18 8.74s9.06 9.22 12.5 12a99.61 99.61 0 0 0 21.83 12.8c.53.21 20.28 8.43 18.09 10.36-.64.56-18.81-4.6-19.66-4.85-15.58-4.74-32.06-14.19-43-29.93-1.49-2.13-7-12.06-8.18-16.07-.79-2.56-.67-2.35.25-.41z" fill="url(#l)" fill-rule="evenodd"/><path d="m301.34 144.71c-4-11.36-9-30.17-23.59-43.16-16.49-14.63-45.48-19.8-54-20.79 3.31-1.94 5.06-2.36 10-3.93 23.85 3.49 44.09 10.44 58.53 25.6 12.13 12.73 17.45 27.6 20.18 39.75-4.22 1.22-5.62 1.22-11.12 2.53z" fill="url(#m)" fill-rule="evenodd" opacity=".9"/><path d="m232.9 151.67-.27.13c-5.51 2.75-32 31.85-32.68 32.5s-29-22.32-29.53-23.24-48.79-18.3-48.79-18.3l-11.67-1a24.66 24.66 0 0 0 3.8 7.21c12.13 7.66 36.13 12.85 48.56 17.86 15 6 25.51 19.73 31 29.51 3.68 6.56 4.39 12.32 6.94 12.32s4-6.09 5.71-10c8.45-19.5 18.83-31.19 55.24-40.43 22.44-5.69 25.68-10.37 25.68-10.37l4.81-11.36s-52 12.18-58.8 15.17z" fill="url(#n)"/><path d="m108.09 138.22a89.7 89.7 0 0 0 5.15 10.67 94.87 94.87 0 0 0 12.77 5.3c16.16 5.34 36.57 8.33 42.44 11.14 21.18 10.14 26.06 19.63 31 27.95-2.18-5.49-4.1-10.63-11.71-20.09-11-13.65-18-16.81-33.81-22.62-5.42-2-13-5-22.11-8.39a151.27 151.27 0 0 1 -27.72-14.18c-.1-.11 2.39 6.05 3.99 10.22z" fill="url(#o)" fill-rule="evenodd"/><path d="m213.54 157.6c4.29-4.85 7.63-8.1 15.69-12.89 14.94-8.86 38.15-13.68 53.59-25.55 10.31-7.93 13.15-12 13.15-12a29.93 29.93 0 0 1 1.29 7.8 49.42 49.42 0 0 1 0 7.59 27 27 0 0 1 -.93 4.83 138 138 0 0 1 -26.49 13.92c-9.27 3.46-18 6.47-23.46 8.52-23.76 8.89-34.09 22.37-41.84 36.27-3.6 6.46-4.51 7.28-4.51 7.2 0-.26 0-15.25 0-17.46.17 0 .39 0 1.44-1.83a115.47 115.47 0 0 1 12.07-16.4z" fill="url(#p)" fill-rule="evenodd"/><path d="m295.53 128c-7.08 4.76-19.4 10.44-28.52 13.85s-14.51 4.9-19.93 6.9c-15.28 5.64-25 11.51-36.25 25.51-7.62 9.46-8.85 14.53-10.64 18.74 0 2.45.16 15.14.16 15.14a1.47 1.47 0 0 0 1.44-.82c.26-.4 0-4.47 0-7.43 0-2.46.15-3.14 1.46-5.56 1-1.87 2.19-4 3-5.21 6.4-9.95 18.46-17.48 30.31-23.16 10.35-5 26-8.27 36.35-11.71a116.25 116.25 0 0 0 13.75-5.67 48.37 48.37 0 0 0 4.65-9c1.54-4.21 4.32-11.66 4.22-11.58z" fill="url(#q)" fill-rule="evenodd"/><path d="m197.63 174.24c1 1.86 2 1.66 2.33 1.66 0 2.75.06 17.09.07 17.36 0 .08-.3-.92-3.9-7.39-14.32-25.65-28.09-30.57-41-35.42-5.48-2-15.69-6-25-9.43a144 144 0 0 1 -26.89-14.11c-.42-.28.11-1.78-.19-4.35a60.43 60.43 0 0 1 -.16-8.34 35.67 35.67 0 0 1 1-7.6s4.83 6.91 15.8 13.89a155.63 155.63 0 0 0 22.86 11.93c9.69 4 19.6 8.38 27.78 13.23a62.29 62.29 0 0 1 16.51 13.63 83.21 83.21 0 0 1 10.79 14.94z" fill="url(#r)" fill-rule="evenodd"/><path d="m178.15 150.92c6.55 6.9 9.44 10.13 14 18.87 3.13 6 3.76 6.46 7.69 21.66l-1-15s-5.44-8.45-8.84-12.78a105.29 105.29 0 0 0 -11.85-12.75z" fill-rule="evenodd"/><path d="m200.29 208.81c-1.8 0-2.32-1.13-4-4.87-.8-1.79-1.89-4.24-3.54-7.52a64.09 64.09 0 0 0 -32.89-30.32c-3.91-1.57-9.17-3.14-14.74-4.79-10.89-3.25-23.25-6.92-32.54-12.46l.27-.46c9.23 5.52 21.55 9.18 32.42 12.41 5.58 1.67 10.85 3.23 14.79 4.81a64.58 64.58 0 0 1 33.15 30.57c1.66 3.29 2.76 5.76 3.56 7.55 1.71 3.83 2.08 4.55 3.5 4.55 2 0 2.64-1.93 4.16-6.18.57-1.59 1.27-3.56 2.2-5.85 4.72-11.62 13.93-21.17 27.38-28.39a114.39 114.39 0 0 1 26.32-9.75l.78-.19c15.4-4 19.18-6.17 25.46-9.83l.25.46c-6.3 3.67-10.11 5.89-25.58 9.87l-.77.2c-28.12 7.15-46.06 19.88-53.35 37.83-.92 2.27-1.63 4.24-2.2 5.82-1.53 4.35-2.31 6.54-4.63 6.54z"/><path d="m200.32 208.38c-1.69 0-2.19-1.11-3.81-4.79-.81-1.84-1.93-4.37-3.63-7.75a64.15 64.15 0 0 0 -32.95-30.39c-3.86-1.55-9-3-14.51-4.61-11-3.16-23.45-6.75-32.91-12.66l.14-.22c9.42 5.89 21.86 9.47 32.84 12.63 5.48 1.57 10.67 3.06 14.54 4.62a64.5 64.5 0 0 1 33.09 30.51c1.7 3.39 2.82 5.92 3.63 7.77 1.61 3.65 2.05 4.63 3.57 4.63 2 0 2.72-2.07 4.17-6.19.59-1.68 1.31-3.76 2.29-6.16 4.7-11.58 13.89-21.1 27.31-28.31a113.33 113.33 0 0 1 26.29-9.74l.78-.2c15.51-4 19.8-6.24 26-9.88l.15.23c-6.08 3.53-10.58 5.91-26.1 9.9l-.78.2c-28.15 7.17-46.13 19.92-53.43 37.9-1 2.4-1.7 4.47-2.29 6.14-1.46 4.24-2.21 6.37-4.39 6.37z" fill="#595959"/><path d="m200 193.5a.8.8 0 0 1 -.73-.48 101.48 101.48 0 0 0 -9.68-16.75 76.1 76.1 0 0 0 -12.22-13.21l-.25-.22c-3.58-3.25-7.84-6.56-20.65-11.39-2.05-.77-4.84-1.77-7.89-2.88-6.75-2.44-15.14-5.48-19.34-7.35-2.46-1.1-4.38-1.92-6-2.61-6.61-2.84-7.8-3.35-19.5-10.75a.79.79 0 1 1 .84-1.33c11.6 7.33 12.77 7.84 19.28 10.64 1.6.69 3.51 1.51 6 2.61 4.16 1.85 12.52 4.87 19.24 7.31 3.07 1.11 5.86 2.12 7.91 2.89 13.07 4.93 17.46 8.34 21.16 11.69l.25.23a78 78 0 0 1 12.44 13.46 109.23 109.23 0 0 1 9.14 15.39 88.62 88.62 0 0 1 9.32-15.75 80 80 0 0 1 15.29-16c6.17-4.78 13.45-7.76 20.38-10.4 4.35-1.66 7.83-2.87 11.21-4.05a194.33 194.33 0 0 0 19.6-7.73c13.27-6.08 19.33-10.28 19.39-10.32a.78.78 0 0 1 .9 1.28c-.25.18-6.21 4.32-19.62 10.47a200.66 200.66 0 0 1 -19.75 7.79c-3.36 1.17-6.84 2.38-11.17 4-6.82 2.61-14 5.53-20 10.18a78.67 78.67 0 0 0 -15 15.63 80.59 80.59 0 0 0 -9.82 17.15.78.78 0 0 1 -.73.51z" fill="#fff"/><path d="m199.81 176.52c-.66 0-1.44-.77-2.25-2.22a81.92 81.92 0 0 0 -22.89-25.88c-5.39-3.87-18.77-9.77-30.58-15-3.54-1.56-6.88-3-9.91-4.4a101 101 0 0 1 -12.94-7.02l.29-.43a101.56 101.56 0 0 0 12.88 7c3 1.37 6.36 2.84 9.89 4.4 11.84 5.22 25.24 11.12 30.68 15a82.31 82.31 0 0 1 23 26.05c.8 1.43 1.45 1.94 1.79 1.94s1-.44 1.86-2.06c5.67-11.08 15.71-21.23 23.16-26.37 7.19-5 19.38-9.86 30.14-14.16 5-2 9.67-3.88 13.24-5.52a80.79 80.79 0 0 0 10.5-5.85l.3.43a82.58 82.58 0 0 1 -10.55 5.92c-3.57 1.65-8.28 3.54-13.26 5.53-10.73 4.3-22.88 9.17-30 14.11-7.4 5.1-17.38 15.18-23 26.18-.79 1.49-1.63 2.35-2.35 2.35z" fill="#595959"/><path d="m199.81 176c-.66 0-1.44-.76-2.25-2.21a81.94 81.94 0 0 0 -22.89-25.88c-5.39-3.87-18.77-9.77-30.58-15-3.54-1.56-6.88-3-9.91-4.4a96.92 96.92 0 0 1 -12.26-6.62l.29-.44a96 96 0 0 0 12.2 6.58c3 1.37 6.35 2.84 9.89 4.39 11.83 5.22 25.24 11.12 30.68 15a82.35 82.35 0 0 1 23 26.06c.8 1.43 1.45 1.93 1.79 1.93s1-.43 1.86-2.06c5.66-11.07 15.71-21.22 23.16-26.37 7.19-5 19.37-9.85 30.12-14.15 5-2 9.69-3.88 13.26-5.53a69.56 69.56 0 0 0 9.57-5.31l.3.43a69.89 69.89 0 0 1 -9.66 5.36c-3.57 1.65-8.29 3.54-13.27 5.54-10.73 4.29-22.88 9.16-30 14.09-7.4 5.11-17.38 15.2-23 26.18-.74 1.55-1.58 2.41-2.3 2.41z"/><path d="m200.15 190.56-.35-13.96h.49z" fill="#fff"/><path d="m118.58 106.33a73.54 73.54 0 0 1 28.61-18.33c13.91-5 31.72-7.55 52.94-7.55 36.9 0 63.5 8.7 81.21 26.57 0 0 .21.18.41.38a14.1 14.1 0 0 1 1.28-.93c-.21-.22-.42-.39-.48-.46-18-18.25-45-27.13-82.42-27.13-21.4 0-39.39 2.57-53.48 7.65a75.07 75.07 0 0 0 -29.56 19.1s-.12.07-.07.13a3.06 3.06 0 0 0 .52.35 4.08 4.08 0 0 0 .75.53c.09-.01.24-.26.29-.31z" fill="#fff"/><path d="m281.73 107.69-.15-.14-.35-.31s-.07-.06-.07-.07c-17.67-17.83-44.17-26.5-81-26.5-21.19 0-39 2.54-52.86 7.54a73 73 0 0 0 -28.5 18.3c-.14.18-.27.35-.46.35h-.09a2.31 2.31 0 0 1 -.59-.38c-.09-.06-.16-.13-.24-.19l-.23-.14a1.21 1.21 0 0 1 -.35-.25l-.07-.1v-.16a.38.38 0 0 1 .2-.25 75.05 75.05 0 0 1 29.62-19.14c14.11-5.08 32.13-7.67 53.57-7.67 37.51 0 64.53 8.91 82.6 27.22l.08.07c.1.09.25.23.41.4l.35.39h-.52a5.4 5.4 0 0 0 -.51.39 6.78 6.78 0 0 1 -.64.5zm-81.6-27.54c37 0 63.62 8.72 81.4 26.65h.05l.2.18c.13-.09.29-.22.43-.34l.39-.31-.13-.13a.57.57 0 0 1 -.11-.1c-18-18.2-44.87-27.05-82.23-27.05-21.37 0-39.34 2.57-53.39 7.63a74.77 74.77 0 0 0 -29.36 18.94h.05l.27.17.25.2.32.24a.61.61 0 0 0 0-.06l.08-.1a73.63 73.63 0 0 1 28.7-18.42c13.95-4.95 31.83-7.5 53.08-7.5z" fill="#c8c8c8"/><path d="m294.93 126.68c-1.27.85-7.36 4.76-19.13 10.15a194.33 194.33 0 0 1 -19.6 7.73c-3.37 1.18-6.86 2.39-11.21 4.05-6.93 2.64-14.21 5.61-20.38 10.4a80 80 0 0 0 -15.29 16 88.62 88.62 0 0 0 -9.32 15.74 109.23 109.23 0 0 0 -9.09-15.39 78 78 0 0 0 -12.44-13.46l-.25-.23c-3.7-3.35-8.09-6.76-21.16-11.69-2.05-.77-4.89-1.8-7.9-2.89-6.72-2.44-15.09-5.46-19.25-7.31-2.46-1.1-4.41-1.93-6-2.61-6.43-2.77-7.66-3.3-18.89-10.39-1.17-.73-1.71-.3-2.15.71-4.79 11.22-7.32 24.13-7.32 38.37 0 28.17 8.1 49.9 24.06 64.59 11.88 10.93 27.76 17.78 47.18 20.35a250.86 250.86 0 0 0 33.42 2.42 209.76 209.76 0 0 0 28.67-2c34.36-4.61 75.31-23.19 75.31-85.44 0-14.7-2.35-27.41-7.1-38.35a1.34 1.34 0 0 0 -2.16-.75zm-66.27 123a208.25 208.25 0 0 1 -28.46 2 249.44 249.44 0 0 1 -33.2-2.44c-31.88-4.22-69.87-22.1-69.87-83.38 0-14 2.47-26.66 7.17-37.67 11.22 7.08 12.49 7.62 19 10.42 1.56.68 3.5 1.51 5.95 2.61 4.21 1.87 12.61 4.91 19.35 7.35 3 1.09 5.85 2.11 7.89 2.88 12.8 4.83 17.07 8.14 20.65 11.39l.26.22a76.48 76.48 0 0 1 12.21 13.21 101.48 101.48 0 0 1 9.66 16.73.8.8 0 0 0 .73.48.8.8 0 0 0 .74-.5c0-.08 2.8-7.46 9.85-17.12a79 79 0 0 1 15-15.63c6-4.65 13.16-7.57 20-10.18 4.33-1.64 7.81-2.85 11.18-4a199.27 199.27 0 0 0 19.74-7.78 148.7 148.7 0 0 0 19.18-10.17c4.67 10.74 7 23.22 7 37.68-.09 61.11-40.3 79.34-74.03 83.88z" fill="#fff"/><path d="m200.2 251.9a249.88 249.88 0 0 1 -33.2-2.4c-32-4.23-70.1-22.17-70.1-83.64 0-13.87 2.42-26.58 7.2-37.78l.13-.28.25.17c11.21 7.07 12.39 7.58 18.95 10.41 1.55.66 3.48 1.5 6 2.6 4.2 1.86 12.59 4.9 19.34 7.34 3 1.09 5.84 2.12 7.88 2.89 12.85 4.84 17.14 8.17 20.73 11.43l.26.23a77 77 0 0 1 12.25 13.25 99.41 99.41 0 0 1 9.71 16.8.53.53 0 0 0 1 0c0-.07 2.78-7.44 9.88-17.17a79.3 79.3 0 0 1 15-15.69c6-4.67 13.21-7.6 20.05-10.21 4.34-1.65 7.82-2.86 11.18-4a195.35 195.35 0 0 0 19.64-7.85 147.17 147.17 0 0 0 19.16-10.15l.26-.17.12.29c4.69 10.81 7 23.17 7 37.78 0 61.3-40.34 79.6-74.17 84.14a208.82 208.82 0 0 1 -28.52 2.01zm-95.79-123.33c-4.67 11.06-7 23.6-7 37.29-.03 61.14 37.84 78.92 69.59 83.14a247.35 247.35 0 0 0 33.18 2.41 207.58 207.58 0 0 0 28.42-2c33.63-4.51 73.73-22.69 73.73-83.62 0-14.41-2.23-26.61-6.81-37.29a152.91 152.91 0 0 1 -19 10 197.3 197.3 0 0 1 -19.76 7.79c-3.36 1.17-6.83 2.38-11.16 4-6.81 2.59-14 5.51-19.91 10.14a77.94 77.94 0 0 0 -14.89 15.57c-7 9.65-9.8 17-9.82 17.05a1.06 1.06 0 0 1 -1 .68 1.05 1.05 0 0 1 -1-.65 99.11 99.11 0 0 0 -9.66-16.7 76.25 76.25 0 0 0 -12.17-13.16l-.26-.23c-3.55-3.22-7.8-6.52-20.56-11.33-2-.77-4.88-1.8-7.88-2.88-6.75-2.45-15.15-5.49-19.37-7.37-2.48-1.1-4.41-1.93-6-2.59-6.3-2.72-7.66-3.31-18.67-10.25z" fill="url(#s)" fill-opacity=".8"/><path d="m287.27 147.68a.07.07 0 0 1 -.06 0 .12.12 0 0 1 0-.17c0-.05 3-5.46 4.23-8.42s4-10.56 4-10.63a.12.12 0 0 1 .16-.08.13.13 0 0 1 .08.16c0 .08-2.76 7.68-4 10.66s-4.21 8.38-4.24 8.44a.16.16 0 0 1 -.17.04z"/><path d="m103.67 107.29c.2-.92.46-.78.3 0a62.05 62.05 0 0 0 -.58 11.85 48 48 0 0 0 .76 7.06 1.13 1.13 0 0 0 -1.25.68 59 59 0 0 1 .77-19.59z" fill="url(#t)" fill-rule="evenodd"/><path d="m296.36 108.11c-.2-.92-.38-.89-.22-.14a63.72 63.72 0 0 1 .77 11.73 55.59 55.59 0 0 1 -.54 6.79 2.7 2.7 0 0 1 .91 1.28 61.39 61.39 0 0 0 -.92-19.66z" fill="#dcdcdc" fill-rule="evenodd"/><path d="m287.82 115-9.23 7.18-3.38-5.35c2.23-3.08 5.77-8.54 6.2-9.12a5.72 5.72 0 0 1 2.39-1.71c.88-.29 4.78-2.11 7.93-3.29l4 4.57z" fill="url(#u)" fill-rule="evenodd"/><path d="m112.17 114.29 9.22 7.18 3.38-5.35c-2.23-3.08-5.76-8.54-6.2-9.12a5.87 5.87 0 0 0 -2.38-1.68c-.88-.29-4.79-2.11-7.93-3.29l-4 4.57z" fill="url(#v)" fill-rule="evenodd"/><path d="m125 116.25-1.93 2.88c-.63.93-1.8 2.84-1.8 2.84a119 119 0 0 1 -9.92-7.66 57.35 57.35 0 0 1 -7.42-7.69c.81-.92 4.06-4.34 4.06-4.34s-.23.3.49 1.13c2.22 2.59 11.08 10.11 14.8 12.51a1.93 1.93 0 0 0 1.72.33z" fill="url(#w)" fill-rule="evenodd"/><path d="m291.69 102.71c-1.55.55-6.75 2.49-7.94 2.94a1.79 1.79 0 0 1 -1.83-.3c-18-17.83-44.8-26.51-81.79-26.51-21.4 0-39.39 2.57-53.48 7.65a75.11 75.11 0 0 0 -28.53 18 1.38 1.38 0 0 1 -1.33.42c-.71-.24-6.74-2.24-8.46-3l-.16.16c1.42.62 7.25 3.28 8 3.54a5.6 5.6 0 0 1 2.25 1.58l6.55 9 .09-.1s-4.47-6.64-5.84-8.62a1.4 1.4 0 0 1 0-1.85 73.67 73.67 0 0 1 27.97-17.62c13.91-5 31.72-7.55 52.94-7.55 36.48 0 62.89 8.5 80.6 26a1.13 1.13 0 0 1 .21 1.57c-.67 1-4.38 7-5.74 9l.07.11c1.47-2.06 6.22-9 6.35-9.15a6.61 6.61 0 0 1 2.26-1.58c.39-.16 6.32-2.74 7.89-3.49z" fill="#fff"/><path d="m275.18 117 3.62 5.55a106.47 106.47 0 0 0 9.84-7.51c4.11-3.63 4-3.81 7.41-7.69l-4.16-4.78a2.23 2.23 0 0 1 -.72 1.83 109.37 109.37 0 0 1 -14.35 12.24 1.85 1.85 0 0 1 -1.64.36z" fill="url(#x)" fill-rule="evenodd"/><path d="m112.69 147.91a.14.14 0 0 1 -.12-.07c0-.05-3-5.46-4.24-8.44s-4-10.57-4-10.64a.13.13 0 1 1 .25-.09c0 .07 2.75 7.66 4 10.63s4.2 8.36 4.23 8.42a.12.12 0 0 1 0 .18z"/><path d="m222.34 284.57-36 .13v11.75l19.01-.04z"/><path d="m195.5 326.14h36.05v-11.81l-19.09.02z"/><path d="m262.91 284.43-34.05.12-47 32.76v-17.71c0-12.25-3-14.88-17.15-14.83l-28.9.1v10.82l28.9-.07c4.3 0 4.69.08 4.69 3.34v.04l-21.42.05c-10.24 0-15.65 4.71-15.65 13.56s5.41 13.51 15.65 13.51h41.02l47.09-32.75v32.75h26.81c18.78 0 23.82-4.41 23.82-20.9s-5.03-20.85-23.81-20.79zm-93.55 30.86h-21.42c-2.23 0-3.26-.91-3.26-2.86s1-2.86 3.26-2.87h21.42zm92.21-1h-13.09v-18h13.09c11.53 0 12.7 1.68 12.7 9s-1.17 9-12.7 9.02z"/><path d="m337.44 299.25c0-12.4-3.09-15.07-17.18-15l-28.87.11v11l28.87-.08c4.29 0 4.69.08 4.7 3.4v.05l-21.4.06c-10.24 0-15.63 4.76-15.61 13.72s5.43 13.7 15.67 13.7h33.88zm-33.83 15.92c-2.23 0-3.26-.92-3.27-2.9s1-2.9 3.26-2.91h21.4v5.81z"/><path d="m111.83 285-49.33.18v41h12.65v-29.25h14.85v29.25h12.73v-29.32h8.8c5.09 0 6.12 1 6.12 5.82v23.48h12.77v-23.7c0-13.96-3.83-17.56-18.59-17.46z"/><path d="m0 0h400v400h-400z" fill="none"/></svg>