<svg viewBox="0 0 400 400" xmlns="http://www.w3.org/2000/svg" xmlns:xlink="http://www.w3.org/1999/xlink"><linearGradient id="a" gradientTransform="matrix(1 0 0 -1 0 -598)" gradientUnits="userSpaceOnUse" x1="143.8" x2="256.2" y1="-710.49" y2="-804.63"><stop offset="0" stop-color="#fff"/><stop offset=".86"/></linearGradient><linearGradient id="b" gradientTransform="matrix(1 0 0 -1 0 -598)" gradientUnits="userSpaceOnUse" x1="147.25" x2="252.62" y1="-713.21" y2="-801.72"><stop offset="0"/><stop offset=".2" stop-color="#4c4c4c"/><stop offset=".5" stop-color="#7d7d7d"/><stop offset=".5" stop-color="#808080"/><stop offset=".7" stop-color="#b2b2b2"/><stop offset="1" stop-color="#e5e5e5"/></linearGradient><linearGradient id="c" gradientTransform="matrix(1 0 0 -1 0 -598)" gradientUnits="userSpaceOnUse" x1="167.69" x2="232.31" y1="-701.6" y2="-813.52"><stop offset="0" stop-color="#e1e1e1"/><stop offset=".1" stop-color="#c3c3c3"/><stop offset=".3" stop-color="#9e9e9e"/><stop offset=".5" stop-color="#828282"/><stop offset=".7" stop-color="#6e6e6e" stop-opacity="0"/><stop offset=".8" stop-color="#636363" stop-opacity="0"/><stop offset="1" stop-color="#5f5f5f" stop-opacity="0"/></linearGradient><linearGradient id="d" gradientTransform="matrix(1 0 0 -1 0 -598)" gradientUnits="userSpaceOnUse" x1="229.24" x2="225.26" y1="-774.87" y2="-781.43"><stop offset="0"/><stop offset="1" stop-opacity="0"/></linearGradient><linearGradient id="e" gradientTransform="matrix(1 0 0 -1 0 -598)" gradientUnits="userSpaceOnUse" x1="217.75" x2="211.19" y1="-750.8" y2="-740.26"><stop offset=".1"/><stop offset=".9" stop-opacity="0"/></linearGradient><linearGradient id="f" gradientTransform="matrix(1 0 0 -1 0 -598)" gradientUnits="userSpaceOnUse" x1="199.96" x2="190.12" y1="-767.71" y2="-770.52"><stop offset=".2"/><stop offset=".9" stop-opacity="0"/></linearGradient><linearGradient id="g" gradientTransform="matrix(1 0 0 -1 0 -598)" gradientUnits="userSpaceOnUse" x1="173.75" x2="172.35" y1="-780.75" y2="-777.24"><stop offset="0"/><stop offset=".1"/><stop offset="1" stop-opacity="0"/></linearGradient><linearGradient id="h" gradientTransform="matrix(1 0 0 -1 0 -598)" gradientUnits="userSpaceOnUse" x1="208.43" x2="200.47" y1="-722.94" y2="-723.87"><stop offset=".3" stop-color="#111"/><stop offset=".8" stop-color="#111" stop-opacity="0"/></linearGradient><linearGradient id="i" gradientTransform="matrix(1 0 0 -1 0 -598)" gradientUnits="userSpaceOnUse" x1="208.68" x2="203.3" y1="-722.8" y2="-723.51"><stop offset=".4"/><stop offset="1" stop-opacity="0"/></linearGradient><linearGradient id="j" gradientTransform="matrix(1 0 0 -1 0 -598)" gradientUnits="userSpaceOnUse" x1="124.23" x2="189.56" y1="-759.51" y2="-797.2"><stop offset="0" stop-color="#2e2e2e" stop-opacity="0"/><stop offset="0" stop-opacity="0"/><stop offset=".1"/></linearGradient><linearGradient id="k" gradientTransform="matrix(1 0 0 -1 0 -598)" gradientUnits="userSpaceOnUse" x1="199.88" x2="199.88" y1="-770.2" y2="-758.96"><stop offset=".3" stop-color="#b2b2b2"/><stop offset="1" stop-color="#b2b2b2" stop-opacity="0"/></linearGradient><linearGradient id="l" gradientTransform="matrix(1 0 0 -1 0 -598)" gradientUnits="userSpaceOnUse" x1="236.65" x2="236.65" y1="-688.01" y2="-830.85"><stop offset="0" stop-color="#dedede"/><stop offset="0" stop-color="#c7c7c7"/><stop offset="0" stop-color="#a2a2a2"/><stop offset="0" stop-color="#868686"/><stop offset="0" stop-color="#777"/><stop offset="0" stop-color="#808080"/><stop offset="1"/></linearGradient><linearGradient id="m" gradientTransform="matrix(1 0 0 -1 0 -598)" gradientUnits="userSpaceOnUse" x1="259.22" x2="227.6" y1="-701.58" y2="-747.94"><stop offset=".7"/><stop offset=".8" stop-color="#6b6b6b" stop-opacity="0"/><stop offset=".8" stop-color="#8b8b8b" stop-opacity="0"/><stop offset=".8" stop-color="#b3b3b3" stop-opacity="0"/><stop offset=".8" stop-color="#e1e1e1" stop-opacity="0"/><stop offset=".8" stop-color="#fff" stop-opacity="0"/></linearGradient><path d="m99.63 283.18c-3.38 0-6.1 2.14-7.6 5.91a38.26 38.26 0 0 0 -.58-6.17 44.08 44.08 0 0 1 -8.57 1.56v1.1c4.55.07 4.61.19 4.61 4.22v20.2c0 2.79-.71 3.31-4.67 3.51v1.3a65.16 65.16 0 0 1 7.27-.39 66.79 66.79 0 0 1 7.27.39v-1.3c-4-.2-4.68-.72-4.68-3.51v-13.58c0-6.43 2.14-10.51 5.58-10.51 1.11 0 1.95.64 1.95 1.55a2 2 0 0 1 -.06.59 4.46 4.46 0 0 0 -.26 1.36 2.4 2.4 0 0 0 2.66 2.14c1.68 0 2.72-1.23 2.72-3.11 0-3.05-2.33-5.26-5.64-5.26z"/><path d="m121.37 313.16c-5 0-7.53-4.6-7.53-13.69s2.79-14.54 7.72-14.54a6.82 6.82 0 0 1 6 3.76 15.93 15.93 0 0 1 1.55 4.61h1.43v-10.71h-1.17l-1.68 3.32a8.74 8.74 0 0 0 -6.63-2.73c-7.59 0-12.85 6.62-12.85 16.35 0 9.42 5.07 15.78 12.66 15.78 5.84 0 9.54-3.77 10.32-10.71h-2.6c-.79 5.71-3.2 8.56-7.22 8.56z"/><path d="m396.11 309.79c-1.63 2.53-2.8 3.11-6.17 3.11h-7.59l17.65-28.9h-21.55l-1.45 8.39h1.36c2.27-5.84 3.31-6.74 7.53-6.74h7.2l-17.58 28.94h22.32l1.69-9.34h-1.36a23.18 23.18 0 0 1 -2.05 4.54z"/><path d="m150.25 313.1c-3.5 0-6-1.75-7.33-5.26-.78-2.08-1.11-4.41-1.24-9.28h19.32c-.19-9.73-4.48-15.25-11.81-15.25-7.6 0-12.72 6.42-12.72 15.9 0 9.87 5.06 16 13 16 6.49 0 10.78-4 11.56-10.64h-2.54c-.77 5.54-3.69 8.53-8.24 8.53zm-1.17-28.1c4.16 0 6.36 3.63 6.69 11.22h-14c.69-7.46 3.09-11.22 7.31-11.22z"/><path d="m43.81 309-.65-32-.06-.52c-.2-2.66 1-3.5 5.38-3.83v-1.55c-2.4.19-3.5.26-5.12.26a62.29 62.29 0 0 1 -6.23-.33l-12.21 32.85-12.07-32.88a50.86 50.86 0 0 1 -6.16.33c-1.76 0-2.86-.07-5.33-.26v1.62a9.7 9.7 0 0 1 3.77.65c1.17.45 1.75 1.62 1.62 3.24l-.06.39-1.3 32.03c-.2 3.44-.85 3.95-5.39 4.28v1.56c3.25-.26 4.74-.33 6.56-.33s3.24.07 6.36.33v-1.56c-4.48-.33-5.33-.91-5.33-3.77v-.51l1.3-33.82 10.58 28.82c.59 1.62 1.17 3.24 1.75 4.8l1.56 4.61h1c1.55-4.48 1.62-4.61 2.2-6.17s.85-2.33 1-3l10.77-28.95.52 33.62v.32c0 3.06-1 3.77-5.38 4v1.56c4-.33 5.77-.46 8.17-.46s4.16.13 8.12.46v-1.56c-4.59-.23-5.37-.91-5.37-4.23z"/><path d="m67.63 313.1c-3.5 0-6-1.75-7.33-5.26-.78-2.08-1.11-4.41-1.24-9.28h19.28c-.2-9.73-4.48-15.25-11.81-15.25-7.6 0-12.73 6.42-12.73 15.9 0 9.87 5.07 16 13 16 6.49 0 10.78-4 11.55-10.64h-2.48c-.78 5.54-3.7 8.53-8.24 8.53zm-1.17-28.1c4.15 0 6.36 3.63 6.69 11.22h-14c.69-7.46 3.09-11.22 7.31-11.22z"/><path d="m324.39 313.1c-3.51 0-6-1.75-7.34-5.26-.77-2.08-1.1-4.41-1.23-9.28h19.28c-.2-9.73-4.48-15.25-11.82-15.25-7.59 0-12.72 6.42-12.72 15.9 0 9.87 5.06 16 13.05 16 6.49 0 10.77-4 11.55-10.64h-2.53c-.78 5.54-3.7 8.53-8.24 8.53zm-1.17-28.1c4.15 0 6.36 3.63 6.68 11.22h-13.9c.6-7.46 3-11.22 7.22-11.22z"/><path d="m244.23 297.78c-4.54-2-5.06-2.2-6-2.66-2.66-1.36-3.63-2.53-3.63-4.61 0-3 2.66-5.32 6.1-5.32 4 0 6.23 2.47 6.81 7.66h1.49v-10.06h-1.1l-1.11 2.66a11.1 11.1 0 0 0 -6.62-2.08c-5.77 0-9.73 3.57-9.73 8.64 0 3.76 1.49 5.64 6.23 7.78 4 1.89 6.16 2.86 6.23 2.93 2.66 1.36 3.63 2.66 3.63 4.67 0 3.31-2.92 5.84-6.68 5.84a7.78 7.78 0 0 1 -7-4.15 16.39 16.39 0 0 1 -1.43-4.55h-1.42v10.84h1.11l1.55-2.85a12.69 12.69 0 0 0 7.86 2.66c6 0 10.38-3.9 10.38-9.35-.05-3.76-1.8-5.91-6.67-8.05z"/><path d="m213.21 313.1c-3.51 0-6-1.75-7.34-5.26-.78-2.08-1.1-4.41-1.23-9.28h19.28c-.2-9.73-4.48-15.25-11.82-15.25-7.59 0-12.72 6.42-12.72 15.9 0 9.87 5.07 16 13.05 16 6.49 0 10.77-4 11.55-10.64h-2.53c-.78 5.54-3.7 8.53-8.24 8.53zm-1.21-28.1c4.15 0 6.36 3.63 6.68 11.22h-13.91c.65-7.46 3.05-11.22 7.23-11.22z"/><path d="m254.16 295.77h16.68v2.92h-16.68z"/><path d="m295.7 291.49c4.67-1.82 7.07-5.07 7.07-9.61a10.5 10.5 0 0 0 -3.82-8.24c-2.21-1.69-4.74-2.34-9-2.34h-17.03v1.56c4.67.32 5.32.84 5.32 4.35v31.48c0 3.5-.52 3.95-5.32 4.34v1.56h16.36c4.86 0 7.59-.58 10.19-2.27a12.09 12.09 0 0 0 5.38-10.12c0-5.65-3.31-9.55-9.15-10.71zm-12-18.18h5.52c5.45 0 7.79 2.66 7.79 8.7 0 3-.72 5.26-2.14 6.82s-3.18 2.14-6.75 2.14h-4.42zm6.36 39.27h-2.4c-3.37 0-4-.52-4-3.31v-16.27h6.17c3.37 0 5.45.65 6.88 2.14s2.33 4.28 2.33 7.34c.03 6.52-3.21 10.1-8.99 10.1z"/><path d="m367.22 310v-15.59c0-3.05-.45-5.26-1.42-6.82a9.21 9.21 0 0 0 -8.05-4.22c-3.77 0-6.36 1.56-8.76 5.07a28.94 28.94 0 0 0 -.72-5.65 39.49 39.49 0 0 1 -8.57 1.95v1.17h.85c3.5.06 3.76.32 3.76 4v20.09c0 2.79-.65 3.31-4.67 3.51v1.3a60.68 60.68 0 0 1 7.07-.39 59.64 59.64 0 0 1 7 .39v-1.3c-3.37-.13-4.22-.78-4.22-3.38v-15.66c0-2.72.33-4.15 1.24-5.38a6.63 6.63 0 0 1 5.52-2.8 5.36 5.36 0 0 1 4.73 2.28c.78 1.23 1 2.66 1 5.64v15.9c0 2.6-.84 3.25-4.28 3.38v1.3a59.75 59.75 0 0 1 7-.39 61.12 61.12 0 0 1 7.14.39v-1.3c-3.9-.2-4.62-.72-4.62-3.49z"/><path d="m191 308v-37.41a55.8 55.8 0 0 1 -9.8 1.69v1.16c4.09 0 4.6.46 4.6 3.77v11.42c-2.4-3.89-4.28-5.06-7.78-5.06-6.95 0-11.82 6.55-11.82 15.9s5 15.9 12.08 15.9c3.63 0 6.16-1.69 8-5.32a24 24 0 0 0 .85 5.19 40.77 40.77 0 0 1 8.56-1.69v-1.1c-4.35-.13-4.69-.52-4.69-4.45zm-12.14 5.51c-4.74 0-7.2-4.93-7.2-14.15s2.33-14 6.94-14c4.8 0 7.27 4.93 7.27 14.6-.05 8.92-2.45 13.59-7.06 13.59z"/><path d="m273.29 159.56a73.29 73.29 0 1 1 -73.29-73.29 73.25 73.25 0 0 1 73.29 73.29zm-73.29-68.84a68.84 68.84 0 1 0 68.84 68.84 68.65 68.65 0 0 0 -68.84-68.84z" fill="url(#a)"/><path d="m200 90.72a68.84 68.84 0 1 0 68.84 68.84 68.65 68.65 0 0 0 -68.84-68.84zm0 133.28a64.39 64.39 0 1 1 64.39-64.39 64.35 64.35 0 0 1 -64.39 64.39z" fill="url(#b)"/><path d="m200 232.85a73.29 73.29 0 1 0 -73.29-73.29 73.25 73.25 0 0 0 73.29 73.29zm0-148.22a74.93 74.93 0 1 1 -74.93 74.93 75.15 75.15 0 0 1 74.93-74.93z"/><path d="m130.22 159.79c0-38.4 31.14-70 69.78-70a69.85 69.85 0 0 1 69.78 70 69.61 69.61 0 0 1 -69.78 69.55 69.61 69.61 0 0 1 -69.78-69.55zm21.78-48.23a68.16 68.16 0 0 0 -20.14 48.23 68 68 0 0 0 19.9 48 69 69 0 0 0 48.24 19.91 67 67 0 0 0 48-19.91 67 67 0 0 0 19.9-48 68.92 68.92 0 0 0 -19.9-48.23 67.2 67.2 0 0 0 -48-20.14 67.2 67.2 0 0 0 -48 20.14z" fill="#fff"/><path d="m200 224.19a64.77 64.77 0 1 1 45.66-19 64.14 64.14 0 0 1 -45.66 19zm0-1.88a62.52 62.52 0 1 0 -44.26-106.77 60.86 60.86 0 0 0 -18.49 44 62.75 62.75 0 0 0 62.75 62.77z" fill="url(#c)" opacity=".4"/><path d="m256.9 190c-1.17-.94-46.36-36.76-46.36-36.76l-10.54-60.18a4 4 0 0 0 -2.11 1.87l-7.49 58.54-46.6 35.83s-.93 1.17-1.4 1.87a4.46 4.46 0 0 0 -.24 1.87l57.61-23.65 57.6 23.61a3.32 3.32 0 0 0 -.47-3z" fill="#fff"/><path d="m200.47 161.43-.47 10.77 52.92 21.31a4.2 4.2 0 0 0 4.68-.47l-56.43-31.84a.45.45 0 0 0 -.7.23z" fill="#666"/><path d="m200.47 161.43a55.59 55.59 0 0 0 6.55 9.13 54.13 54.13 0 0 0 11.48 9.14l34.42 13.81a4.2 4.2 0 0 0 4.68-.47l-56.43-31.84a.45.45 0 0 0 -.7.23z" fill="url(#d)"/><path d="m257.37 190.94c0-.24-.24-.47-.47-.94l-48.24-35.36-6.55 4.22s.47.23.7 0a5.79 5.79 0 0 1 3.51 0c1.17.46 51.05 32.31 51.05 32.31z" fill="#a6a6a6" fill-opacity=".6"/><path d="m255.73 188.83-45-35.59-2.11 1.4 48.24 35.59a6 6 0 0 0 -1.13-1.4z" fill="#4c4c4c"/><path d="m201.17 157.92-.23.23s0 .47.46.24c.24-.24 7-3.75 9.37-5.15l-8.19-56.24a4.11 4.11 0 0 0 -2.81-3.75l.93 65.1z" fill="#4c4c4c"/><path d="m197.19 97v3l-5.19 51.83a2.1 2.1 0 0 0 .94 1.87l3 2.35 2.11-57.14.23-4.45c-.62.47-.86 1.41-1.09 2.54z" fill="#a6a6a6" fill-opacity=".6"/><path d="m194.38 157-2.81-2.34-47.57 34.4s-1.41.94-1.64 1.88l1.64-.94 49.87-31.38c.98-.47 1.21-.93.51-1.62z" fill="#a6a6a6" fill-opacity=".6"/><path d="m199.3 161.43c0-.23-.24-.47-.47-.23l-56.67 32.08a4.74 4.74 0 0 0 4.69.47l52.92-21.31z" fill="#666"/><path d="m200.94 158.15.23-.23-.23.23a.23.23 0 0 0 .23.24h.23c.24-.24 7-3.75 9.37-5.15l-.94-6.79-7.25-49.45a2.86 2.86 0 0 0 -.71-2.11s3.52 47.3 3.52 52.45a15.28 15.28 0 0 1 -4.45 10.81z" fill="url(#e)"/><path d="m199.3 161.43c0-.23-.24-.47-.47-.23l-56.67 32.08a4.74 4.74 0 0 0 4.69.47l52.92-21.31z" fill="url(#f)" fill-opacity=".8"/><path d="m146.85 193.51 52.92-21.31-.47-10.3a13.46 13.46 0 0 1 -7 8.2c-3.28 1.87-34.65 17.32-45.89 22.71a15.14 15.14 0 0 1 -2.11.94 2.59 2.59 0 0 0 2.55-.24z" fill="url(#g)" opacity=".8"/><path d="m201.17 157.92-.23.23s0 .47.46.24c.24-.24 7-3.75 9.37-5.15l-8.19-56.24a4.11 4.11 0 0 0 -2.81-3.75l.93 65.1z" fill="url(#h)"/><path d="m201.17 157.92-.23.23s0 .47.46.24c.24-.24 7-3.75 9.37-5.15l-8.19-56.24a4.11 4.11 0 0 0 -2.81-3.75l.93 65.1z" fill="url(#i)"/><path d="m137 188.59c-1.64-3.74-11-22-.7-57.13h-4c-2.11 7-3.75 11.24-4.68 17.56 0 0-.47 2.34-.71 4.92a54.16 54.16 0 0 0 -.23 5.62c0 14.05 3.51 22.24 3.51 22.24a68.36 68.36 0 0 0 19.23 30.2c7.73 6.79 19.67 11.94 29.51 13.81-1.64-.22-29.74-12.16-41.93-37.22z" fill="url(#j)"/><path d="m200.94 161h-2.11c.23 0 .47 0 .47.24l.47 10.77h.23l.47-10.77c0-.24.23-.47.47-.24z" fill="url(#k)"/><path d="m223.42 90c24.58 9.37 47.76 35.13 47.76 67.68a71 71 0 0 1 -71.18 71.42v3.75c39.81 0 73.29-32.78 73.29-73.29a73.34 73.34 0 0 0 -49.87-69.56z" fill="url(#l)"/><path d="m262.75 131.93c-16.39-37.7-53.38-39.81-55.49-40h-.26c28.36 5.07 46.39 23.61 52.71 43.07v.24a73.62 73.62 0 0 1 4.45 24.11 64.14 64.14 0 0 1 -5.16 25.73c-.24 1.17-.47 2.58-.71 2.58h3.75c11.25-21.08 6.33-42.38.71-55.73z" fill="url(#m)"/><path d="m130.22 159.79c0-38.4 31.14-70 69.78-70a69.85 69.85 0 0 1 69.78 70 69.61 69.61 0 0 1 -69.78 69.55 69.61 69.61 0 0 1 -69.78-69.55zm21.78-48.23a68.16 68.16 0 0 0 -20.14 48.23 68 68 0 0 0 19.9 48 69 69 0 0 0 48.24 19.91 67 67 0 0 0 48-19.91 67 67 0 0 0 19.9-48 68.92 68.92 0 0 0 -19.9-48.23 67.2 67.2 0 0 0 -48-20.14 67.2 67.2 0 0 0 -48 20.14z" fill="#fbfbfb"/><path d="m143.57 189.53 47.77-34.42a48.7 48.7 0 0 0 7.26 3.28c.46.23.46-.24.46-.24l-5.85-4.91a2.14 2.14 0 0 1 -.94-1.88l5.62-56.43c-.23.24-.23.7-.47.94a2.14 2.14 0 0 0 -.23 1.17l-8.19 56.43-45 35.36c-.2.23-.43.47-.43.7z"/><path d="m0 0h400v400h-400z" fill="none"/></svg>