<svg viewBox="0 0 400 400" xmlns="http://www.w3.org/2000/svg"><g stroke="#000" stroke-miterlimit="10" stroke-width="7.5"><path d="m168.28 106.78-2.72.06-22.56 63.45-.6 1.7c-.38.78-1 1.54-1.8 1.58a2.06 2.06 0 0 1 -1.56-.87l-1.48-2.7-14.71-27.3-12.85 13.93v87l15.88 14.14v-64.84c0-.61.24-1.85 1.17-2.07s1.75.71 2.07 1.23c.12.2.2.35.2.35l14.93 27.69 19.44-45.13 1.17-2.73v-.11a1.85 1.85 0 0 1 2.07-1.25 1.77 1.77 0 0 1 1.29 1.9v120.59h18.89v-186.67h-18.83z"/><path d="m236 106.73h-22.61v186.67h18.89 3.46l55.54-55.81-.38-31.94v-8.65h-39.7v17.31h23.18v19.21l-37.81 38c-.62.61-2 1.63-3 1.31-1.25-.41-1.31-2.41-1.31-2.41v-139.08a3.37 3.37 0 0 1 1.57-2.82c1.31-.64 2.64.24 3.46 1l.78.87 36.1 39.67v10.26h17.07c0-5 0-10.2 0-15.25z"/><path d="m327.35 149.47v-2.44l-1.68-1.68-71.35-71.17-1.73-1.68h-2.39l-100.74.11h-2.4l-1.72 1.69-71.12 71.41-1.72 1.68v2.4l.15 100.78v2.4l1.73 1.68 71.33 71.17 1.69 1.68h2.4l100.77-.11h2.43l1.68-1.69 71.15-71.38 1.69-1.68v-2.4zm-79.23 166.31-96 .12-67.9-67.77-.08-96 67.72-67.93 95.93-.11 68 67.77.12 96z"/></g><path d="m0 0h400v400h-400z" fill="none"/></svg>