<svg viewBox="0 0 400 400" xmlns="http://www.w3.org/2000/svg"><path d="m397.83 153q-61.08 0-122.16 0a2.56 2.56 0 0 1 -2.47-1.3c-18.74-28.6-52.93-43.92-86.53-38.52-25.51 4.1-45.46 17.11-60 38.44a2.69 2.69 0 0 1 -2.56 1.39q-61.11-.06-122.11-.01h-2c.57.6.88 1 1.22 1.3 3.35 3.35 6.74 6.68 10 10.07a3.55 3.55 0 0 0 2.8 1.18q51.48 0 103 0h1.86c-1.6 4.9-3.14 9.67-4.78 14.69h-86.95c3.94 3.95 7.63 7.58 11.23 11.28a3.72 3.72 0 0 0 2.94 1.22q34.47 0 68.92 0h2v14.56h-57.88c.53.58.84.94 1.17 1.27 3.35 3.36 6.74 6.67 10 10.09a3.6 3.6 0 0 0 2.91 1.22q22.08 0 44.15 0h1.5c1.62 5 3.18 9.77 4.77 14.69h-37.34c.49.53.77.86 1.07 1.16 3.49 3.49 7 7 10.45 10.49a2.93 2.93 0 0 0 2.31.92h28.89a2.4 2.4 0 0 1 2.37 1.21 80.54 80.54 0 0 0 15.23 17.55c22.23 19 47.8 25.9 76.43 20 23.39-4.83 41.58-17.77 54.93-37.52a2.48 2.48 0 0 1 2.37-1.23q14.52.06 29 0a3.38 3.38 0 0 0 2.13-.89c3.6-3.51 7.12-7.11 10.67-10.68a10 10 0 0 0 .81-1h-37.18c1.59-4.88 3.15-9.68 4.74-14.6h1.66q22.14 0 44.28 0a3.14 3.14 0 0 0 2.06-.71c3.72-3.6 7.36-7.3 11-11a7 7 0 0 0 .67-.94h-57.77v-14.65h1.91q34.54 0 69.08 0a3.38 3.38 0 0 0 2.69-1.08c3.35-3.43 6.76-6.79 10.14-10.18.33-.33.62-.69 1.16-1.29h-2.17q-41.65 0-83.3 0c-1.33 0-1.75-.42-2.12-1.68-1.16-4-2.54-7.88-3.84-11.82-.11-.34-.21-.69-.35-1.16h2.05q51.47 0 102.94 0a3.38 3.38 0 0 0 2.68-1.12c2.89-3 5.85-5.89 8.8-8.83.78-.78 1.58-1.53 2.69-2.59zm-198.74 122.29a75.28 75.28 0 1 1 76.1-75 75.37 75.37 0 0 1 -76.1 75z"/><path d="m173 180.11a1.68 1.68 0 0 0 -1.93 1.42q-4.34 13.91-8.76 27.77c-.22.7-.45 1.38-.78 2.38-.29-.82-.46-1.28-.61-1.73q-4.5-14.08-9-28.18c-.34-1.08-.69-1.76-2.06-1.66-1.94.14-3.91 0-5.86 0h-4v39.63h7.65v-28.49a5.81 5.81 0 0 1 .84 1.74c2.75 8.54 5.51 17.08 8.22 25.64.3.93.67 1.32 1.71 1.27a52.08 52.08 0 0 1 5.86 0c1.29.08 1.74-.46 2.1-1.6 2.68-8.61 5.43-17.21 8.16-25.81.11-.34.26-.67.39-1h.27v28.31h7.8c0-13.26 0-26.38 0-39.66-3.4 0-6.71.05-10-.03z"/><path d="m234.86 208.15a3 3 0 0 1 -1.07-1.24q-7-12.76-14.07-25.51c-.27-.49-.8-1.18-1.24-1.19-3-.11-5.93-.06-9-.06v39.63h7.72v-27.78a5.21 5.21 0 0 1 1.31 1.64q6.93 12.57 13.86 25.13c.25.43.67 1.07 1 1.08 3.06.08 6.12.05 9.22.05v-39.6h-7.78z"/><path d="m192.25 219.79h8.05v-39.53h-8.05z"/><path d="m251.82 219.76h8.05v-39.5h-8.05z"/><path d="m0 0h400v400h-400z" fill="none"/></svg>