<svg viewBox="0 0 400 400" xmlns="http://www.w3.org/2000/svg"><path d="m99.16 299.59v-37.07h-10.97l-8.56 15.09-8.77-15.09h-10.76v37.07h8.31v-26.06l11.22 18.65 11.17-18.65v26.06z"/><path d="m106.21 262.52h8.3v37.08h-8.3z"/><path d="m136.49 299.59v-29.34h10.03v-7.73h-28.4v7.73h10.02v29.34z"/><path d="m160.62 292.43a61.91 61.91 0 0 1 -11-1v7.72a66 66 0 0 0 11 1c9.92 0 14.52-3.45 14.52-10.81 0-7.05-5-9.34-11.13-12.11-4.06-1.83-6.78-2.87-6.78-5s1-2.57 6-2.57a95 95 0 0 1 10.12.73v-7.73a82.5 82.5 0 0 0 -10.35-.66c-9.29 0-14 2.66-14 10.39 0 6.26 4.32 8.61 10.18 11.28s7.83 3.13 7.83 5.85c.04 2.34-2.1 2.91-6.39 2.91z"/><path d="m209.7 262.52h-8.3v24.23c0 4.23-2.56 5.69-6.53 5.69s-6.47-1.46-6.47-5.69v-24.23h-8.3v24.54c0 9 5.85 13.05 14.77 13.05s14.83-4.11 14.83-13.05z"/><path d="m238.84 280.22c2.81-1.09 5.9-2.77 5.9-8.15 0-6.78-4.17-9.55-11.75-9.55h-16.18v37.08h16.75c8.2 0 12.11-3.87 12.11-10.35 0-6.25-3.49-8.03-6.83-9.03zm-13.72-10.7h6.68c3.08 0 4.54.79 4.54 3.76 0 2.45-1.2 4.23-4.54 4.23h-6.68zm7.25 23.08h-7.26v-8.51h7.63c3.08 0 4.33 1.2 4.33 4.07 0 3.24-1.36 4.44-4.7 4.44z"/><path d="m250.71 262.52h8.3v37.08h-8.3z"/><path d="m290.6 289.3c0-7.05-5-9.34-11.12-12.11-4.07-1.83-6.79-2.87-6.79-5s1-2.57 6-2.57a95.22 95.22 0 0 1 10.13.73v-7.73a82.65 82.65 0 0 0 -10.34-.67c-9.29 0-14 2.66-14 10.39 0 6.26 4.34 8.61 10.18 11.28 6 2.76 7.83 3.13 7.83 5.85 0 2.35-2.14 2.92-6.42 2.92a61.79 61.79 0 0 1 -11-1v7.72a65.91 65.91 0 0 0 11 1c9.93 0 14.53-3.45 14.53-10.81z"/><path d="m316.5 277.14h-13.17v-14.62h-8.3v37.07h8.3v-14.72h13.17v14.72h8.3v-37.07h-8.3z"/><path d="m331.59 262.52h8.3v37.08h-8.3z"/><path d="m118.56 327.5-8.77-15.09h-10.77v37.08h8.31v-26.06l11.23 18.64 11.17-18.64v26.06h8.36v-37.08h-10.97z"/><path d="m159.76 311.89c-10.92 0-16 5.79-16 19.05s5.06 19.07 16 19.06 16-5.79 16-19.06-5.08-19.05-16-19.05zm0 30.54c-6.06 0-7.36-3.86-7.36-11.49s1.3-11.37 7.36-11.37 7.36 3.8 7.36 11.37-1.3 11.49-7.36 11.49z"/><path d="m177.09 320.14h10.03v29.35h8.35v-29.35h10.03v-7.73h-28.41z"/><path d="m222.84 311.89c-10.91 0-16 5.79-16 19.05s5.07 19.07 16 19.06 16-5.79 16-19.06-5.08-19.05-16-19.05zm0 30.54c-6.05 0-7.36-3.86-7.36-11.49s1.31-11.37 7.36-11.37 7.36 3.8 7.36 11.37-1.3 11.49-7.36 11.49z"/><path d="m272.6 324.31c0-8.93-5.06-11.9-13-11.9h-15v37.07h8.3v-13.27h3.71l7.83 13.27h9.71l-9.15-14.57c4.73-1.15 7.6-4.86 7.6-10.6zm-13.52 4.69h-6.21v-9.45h6.21c3.76 0 4.91 1.87 4.91 4.74s-1.15 4.71-4.91 4.71z"/><path d="m292 327.08c-4.07-1.83-6.79-2.87-6.79-5s1-2.55 6-2.55a95.54 95.54 0 0 1 10.12.72v-7.73a82.5 82.5 0 0 0 -10.34-.67c-9.29 0-14 2.66-14 10.39 0 6.26 4.32 8.61 10.18 11.28s7.83 3.13 7.83 5.85c0 2.35-2.13 2.92-6.42 2.92a61.91 61.91 0 0 1 -11-1v7.71a65.94 65.94 0 0 0 11 1c9.93 0 14.52-3.44 14.52-10.8.01-7.06-5.01-9.35-11.1-12.12z"/><path d="m199.59 50-35.5 61.5 35.5 61.52 35.52-61.52z"/><path d="m306.13 234.53-35.51-61.51h-71.03l35.52 61.51z"/><path d="m199.59 173.02h-71.02l-35.51 61.51h71.03z"/><path d="m0 0h400v400h-400z" fill="none"/></svg>