<svg viewBox="0 0 400 400" xmlns="http://www.w3.org/2000/svg"><path d="m128.82 101.39c2.66-1.89 3.29-3.44 1.08-6.87s-3.79-3.35-6.45-1.47-3.22 3.45-1.09 6.77 3.83 3.43 6.46 1.57z"/><path d="m179.17 75.49c1.54-.32 2.44-1 2-2.87s-1.52-2.13-3-1.8l-4.3.91.89 4.7z"/><path d="m377.59 207.41-39.42-2.32h-.68v-.68c.06-1.69.07-3.07.07-4.38 0-75.82-61.68-137.5-137.5-137.5a137.1 137.1 0 0 0 -133.53 104.72l-.13.52-26.68.53a2.88 2.88 0 0 0 -1.58.65 87.4 87.4 0 0 0 -8.46 10.25 97.87 97.87 0 0 0 -7.68 11.7.3.3 0 0 0 0 .13h.11l40.65 2.87v.68c-.08 2-.13 3.78-.13 5.41 0 75.82 61.69 137.5 137.5 137.5a136.85 136.85 0 0 0 133.87-106.18l.13-.52h.53l26.42-1a1.06 1.06 0 0 0 .8-.3c1.14-1.41 6.95-8.6 9.13-11.63 1.72-2.4 4.76-7 7-10.35a1.15 1.15 0 0 0 -.42-.1zm-109-105.6 7-10.39a1.09 1.09 0 0 1 1.8-.31l2.39 1.78a.44.44 0 0 1 .11.66l-6.32 9.45 7.59 5.64-2.47.84c-.19.06-.39.18-.62 0l-9.36-7a.45.45 0 0 1 -.1-.67zm-43.39-32.57c.1-.29.27-.41.55-.33l13.33 3.56-2 1.81a.44.44 0 0 1 -.52.12l-7.64-2-.92 3.25 7.61 2-1.88 1.61a.43.43 0 0 1 -.48.1l-5.86-1.57-1 3.49 10.08 2.72-2 1.68c-.21.17-.31.31-.58.24l-12.34-3.3c-.31-.09-.41-.26-.31-.57zm-55.95.86 10.29-2.16c2.25-.47 5 0 6 3.78s-1.44 5.32-3.8 5.82l-6.51 1.36.6 3.12a1.18 1.18 0 0 1 -1.05 1.59l-2.9.61a.4.4 0 0 1 -.54-.37l-2.41-13.21a.42.42 0 0 1 .32-.54zm-47.25 20.72c5.43-3.84 8.75-3.7 11.74.94s1.79 7.95-3.59 11.76-8.7 3.7-11.69-.94-1.83-7.94 3.54-11.76zm188.27 141.78a115.78 115.78 0 0 1 -40.82 59 114.9 114.9 0 0 1 -184.27-91.6c0-1.13 0-2.32.08-3.77v-.72l77.81 5.49-42.94 34h.13c.87 0 162.05-2.28 189.3-3.3h1zm4.67-29.6v.71l-78-4.59 45.05-35.67-192 3.84.27-.92a115.82 115.82 0 0 1 40.93-58.28 113.85 113.85 0 0 1 69-23 115 115 0 0 1 114.81 114.91c0 1 0 2-.06 3z"/><path d="m0 0h400v400h-400z" fill="none"/></svg>