<svg viewBox="0 0 400 400" xmlns="http://www.w3.org/2000/svg" xmlns:xlink="http://www.w3.org/1999/xlink"><linearGradient id="a" gradientUnits="userSpaceOnUse" x1="269.75" x2="217.41" y1="100.38" y2="180.55"><stop offset=".2" stop-color="#adadad"/><stop offset=".21" stop-color="#a6a6a6"/><stop offset=".24" stop-color="#747474"/><stop offset=".27" stop-color="#4a4a4a"/><stop offset=".29" stop-color="#2a2a2a"/><stop offset=".32" stop-color="#131313"/><stop offset=".35" stop-color="#050505"/><stop offset=".37"/><stop offset=".44" stop-color="#060606"/><stop offset=".54" stop-color="#171717"/><stop offset=".64" stop-color="#323232"/><stop offset=".76" stop-color="#595959"/><stop offset=".81" stop-color="#6c6c6c"/><stop offset="1"/></linearGradient><linearGradient id="b" gradientUnits="userSpaceOnUse" x1="122.73" x2="132.21" y1="158.58" y2="136.85"><stop offset=".03" stop-color="#707070"/><stop offset=".2" stop-color="#707070"/><stop offset=".99"/></linearGradient><linearGradient id="c" gradientUnits="userSpaceOnUse" x1="252.24" x2="240.55" y1="106.4" y2="105.29"><stop offset=".2"/><stop offset=".26" stop-color="#020202"/><stop offset=".28" stop-color="#090909"/><stop offset=".29" stop-color="#141414"/><stop offset=".31" stop-color="#252525"/><stop offset=".32" stop-color="#3b3b3b"/><stop offset=".33" stop-color="#575757"/><stop offset=".34" stop-color="#777"/><stop offset=".34" stop-color="#9d9d9d"/><stop offset=".35" stop-color="#c8c8c8"/><stop offset=".36" stop-color="#f6f6f6"/><stop offset=".36" stop-color="#fff"/><stop offset=".82"/><stop offset="1"/></linearGradient><linearGradient id="d" gradientUnits="userSpaceOnUse" x1="147.12" x2="156.73" y1="170.05" y2="148.03"><stop offset="0" stop-color="#adadad"/><stop offset=".07" stop-color="#9a9a9a"/><stop offset=".18" stop-color="#838383"/><stop offset=".28" stop-color="#757575"/><stop offset=".37" stop-color="#707070"/><stop offset=".99"/></linearGradient><linearGradient id="e" gradientUnits="userSpaceOnUse" x1="240.63" x2="68.91" y1="273.83" y2="99.14"><stop offset=".08" stop-color="#333"/><stop offset=".12" stop-color="#474747"/><stop offset=".17" stop-color="#0a0a0a"/><stop offset=".31" stop-color="#333"/><stop offset=".47" stop-color="#ebebeb"/><stop offset=".7" stop-color="#ebebeb"/><stop offset=".71" stop-color="#dcdcdc"/><stop offset=".74" stop-color="#b3b3b3"/><stop offset=".79" stop-color="#737373"/><stop offset=".84" stop-color="#1a1a1a"/><stop offset=".84" stop-color="#121212"/><stop offset=".96"/></linearGradient><radialGradient id="f" cx="166.33" cy="121.93" gradientUnits="userSpaceOnUse" r="39.16"><stop offset=".04" stop-color="#fff"/><stop offset=".47" stop-color="#fff"/><stop offset=".51" stop-color="#fbfbfb"/><stop offset=".55" stop-color="#eee"/><stop offset=".59" stop-color="#dadada"/><stop offset=".63" stop-color="#bdbdbd"/><stop offset=".68" stop-color="#979797"/><stop offset=".72" stop-color="#6a6a6a"/><stop offset=".75" stop-color="#474747"/><stop offset=".85" stop-color="#0a0a0a"/><stop offset="1"/></radialGradient><radialGradient id="g" cx="175.11" cy="164.39" gradientTransform="matrix(1 0 0 .96 0 -44.38)" gradientUnits="userSpaceOnUse" r="13.83"><stop offset=".04" stop-color="#fff"/><stop offset=".23" stop-color="#fff"/><stop offset=".29" stop-color="#f6f6f6"/><stop offset=".4" stop-color="#dcdcdc"/><stop offset=".54" stop-color="#b3b3b3"/><stop offset=".7" stop-color="#797979"/><stop offset=".89" stop-color="#313131"/><stop offset="1"/></radialGradient><radialGradient id="h" cx="166.47" cy="92.32" gradientUnits="userSpaceOnUse" r="16.26"><stop offset=".23" stop-color="#fff"/><stop offset=".57" stop-color="#efefef"/><stop offset=".86"/></radialGradient><radialGradient id="i" cx="193.72" cy="124.05" gradientUnits="userSpaceOnUse" r="54.78"><stop offset=".04" stop-color="#fff"/><stop offset=".25" stop-color="#fff"/><stop offset=".27" stop-color="#fbfbfb"/><stop offset=".28" stop-color="#eee"/><stop offset=".3" stop-color="#dadada"/><stop offset=".31" stop-color="#bdbdbd"/><stop offset=".33" stop-color="#979797"/><stop offset=".34" stop-color="#6a6a6a"/><stop offset=".35" stop-color="#5c5c5c"/><stop offset=".41" stop-color="#0a0a0a"/><stop offset=".47"/><stop offset=".86"/></radialGradient><linearGradient id="j" gradientUnits="userSpaceOnUse" x1="155.46" x2="128.64" y1="155.21" y2="161.91"><stop offset="0" stop-color="#ebebeb"/><stop offset=".14" stop-color="#b0b0b0"/><stop offset=".26" stop-color="#858585"/><stop offset=".26" stop-color="#868686"/><stop offset=".3" stop-color="#a5a5a5"/><stop offset=".35" stop-color="#bebebe"/><stop offset=".4" stop-color="#d2d2d2"/><stop offset=".45" stop-color="#e0e0e0"/><stop offset=".53" stop-color="#e9e9e9"/><stop offset=".65" stop-color="#ebebeb"/><stop offset=".9" stop-color="#fff"/></linearGradient><linearGradient id="k" gradientUnits="userSpaceOnUse" x1="154.1716" x2="277.4772" y1="90.65" y2="240.8792"><stop offset="0" stop-color="#fff"/><stop offset=".07" stop-color="#cacaca"/><stop offset=".16" stop-color="#fff"/><stop offset=".2" stop-color="#fff"/><stop offset=".23" stop-color="#ededed"/><stop offset=".3" stop-color="#bfbfbf"/><stop offset=".33" stop-color="#adadad"/><stop offset=".34" stop-color="#b7b7b7"/><stop offset=".36" stop-color="#d1d1d1"/><stop offset=".38" stop-color="#e6e6e6"/><stop offset=".41" stop-color="#f4f4f4"/><stop offset=".45" stop-color="#fcfcfc"/><stop offset=".5" stop-color="#fff"/><stop offset=".89" stop-color="#fff"/><stop offset=".98" stop-color="#808080"/></linearGradient><linearGradient id="l" gradientUnits="userSpaceOnUse" x1="122.96" x2="248.5" y1="116.84" y2="236.07"><stop offset="0" stop-color="#c2c2c2"/><stop offset=".09" stop-color="#919191"/><stop offset=".19" stop-color="#5d5d5d"/><stop offset=".29" stop-color="#353535"/><stop offset=".38" stop-color="#181818"/><stop offset=".45" stop-color="#060606"/><stop offset=".51"/><stop offset=".57" stop-color="#050505"/><stop offset=".64" stop-color="#131313"/><stop offset=".72" stop-color="#2b2b2b"/><stop offset=".8" stop-color="#4d4d4d"/><stop offset=".88" stop-color="#787878"/><stop offset=".97" stop-color="#acacac"/><stop offset="1" stop-color="#c2c2c2"/></linearGradient><linearGradient id="m" gradientUnits="userSpaceOnUse" x1="183.46" x2="134.55" y1="174.54" y2="247.67"><stop offset="0" stop-color="#999"/><stop offset=".1" stop-color="#fff"/><stop offset=".35" stop-color="#e2e2e2"/><stop offset=".46" stop-color="#f6f6f6"/><stop offset=".54" stop-color="#fff"/><stop offset=".56" stop-color="#dadada"/><stop offset=".59" stop-color="#999"/><stop offset=".62" stop-color="#626262"/><stop offset=".65" stop-color="#383838"/><stop offset=".68" stop-color="#191919"/><stop offset=".7" stop-color="#070707"/><stop offset=".71"/><stop offset=".73" stop-color="#373737"/><stop offset=".75" stop-color="#6c6c6c"/><stop offset=".76" stop-color="#999"/><stop offset=".78" stop-color="#bebebe"/><stop offset=".79" stop-color="#dadada"/><stop offset=".81" stop-color="#efefef"/><stop offset=".83" stop-color="#fbfbfb"/><stop offset=".84" stop-color="#fff"/><stop offset=".85" stop-color="#fafafa"/><stop offset=".86" stop-color="#ededed"/><stop offset=".87" stop-color="#d6d6d6"/><stop offset=".88" stop-color="#b7b7b7"/><stop offset=".89" stop-color="#8e8e8e"/><stop offset=".9" stop-color="#5c5c5c"/><stop offset=".91" stop-color="#232323"/><stop offset=".91"/><stop offset=".95"/><stop offset="1" stop-color="#1f1f1f"/></linearGradient><linearGradient id="n" gradientUnits="userSpaceOnUse" x1="178" x2="190.92" y1="212.63" y2="220.24"><stop offset=".2" stop-color="#fff"/><stop offset=".3" stop-color="#fdfdfd"/><stop offset=".36" stop-color="#f4f4f4"/><stop offset=".41" stop-color="#e6e6e6"/><stop offset=".46" stop-color="#d2d2d2"/><stop offset=".5" stop-color="#b8b8b8"/><stop offset=".52" stop-color="#a5a5a5"/><stop offset=".79" stop-color="#191919"/><stop offset=".84"/><stop offset="1"/></linearGradient><linearGradient id="o" gradientUnits="userSpaceOnUse" x1="185.25" x2="198.83" y1="177.66" y2="161.4"><stop offset=".02" stop-color="#fff"/><stop offset=".18" stop-color="#fff"/><stop offset=".21" stop-color="#fff"/><stop offset=".28" stop-color="#f7f7f7"/><stop offset=".38" stop-color="#e2e2e2"/><stop offset=".5" stop-color="#c2c2c2"/><stop offset=".71" stop-color="#808080"/><stop offset=".87" stop-color="#575757"/><stop offset=".95" stop-color="#474747"/><stop offset="1" stop-color="#3b3b3b"/></linearGradient><linearGradient id="p" gradientUnits="userSpaceOnUse" x1="215.22" x2="232.92" y1="86.92" y2="105.01"><stop offset="0"/><stop offset=".04" stop-color="#020202"/><stop offset=".07" stop-color="#0b0b0b"/><stop offset=".09" stop-color="#191919"/><stop offset=".11" stop-color="#2c2c2c"/><stop offset=".12" stop-color="#464646"/><stop offset=".14" stop-color="#666"/><stop offset=".15" stop-color="#8c8c8c"/><stop offset=".17" stop-color="#b7b7b7"/><stop offset=".18" stop-color="#e7e7e7"/><stop offset=".18" stop-color="#ebebeb"/><stop offset=".22" stop-color="#bebebe"/><stop offset=".27" stop-color="#8c8c8c"/><stop offset=".32" stop-color="#616161"/><stop offset=".37" stop-color="#3e3e3e"/><stop offset=".42" stop-color="#232323"/><stop offset=".47" stop-color="#0f0f0f"/><stop offset=".52" stop-color="#040404"/><stop offset=".58"/><stop offset="1"/></linearGradient><linearGradient id="q" x1="217.34" x2="237.48" xlink:href="#p" y1="162.12" y2="148.9"/><linearGradient id="r" gradientUnits="userSpaceOnUse" x1="233.5" x2="259.94" y1="97.85" y2="97.85"><stop offset="0"/><stop offset=".29" stop-color="#adadad"/><stop offset=".29" stop-color="#a6a6a6"/><stop offset=".34" stop-color="#747474"/><stop offset=".38" stop-color="#4a4a4a"/><stop offset=".42" stop-color="#2a2a2a"/><stop offset=".46" stop-color="#131313"/><stop offset=".5" stop-color="#050505"/><stop offset=".53"/><stop offset=".76"/><stop offset="1"/></linearGradient><linearGradient id="s" gradientUnits="userSpaceOnUse" x1="125.61" x2="186.56" y1="235.32" y2="235.32"><stop offset="0"/><stop offset=".06" stop-color="#020202"/><stop offset=".1" stop-color="#0b0b0b"/><stop offset=".13" stop-color="#191919"/><stop offset=".15" stop-color="#2c2c2c"/><stop offset=".18" stop-color="#464646"/><stop offset=".18" stop-color="#4b4b4b"/><stop offset=".22" stop-color="#3e3e3e"/><stop offset=".3" stop-color="#232323"/><stop offset=".39" stop-color="#0f0f0f"/><stop offset=".48" stop-color="#040404"/><stop offset=".58"/><stop offset="1"/></linearGradient><linearGradient id="t" x1="203.17" x2="230.43" xlink:href="#s" y1="211.93" y2="211.93"/><linearGradient id="u" x1="221.42" x2="271.5" xlink:href="#s" y1="215.59" y2="215.59"/><linearGradient id="v" gradientUnits="userSpaceOnUse" x1="122.93" x2="175.13" y1="166.69" y2="166.69"><stop offset="0" stop-color="#0a0a0a"/><stop offset=".05" stop-color="#0c0c0c"/><stop offset=".08" stop-color="#151515"/><stop offset=".1" stop-color="#232323"/><stop offset=".12" stop-color="#363636"/><stop offset=".14" stop-color="#505050"/><stop offset=".16" stop-color="#707070"/><stop offset=".17" stop-color="#959595"/><stop offset=".18" stop-color="#adadad"/><stop offset=".26" stop-color="#8b8b8b"/><stop offset=".38" stop-color="#616161"/><stop offset=".5" stop-color="#3e3e3e"/><stop offset=".62" stop-color="#232323"/><stop offset=".74" stop-color="#0f0f0f"/><stop offset=".87" stop-color="#040404"/><stop offset="1"/></linearGradient><linearGradient id="w" gradientUnits="userSpaceOnUse" x1="124.08" x2="142.66" y1="134.92" y2="134.92"><stop offset="0"/><stop offset=".05" stop-color="#020202"/><stop offset=".08" stop-color="#0b0b0b"/><stop offset=".1" stop-color="#191919"/><stop offset=".12" stop-color="#2c2c2c"/><stop offset=".14" stop-color="#464646"/><stop offset=".15" stop-color="#666"/><stop offset=".17" stop-color="#8b8b8b"/><stop offset=".18" stop-color="#adadad"/><stop offset=".26" stop-color="#8b8b8b"/><stop offset=".38" stop-color="#616161"/><stop offset=".5" stop-color="#3e3e3e"/><stop offset=".62" stop-color="#232323"/><stop offset=".74" stop-color="#0f0f0f"/><stop offset=".87" stop-color="#040404"/><stop offset="1"/></linearGradient><linearGradient id="x" gradientUnits="userSpaceOnUse" x1="108.21" x2="120.44" y1="162.01" y2="162.01"><stop offset="0" stop-color="#0a0a0a"/><stop offset=".05" stop-color="#0c0c0c"/><stop offset=".08" stop-color="#151515"/><stop offset=".11" stop-color="#232323"/><stop offset=".13" stop-color="#363636"/><stop offset=".15" stop-color="#505050"/><stop offset=".17" stop-color="#6f6f6f"/><stop offset=".18" stop-color="#858585"/><stop offset=".3" stop-color="#616161"/><stop offset=".43" stop-color="#3e3e3e"/><stop offset=".57" stop-color="#232323"/><stop offset=".71" stop-color="#0f0f0f"/><stop offset=".85" stop-color="#040404"/><stop offset="1"/></linearGradient><linearGradient id="y" gradientUnits="userSpaceOnUse" x1="172.51" x2="173.85" y1="86.22" y2="89.17"><stop offset="0" stop-color="#fff"/><stop offset=".12" stop-color="#dedede"/><stop offset=".91"/></linearGradient><linearGradient id="z" gradientUnits="userSpaceOnUse" x1="155.7" x2="205.09" y1="116.64" y2="116.64"><stop offset=".69" stop-color="#fff"/><stop offset=".72" stop-color="#fafafa"/><stop offset=".75" stop-color="#eaeaea"/><stop offset=".79" stop-color="#d1d1d1"/><stop offset=".84" stop-color="#adadad"/><stop offset=".88" stop-color="#7f7f7f"/><stop offset=".93" stop-color="#474747"/><stop offset=".98" stop-color="#070707"/><stop offset=".98"/></linearGradient><linearGradient id="A" gradientUnits="userSpaceOnUse" x1="152.46" x2="170.77" y1="238.9" y2="174.15"><stop offset="0" stop-color="#d6d6d6"/><stop offset=".07"/><stop offset=".24" stop-color="#222"/><stop offset=".35" stop-color="#333"/><stop offset=".38" stop-color="#3b3b3b"/><stop offset=".53" stop-color="#676767"/><stop offset=".6" stop-color="#787878"/><stop offset=".64" stop-color="#686868"/><stop offset=".79" stop-color="#303030"/><stop offset=".9" stop-color="#0d0d0d"/><stop offset=".96"/><stop offset="1" stop-color="#707070"/></linearGradient><path d="m272.57 238.81c-3.23-9.67-16.31-33.95-26.59-47.61-2.22-3-1.39-4.51-.2-5.47a85 85 0 0 0 9.53-9.45c4.57-5.22 5.67-11.13 2.44-19.68s-13.84-28.6-16.07-35.27c-2.56-7.7-2.82-11.12-1.28-15.31 1.82-4.93 4.47-5.14 6.47-5.11a2.13 2.13 0 0 1 1.88 1.67c.06 2.18.16 4.86 2.28 10.48 3.39 9 12.09 14.79 14.83 16 1.91.82 2.25-.65 2.08-1.37s-3-11.79-5.12-20.13c-2.22-8.74-3.34-10.63-5.32-12.48a17.3 17.3 0 0 0 -12-4.43c-9 .35-13 9.07-13.51 9.88s-.6 1.23-1.52.6c-2.59-1.81-10.12-8.1-10.81-12-.41-2.32-.82-2.65-3.15-3.55-9.06-3.53-16.9-6.65-25.59-8.18-3.49-.61-3.67-.91-7.73-.16a52.16 52.16 0 0 0 -16.32 5.6 8.2 8.2 0 0 0 -3.71 3.16 3.88 3.88 0 0 1 -1.93 1.58 84.72 84.72 0 0 0 -10.32 4.22c-1.37.8-2.12 1.63-1.42 3.18 1.23 2.73 4.92 8.42 6.52 9.85a11.44 11.44 0 0 0 4 1.59c.58.14 1 .31 1.21-.13a3.72 3.72 0 0 1 1.47-2 16.55 16.55 0 0 1 6.62-2.2c1.3-.1 2.1-.15 2.77.34a9.31 9.31 0 0 1 2.74 3.78c.54 1.66.2 2.28-.72 2.67a29.41 29.41 0 0 1 -6.92 1.27c-3.21.26-4.12-.63-4.34-.83a.57.57 0 0 0 -.92 0 6.65 6.65 0 0 1 -2.6 1.86c-.72.35-1.1 1.1-.43 2.29 2 3.53 4.74 7.49 7.24 8.25 2 .61 3.05 0 5.28-1.63 2-1.44 3.31-1.44 3.85-1s1.8 1.47 1.5 2.49c-.53 1.77-4.11 6-4.8 6.87s-1.25 1.26-2.4.71c-1.69-.81-27.35-14.12-30.77-15.45a27.29 27.29 0 0 0 -9.86-2 48.06 48.06 0 0 0 -9.43.6c-1.81.34-2.84 1.19-4.53 2.75-2.32 2.15-4.77 4.9-5 7.18-.17 1.65 1.66 5 1.86 5.25a1.47 1.47 0 0 0 1.53.6c1-.11 3.56-1.43 6.59-.9 2.74.47 3 2.62 3.16 4.28a1.09 1.09 0 0 0 1.14.91 10.23 10.23 0 0 1 4.78 1 44.51 44.51 0 0 1 8 5.71c.6.68.56 1.29-.58 1.4a112.25 112.25 0 0 0 -19.73 3.77c-3.06 1-6.67 2.38-7.94 4.59a34.33 34.33 0 0 0 -3.79 9.41c-.53 2.86 2.53 6.41 3.36 7.2.55.53.92.86 1.9.33 1.49-.86 5.11-3.09 8.57-3.29 2.1-.12 2.94 1.85 3.45 2.58s1 .22 2.88-.29c3.33-.89 21.94-.55 28.51-.24 3 .13 7.19.57 10.27 2.27s8.59 6.91 8.59 6.91-7.36 12.33-11.31 19.63c-3.67 6.76-6.35 11.83-7.66 14.77a21.52 21.52 0 0 0 -2 9.49c.33 4.39.44 6.65.39 8.64 0 1.75-1.69 1.94-4 2.5-3.19.81-9.55 1.4-14.7 2.67-4.68 1.17-6.43 2.27-7.28 5.89a97.76 97.76 0 0 0 -1.73 13.07c-.06 1.31-.08 1.95 1.58 1.61a71.4 71.4 0 0 1 7.22-.85c4.35-.33 9.05-.26 12.69-.27 6.69 0 26.46 1.12 27.79 1.25 1.69.16 2 0 1.91-1.22-.16-1.56-.44-6.53-.52-9.49s-.53-6 2.15-8.87 22.8-25.35 23.92-26.51c1-1 1.63-2 3.13-.64s18.09 13.34 21.45 15.78a16.69 16.69 0 0 0 10.34 3.33c2.74 0 3.5 4.82 1.17 5.27s-6 1.21-8.56 1.78c-3.93.92-5.13 2.21-6.31 4.85-1 2.23-2.12 13.2-2.15 14.15 0 .68-.08 1.67 1 1.45 4.84-1 12.51-1.26 20.71-1 9.42.29 18.56 1.07 19.85 1.15s1.52-.11 2.22-1.2a46.5 46.5 0 0 1 7.81-8.48c1.55-1.26 1.59-1.78.94-3.67zm-36.17-66.33a4.64 4.64 0 0 1 -5.11-1c-1.17-1.11-10.67-12.54-13.72-16-1.54-1.76-2.7-5.78 1.93-7.5 3.8-1.38 10.62-3.58 12.52-4.57s2.88-2 3.06-4 .17-4.14.18-4.87 1-1.32 1.45-.46c.33.61 2 3.94 4.12 7.79 3.11 5.78 7 13 8.32 16.1a6.78 6.78 0 0 1 -1.23 7.51c-2.5 3.08-9.77 6.43-11.52 7z"/><path d="m246.2 92.4s0 0-.09 0c-7.41 0-14.92 8.56-13.5 21.37.9 7.85 2.09 11.42 4.42 16.49 1.15 2.51 13.81 26.61 14.4 29.16.78 3.65.08 5.93-2.72 8.48a40.21 40.21 0 0 1 -11.71 7.17 7 7 0 0 1 -2.25.42c-.78 0-2.74-.27-6.44-4.83l16.35 21.82c-2.08-2.79-3.16-4.9-2.78-6.75s3.35-3.8 6.78-6.5 7.23-6 9-10.6a10.92 10.92 0 0 0 .73-4c0-4.35-2.11-9.28-4.64-14.62-3.27-6.94-12.55-22.06-15.36-32.66a27.05 27.05 0 0 1 -1-7c0-6 2.55-9.82 5.68-11.11a10.53 10.53 0 0 1 4-.82 7.46 7.46 0 0 1 3.4.74 2.54 2.54 0 0 1 1 2.37v.18 1.3a28.1 28.1 0 0 0 3.21 13.17 27.54 27.54 0 0 0 12.14 11.45c.21.09-5.61-21.5-6.66-25.57-1.24-4.81-4.59-9.57-13.96-9.66z" fill="url(#a)"/><path d="m144.33 140.35c1.43 1.43-1.06 1.35-8.6 2s-15.41 2.21-19.45 3.73c-3 1.12-4.76 1.91-5.94 4.62 0 0-2.46 5.35-2.79 7.46a3 3 0 0 0 .42 2.41c.29.45 1-13.93 19.55-14.87 16.42-.84 20.46-2.56 17.25-5.7z" fill="url(#b)"/><path d="m238.34 110.84a30.23 30.23 0 0 1 1-5.53c1.66-4.79 4.71-5.78 6.83-5.78a3.16 3.16 0 0 1 2.65 1 2.74 2.74 0 0 1 .84 1.7c0 2.13.13 4.59 2.21 10.13.12.34.26.67.4 1a29.67 29.67 0 0 1 -2-10.74c0-.68 0-1.47 0-1.47 0-1.63-1.78-2.1-3.38-2.1a9.29 9.29 0 0 0 -3.57.74c-2.59 1-5 4.3-5.08 9.82z" fill="url(#c)"/><path d="m145 141c.56 1.52-1.66 1.16-9.2 1.82s-15.42 2.15-19.47 3.67c-3 1.11-4.75 1.9-5.93 4.62 0 0-2.47 5.35-2.8 7.46a3.08 3.08 0 0 0 .62 2.41c.78 1.24 1.29 1.51 2.44.85.93-.53 5-2.86 7.73-2.91a3.66 3.66 0 0 1 3.89 2.72c.22.8 1.3.38 1.49.34a26.16 26.16 0 0 1 6-.87c4.55-.34 22.34-.19 28.87 0 5.87.13 29 18.28 29.34 18.36l1.17-2.34c-7.86-6.49-37.05-29.64-44.1-36.54z" fill="url(#d)"/><path d="m211.61 155.32c3.52 4.22 14 17 23 28.45 14 17.93 22.63 32 31.72 52.65.9 2.06.21 2.29-1.23 3.45-2.79 2.26-2.2 3.17-4.27 6.75-.23.41-.77 1.08-1.42 1-1.92-.15-16.8-1.41-26.58-1.06-5.81.2-7.31.62-8.59.92-1 .26-1.4.15-1.37-1.2a62.74 62.74 0 0 1 2-8.89 5.37 5.37 0 0 1 4.1-3.65c1.94-.54 7.46-1.56 9.69-2.11s2.34-2.69 2.13-4.29-1.49-3.77-2.95-4a20.38 20.38 0 0 1 -5.42-1.57c-2.11-.95-32.51-25.42-35.28-27.68-.71-.58-1.26-1-1.48-.74s.36 1 .63 1.28c.52.54 5.1 5.27 6.11 6.24.73.71.34 1.05 0 1.41-.54.49-14.91 14.66-20.87 20.85s-10.24 9.78-10.19 14.7.27 8.79.28 9.65-.76.73-1.4.67c-1.85-.17-16.12-1.57-24.12-1.75a69.35 69.35 0 0 0 -17.58 1.55c-.88.22-1.15-.3-1.1-1.07a56.19 56.19 0 0 1 2-9.62c.76-2.29 2.41-3.18 4.38-3.66 2.6-.64 12.85-2.48 17.47-3.19 2.51-.4 3-1.25 3-3.37s-.28-6.75-.39-9.06a16.68 16.68 0 0 1 1.47-6.87c3.64-8.53 12.58-26.54 20.34-37.26a2.39 2.39 0 0 1 2.66-1.24c1 .25 5.68 3.91 6.06 4.1.82.41 1.9 0 1.4-.46-2.71-2.72-10.93-7.71-15.93-11.7-9.89-7.9-20.22-19.37-28.52-27-4.29-3.95-8.88-6.85-12.3-7.6-1.21-.27-2.35-.27-3.4-.42a.71.71 0 0 1 -.6-.75 3.91 3.91 0 0 0 -1-2.77c-.79-.9-2.51-1.2-3.7-1.22a25 25 0 0 0 -6 .73c-.76.21-1.13.06-1.41-.27a5.82 5.82 0 0 1 -.85-2.24 2.89 2.89 0 0 1 .49-1.91c1-1.93 3.62-3.83 5.12-5.23a5.74 5.74 0 0 1 4-1.68 37.64 37.64 0 0 1 12.84.37 40.85 40.85 0 0 1 9.53 3.8c3.36 1.67 22.89 11.66 25.39 12.85z" fill="url(#e)"/><path d="m179.17 119.77c.39 2.43-1.18 4-2.12 5.52s-2.84 3.66-3.82 4.89c-1.24 1.58-3.62 1.1-3.62 1.1s11.24 5.71 17.72 9c2.56 1.3 6.59.1 9.32-5 .64-1.18 4.68-9.75 5.69-12.3s2.46-5.36.15-10.22-9.49-13.85-12.37-17.28c-1.5-1.79-3.26-2.89-7.06-3.1a46.5 46.5 0 0 0 -14.36 2 128 128 0 0 0 -14.12 5c-.17.1-.14.26-.06.44s.89 1.57.89 1.57a3.8 3.8 0 0 0 1.58 1.62 9.78 9.78 0 0 0 2.6 1 .44.44 0 0 0 .54-.22c.09-.13 1.24-2.32 5.44-3.42a18.32 18.32 0 0 1 4.42-.64 6.31 6.31 0 0 1 3.75 1.49 12.89 12.89 0 0 1 3.11 5.23 2.82 2.82 0 0 1 -1.11 3.22 26.31 26.31 0 0 1 -6.69 1.62c-2.21.21-4.36.11-5.63-.63a.44.44 0 0 0 -.55 0 9.76 9.76 0 0 1 -1.72 1.29c-.2.12-.34.38-.13.8s2.87 4.83 4.48 6 2.46.67 4.38-.4 3.23-2.37 5.23-2.3a4.44 4.44 0 0 1 4.06 3.72z" fill="url(#f)"/><path d="m175.57 110a26.64 26.64 0 0 1 -6.55 1.49c-2.17.2-4.28.1-5.52-.58a.44.44 0 0 0 -.53 0 9.52 9.52 0 0 1 -1.68 1.18c-.21.11-.34.36-.14.74s2.6 4.42 4.24 5.58 2.5.65 4.46-.4 3.28-2.32 5.32-2.25z" fill="url(#g)" opacity=".85"/><path d="m168.4 95a127.31 127.31 0 0 0 -13.4 4.5c-.15.1-.13.41 0 .58s.84 1.43.84 1.43a3.53 3.53 0 0 0 1.5 1.46 10 10 0 0 0 2.32 1 .44.44 0 0 0 .54-.22c.09-.13 1.24-2.32 5.44-3.42a18.32 18.32 0 0 1 4.42-.64z" fill="url(#h)" opacity=".85"/><path d="m179.21 120.11c.39 2.44-1.17 4.2-2.12 5.69s-2.85 3.67-3.81 4.89a2.77 2.77 0 0 1 -3.07.89s10.64 5.41 17.12 8.66c2.56 1.3 6.44.42 9.17-4.7.64-1.19 4.69-9.75 5.69-12.3z" fill="url(#i)" opacity=".85"/><path d="m126.21 160.16c-.49-.2-.5-.79.16-1.48.39-.41 3.33-2.81 5.1-3.23s8.22-1 10.95-1.16c.77 0 10.66-.92 11.57-.88s3.16 3.56 5.83 6.46c-.31 0-8.93-.16-16.24-.14-6.91 0-13 .2-15.26.39a6.59 6.59 0 0 1 -2.11.04z" fill="url(#j)"/><path d="m126.16 160.28v-.12.12a.66.66 0 0 1 -.44-.63 1.67 1.67 0 0 1 .56-1.07c.41-.43 3.33-2.81 5.17-3.25 1.84-.43 8.23-1 11-1.17.74 0 10.21-.88 11.51-.88h.04a1.83 1.83 0 0 1 1 .66 18.83 18.83 0 0 1 1.34 1.55c1 1.25 2.24 2.85 3.57 4.3l.19.2h-.28-.14c-1.13 0-8.48-.15-15.12-.15h-1c-6.91 0-13 .21-15.25.39-.49.05-1.05.12-1.53.12a1.8 1.8 0 0 1 -.64-.09zm.64-.18c.45 0 1-.07 1.51-.11 2.26-.19 8.35-.38 15.27-.4h1c6.37 0 13.42.14 14.95.15-1.92-2.12-3.61-4.52-4.7-5.61-.36-.38-.68-.59-.83-.58h-.06c-1.27 0-10.74.85-11.5.89-2.71.16-9.11.74-10.91 1.15-1.72.39-4.69 2.8-5 3.19a1.43 1.43 0 0 0 -.48.88.38.38 0 0 0 .27.38 1.53 1.53 0 0 0 .54.07z" fill="#747474"/><path d="m268.74 237.26c-3-7.54-11.44-23.88-23-40.88-11.36-16.72-30.62-39.37-33.27-43.13s-3.63-7.84 1.8-9.55c3.54-1.13 12.08-2.89 15.57-3.87s3.63-2 3.92-4.66c.29-2.84-.48-16.64-2.2-24.85a6.86 6.86 0 0 0 -2.87-4.1 72.94 72.94 0 0 1 -8.49-7.89 20 20 0 0 1 -4.81-9.07 2.08 2.08 0 0 0 -.66-1.07 2.63 2.63 0 0 0 -.76-.56c-5.1-3.14-23.14-8.07-26.82-8.39-2.52-.23-11.45.92-19.58 5.81-2.4 1.44-2.5 3.22-4.17 4.19s-5.49 1.85-9.51 3.65c-2.22 1-2.23 1.15-1.7 2.4.21.52 1.65 3.15 2.39 3.15a7 7 0 0 0 2.49-.71 115.9 115.9 0 0 1 15.41-4.89c7-1.5 14.55-1.62 17.23 1.21 4.07 4.31 11.22 14 13.39 18.17s1.91 6.16.49 10.41a117.68 117.68 0 0 1 -7.69 16.26c-1.47 2.12-3.23 3.3-7.46 1.57-4.54-1.86-21.23-10.43-24.86-12.26-2.46-1.24-12.78-6.46-20.59-10.38a38.09 38.09 0 0 0 -7.86-3.16 38.41 38.41 0 0 0 -14.75-.33c-1.29.22-2.11 2.3-2 3.15.08 1 3.11.3 5.63.48 2 .14 9 .9 13 2.52 4.24 1.72 25.47 13.16 30.84 16 40.85 22.23 58.33 36.54 89.9 89.59 1.41 2.36 2.08 5.28-.14 5.94-3.24.94-16.71 3.51-20.78 4.84-3.42 1.13-3.88 1.4-4.38 3.09-.56 1.94-1.42 5.77-1.22 6.54.09.31-.19.72.51.72 3.79 0 17.38 0 27.85 1 1.26.13 1.33.1 2.12-1.11a41.07 41.07 0 0 1 6.93-7.31c.93-.69.26-2.07.1-2.52z" fill="url(#k)"/><path d="m259.13 229.4c-.21-2.16-2.19-5.36-5.71-10.86s-8-13.1-13.88-21.48c-10.5-14.85-20.83-26.46-33.68-36.62a232 232 0 0 0 -26.73-17.79c-7.3-4.27-38.12-21.13-42.89-22.63a45.89 45.89 0 0 0 -16.61-2.17c-1.77 0-1.14-1.44-.9-2-.18.4-1.24 2.37.5 2.37a61.89 61.89 0 0 1 6.19.13 52.19 52.19 0 0 1 11.58 2.65c4.29 1.67 24.4 13.66 29.61 16.57a278.41 278.41 0 0 1 38.76 26c17.08 13.77 31.84 29.73 50.33 62.12a6.49 6.49 0 0 1 1.12 3.39 2.63 2.63 0 0 1 -2 2.61c-3.18 1-16.24 3.9-20.12 5.23-3.28 1.16-3.88 1.89-4.36 3.41-.17.63-.73 3.72-1.37 4.53s-2.15 1-3.75 1c-1 0-1.48.06-1.38-1s.74-4.05 1.12-5.75a5.54 5.54 0 0 1 2.63-3.94c1.55-.94 7-1.82 10-2.57s3.2-2.15 3.15-4.45c0 2.44-.85 3-3.9 3.71s-8.32 1.36-10 2.53a6.49 6.49 0 0 0 -2.61 4c-1 4.33-1.75 7.5-1.63 8.56s.48 1.08 1.53 1 3.68-.49 7.62-.64c1.16 0 1.08-1.41 1.06-3a11.77 11.77 0 0 1 .33-3.08 2.89 2.89 0 0 1 1.91-1.89c2.19-.68 14.32-4 20.49-5.79 2.71-.83 3.83-1.69 3.59-4.15z" fill="url(#l)"/><path d="m178.16 172.54a17.88 17.88 0 0 1 3.58 2.24l1.74 1.28c-8.18 10.22-20.29 27.85-24.19 35.3-2 3.88-2 5.48-1.93 9.07.06 3.43.46 7.65.24 9.62s-1.49 2.84-3.47 3.39-13.74 2.43-16.34 3.2-3.19 2.22-3.63 4.1-.59 3.09-.8 3.82-.08 1.37-.85 1.43-2.54.21-3.38.33-1-.07-.95-1a59.37 59.37 0 0 1 1.46-7.17 5.26 5.26 0 0 1 4.44-4.35c2.95-.71 14.9-2.72 17.15-3.12 2.65-.48 3.3-1.6 3.17-4.15s-.52-6.36-.58-8.63a15.39 15.39 0 0 1 .81-6.2c.83-2.23 5.08-11.44 8.63-17.93a232.18 232.18 0 0 1 12.13-20c.95-1.14 1.61-1.59 2.77-1.23z" fill="url(#m)"/><path d="m171.25 238.17a9.56 9.56 0 0 1 2-6c1.81-2.6 4.59-5.25 8-8.81 6-6.22 20.62-20.53 21.14-21.05.33-.33.73-.79-.08-1.57-1.46-1.39-2.22-2.29-4.5-4.58-1.39-1.39-2.36-2.24-2.31-2.72 0-.07-16.33 18.3-21.68 31.88-2.2 4.84-2.83 7.6-2.83 10a12 12 0 0 0 .26 2.85z" fill="url(#n)"/><path d="m119.45 118.22a50.46 50.46 0 0 1 6.37.17 49.88 49.88 0 0 1 11.62 2.76c1.56.65 5.26 2.65 9.57 5.09 7.47 4.22 16.79 9.72 20.11 11.58a288.61 288.61 0 0 1 29.74 19.18c3.13 2.32 6.13 4.71 9.09 7.11 17.15 13.84 31.22 29.17 50 62a5.59 5.59 0 0 1 .87 3.39 2.73 2.73 0 0 1 -2.29 2.28z" fill="url(#o)"/><path d="m231.4 102.83h-.07a2.67 2.67 0 0 1 -1.5-.55c-2.72-2-10.3-7.93-11.39-12.94-.69-2.34.17-1.27-2.26-2.51-.68-.26-1.34-.53-2-.78l.66.36a4.71 4.71 0 0 1 1 .71 3.5 3.5 0 0 1 1.07 1.88 18.61 18.61 0 0 0 4.49 8.41 69.76 69.76 0 0 0 8.49 7.67 10.48 10.48 0 0 1 1.89 1.53 27.63 27.63 0 0 1 1.59-5.34 7.77 7.77 0 0 1 -.46.74 2 2 0 0 1 -1.51.82z" fill="url(#p)"/><path d="m214.83 145.07c-2.53.91-2.85 1.71-2.93 3a8.46 8.46 0 0 0 1.66 4.56c1.32 1.88 7.69 9.11 14.79 18a26.8 26.8 0 0 0 1.83 2.06c-.26-.33-10.28-13-13.35-16.52a6.65 6.65 0 0 1 -1.9-4.22 6.09 6.09 0 0 1 4.23-5.36c3.81-1.39 10.75-3.64 12.33-4.5s2-1.27 2.22-2.32a8.29 8.29 0 0 1 -3.12 1.43c-3.59 1.01-12.37 2.8-15.76 3.87z" fill="url(#q)"/><path d="m233.5 103.5c1.38-4.81 5.75-10.5 12.69-10.5 8.83 0 12.52 3.34 13.75 8.31-1.59-7.06-7.76-9.25-13.77-9.11-6.78.17-11.34 5.92-12.67 11.3z" fill="url(#r)"/><path d="m176 231.61c1.17-1.27 5.74-6.35 10.58-11.73-1.58 1.6-3 3.06-4.14 4.22-6.84 7-9.95 9.17-9.81 13.53.08 2.57.28 8.89.29 9.83a1.62 1.62 0 0 1 -1 1.82 4.7 4.7 0 0 1 -1.91.28c-1.87 0-19.9-1.75-26.22-1.75a66.21 66.21 0 0 0 -15 1.52 2.64 2.64 0 0 1 -2.46-.78 2.59 2.59 0 0 1 -.41-1.23c-.14 1.23-.25 2.67-.25 3.3a69.83 69.83 0 0 1 7.28-.86c4.43-.35 9.45-.29 12.79-.29s28.16 1.29 28.25 1.29c-.16-1.91-.41-6.44-.47-9.28 0-.73 0-.72-.09-2.75a9.83 9.83 0 0 1 2.57-7.12z" fill="url(#s)"/><path d="m226.36 220.06a15.92 15.92 0 0 0 4.07 2.18c-1.14-.8-2.81-2.07-5-3.75-3.2-2.48-7.28-5.7-11.39-9-3.46-2.76-6.94-5.54-9.9-7.93a2.26 2.26 0 0 1 -1 1.77 3.54 3.54 0 0 1 1.85 1c1.31 1.23 18.01 13.33 21.37 15.73z" fill="url(#t)"/><path d="m270.7 241.39c.57-.46.8-.43.8-.87a6.66 6.66 0 0 0 -.45-1.65c-3.38-9.67-16.24-33.52-26.25-46.79a7.84 7.84 0 0 1 -1.6-4.14 4.17 4.17 0 0 1 1.62-3.29c.71-.57 2.39-2 4.62-4.23-3.45 2.59-5.87 4.65-6.16 5.58a4.56 4.56 0 0 0 -.4 1.86 7.83 7.83 0 0 0 1.67 4.41c.8 1.13 1.58 2.24 2.32 3.32 11.62 17.1 19.72 33.65 22.78 41.37.67 1.87.54 2.79-.07 3.63 0 0-6.05 6.19-6.78 7.35a5.75 5.75 0 0 1 -1 1.21 3.8 3.8 0 0 1 -2.5.54c-8.93-.85-18.64-1.2-23.5-1.2-6.33 0-10 .61-12.12.67a3.33 3.33 0 0 1 -2.08-.42.2.2 0 0 0 0-.09c-.09.89-.15 1.56-.17 1.85a88.46 88.46 0 0 1 14.73-1c1.82 0 3.69 0 5.62.08 9.43.29 20.39 1.16 20.43 1.16s5.25-6.66 8.49-9.35z" fill="url(#u)"/><path d="m175.13 171.49c-2.84-2-5.85-4-8.56-5.69-3.59-2.24-7-3.8-8-3.77-10.91-.17-10.91-.17-17.33-.17-5 0-9.76.19-11.65.33a36.4 36.4 0 0 0 -6 .83 2.07 2.07 0 0 1 -.61.07c.1.14.23.43.3.55a4.91 4.91 0 0 1 .53-.18c2.29-.65 7.4-1 13.78-1 6.08 0 12.71 0 16.14.2 3.08.16 7.43.57 10.9 2.46 3.17 1.82 10.16 6.67 10.5 6.37z" fill="url(#v)"/><path d="m142.2 139.82c-4.14-3.84-10.4-8.27-13.34-8.88a22.17 22.17 0 0 0 -3.68-.4c-.9-.06-.84-1.11-1.1-1.31 0 .19.08 1.77.63 1.81.74.06 3.05-.27 5.08.71a75.5 75.5 0 0 1 10.92 7.72c1.34 1.53 2.68 1.38 1.49.35z" fill="url(#w)"/><path d="m118.66 160.72a3.58 3.58 0 0 1 1.78.3c-.42-.72-.89-1-2.22-1-2 .05-6.89 2.5-7.64 3-1.16.64-1.65.66-2.37-.13.33.8.89 1.28 1.39 1.11s6.4-3.28 9.06-3.28z" fill="url(#x)"/><path d="m176.09 85.57c.91-.14 1.68-.34 1.77.4a2.72 2.72 0 0 1 -.14 1.17 1 1 0 0 1 -.66.56c-.93.3-6.26 2.25-7.17 2.63a.81.81 0 0 1 -1.22-.47 3.21 3.21 0 0 1 .31-2 1.54 1.54 0 0 1 1-.79c.47-.07 4.76-1.28 6.11-1.5z" fill="url(#y)"/><path d="m175.94 86c.59-.11.88 0 .91.28a2.5 2.5 0 0 1 0 .67c0 .19-.1.28-.4.39-.61.22-4.5 1.61-5.44 2s-1.29.16-1.37-.2a2.09 2.09 0 0 1 .21-1.21 1.17 1.17 0 0 1 .69-.53c.69-.23 4.29-1.17 5.4-1.4z"/><path d="m197.68 136.83c.65-1.18 5-10.29 6-12.91a13.66 13.66 0 0 0 1.42-5.38 13.41 13.41 0 0 0 -1.32-5.43c-2.37-5-9.87-14.51-12.87-18.1-2.54-3-4.83-3.46-9.16-3.35-11 .29-20.64 5-26 7.17 3.85-1.32 13.2-5.15 23.63-5.78 5.73-.35 8 .14 10.12 2.5 3.05 3.35 10.15 12.89 12.67 17.72a9.31 9.31 0 0 1 1.3 5.11 16.32 16.32 0 0 1 -1.62 5.31c-1.09 2.52-5.15 10.77-5.86 12-3 5.12-5.79 4.94-8.8 4.24.16.09 1.54.74 2.8 1.26 3.46 1.41 5.69-.59 7.69-4.36z" fill="url(#z)"/><path d="m184.37 176.69c-.12-.06-.64-.45-1.35-1a195.23 195.23 0 0 0 -14.29 19.44c-3.91 6.23-9.55 15.53-10.44 17.57a14.23 14.23 0 0 0 -1.11 5.81s.32 10.05.32 10.11a4.54 4.54 0 0 1 -.84 3 4.82 4.82 0 0 1 -3.11 1.36c-2.33.34-13.29 2-16.3 2.64s-4.13 2-4.78 3.91a19.84 19.84 0 0 0 -1 4.81 2.71 2.71 0 0 0 0 .57c-.09 1.12.32 1 .32 1s12.68-1 20.24-.52 17.97 1.61 17.97 1.61-11-2.06-18.43-2.52-17.35.37-17.45-.08a5.19 5.19 0 0 1 -.17-1.71c.13-.59.28-1.27.48-2a5.1 5.1 0 0 1 4.25-4.17c2.77-.7 13.42-2.46 15.44-3s3.29-1.25 3.57-2.87a21.76 21.76 0 0 0 .13-2.66c0-2.14-.37-7.82-.36-8.18.07-3.49.22-5.34 2.5-9.11 3.54-5.89 16.87-26.15 23.5-33.18.42-.45.61-.82 1.35-.71a1.66 1.66 0 0 1 -.44-.12z" fill="url(#A)"/><path d="m25 292.77v29.58h8.15v-9.1h7.29c15.65 0 23.61-5 23.61-10.57 0-6-8.56-9.91-22.9-9.91zm8.15 17.29v-14h6.41c6.61 0 15.34 1.12 15.34 6.6 0 3.72-2.83 7.38-16.41 7.38z"/><path d="m110.49 322.35v-3.73h-20.08c-4.3 0-5.55-1.95-5.55-5.25v-4.37h23.56v-3.71h-23.56v-8.84h24.63v-3.72h-32.77v20.77c0 5.56 2.3 8.81 9.8 8.81z"/><path d="m162.6 292.77h-8.14v25a28.64 28.64 0 0 1 -9.62 1.48c-6.26 0-12.46-1.6-12.46-7.09v-19.39h-8.14v20c0 8.15 8.14 10.57 17.11 10.57a53.87 53.87 0 0 0 21.25-4.19z"/><path d="m185.25 307.64c0-8.19 7-12.05 15.46-12.05 7 0 12.34 2 17.42 3.73v-5a57.59 57.59 0 0 0 -17.42-2.48c-13.63 0-24.73 6.26-24.73 15.76 0 10.05 11.1 15.65 24.73 15.65a78.67 78.67 0 0 0 18.29-2.49v-11.76h-8v8.76a25.13 25.13 0 0 1 -9.68 1.78c-9.27 0-16.06-4.61-16.06-11.94"/><path d="m267.63 322.35v-3.73h-20.08c-4.3 0-5.55-1.95-5.55-5.25v-4.37h23.56v-3.71h-23.56v-8.84h24.62v-3.72h-32.76v20.77c0 5.56 2.29 8.81 9.8 8.81z"/><path d="m303 291.88c-13.63 0-24.78 6.37-24.78 15.92 0 10 11.15 15.49 24.78 15.49s24.74-5.49 24.74-15.49c0-9.55-11.1-15.92-24.74-15.92m0 28.1c-9.27 0-15.52-4.77-15.52-12.18 0-8.13 7-12.21 15.52-12.21s15.47 4.08 15.47 12.21c0 7.41-6.26 12.18-15.47 12.18"/><path d="m334.39 297.02h16.23v25.33h8.14v-25.33h16.24v-4.25h-40.61z"/><path d="m0 0h400v400h-400z" fill="none"/></svg>