<svg viewBox="0 0 400 400" xmlns="http://www.w3.org/2000/svg"><path d="m127.74 293.59-21.9 50.57h11.6l4.55-11h27.65l4.54 11h11.5l-21.9-50.57zm-2.12 30.48 8.58-20.79h3.22l8.48 20.79z"/><path d="m50.23 293.6h-25.23l4.64 9.58v41h10.5v-17.08h10c18.77 0 26.64-6.16 26.64-17.16s-7.88-16.34-26.55-16.34zm-.1 23.81h-10v-14.23h10.1c10.6 0 15.14 1.41 15.14 7s-4.85 7.23-15.24 7.23z"/><path d="m86.26 293.59h10.8v50.56h-10.8z"/><path d="m295.57 293.59h10.9v50.56h-10.9z"/><path d="m346 292.69c-21.2 0-29.17 6.66-29.17 26.13 0 19.78 8 26.65 29.17 26.65s29-6.87 29-26.65c0-19.47-7.87-26.13-29-26.13zm0 43.09c-13.23 0-17.76-2.22-17.76-17 0-14.43 4.53-16.55 17.76-16.55s17.66 2.12 17.66 16.55c.04 14.78-4.3 17-17.66 17z"/><path d="m263 325.89h10.89v7.67a41.69 41.69 0 0 1 -13.52 2.22c-12 0-18.27-5.25-18.27-16.45 0-11.81 6.87-17.16 20.29-17.16a97.56 97.56 0 0 1 15.85 1.31l2.32-9.69a123 123 0 0 0 -17.06-1.21c-20.49 0-32.7 7.07-32.7 26.95 0 17 10.39 25.84 29.57 25.84 9.08 0 17.87-2.93 24.22-5.76v-22.91h-21.59z"/><path d="m200.1 325.89h10.9v7.67a41.74 41.74 0 0 1 -13.52 2.22c-12 0-18.27-5.25-18.27-16.45 0-11.81 6.86-17.16 20.28-17.16a97.46 97.46 0 0 1 15.85 1.31l2.32-9.69a122.71 122.71 0 0 0 -17-1.21c-20.49 0-32.7 7.07-32.7 26.95 0 17 10.39 25.84 29.57 25.84 9.08 0 17.86-2.93 24.22-5.76v-22.91h-21.65z"/><path d="m290 106a3.09 3.09 0 0 0 -1.93-2.95c-.92-.47-1.79-1-2.68-1.51q-40.47-23.13-80.94-46.27a3.62 3.62 0 0 0 -4.29 0c-23.92 13.7-79.93 45.7-84 48a2.82 2.82 0 0 0 -1.55 1.88 5.07 5.07 0 0 0 0 1.1v96a6 6 0 0 0 .07 1.2c.18 1 1.07 1.58 2 2.14l85.09 48.53h1.23a1.43 1.43 0 0 1 .24-.19c2.73-1.55 59.2-33.77 84.72-48.31a3.47 3.47 0 0 0 2.11-3.26c-.07-11.64-.07-75.87-.07-96.36zm-16.1 76.69c0 3.26-.39 6.52-.58 9.77a4.86 4.86 0 0 1 -2.44 3.66c-1.54 1-3.1 2.08-4.69 3.07-9.35 5.85-45.23 26.11-53.5 30.72-1.44.79-2.92 1.54-4.42 2.27-1.07.53-2.2.95-3.27 1.47a6.17 6.17 0 0 1 -5.54-.07c-3.53-1.73-7.1-3.39-10.49-5.26-15.87-8.76-31.57-17.69-47-26.94-3-1.77-5.73-3.73-8.59-5.59a4.41 4.41 0 0 1 -2.1-3.58c-.19-2.56-.58-59.23-.44-69.08 0-2.34.28-4.67.46-7a4.33 4.33 0 0 1 2-3.43c1.59-1.1 3.14-2.23 4.79-3.26 12.17-7.56 49.57-28.57 55.75-31.89 2.06-1.1 4.32-2 6.5-3a5.26 5.26 0 0 1 4.05 0 50.92 50.92 0 0 1 7.46 3.49c9.23 5.11 45.07 25.6 53.78 30.74 1.71 1 3.25 2.22 4.94 3.26a5.65 5.65 0 0 1 2.89 4.84c.16 3.3.4 6.58.45 9.88.14 8.87.14 46.13-.01 55.93z"/><path d="m245.18 129.78c-9.88-5.9-19.67-11.89-29.48-17.86a65.26 65.26 0 0 1 -12.44-9.71c-.17-.18-.37-.34-.59-.55-.32.28-.63.53-.89.79a78.23 78.23 0 0 1 -14.76 11c-9.25 5.58-18.46 11.2-27.7 16.78a31.4 31.4 0 0 0 -9.07 8.1 27.47 27.47 0 0 0 -5.58 19.36 27.77 27.77 0 0 0 5.56 14.49 26.77 26.77 0 0 0 10.16 8.36 22.66 22.66 0 0 0 13.48 2 26.89 26.89 0 0 0 9.67-3.55c3.05-1.81 6.07-3.67 9.11-5.5.32-.2.66-.4 1.2-.71v1.25 10.53 13.65a4.46 4.46 0 0 0 1.56 3.56 27.15 27.15 0 0 0 5.55 3.64 3.25 3.25 0 0 0 3.34 0c1.54-.92 3.1-1.82 4.57-2.81a5.27 5.27 0 0 0 2.53-4.6c-.07-8 0-15.93 0-23.89v-1.21c.49.28.81.44 1.12.63 2.95 1.77 5.86 3.6 8.84 5.33a36.86 36.86 0 0 0 4.64 2.24 23 23 0 0 0 19.64-.93 24.83 24.83 0 0 0 6.47-4.68c7.55-7.73 9.94-16.61 7.87-26.32-1.72-8.17-6.76-14.59-14.8-19.39zm-52.33 23.92c-4.64 2.79-9.26 5.62-13.88 8.44-1 .59-1.92 1.21-2.92 1.75a24.4 24.4 0 0 1 -3 1.45 8.59 8.59 0 0 1 -8-.84 9.14 9.14 0 0 1 -2.78-2.72 11.16 11.16 0 0 1 -1.66-9.41 11 11 0 0 1 5.34-6.61l7.22-4.4 19.57-12c.22-.14.44-.25.86-.49 0 .48.07.8.07 1.1l.06 15.22c0 2.31 0 4.62.05 6.93a1.54 1.54 0 0 1 -.93 1.58zm49.39 9a9 9 0 0 1 -5 3 7.93 7.93 0 0 1 -4.63-.26 17.93 17.93 0 0 1 -3.24-1.47c-5.74-3.44-11.45-6.93-17.18-10.39a1.19 1.19 0 0 1 -.72-1.1c0-7.67 0-15.34 0-23a5.13 5.13 0 0 1 .07-.61l.81.45 27 16.43a11 11 0 0 1 5.37 6.92 11.15 11.15 0 0 1 -2.48 10.06z"/><path d="m0 0h400v400h-400z" fill="none"/></svg>