<svg viewBox="0 0 400 400" xmlns="http://www.w3.org/2000/svg" xmlns:xlink="http://www.w3.org/1999/xlink"><linearGradient id="a" gradientUnits="userSpaceOnUse" x1="283.52" x2="143.06" y1="310.15" y2="52.04"><stop offset="0" stop-color="#a6a6a6"/><stop offset="0" stop-color="#808080"/><stop offset=".15" stop-color="#fff"/><stop offset=".3" stop-color="#a6a6a6"/><stop offset=".45" stop-color="#fff"/><stop offset=".6" stop-color="#a6a6a6"/><stop offset=".75" stop-color="#fff"/><stop offset=".9" stop-color="#a6a6a6"/><stop offset="1" stop-color="#fff"/></linearGradient><linearGradient id="b" gradientUnits="userSpaceOnUse" x1="283.58" x2="137.1" y1="310.12" y2="40.95"><stop offset="0" stop-color="#fff"/><stop offset=".1" stop-color="#a6a6a6"/><stop offset=".25" stop-color="#fff"/><stop offset=".4" stop-color="#a6a6a6"/><stop offset=".55" stop-color="#fff"/><stop offset=".7" stop-color="#a6a6a6"/><stop offset=".85" stop-color="#fff"/><stop offset="1" stop-color="#808080"/><stop offset="1" stop-color="#a6a6a6"/></linearGradient><linearGradient id="c" gradientUnits="userSpaceOnUse" x1="242.19" x2="159.49" y1="306.81" y2="306.81"><stop offset="0" stop-color="#737373"/><stop offset=".29" stop-color="#858585"/><stop offset=".89" stop-color="#b5b5b5"/><stop offset="1" stop-color="#bfbfbf"/></linearGradient><linearGradient id="d" gradientUnits="userSpaceOnUse" x1="157.15" x2="241.33" y1="310.77" y2="310.77"><stop offset="0" stop-color="#bfbfbf"/><stop offset=".11" stop-color="#b5b5b5"/><stop offset=".71" stop-color="#858585"/><stop offset="1" stop-color="#737373"/></linearGradient><linearGradient id="e" gradientUnits="userSpaceOnUse" x1="161.3" x2="237.8" y1="308.99" y2="308.99"><stop offset="0" stop-color="#fff"/><stop offset="1" stop-color="#666"/></linearGradient><linearGradient id="f" gradientUnits="userSpaceOnUse" x1="263.06" x2="136.55" y1="99.21" y2="227.53"><stop offset="0" stop-color="#8c8c8c"/><stop offset=".29" stop-color="#9e9e9e"/><stop offset=".88" stop-color="#cecece"/><stop offset="1" stop-color="#d9d9d9"/></linearGradient><linearGradient id="g" gradientUnits="userSpaceOnUse" x1="200.18" x2="200.18" y1="242.49" y2="103.98"><stop offset="0" stop-color="#4d4d4d"/><stop offset=".21" stop-color="#5f5f5f"/><stop offset=".62" stop-color="#8f8f8f"/><stop offset="1" stop-color="#bfbfbf"/></linearGradient><linearGradient id="h" gradientUnits="userSpaceOnUse" x1="194.98" x2="214.85" y1="315.15" y2="132.21"><stop offset="0" stop-color="#808080"/><stop offset="0" stop-color="#a6a6a6"/><stop offset=".25" stop-color="#fff"/><stop offset=".5" stop-color="#a6a6a6"/><stop offset=".75" stop-color="#fff"/><stop offset="1" stop-color="#808080"/></linearGradient><linearGradient id="i" gradientUnits="userSpaceOnUse" x1="183.96" x2="183.96" y1="163.36" y2="390.87"><stop offset="0" stop-color="#fff"/><stop offset=".06" stop-color="#f5f5f5"/><stop offset=".51" stop-color="#a8a8a8"/><stop offset=".84" stop-color="#787878"/><stop offset="1" stop-color="#666"/></linearGradient><linearGradient id="j" gradientUnits="userSpaceOnUse" x1="200.18" x2="235.71" y1="201.1" y2="201.1"><stop offset="0" stop-color="#737373"/><stop offset="1" stop-color="#666"/></linearGradient><linearGradient id="k" gradientUnits="userSpaceOnUse" x1="216.4" x2="216.4" y1="141.08" y2="304.9"><stop offset="0" stop-color="#b2b2b2"/><stop offset="1" stop-color="#666"/></linearGradient><linearGradient id="l" gradientUnits="userSpaceOnUse" x1="201.28" x2="201.28" y1="210.62" y2="307.98"><stop offset="0" stop-color="#808080"/><stop offset="1" stop-color="#4c4c4c"/></linearGradient><linearGradient id="m" gradientTransform="matrix(-1 0 0 1 3902.39 0)" gradientUnits="userSpaceOnUse" x1="3703.32" x2="3703.32" y1="210.62" y2="307.98"><stop offset="0" stop-color="#f2f2f2"/><stop offset="1" stop-color="#bfbfbf"/></linearGradient><path d="m105.42 72.34a27.16 27.16 0 0 0 -8.59 9.09 31 31 0 0 0 -2.16 4.5 39.45 39.45 0 0 0 -2.32 9.25 85 85 0 0 0 -.67 8.59v2.11s0 1.46 0 2.19c0 1.43.1 2.86.17 4.3s.17 2.86.28 4.29.23 2.86.34 4.31.22 2.85.36 4.29c.27 2.86.55 5.72.82 8.59q1.91 19.41 5.24 38.66 2.23 12.93 4.81 25.77 3.49 17.34 8.15 34.38 4.74 17.34 10.51 34.34a409.72 409.72 0 0 0 18.1 44.68q2.07 4.38 4.44 8.59a40.44 40.44 0 0 0 6.5 8.6 20.19 20.19 0 0 0 5.6 4 36.29 36.29 0 0 0 8.6 2.83 72.84 72.84 0 0 0 8.59 1.11c2.87.2 5.73.35 8.61.44q7.26.27 14.54.26h5.31q7.26 0 14.53-.26 4.31-.14 8.6-.44a73 73 0 0 0 8.6-1.11 36.29 36.29 0 0 0 8.6-2.83 19.37 19.37 0 0 0 2.27-1.27 19.73 19.73 0 0 0 3.27-2.63v-.06a39.81 39.81 0 0 0 6.5-8.59q2.37-4.21 4.45-8.59a411.35 411.35 0 0 0 18.18-44.73q5.75-17 10.5-34.38c3.11-11.35 5.83-22.83 8.15-34.36q2.58-12.85 4.81-25.78 3.33-19.25 5.24-38.67c.28-2.86.55-5.73.83-8.6.13-1.43.26-2.85.35-4.29s.22-2.87.34-4.3.22-2.86.28-4.29.13-2.87.17-4.3c0-.73 0-1.46 0-2.2s0-1.4 0-2.09c-.08-2.88-.3-5.75-.66-8.59a39.92 39.92 0 0 0 -2.33-9.26 31.92 31.92 0 0 0 -2.14-4.5 27.27 27.27 0 0 0 -8.6-9.08 37.6 37.6 0 0 0 -8.59-4.2 60.08 60.08 0 0 0 -8.59-2.3c-2.84-.55-5.71-1-8.6-1.24s-5.72-.49-8.59-.66-5.73-.32-8.6-.46-5.73-.23-8.6-.32-5.72-.17-8.6-.24-5.73-.12-8.59-.17q-12.81-.21-25.62-.22h-.35q-12.81 0-25.61.22c-2.87.05-5.74.1-8.6.17l-8.61.24c-2.87.09-5.72.2-8.59.32s-5.72.28-8.6.46-5.73.4-8.59.66-5.75.69-8.61 1.24a61.16 61.16 0 0 0 -8.59 2.3 37.84 37.84 0 0 0 -7.27 3.39q-.69.41-1.35.84z" stroke="#000" stroke-miterlimit="10" stroke-width="7.93"/><path d="m249.37 245.9c17.15-37.39 27.69-82.54 31.31-134.19-26.16-2.16-54-3.3-80.5-3.3s-54.35 1.14-80.5 3.3c3.62 51.65 14.16 96.8 31.3 134.19a136.39 136.39 0 0 1 40-18.15l1.31-.35c.93-.2 8.77-1.81 15.81 0l1.31.35a136.42 136.42 0 0 1 40 18.16z" fill="#4c4c4c"/><path d="m126.64 92.83 1.24-.48a6.12 6.12 0 0 0 1.93-1.35 2.57 2.57 0 0 0 .71-2.07 3.54 3.54 0 0 0 -.08-.45 3.49 3.49 0 0 0 -1.54-2 6.28 6.28 0 0 0 -2.05-.81 11.06 11.06 0 0 0 -2.75-.2l-6.09.3c0 .21.68 13.94.69 14.16l2.88-.14-.3-6.24 2.3-.11 6.55 5.94 3.48-.17-6.84-6.21zm-.64-1.63a5.38 5.38 0 0 1 -2.53.71l-2.26.11-.21-4.86v-.11l2.27-.1a5.49 5.49 0 0 1 2.09.26l.5.2a3.38 3.38 0 0 1 1 .7 1.85 1.85 0 0 1 .43.74l.07.39v.38a1.78 1.78 0 0 1 -.36.79 3.28 3.28 0 0 1 -1 .79z" fill="#fff"/><path d="m169.66 86.62a9.38 9.38 0 0 0 -1.88-1.42 10.44 10.44 0 0 0 -2-.87 12.27 12.27 0 0 0 -7.91.13 10.84 10.84 0 0 0 -2 1 9.33 9.33 0 0 0 -1.82 1.49 7 7 0 0 0 -1.35 2.05 6.32 6.32 0 0 0 -.51 2.5 5.92 5.92 0 0 0 .6 2.48 7.27 7.27 0 0 0 1.44 2 8.69 8.69 0 0 0 1.88 1.42 10.21 10.21 0 0 0 2 .88 11.48 11.48 0 0 0 2 .46 13.11 13.11 0 0 0 2 .12 12.89 12.89 0 0 0 2-.19 10.53 10.53 0 0 0 2-.53 10.84 10.84 0 0 0 2-1 8.72 8.72 0 0 0 1.83-1.49 7 7 0 0 0 1.37-2.07 5.8 5.8 0 0 0 .5-2.5 5.94 5.94 0 0 0 -.59-2.48 7 7 0 0 0 -1.56-1.98zm-1.76 6.53a6.14 6.14 0 0 1 -.69 1.35 6.22 6.22 0 0 1 -1.42 1.43 7.31 7.31 0 0 1 -1.43.78 6.6 6.6 0 0 1 -1.23.34 5.93 5.93 0 0 1 -.72.1h-.72q-.36 0-.72-.06a6.11 6.11 0 0 1 -1.26-.31 6.5 6.5 0 0 1 -1.44-.73 5.86 5.86 0 0 1 -1.47-1.38 6.61 6.61 0 0 1 -.75-1.32 5.42 5.42 0 0 1 -.39-2 5.68 5.68 0 0 1 .32-2 5.89 5.89 0 0 1 .7-1.34 6.26 6.26 0 0 1 1.42-1.44 6.79 6.79 0 0 1 1.43-.77 6.85 6.85 0 0 1 2.32-.46 7.79 7.79 0 0 1 1.07.07 6.5 6.5 0 0 1 2.71 1 6 6 0 0 1 1.46 1.38 5.49 5.49 0 0 1 .75 1.31 5.49 5.49 0 0 1 .06 3.91z" fill="#fff"/><path d="m200.96 94.42-6.53-10.45h-3.67l9.36 14.98 9.36-14.98h-1.99z" fill="#fff"/><path d="m244.54 85.9-.76-1.71-12.56-.22-.25 14.4 12.56.22.82-1.68-10.24-.18.08-4.66 8.55.15.02-1.69-8.55-.15.1-4.66z" fill="#fff"/><path d="m275 92.74a9 9 0 0 0 1.13-.31 6.35 6.35 0 0 0 2.09-1.17 2.71 2.71 0 0 0 .91-2.55 3.58 3.58 0 0 0 -1.37-2.25 6.29 6.29 0 0 0 -2-1 11.08 11.08 0 0 0 -2.76-.46l-6.2-.33-.72 14.33 3.1.16.33-6.24 2.15.11 5.92 6.58 3.79.19zm-3.25-1.4-2.15-.11.25-4.75 2.15.12a5.15 5.15 0 0 1 2 .47 4.16 4.16 0 0 1 .47.24 3.18 3.18 0 0 1 .87.76 1.78 1.78 0 0 1 .34.74 2.31 2.31 0 0 1 0 .37 1.36 1.36 0 0 1 -.07.35 1.71 1.71 0 0 1 -.41.7 3 3 0 0 1 -.95.67 5.06 5.06 0 0 1 -2.5.44z" fill="#fff"/><path d="m308.32 103.76c-.08-2.88-.3-5.75-.66-8.59a39.92 39.92 0 0 0 -2.33-9.26 31.92 31.92 0 0 0 -2.14-4.5 27.27 27.27 0 0 0 -8.6-9.08 37.6 37.6 0 0 0 -8.59-4.22 60.08 60.08 0 0 0 -8.59-2.3c-2.84-.55-5.71-1-8.6-1.24s-5.72-.49-8.59-.66-5.73-.32-8.6-.46-5.73-.23-8.6-.32-5.72-.17-8.6-.24-5.73-.12-8.59-.17q-12.81-.21-25.62-.22h-.35q-12.81 0-25.61.22c-2.87.05-5.74.1-8.6.17l-8.61.24c-2.87.09-5.72.2-8.59.32s-5.72.28-8.6.46-5.73.4-8.59.66-5.75.69-8.61 1.24a61.16 61.16 0 0 0 -8.59 2.3 37.84 37.84 0 0 0 -7.27 3.39q-.69.41-1.35.84a27.16 27.16 0 0 0 -8.59 9.09 31 31 0 0 0 -2.16 4.5 39.45 39.45 0 0 0 -2.32 9.25 85 85 0 0 0 -.67 8.59v2.11s0 1.46 0 2.19c0 1.43.1 2.86.17 4.3s.17 2.86.28 4.29.23 2.86.34 4.31.22 2.85.36 4.29c.27 2.86.55 5.72.82 8.59q1.91 19.41 5.24 38.66 2.23 12.93 4.81 25.77 3.49 17.34 8.15 34.38 4.72 17.34 10.49 34.34a409.72 409.72 0 0 0 18.1 44.68q2.07 4.38 4.44 8.59a40.44 40.44 0 0 0 6.5 8.6 20.19 20.19 0 0 0 5.6 4 36.29 36.29 0 0 0 8.6 2.83 72.84 72.84 0 0 0 8.59 1.11c2.87.2 5.73.35 8.61.44q7.26.27 14.54.26h5.31q7.26 0 14.53-.26 4.31-.14 8.6-.44a73 73 0 0 0 8.6-1.11 36.29 36.29 0 0 0 8.6-2.83 19.37 19.37 0 0 0 2.27-1.27 19.73 19.73 0 0 0 3.27-2.63v-.06a39.81 39.81 0 0 0 6.5-8.59q2.37-4.21 4.45-8.59a411.35 411.35 0 0 0 18.18-44.73q5.75-17 10.5-34.38c3.11-11.35 5.83-22.83 8.15-34.36q2.58-12.85 4.81-25.78 3.33-19.25 5.24-38.67c.28-2.86.55-5.73.83-8.6.13-1.43.26-2.85.35-4.29s.22-2.87.34-4.3.22-2.86.28-4.29.13-2.87.17-4.3c0-.73 0-1.46 0-2.2s.02-1.38 0-2.07zm-4.83 4.41-.17 4.19-.26 4.15-.34 4.31-.36 4.21-.82 8.57c-1.26 12.75-3 25.63-5.18 38.3-1.48 8.56-3.1 17.2-4.8 25.65-2.29 11.38-5 22.83-8.06 34-3.14 11.4-6.64 22.86-10.43 34.09a408.89 408.89 0 0 1 -17.87 44.16c-1.34 2.81-2.78 5.61-4.29 8.28a35.07 35.07 0 0 1 -5.68 7.52 14.94 14.94 0 0 1 -4.18 2.95 31.16 31.16 0 0 1 -7.4 2.43 64.51 64.51 0 0 1 -8 1c-2.77.19-5.61.34-8.44.43-4.77.18-9.61.26-14.36.26h-5.31c-4.74 0-9.58-.08-14.36-.26-2.82-.09-5.67-.24-8.43-.43a64.51 64.51 0 0 1 -8-1 30.72 30.72 0 0 1 -7.4-2.43 14.93 14.93 0 0 1 -4.19-2.95 35.35 35.35 0 0 1 -5.67-7.52c-1.52-2.69-3-5.47-4.31-8.28a408.45 408.45 0 0 1 -17.87-44.13c-3.78-11.21-7.28-22.68-10.41-34.09-3.07-11.2-5.78-22.64-8.07-34-1.71-8.52-3.32-17.14-4.79-25.65-2.19-12.63-3.93-25.52-5.19-38.3l-.78-8.63-.36-4.21-.33-4.31-.27-4.15-.17-4.19v-2-2c.07-2.69.29-5.41.62-8.09a35.74 35.74 0 0 1 2-8.08 26.11 26.11 0 0 1 1.8-3.77 22.41 22.41 0 0 1 7-7.41 32.33 32.33 0 0 1 7.46-3.67 56.69 56.69 0 0 1 7.98-2.12c2.67-.53 5.4-.91 8.11-1.17s5.63-.49 8.43-.66l8.51-.44 8.54-.32 8.56-.24 8.56-.17c8.49-.14 17.08-.21 25.52-.21h.36c8.47 0 17.05.07 25.53.21l8.56.17 8.56.24 8.54.32 8.5.44c2.81.17 5.65.39 8.44.66s5.44.64 8.12 1.17a56.93 56.93 0 0 1 7.91 2.11 33.22 33.22 0 0 1 7.45 3.69 22.28 22.28 0 0 1 7 7.41 24.12 24.12 0 0 1 1.82 3.79 35.74 35.74 0 0 1 2 8.08c.34 2.68.55 5.4.63 8.09v2z" fill="url(#a)"/><path d="m303.49 104.15c-.08-2.69-.29-5.41-.63-8.09a35.74 35.74 0 0 0 -2-8.08 24.12 24.12 0 0 0 -1.86-3.77 22.28 22.28 0 0 0 -7-7.41 33.22 33.22 0 0 0 -7.47-3.67 56.93 56.93 0 0 0 -7.89-2.13c-2.68-.53-5.41-.91-8.12-1.17s-5.63-.49-8.44-.66l-8.5-.44-8.58-.3-8.56-.24-8.52-.19c-8.48-.14-17.06-.21-25.53-.21h-.39c-8.44 0-17 .07-25.52.21l-8.56.17-8.56.24-8.54.32-8.51.44c-2.8.17-5.63.39-8.43.66s-5.44.64-8.11 1.17a56.69 56.69 0 0 0 -7.92 2.11 32.33 32.33 0 0 0 -7.46 3.67 22.41 22.41 0 0 0 -7 7.41 26.11 26.11 0 0 0 -1.79 3.81 35.74 35.74 0 0 0 -2 8.08c-.33 2.68-.55 5.4-.62 8.09v2 2l.17 4.19.27 4.15.33 4.31.36 4.21.82 8.57c1.26 12.78 3 25.67 5.19 38.3 1.47 8.51 3.08 17.13 4.79 25.65 2.29 11.39 5 22.83 8.07 34 3.13 11.41 6.63 22.88 10.41 34.09a408.45 408.45 0 0 0 17.87 44.13c1.34 2.81 2.79 5.59 4.31 8.28a35.35 35.35 0 0 0 5.67 7.52 14.93 14.93 0 0 0 4.19 2.95 30.72 30.72 0 0 0 7.4 2.43 64.51 64.51 0 0 0 8 1c2.76.19 5.61.34 8.43.43 4.78.18 9.62.26 14.36.26h5.31c4.75 0 9.59-.08 14.36-.26 2.83-.09 5.67-.24 8.44-.43a64.51 64.51 0 0 0 8-1 31.16 31.16 0 0 0 7.4-2.43 14.94 14.94 0 0 0 4.18-2.95 35.07 35.07 0 0 0 5.68-7.52c1.51-2.67 3-5.47 4.29-8.28a408.89 408.89 0 0 0 17.87-44.13c3.79-11.23 7.29-22.69 10.43-34.09 3.06-11.2 5.77-22.65 8.06-34 1.7-8.45 3.32-17.09 4.8-25.65 2.19-12.67 3.92-25.55 5.18-38.3l.82-8.57.36-4.21.34-4.31.26-4.15.17-4.19v-2zm-5.49 3.57c0 1.38-.09 2.73-.16 4.1s-.15 2.7-.26 4c0 0-.35 4.42-.35 4.47-.09 1.34-.2 2.66-.33 4l-.2 2.12c-.21 2.15-.41 4.3-.62 6.44-1.24 12.59-3 25.35-5.14 37.93-1.47 8.53-3.07 17.11-4.76 25.5-2.27 11.29-5 22.62-8 33.69-3.08 11.23-6.56 22.6-10.34 33.79a399.65 399.65 0 0 1 -17.64 43.56c-1.28 2.69-2.66 5.37-4.12 8a30 30 0 0 1 -4.65 6.19l-.24.24a9.73 9.73 0 0 1 -1.54 1.24 11.51 11.51 0 0 1 -1.13.64 26.36 26.36 0 0 1 -6.13 2 61 61 0 0 1 -7.35.95c-2.82.19-5.59.34-8.23.42-4.6.17-9.36.26-14.21.26h-5.3c-4.84 0-9.61-.09-14.16-.26-2.72-.08-5.41-.22-8.28-.42a59.64 59.64 0 0 1 -7.33-.95 26 26 0 0 1 -6.16-2 9.85 9.85 0 0 1 -2.72-1.93 30 30 0 0 1 -4.8-6.36c-1.48-2.64-2.87-5.31-4.12-8a402.33 402.33 0 0 1 -17.65-43.57c-3.78-11.19-7.26-22.55-10.33-33.79-3-11-5.71-22.36-8-33.69-1.72-8.57-3.32-17.14-4.75-25.49-2.17-12.49-3.9-25.24-5.14-37.92l-.82-8.55c-.13-1.35-.25-2.69-.34-4l-.07-.9c-.09-1.21-.18-2.41-.29-3.61s-.19-2.53-.25-3.86-.11-2.78-.16-4.16c0-.57 0-1.21 0-1.85s0-1.22 0-1.84a75.1 75.1 0 0 1 .59-7.55 29.19 29.19 0 0 1 1.72-6.87 21.18 21.18 0 0 1 1.44-3 16.87 16.87 0 0 1 5.4-5.69l.92-.58a28.35 28.35 0 0 1 5.4-2.52 54 54 0 0 1 7.19-1.93c2.52-.48 5.08-.85 7.62-1.09 2.79-.26 5.58-.48 8.26-.64s5.63-.31 8.45-.45 5.59-.22 8.41-.31l8.53-.24 8.53-.17c9-.14 17.33-.22 25.45-.22h.35c8.12 0 16.45.08 25.45.22l8.52.17c2.85.07 5.68.15 8.51.24s5.66.19 8.48.32 5.6.27 8.41.44 5.4.37 8.29.64c2.52.24 5.08.61 7.57 1.09a50.73 50.73 0 0 1 7.18 1.92 27.59 27.59 0 0 1 6.31 3.09 17.05 17.05 0 0 1 5.37 5.65 22.37 22.37 0 0 1 1.44 3 29.27 29.27 0 0 1 1.71 6.82 73.48 73.48 0 0 1 .57 7.55v1.82s0 1.28 0 1.9z" fill="url(#b)"/><path d="m200.15 312.53a10.47 10.47 0 0 0 6.3-2.68c1.59-1.27 3-2.77 4.05-3.7 2.75-2.41 5.14-3.41 8.7-3.13a30.16 30.16 0 0 1 4.7.91c1.79.46 3.69 1 5.6 1.49 3.41.88 7.2 1.64 10.72 1.16l2.78-1.94c-.3-.31-1-.36-1.91-.14-6.74 1.58-15.65-2.87-21.74-3.35-4.17-.34-7.06.9-10.11 3.59-2.08 1.83-5.54 5.91-9.09 5.91-3.55 0-7-4.08-9.09-5.91-3.05-2.69-5.94-3.93-10.11-3.59-6.09.48-15 4.93-21.74 3.35-.93-.22-1.61-.17-1.91.14l2.78 1.94c3.52.48 7.32-.28 10.72-1.16 1.92-.48 3.81-1 5.61-1.49a29.62 29.62 0 0 1 4.69-.91c3.56-.28 6 .72 8.7 3.13 1 .93 2.46 2.43 4 3.7a10.5 10.5 0 0 0 6.3 2.68z" fill="url(#c)"/><path d="m200.23 316.87c7.74 0 15.43.16 23.13-.26 3.9-.23 7.62-.44 11.31-2.16 3.87-1.8 5.81-4.85 8-8.09.56-.83.64-1.4.34-1.72l-2.78 1.94c-.25.36-.5.71-.74 1.07-.52.71-1.05 1.4-1.62 2.05a12.08 12.08 0 0 1 -4 3c-3.3 1.55-6.66 1.76-10.6 2-7.68.42-15.36.26-23 .26h-.12c-7.67 0-15.35.16-23-.26-3.94-.22-7.3-.43-10.61-2a12.24 12.24 0 0 1 -4-3c-.57-.65-1.1-1.34-1.62-2.05-.24-.36-.49-.71-.74-1.07l-2.78-1.94c-.3.32-.23.89.34 1.72 2.2 3.24 4.14 6.29 8 8.09 3.69 1.72 7.41 1.93 11.31 2.16 7.7.42 15.4.26 23.12.26z" fill="url(#d)"/><path d="m240.24 306.57c-3.52.48-7.31-.28-10.72-1.15-1.92-.49-3.81-1-5.61-1.5a29.52 29.52 0 0 0 -4.69-.9c-3.56-.29-6 .72-8.7 3.12-1.05.94-2.46 2.43-4.05 3.7a8.73 8.73 0 0 1 -12.59 0c-1.59-1.27-3-2.76-4-3.7-2.74-2.4-5.14-3.41-8.71-3.12a30 30 0 0 0 -4.69.9c-1.79.46-3.68 1-5.6 1.5-3.41.87-7.2 1.63-10.72 1.15l.75 1.07a25.06 25.06 0 0 0 1.61 2.05 12.34 12.34 0 0 0 4 3.05c3.3 1.54 6.66 1.75 10.6 2 7.69.43 15.4.27 23.08.27s15.39.16 23.09-.27c3.94-.22 7.3-.43 10.6-2a12.24 12.24 0 0 0 4-3.05c.57-.65 1.1-1.33 1.62-2.05l.74-1.07z" fill="url(#e)"/><path d="m200.18 110.1c-25.24 0-52.4 1-78.69 3.15 3.57 48.79 13.42 92.81 30.22 130.14a137.39 137.39 0 0 1 38.62-17.23 42.44 42.44 0 0 1 19.7 0 137.62 137.62 0 0 1 37.73 16.66l.88.57c16.81-37.33 26.65-81.35 30.23-130.14-26.29-2.12-53.44-3.15-78.69-3.15zm47.63 130.51a140 140 0 0 0 -38.08-16.47s-2.34.07-2.46-.57a41.91 41.91 0 0 0 -14.19.08c-.11.61-2.43.49-2.43.49a139.92 139.92 0 0 0 -38.09 16.47c-1.3-3-2.57-6-3.78-9a.61.61 0 0 1 -.05-.12c-.19-.47-.38-.94-.56-1.41l-.24-.61-.42-1.1c-.21-.52-.41-1-.6-1.56l-.06-.15c-.21-.54-.41-1.07-.61-1.61v-.13c-10.37-27.83-17.31-58.93-21-92.6q-.94-8.55-1.61-17.31c25.64-2 52.05-3 76.65-3s51 1 76.65 3c-3.7 46.99-13.19 89.43-29.12 125.6z" fill="url(#f)"/><path d="m200.18 108.41c-26.51 0-54.35 1.14-80.5 3.3 3.62 51.65 14.16 96.8 31.3 134.19a136.39 136.39 0 0 1 40-18.15l1.31-.35c.93-.2 8.77-1.81 15.81 0l1.31.35a136.42 136.42 0 0 1 40 18.16c17.15-37.39 27.69-82.54 31.31-134.19-26.2-2.17-54.03-3.31-80.54-3.31zm48.46 135-.88-.57a137.62 137.62 0 0 0 -37.76-16.68 42.44 42.44 0 0 0 -19.7 0 137.39 137.39 0 0 0 -38.62 17.23c-16.8-37.33-26.65-81.35-30.22-130.14 26.29-2.12 53.45-3.15 78.69-3.15s52.4 1 78.69 3.15c-3.55 48.75-13.39 92.81-30.2 130.14z" fill="url(#g)"/><path d="m198.73 309.87c-12.89-9.89-26.4-25.34-36.12-41.33l-1.13-1.85 1.75-1.29c11.27-8.34 16.53-13.95 20.85-22.24 4.76-9.15 6.6-18.54 7.77-26.51 2.46-16.76 2.59-39 2.44-56.56v-.29c0-2 0-3.49-.83-5a7.32 7.32 0 0 1 -.58-6.28l.1-.41a116.86 116.86 0 0 1 4.78-14.11l2.41-6.21 2.34 6a114.93 114.93 0 0 1 4.86 14.34l.1.4a7.38 7.38 0 0 1 -.58 6.29c-.8 1.46-.81 3-.83 4.92v.32c-.15 17.57 0 39.87 2.44 56.57 1.17 8 3 17.36 7.77 26.51 4.31 8.28 9.57 13.89 20.85 22.24l1.75 1.29-1.13 1.85c-9.72 16-23.22 31.43-36.12 41.33l-1.45 1.15z" opacity=".2"/><path d="m200.17 308c-12-9.24-25.37-24-35.53-40.68 11.71-8.66 17.11-14.53 21.55-23.06 4.53-8.71 6.61-17.7 8-27.25 2.52-17.13 2.62-39.75 2.46-56.94 0-2.21 0-4.28-1.11-6.36s-.77-2.93-.26-5a117.12 117.12 0 0 1 4.88-14.36 115.49 115.49 0 0 1 4.89 14.36c.5 2.05.85 2.95-.26 5s-1.1 4.15-1.12 6.36c-.15 17.19-.05 39.81 2.47 56.94 1.4 9.55 3.47 18.54 8 27.25 4.44 8.53 9.85 14.4 21.55 23.06-10.14 16.68-23.49 31.43-35.52 40.68z" fill="url(#h)"/><path d="m198 303.21a155.52 155.52 0 0 1 -30.23-35.41c8.18-5.92 15-12.4 19.92-21.42s7.12-18.07 8.66-27.87c2.78-17.65 2.89-40.77 2.74-58.47 0-2.61-.08-5-1.41-7.47a2.23 2.23 0 0 1 -.42-1.61c.1-.56.25-1.12.38-1.68.69-2.77 1.64-5.5 2.57-8.2v163.82z" fill="url(#i)"/><path d="m235.71 267.33c-11.7-8.66-17.11-14.53-21.55-23.06-4.54-8.71-6.6-17.71-8-27.25-2.52-17.14-2.63-39.75-2.47-56.94 0-2.21 0-4.28 1.11-6.37s.77-2.92.27-5a117.15 117.15 0 0 0 -4.89-14.36v6.72c.93 2.7 1.88 5.43 2.57 8.2q.21.82.39 1.68a2.23 2.23 0 0 1 -.43 1.61c-1.33 2.43-1.38 4.86-1.41 7.47-.15 17.7 0 40.83 2.74 58.46 1.54 9.81 3.83 19 8.66 27.88 4.91 9 11.74 15.5 19.92 21.43l3.09-.5z" fill="url(#j)"/><path d="m200.18 304.9 2.21-1.69a155.52 155.52 0 0 0 30.23-35.41c-8.18-5.92-15-12.4-19.92-21.42s-7.12-18.07-8.66-27.87c-2.78-17.65-2.89-40.77-2.74-58.47 0-2.61.08-5 1.41-7.47a2.23 2.23 0 0 0 .42-1.61c-.1-.56-.25-1.12-.38-1.68-.69-2.77-1.64-5.5-2.57-8.2z" fill="url(#k)"/><path d="m174.6 277.92a62.85 62.85 0 0 0 23.4-24.21v1.62a62.87 62.87 0 0 1 -23 23.17c-.15-.19-.24-.39-.39-.58z" fill="#ccc"/><path d="m174.17 277.3a63.93 63.93 0 0 0 23.83-25.19v1.61a62.37 62.37 0 0 1 -23.38 24.18z" fill="#666"/><path d="m202.34 255.06v-1.54a62.9 62.9 0 0 0 23.44 24.3c-.15.19-.27.44-.42.63a63.22 63.22 0 0 1 -23-23.3v-.09z" fill="#ccc"/><path d="m202.34 253.46v-1.63a63.63 63.63 0 0 0 23.93 25.33c-.14.21-.34.46-.48.65a62.79 62.79 0 0 1 -23.44-24.31z" fill="#666"/><path d="m200.17 308v-97.38c.61 0 1.11.92 1.32 1.32a7.54 7.54 0 0 1 .6 1.79 17.81 17.81 0 0 1 .3 3.78v85.7z" fill="url(#l)"/><path d="m200.18 308v-97.38c-.61 0-1.11.92-1.31 1.32a7.14 7.14 0 0 0 -.61 1.79 17.81 17.81 0 0 0 -.3 3.78v85.7l2.21 4.77z" fill="url(#m)"/><g fill="#808080"><path d="m182.35 112.17h-1.2c.22 10 .56 19.86 1 29.58 1.14 24.89 3 48.76 5.22 70.76l1.09-.34c-2.18-21.77-4-45.38-5.1-70q-.67-14.77-1.01-30z"/><path d="m162.13 112.75h-1.21q.74 11.85 1.77 23.44c2.59 28.84 6.48 56.29 11 81.2l1.14-.48c-4.43-24.68-8.29-51.88-10.85-80.45q-1.1-11.68-1.85-23.71z"/><path d="m143 113.67-1.13.07q.56 9.75 1.49 19.42a467.43 467.43 0 0 0 17.74 90.24l1.07-.57a465.24 465.24 0 0 1 -17.68-89.55q-.94-9.75-1.49-19.61z"/><path d="m257.91 113.7h-.53l1.13.07q-.56 9.75-1.49 19.42a468.18 468.18 0 0 1 -17.76 90.24l-.29-.15 1.36.73a467.26 467.26 0 0 0 17.95-91.01q.93-9.57 1.48-19.23z"/><path d="m218.21 141.78c-1.14 24.89-3 48.75-5.21 70.76.41.12.81.24 1.22.38 2.24-22.25 4.07-46.39 5.2-71.56q.66-14.37 1-29.14h-1.19c-.23 9.96-.58 19.84-1.02 29.56z"/><path d="m239.44 112.8q-.74 11.85-1.77 23.44c-2.59 28.84-6.48 56.29-11 81.19l1.1.47c4.53-25.11 8.45-52.81 11.05-81.92q1-11.43 1.74-23.13z"/></g><g opacity=".2"><path d="m143.34 133.16q-.93-9.68-1.49-19.42l1.13-.07h-.54l-1.84.11q.56 9.66 1.48 19.23a467.26 467.26 0 0 0 17.92 90.99l1.36-.73-.29.15a467.43 467.43 0 0 1 -17.73-90.26z"/><path d="m181.15 112.2h-1.19q.31 14.75 1 29.14c1.13 25.17 3 49.31 5.2 71.56.4-.14.81-.26 1.22-.38-2.25-22-4.07-45.87-5.21-70.76-.46-9.7-.8-19.58-1.02-29.56z"/><path d="m160.92 112.8h-1.16q.72 11.69 1.74 23.13c2.6 29.11 6.52 56.81 11.05 81.92l1.1-.47c-4.48-24.9-8.37-52.35-11-81.19q-.99-11.53-1.73-23.39z"/><path d="m217 142.22c-1.13 24.6-2.92 48.21-5.1 70l1.09.34c2.26-22 4.08-45.87 5.22-70.76.44-9.72.78-19.6 1-29.58h-1.2q-.31 15.17-1.01 30z"/><path d="m238.23 112.75q-.75 12-1.81 23.76c-2.56 28.57-6.42 55.77-10.85 80.45l1.14.48c4.48-24.91 8.37-52.36 11-81.2q1-11.58 1.77-23.44z"/><path d="m257.38 113.67q-.56 9.85-1.51 19.61a465.24 465.24 0 0 1 -17.68 89.55l1.07.57a468.18 468.18 0 0 0 17.74-90.24q.93-9.68 1.49-19.42z"/></g><path d="m0 0h400v400h-400z" fill="none"/></svg>