<svg viewBox="0 0 400 400" xmlns="http://www.w3.org/2000/svg"><path d="m337.5 200a137.5 137.5 0 1 0 -137.5 137.5 137.51 137.51 0 0 0 137.5-137.5z" fill-rule="evenodd"/><path d="m200 72.47c70.07 0 127.53 57.17 127.53 127.53 0 70.07-57.46 127.53-127.53 127.53-70.36 0-127.53-57.46-127.53-127.53a127.62 127.62 0 0 1 127.53-127.53z" fill="#fff"/><g fill-rule="evenodd"><path d="m322.84 200a122.84 122.84 0 1 0 -122.84 122.84 122.8 122.8 0 0 0 122.84-122.84z"/><path d="m134 149c2.64 2.35 6.74 6.74 12.9 6.74 6.45 0 11.15-2.35 15.54-2.35a13 13 0 0 1 11.44 7.34c-1.47-1.18-4.4-2.64-9.38-2.64-3.52 0-9.68 3.52-15 3.52-8.21 0-12.9-6.75-15.54-12.61z" fill="#e3e3e3"/><path d="m178.6 125.83-14.66-34c6.16 0 12.31 2.64 12.31 7.62a9.29 9.29 0 0 1 -1.76 5c0 .3 0 .3.3.3a6.2 6.2 0 0 1 4.39-2 5.64 5.64 0 0 1 5.57 5.87 5.56 5.56 0 0 1 -5.57 5.57h-1.18c.29 1.17 4.39 3.51 9.09 3.51a10.7 10.7 0 0 0 10-6.15 5.11 5.11 0 0 1 -3.52 1.17 5.63 5.63 0 0 1 -5.86-5.57 6 6 0 0 1 9.09-5 5.12 5.12 0 0 1 -2.08-4.15 5.87 5.87 0 0 1 11.73 0 4.7 4.7 0 0 1 -1.76 3.81 8.36 8.36 0 0 1 2.64-.58 5.88 5.88 0 0 1 5.87 5.86 5.64 5.64 0 0 1 -5.87 5.57 8.28 8.28 0 0 1 -3.81-1.17c.88 2.34 5.28 6.45 10.56 6.45a13.71 13.71 0 0 0 9.08-3.81h-.88a5.74 5.74 0 1 1 0-11.44 6.19 6.19 0 0 1 4.11 2h.29a.29.29 0 0 0 .3-.3 8 8 0 0 1 -2-5c0-5 6.16-7.62 12-7.62l-14.07 33.71h-42.54a3.65 3.65 0 0 0 -1.77.3z" fill="#fff"/><path d="m174.2 133.16c.59-3.52 3.23-7.62 6.16-7.62h42.51a31.42 31.42 0 0 1 2.64 3.22 22.16 22.16 0 0 1 8.21-1.46 32.14 32.14 0 0 1 3.81.29s1.76.3 2.05.89a45.1 45.1 0 0 1 -5.28 9.67c7.34 7.62 10.27 17 8.8 29a43.48 43.48 0 0 0 -8.5-3.52 29.27 29.27 0 0 1 5 17 32.43 32.43 0 0 1 -2.6 12.63l-1.18 3.23c-2.35-3.23-4.11-5.57-6.74-7.62a42.37 42.37 0 0 1 1.46 9.38c0 7.91-3.22 14.95-10.55 19.64a52.18 52.18 0 0 0 -7.33-12.9c.29 7.33 0 15.83-2.93 21.4-5.57 7.33-13.19 11.72-25.22 14.65 2-5 3.81-18.17 2.93-34-2.34 3.52-5 10.26-5.86 18.76-2.93-2.35-11.73-8.8-11.73-20.23 0-4.69 1.76-9.38 4.69-14.07-4.1 1.76-7 4.39-10 10.26-.88-8.21.58-17 4.69-23.45-10.56-.3-13.49-6.45-12.91-15.83a15.08 15.08 0 0 0 10.56 4.39c4.4 0 10-1.76 15.54-9.08a38.55 38.55 0 0 0 -6.74-2.93 14 14 0 0 1 -8.5-5.28c-1.18-1.46-3.23-1.76-5.57-1.76-2.93 0-7.33.59-14.07 4.11.88-17 9.09-22.29 15.53-22.29 3.23 0 7 1.17 11.14 3.52z" fill="#fff"/><path d="m139 247.2c10.84 0 20.82 1.76 20.82 10.85h-14.64c0-3.81-2.64-4.4-6.15-4.4-3.23 0-5.58.88-5.58 3.23s2.05 3.52 7.34 3.52c13.19 0 19.05 2.34 20.22 8.5l8.5-21.11h19.06l9.08 22.57 9.35-22.57h18.8l10.55 24.92v-24.92h30.2c7.62 0 9.38 5.28 9.38 8.5 0 2.93-1.17 7-7 7.92 6.74.58 8.21 5.57 8.21 8.5 0 3.52-2.64 9.09-9.09 9.09h-41.05l-2.05-5.27h-16.74l-2.34 5.27h-16.13l-2.35-5.27h-16.71l-2.34 5.27h-12.91l1.18-2.93c-2.05 1.76-5.57 3.81-17.3 3.81-11.14 0-21.1-2.34-21.4-11.44h15c0 2.05 1.47 4.4 6.16 4.4 5.86 0 6.45-1.76 6.45-3.23 0-2.05-1.47-3.81-8.5-3.81-10.26 0-17.59-1.76-17.59-10 0-9.38 10.84-11.44 19.64-11.44zm72.42 21.4h10.28l-5.28-12.6zm-37.53 0h10.26l-5.26-12.6zm85.63-7.6a2.58 2.58 0 0 0 2.34-2.64 2.51 2.51 0 0 0 -2.34-2.34h-10.85v5zm-10.86 12h11.44a2.58 2.58 0 0 0 2.64-2.34 2.39 2.39 0 0 0 -2.64-2.35h-11.44z" fill="#fff"/><path d="m186.81 138.43c0 1.18-1.47 2.93-4.11 2.93a3.68 3.68 0 0 1 -3.81-2.64 3.78 3.78 0 0 1 -1.76-.29c0 4.1 2.93 5.27 5.87 5.27 2.05 0 5.27-.58 6.15-5.27z"/><path d="m173.91 137.26c-4.11-2.35-7.92-3.81-10.85-3.81-7 0-10 7.91-11.14 12.31a33.72 33.72 0 0 1 9.68-1.76c3.81 0 6.45.88 8.5 3.22a7.56 7.56 0 0 0 5.57 3.52c3.81 1.18 10.55 3.53 10.55 6.74a3 3 0 0 1 -.88 2.35c-6.74 8.5-12.9 10.84-18.17 10.84a19.41 19.41 0 0 1 -6.45-1.17c1.46 4.1 5.57 5 8.79 5a40.09 40.09 0 0 0 10-1.46c-5.28 4.11-9.68 9.38-10.85 17.59 4.69-3.52 9.68-4.39 15-4.39-6.15 6.45-9.67 12.9-9.67 19.35a18.32 18.32 0 0 0 5 12.9 41.93 41.93 0 0 1 11.44-21.1c2 15.24.88 31.66-.3 38.11 6.46-2.34 12-5.27 16.42-11.14 2.64-4.4 2.93-17.3 2.05-27.85a37.54 37.54 0 0 1 12.9 15.24c3.23-3.22 5-7.62 5-13.48a40 40 0 0 0 -4.11-16.72c4.69 1.47 8.8 3.53 12 7.34a28.82 28.82 0 0 0 1.47-8.5c0-10.27-5.57-17.6-9.38-21.41a36.7 36.7 0 0 1 13.19 2.35 27.21 27.21 0 0 0 -7.33-20.23c-5.34 6.14-10.34 9.66-20.34 13.17 8.8 6.74 6.16 17-2.05 27.26-.88-4.39-2.05-8.21-5-11.43.58 5.57-.88 15.83-12.31 21.4a40.32 40.32 0 0 0 -1.17-12c-.88.88-2.35 2.05-3.81 3.22a12.2 12.2 0 0 1 -.3-4.69 65 65 0 0 0 5.87-6.45 55.34 55.34 0 0 1 2.93 12.9c4.1-3.81 7.33-10.84 3.22-23.45 6.16 3.23 9.38 6.45 11.73 11.73 6.45-10.85-.3-16.42-10.26-20.23 11.72-1.46 26.09-6.74 33.42-21.4-5-.3-12.6 1.46-19.94 10.84a5.91 5.91 0 0 1 -2.34-2.34 30.82 30.82 0 0 1 10.26-9.38c-.3-.59-.58-1.18-.88-1.18h-40.71c-1.46 0-2.93 2.64-3.52 5.57a14 14 0 0 0 3.81.3h4.69c2.93 0 7.33.29 10 2.05a5.74 5.74 0 0 1 -1.47 2.64c-.58-.3-1.18-.3-1.76-.58-1.46 6.74-6.16 8.21-9.38 8.21-8.21 0-9.68-6.46-9.09-10z"/></g><path d="m0 0h400v400h-400z" fill="none"/></svg>