<svg viewBox="0 0 400 400" xmlns="http://www.w3.org/2000/svg"><path d="m211.51 293v26.09h10.86v-12h41.42v12h10.91v-41.15h-47.27c-10.97 0-15.92 5.81-15.92 15.06zm52.28-7v13h-41.42v-3.6c0-5.65.92-9.41 7.53-9.41z"/><path d="m130.78 304.94c0 9.25 5.06 14.15 15.92 14.15h47.92v-8h-45.39c-6.4 0-7.53-2-7.53-7.8v-1.34h50.77v-7.85h-50.77v-8.1h52.92v-8h-63.84z"/><path d="m104.48 295.58-40.55-3.33c-3.33-.25-3.93-1.45-3.93-3.44s1-2.91 3.55-2.91h50.13v-7.9h-51.36c-7.32 0-12.32 2.79-12.32 11s3.76 11 12.1 11.67l40.66 3.39c3.12.27 4 1.35 4 3.55s-1 3.44-3.71 3.44h-51.05v8h51.9c8.93 0 12.85-3.55 12.85-12-.01-7.7-3.56-10.71-12.27-11.47z"/><path d="m287.99 277.94v8.02h25.55v33.07h10.86v-33.07h25.6v-8.02z"/><path d="m112.55 167.8 127.57 21.78c-2.64 4.09-7.8 5.11-11.62 5.11-4.89 0-23.34-.22-30.44-.22-28.24 0-62.87-1.13-85.46-2.63.27 5.64 1.13 22.69 1.51 28.45.59 8.6.86 10.27 3 11.78 1 .7 2.9 1.61 8 2 48.62 3.38 87.39 3.71 125.53 1.61 16.45-.91 23.34-2.15 29.25-7.37 4.31-3.82 6.46-10.11 6.83-20.49.27-8.66.7-23.72.81-28.5l-174.9-32.6z"/><path d="m167.52 120.84c2.63-.32 24.95-.75 49.74-.48s53.25 1.72 70 2.58c-.38-7.26-1-20.38-1.35-25.33-.59-8.61-.86-10.27-3-11.78-1-.7-2.9-1.61-8-2-48.62-3.39-87.39-3.71-125.53-1.61-16.45.91-23.34 2.15-29.25 7.37-4.31 3.81-6.46 10.11-6.83 20.49-.27 8.12-.65 21.83-.76 27.48l175 30.23v-18.79l-128.63-23.85c.7-1.08 3.23-3.61 8.61-4.31z"/><path d="m0 0h400v400h-400z" fill="none"/></svg>