<svg viewBox="0 0 400 400" xmlns="http://www.w3.org/2000/svg"><path d="m196.4 65.61a98 98 0 1 0 98 98 98 98 0 0 0 -98-98zm-.08 187.29a89.32 89.32 0 1 1 89.31-89.31 89.3 89.3 0 0 1 -89.31 89.31z"/><path d="m260.63 203.65a43.24 43.24 0 0 0 -23-11.29 2 2 0 0 0 -2.34 2v3.16c0 .91-.67 2-1.65 2h-2c-2.41-.08-2.86-3-2.33-4.82 5.2-18.53 6.48-29.83 6.4-38-.08-8.74-.3-17.4-4.22-28.92-3.76-11.07-7.23-21.92-25.53-38.41a6.68 6.68 0 0 0 -4.14-1.81c-1.81-.15-3.24-.22-5.12-.22a77.44 77.44 0 0 0 -21.84 3.16c-2.56.75-2.18 2.56-.75 3.84 6.93 5.88 16.27 14.76 22.67 25.83-4.07.38-7.23-1.88-9.87-4.37a123.74 123.74 0 0 0 -24.7-18.07 3.63 3.63 0 0 0 -3.69-.3 70.43 70.43 0 0 0 -19.52 16.16c-1 1.2-.38 2.18.68 2.71a141.44 141.44 0 0 1 27.32 19.43c-2 1.65-5.2 1.12-9.79-1.28a108.77 108.77 0 0 0 -23.73-9 3.11 3.11 0 0 0 -3.61 1.28 72.54 72.54 0 0 0 -8.36 24.55 3.1 3.1 0 0 0 2.56 3.47c15.06 2.63 42 9.71 46.39 40.66.38 2.71-2.11 5.12-5.35 3.54-4.52-2.11-9-4.21-13.55-6.4a3.81 3.81 0 0 0 -1.51-.37h-21.36c-3 0-4.29 2.93-2.33 5.12a133 133 0 0 1 13.86 19 1.48 1.48 0 0 0 1.43.83h9.35a3.53 3.53 0 0 0 1.74-.45c2.93-1.74 5.87-3.47 8.81-5.13a3.25 3.25 0 0 1 1.73-.3h70.26a1.62 1.62 0 0 1 1.73 1.51v3.46a2.07 2.07 0 0 0 2.34 2 43.33 43.33 0 0 0 23-11.3 2.32 2.32 0 0 0 .02-3.27zm-50.83-12.88a9.49 9.49 0 1 1 9.49-9.48 9.49 9.49 0 0 1 -9.49 9.48z"/><path d="m150.23 323.32 18.77-14.76c.53-.38.38-.91-.37-.91h-12.2a1.11 1.11 0 0 0 -.91.38l-19.12 15.29v-14.92c0-.52-.23-.75-.76-.75h-9.34c-.52 0-.75.23-.75.75v34.6c0 .53.23.75.75.75h9.34c.53 0 .76-.22.76-.75v-8.73l5.64-4.45 13.71 13.56a1.16 1.16 0 0 0 1 .37h13.1c.6 0 .83-.45.38-.9z"/><path d="m92.47 304.56a1 1 0 0 0 .9.38h9.57a1 1 0 0 0 .9-.38l4.6-5.19c.37-.45.22-.91-.38-.91h-6.48a1.07 1.07 0 0 0 -.9.46l-2 2.78h-1l-2-2.78a1.11 1.11 0 0 0 -1-.46h-6.4c-.68 0-.83.46-.45.91z"/><path d="m105.2 322-13.41-.38c-6.17-.22-6.25-.82-6.25-3.61s.76-2.86 15.52-2.86c2.78 0 11.74.15 16.41.22.53 0 .76-.22.76-.75v-6.1a.72.72 0 0 0 -.68-.83c-4.67-.22-12.28-.53-17.7-.53-21.46 0-24.85.38-24.85 11.45 0 9.49 2.11 10.69 15.81 11.15l12.35.37c5.73.23 5.88.91 5.88 3.09 0 2.94-.23 3.09-13.86 3.09-6.32 0-13-.23-18.9-.45-.53-.08-.75.22-.75.67v6.41c-.23.6.07.82.52.9 5.35.22 13.94.53 19 .53 21.84 0 24.48-.08 24.48-11.9-.02-9.38-2.73-10.13-14.33-10.47z"/><path d="m196.17 307c-21 0-23.87 1.06-23.87 18.53v.47c0 17.47 2.86 18.52 23.87 18.52s23.83-1.02 23.83-18.52v-.45c0-17.55-2.82-18.55-23.83-18.55zm12.2 19c0 10.09-.38 10.24-12.2 10.24s-12.17-.12-12.17-10.24v-.53c0-10.09.38-10.24 12.2-10.24s12.2.07 12.2 10.24z"/><path d="m247.53 307.73h-20c-.52 0-.75.22-.75.75v34.57c0 .52.23.75.75.75h20c21.39 0 24.17-1.06 24.17-17.85v-.3c0-16.87-2.78-17.92-24.17-17.92zm12.8 18.3c0 9.26-.75 9.56-12.8 9.56h-9.94v-19.65h9.94c12 0 12.8.3 12.8 9.56z"/><path d="m324.87 342.82-17.25-34.57a.81.81 0 0 0 -.82-.52h-15.37a.82.82 0 0 0 -.83.52l-17.24 34.57c-.23.53 0 .9.53.9h9.94a.83.83 0 0 0 .83-.52l2.63-5.12h23.65l2.56 5.12a.82.82 0 0 0 .83.52h9.94c.67 0 .9-.3.6-.9zm-33.81-12.28 7.38-14.6h1.28l7.38 14.6z"/><path d="m196.32 55.45a108.14 108.14 0 1 0 108.14 108.14 108.15 108.15 0 0 0 -108.14-108.14zm0 213.57a105.43 105.43 0 1 1 105.43-105.43 105.45 105.45 0 0 1 -105.43 105.41z"/><path d="m0 0h400v400h-400z" fill="none"/></svg>