<svg viewBox="0 0 400 400" xmlns="http://www.w3.org/2000/svg"><path d="m183.68 281.95h-28.71l-1.16 5.04h10.67l-6.02 25.6h7.18l6.01-25.6h10.67z"/><path d="m62.07 281.95h-28.71l-1.16 5.04h10.67l-6.02 25.6h7.18l6.01-25.6h10.67z"/><path d="m78.55 281.75h-12.55l-7.18 30.84h7.18l2.66-11.59h4.46l7 11.63h8.88l-8.12-13.23c4.85-1.94 7.76-5 8.53-9.11a6.33 6.33 0 0 0 -1.55-6.21c-1.74-1.55-4.65-2.33-9.31-2.33zm3.45 9.51a7.22 7.22 0 0 1 -2.32 3.88c-1.17 1-3.3 1.35-6.4 1.35h-3.28l2.13-9.5h3.69v-.19c2.71 0 4.65.38 5.43 1.16s.99 1.75.75 3.3z"/><path d="m105.32 286.99h15.71l1.16-5.04h-22.69l-7.18 30.84h22.7l1.16-5.24h-15.71l2.13-8.92h14.55l1.16-5.05h-14.54z"/><path d="m120.64 312.79h22.7l1.35-5.24h-15.71l2.14-8.92h14.54l1.17-5.05h-14.55l1.55-6.59h15.71l1.17-5.04h-22.89z"/><path d="m220.53 305.42c-1.16-1.75-1.36-4.46-.58-8a14.31 14.31 0 0 1 4.27-7.95 10.08 10.08 0 0 1 7.37-2.52h9.89l1.36-4.85h-10.84a18.45 18.45 0 0 0 -12.22 4.27c-3.49 2.71-5.62 6.4-6.78 11.25s-.59 8.53 1.55 11.25 5.59 4.13 10.45 4.13h10.28l1-5h-9.7c-2.75-.06-4.89-.84-6.05-2.58z"/><path d="m294.62 282a18.56 18.56 0 0 0 -12.22 4 19 19 0 0 0 -6.59 11.25c-1.17 4.65-.58 8.53 1.55 11.25s5.43 4.07 10.28 4.07a18.62 18.62 0 0 0 12.22-4.07 18.91 18.91 0 0 0 6.59-11.25c1.17-4.85.59-8.53-1.55-11.25s-5.43-4-10.28-4zm4.85 15.51a16.3 16.3 0 0 1 -4.07 8 8.78 8.78 0 0 1 -6.6 2.71c-2.52 0-4.26-1-5.23-2.71-1-1.94-1.17-4.46-.39-8a15.47 15.47 0 0 1 4.07-7.95 8.8 8.8 0 0 1 6.6-2.71 5.21 5.21 0 0 1 5.23 2.71c.97 1.89 1.17 4.44.39 7.9z"/><path d="m342.34 281.95h-28.71l-1.16 5.04h10.66l-6.01 25.6h7.18l6.01-25.6h10.67z"/><path d="m260.68 282a18.56 18.56 0 0 0 -12.22 4 18.91 18.91 0 0 0 -6.59 11.25c-1.17 4.65-.59 8.53 1.55 11.25s5.43 4.07 10.28 4.07a18.62 18.62 0 0 0 12.22-4.07 19 19 0 0 0 6.59-11.25c1.17-4.85.58-8.53-1.55-11.25s-5.43-4-10.28-4zm4.65 15.51a16.3 16.3 0 0 1 -4.07 8 8.77 8.77 0 0 1 -6.59 2.71c-2.52 0-4.27-1-5.24-2.71-1-1.94-1.16-4.46-.39-8a15.55 15.55 0 0 1 4.08-7.95 8.76 8.76 0 0 1 6.59-2.71 4.92 4.92 0 0 1 5.24 2.71c.97 1.89 1.16 4.44.38 7.9z"/><path d="m352.62 286.99h15.71l1.16-5.04h-22.69l-7.18 30.84h22.69l1.17-5.24h-15.71l2.13-8.92h14.55l1.16-5.05h-14.55z"/><path d="m189.69 284.47c-2.91 1.74-4.65 3.88-5.24 6.59a6.22 6.22 0 0 0 1 5.63c1.17 1.55 3.11 2.52 5.63 3.1 2.71.58 4.46 1 5.62 1.17 1.56.38 2.53.77 2.91 1.35a2.71 2.71 0 0 1 .39 2.14c-.19 1.16-1.16 1.74-2.52 2.52a12.17 12.17 0 0 1 -4.85.77h-10.12l-1.35 5.05h11.44c4.07-.2 6.6-.59 9.5-2.33s4.85-4.07 5.44-7a6.82 6.82 0 0 0 .19-2.72 10.82 10.82 0 0 0 -.78-2.33 9.09 9.09 0 0 0 -1.94-1.94 11.61 11.61 0 0 0 -4.26-1.55c-1.94-.39-3.69-.77-5.24-1.16s-2.72-.78-3.1-1.36a2.41 2.41 0 0 1 -.59-2.33c.2-1.16 1-1.74 2.33-2.32a12.59 12.59 0 0 1 4.85-1h10.67l1.33-4.75h-11a19.68 19.68 0 0 0 -10.31 2.47z"/><path d="m8.53 284.47c-2.91 1.74-4.65 3.88-5.23 6.59a6.19 6.19 0 0 0 1 5.63c1.16 1.55 3.1 2.52 5.62 3.1 2.72.58 4.46 1 5.63 1.17 1.55.38 2.52.77 2.91 1.35a2.71 2.71 0 0 1 .38 2.14c-.19 1.16-1.16 1.74-2.52 2.52a12.17 12.17 0 0 1 -4.85.77h-10.11l-1.36 5.05h11.64c4.07-.2 6.59-.59 9.5-2.33s4.85-4.07 5.43-7a13.36 13.36 0 0 0 .2-2.72 11.4 11.4 0 0 0 -.78-2.33 9.33 9.33 0 0 0 -1.94-1.94 11.75 11.75 0 0 0 -4.27-1.55c-1.94-.39-3.68-.77-5.23-1.16s-2.72-.78-3.11-1.36a2.43 2.43 0 0 1 -.58-2.33c.2-1.16 1-1.74 2.33-2.32a12.55 12.55 0 0 1 4.85-1h10.47l1.36-4.75h-11.06a19.68 19.68 0 0 0 -10.28 2.47z"/><path d="m399.75 290.48c.58-2.71.19-4.85-1.55-6.21-1.75-1.55-4.66-2.32-9.31-2.32h-4.66l-1.16 4.85h2.93c2.71 0 4.65.38 5.43 1.16s1 1.75.77 3.3a7.22 7.22 0 0 1 -2.32 3.88c-1.17 1-3.3 1.35-6.4 1.35h-2.53l-1.16 4.66h3.88l7 11.64h8.92l-8.34-13.19c4.81-1.94 7.75-5.05 8.5-9.12z"/><path d="m374.73 281.95-5.05 21.92h6.99l5.04-21.92z"/><path d="m367.75 312.59h6.98l1.35-6.01h-6.98z"/><path d="m287.64 226.28-.69.5z"/><path d="m141 124.45c10.08 15.52 28.7 35.11 29.87 36.08a4.16 4.16 0 0 0 3.49 1.75 4.09 4.09 0 0 0 4.07-4.08c0-.39-.19-1.55-.19-1.94-.2-.77-1.36-3.49-1.75-4.65-.19.39-18.62-31.23 30.65-34 60.12-1.93 91.55 15.52 95.42 49.66 1.17 15.71-7.17 29.09-25.21 44.61a5 5 0 0 0 -1.94 3.88 7.53 7.53 0 0 0 1.16 4.07l3.3 5.63a4.39 4.39 0 0 0 4.07 2.13 6.11 6.11 0 0 0 3.69-1.36c22.11-15.32 33.94-37.82 33.94-56.44 0-22.89-13.38-44.22-37.82-59.93-22.88-14.69-53.33-22.86-85.33-22.86a168.9 168.9 0 0 0 -65.17 12.61h-.19s-4.47 1.74-1.94 7.37 1.94 5.45 9.88 17.47z"/><path d="m115.79 228.22c22.89 14.74 53.34 22.89 85.34 22.89 23.67 0 45.78-4.46 65.17-12.61h.2s4.46-1.75 1.94-7.37c-.78-1.75-1.17-2.91-1.75-3.88 0-.19-.19-.39-.19-.58v-.19c0-.2-.2-.39-.2-.59a.19.19 0 0 0 -.19-.19c0-.19-.19-.39-.19-.58a.2.2 0 0 0 -.2-.2c0-.19-.19-.38-.39-.58a.19.19 0 0 0 -.19-.19c-.19-.2-.19-.39-.39-.58l-.19-.2c-.2-.19-.2-.39-.39-.77l-.19-.2c-.2-.19-.39-.58-.58-.77l-.2-.2c-.19-.39-.39-.58-.58-1a.19.19 0 0 0 -.19-.19c-.2-.39-.39-.58-.59-1 0-.2-.19-.2-.19-.39v-.19c-.19-.39-.39-.58-.58-1s-.39-.58-.58-1c-.2-.2-.39-.58-.59-.78a11.36 11.36 0 0 0 -1.35-1.94c-10.09-15.39-28.71-34.94-29.87-35.94a4.17 4.17 0 0 0 -7.57 2.32c0 .39.2 1.55.2 1.94.19.78 1.35 3.49 1.74 4.66 0 0 18.43 31.61-30.84 34.33-19.39.58-35.69-.78-49.07-4.07-1.36-.39-2.71-.59-3.88-1-.58-.2-1-.2-1.36-.39-1.16-.39-2.32-.78-3.29-1.17-.39-.19-.78-.19-1.17-.38-1.35-.59-2.71-1-4.07-1.56a3.38 3.38 0 0 0 -1-.38c-1-.39-1.94-1-2.91-1.36l-1.16-.58c-1-.59-2.14-1.17-3.11-1.75-.19-.19-.38-.19-.58-.39a31.64 31.64 0 0 1 -3.3-2.13 3.46 3.46 0 0 1 -1-.78 21 21 0 0 1 -2.13-1.74 3.5 3.5 0 0 1 -1-.78 16.2 16.2 0 0 1 -2.71-2.52l-.39-.39a23.78 23.78 0 0 1 -2.14-2.32l-.77-.78c-.58-.78-1.16-1.36-1.75-2.13-.19-.2-.38-.59-.58-.78-.58-1-1.36-1.94-1.94-2.91a.86.86 0 0 0 0-1c-.39-.77-1-1.74-1.36-2.52-.19-.39-.38-.58-.38-1-.39-1-.78-1.75-1.17-2.72 0-.19-.19-.38-.19-.58l-1.17-3.49c0-.39-.19-.58-.19-1-.19-1-.39-1.94-.58-2.91 0-.39-.2-.77-.2-1.16-.19-1.36-.38-2.52-.58-3.88 0-1-.19-1.94-.19-2.91v-2.79a2.47 2.47 0 0 1 .19-1.16c0-.59.2-1.17.2-1.75 0-.39.19-.77.19-1.16.19-.58.19-1 .39-1.55a2.7 2.7 0 0 1 .39-1.17c.19-.58.19-1 .38-1.55.2-.39.2-.78.39-1.16.2-.59.39-1 .58-1.56.2-.38.39-.77.59-1.16.19-.58.38-1 .58-1.55l.58-1.16c.19-.59.58-1 .78-1.56a4 4 0 0 1 .77-1.16c.39-.58.58-1 1-1.55.2-.39.58-.78.78-1.17a6.72 6.72 0 0 0 1-1.55c.19-.38.58-.77.77-1.16.39-.58.78-1 1.17-1.55.38-.39.58-.78 1-1.17.38-.58 1-1 1.35-1.55.39-.39.59-.77 1-1.16.59-.58 1-1.16 1.56-1.75.38-.38.58-.77 1-1a17 17 0 0 0 1.74-1.94l1-1 2.33-2.32.58-.59c1-1 2.13-1.94 3.1-2.9l.2-.2.19-.19a.2.2 0 0 1 .2-.2l.19-.19a.19.19 0 0 1 .19-.19c0-.2.2-.2.2-.39a.19.19 0 0 1 .19-.2c0-.19.2-.19.2-.38a.6.6 0 0 1 .19-.39c0-.2 0-.39.19-.39v-1.16a7.56 7.56 0 0 0 -1.16-4.08l-3.3-5.62a4.59 4.59 0 0 0 -3.68-2.14h-.2a5.63 5.63 0 0 0 -3.49 1.36h-.19c-22.4 16.73-34.2 39.04-34.2 57.66 0 22.88 13.35 44.22 37.79 59.93z"/><path d="m0 0h400v400h-400z" fill="none"/></svg>