<svg viewBox="0 0 400 400" xmlns="http://www.w3.org/2000/svg"><path d="m201.94 228.32c59.21 0 108.66-26.33 108.66-58.79s-49.45-58.8-108.66-58.8-109.59 26.27-109.59 58.8 49.57 58.79 109.59 58.79zm.06-111.32c54.33 0 100.6 23.32 100.6 52.58 0 29-45.77 52.58-100.6 52.58-56.68 0-101.62-23.55-101.62-52.58-.01-29.32 46.81-52.58 101.62-52.58z"/><path d="m270.09 199.16c-.83-.06-4.86-.49-6.89-.73-3.09-.37-8.41-1.14-10.2-1.54a4.36 4.36 0 0 1 -3.61-2.68 16.15 16.15 0 0 1 -1.16-3.12c-.2-.77-1-3.31-1.06-3.73s-.4-.64-.71-.64-.6.11-.73.67-.79 2.93-1 3.76a28.62 28.62 0 0 1 -1.08 3 4.48 4.48 0 0 1 -3.53 2.72c-3 .61-8.48 1.47-9.77 1.66-4.91.67-6.05.82-9.42.48-2.58-.25-8.36-1.15-12.19-1.74-2.32-.35-4.69-.53-6-2.7a19 19 0 0 1 -1.68-4.16c-.43-1.38-1.11-3.8-1.26-4.39s-.36-.75-.76-.75-.63.27-.78.78-.91 3.1-1.26 4.31a15.8 15.8 0 0 1 -1.71 4.22c-1.31 1.89-2.54 2.13-5.7 2.67-3.32.56-7.45 1-10.66 1.35l-5.65.64c-.52.06-.82.23-.82.74s.31.7.82.76c.95.13 3.72.44 5.67.64 3.25.34 6.2.63 10.64 1.34s5.05 1.23 6.42 4.49a19.78 19.78 0 0 1 1.23 4.07c.31 1.35.94 4.1 1 4.67a.75.75 0 0 0 .74.75c.45 0 .67-.3.75-.77.11-.64.77-3.54 1.07-4.65a32.6 32.6 0 0 1 1.19-4.07c1.38-3.51 2.5-3.88 6.68-4.53 3.22-.5 9.18-1.39 12.2-1.74a29.67 29.67 0 0 1 9.45.35c1.61.24 7.33 1.09 9.67 1.52 2 .41 2.93 1 3.89 3.36.31.77.79 2.43 1.05 3.38.34 1.21.79 3.06.85 3.23a.63.63 0 0 0 .65.46.7.7 0 0 0 .65-.47c.11-.27.61-2.14.94-3.27a28.24 28.24 0 0 1 1.09-3.33 4.62 4.62 0 0 1 3.67-3.28c2.35-.43 7.73-1.11 10.41-1.44 2-.22 6.41-.8 6.92-.84s.76-.4.76-.75-.21-.64-.78-.7z"/><path d="m154 162.5c8.08 1.4 10 5.54 11.5 10.67 1.21 4.06 2.84 11.16 3.41 13.94.55 2.43 1.52 7.53 1.63 8s.37.78.76.78.64-.2.8-.78 1.08-5.72 1.57-8c.61-2.71 2.27-10.13 3.42-14 2-6.76 4.06-9.12 11.22-10.37s20.76-2.89 28.87-3.85c2-.25 6.69-.65 11-1.18 8.25-.91 9-.85 17.11.16 4.28.51 7.22.92 10.68 1.51 2.75.47 3.81 1.26 4.64 3.66.69 1.92 1.21 4 1.57 5.45.31 1.27.73 3.32.83 3.76a.71.71 0 0 0 .69.61.8.8 0 0 0 .77-.61c.11-.55.5-2.49.8-3.76s1.05-3.89 1.59-5.45a4.91 4.91 0 0 1 4.08-3.58c2.3-.5 6.27-1 9.15-1.46 2.2-.31 6.82-.9 7.16-.95a.71.71 0 0 0 .72-.74.74.74 0 0 0 -.71-.76c-.31 0-4.82-.61-7.2-.93-2.75-.4-6.18-.79-9.26-1.45a5.16 5.16 0 0 1 -3.8-2.67 35.49 35.49 0 0 1 -1.67-4.94c-.23-.68-.73-2.65-.86-3.13s-.45-.66-.73-.66-.58.09-.75.66-.63 2.21-.89 3.09a37.52 37.52 0 0 1 -1.68 5c-.82 1.65-2.13 2.32-4.3 2.72s-6.52 1-10.89 1.55c-8.53 1-8.89 1-17.08.12-2.46-.27-8.94-1.1-11.08-1.39-7.85-.92-20.89-2.25-28.8-3.65-4.31-.79-8.15-1.72-10.64-7.84a99.93 99.93 0 0 1 -3.58-11.16c-.8-2.76-1.69-6.55-2-7.8-.14-.61-.4-.82-.79-.82s-.6.2-.79.82c-.32 1.23-1.35 5.17-2.11 7.79a106 106 0 0 1 -3.53 11.18c-2.16 5.16-4.9 6.75-10.51 7.86-8 1.53-17.82 2.74-26.89 3.71-4.46.48-17.37 1.89-17.9 2a.74.74 0 0 0 -.73.72.75.75 0 0 0 .73.73c.54.08 13.79 1.48 18 1.92 9.39 1.02 18.09 2.08 26.47 3.52z"/><path d="m279.26 172.71a22.49 22.49 0 0 1 -1.37-3.6l-.86-3.05a.74.74 0 0 0 -1.45 0c-.15.55-.53 1.93-.87 3a18.16 18.16 0 0 1 -1.34 3.58 4.32 4.32 0 0 1 -3.28 2.34c-3.34.7-6.24 1.32-8.06 1.6a32 32 0 0 1 -11.7 0c-2.67-.4-7.16-1.06-10.68-1.75-1.94-.38-3.68-.92-4.65-2.83a29.83 29.83 0 0 1 -1.5-4.34c-.3-1-.88-2.95-1.08-3.7-.13-.51-.35-.71-.76-.71s-.62.2-.76.71-.74 2.55-1.07 3.68a26.15 26.15 0 0 1 -1.52 4.33c-.95 1.94-2.52 2.41-4.57 2.84-2.92.62-7.58 1.1-11.75 1.54-1.84.24-5.23.64-6 .76a.66.66 0 0 0 -.7.71c0 .45.19.67.69.74.73.11 4.71.55 6 .7 2.22.25 7.56 1 11.75 1.57 2.87.42 4.43 1.54 5.27 4.93.45 1.83.84 3.17 1.14 4.58.24 1.16.66 3 .77 3.35.15.53.4.74.74.74s.64-.15.78-.77c.07-.34.58-2.61.71-3.24.31-1.34.7-3 1.15-4.68.85-3 1.74-4.06 5.37-4.91 2.84-.66 8.08-1.32 10.61-1.68 6.25-.91 7.88-.61 11.76-.09 1.75.25 4.73.84 8.07 1.59a4.27 4.27 0 0 1 3.49 3.08c.51 1.39.87 3 1.3 4.67.39 1.42.65 2.67.68 2.9a.74.74 0 0 0 1.47 0c.07-.3.33-1.56.69-3s.83-3.21 1.32-4.66a4 4 0 0 1 3.18-2.95c1.88-.42 4.95-.93 7.45-1.31 2.18-.33 5.93-.81 6.47-.88s.76-.42.76-.74a.72.72 0 0 0 -.76-.75c-.55-.09-4.16-.59-6.5-.94-2.87-.42-5.81-.89-7.43-1.26a4.38 4.38 0 0 1 -2.96-2.1z"/><path d="m339.79 250.23v25.82a3.32 3.32 0 0 1 -3.41 3.53 122.19 122.19 0 0 1 -18.94 0 3.69 3.69 0 0 1 -3.15-3.59v-25.75h-10.14v28.07c.28 6.7 4.26 10.44 11.07 10.71 7.77.31 15.73.34 24.2 0 6.46-.27 10.22-4.3 10.58-10.73v-28z"/><path d="m88.14 265.49c-3.53-.32-22.4-1.17-25-1.41-2-.18-2.84-1.2-2.84-2.87 0-1.38.86-2.44 2.68-2.57 6-.42 16.49-.33 20.63-.07 2 .13 2.84 1.12 2.94 2.3v1.8h10.18s0-.48 0-1.59c-.17-7.69-3.88-10.64-11-10.92-7.68-.31-16-.39-24 .07-5.29.31-10.92 3.1-11.68 9.61a12.62 12.62 0 0 0 0 3.4c.84 7.18 6.09 8.91 10.27 9.28 4.33.38 22 1.33 24.14 1.5 2.88.23 3.31 1.39 3.31 2.92 0 1.74-.81 2.75-3.31 2.9-5.44.32-15.67.23-20.78.05-1.83-.06-3.14-.53-3.2-2.71v-1.87h-10.21s0 .9 0 1.14c.06 8.05 2.79 11.79 10.46 12.38a221.62 221.62 0 0 0 26.9 0c7.25-.46 9.92-5.48 10.19-11.25 0-.31 0-.88 0-1.37-.24-6.89-4.21-10.21-9.68-10.72z"/><path d="m193.9 268.48c1.59-.7 3.42-3 3.42-7.58 0-6.82-4.33-10.41-10.74-10.66h-33.64v38.91h33.9c7.94-.2 11.5-4.39 11.5-11.92 0-5.31-2.52-8.16-4.44-8.75zm-30.75-9.7h20.85c1.86.14 3.47.92 3.47 3s-1.47 3.22-3.67 3.38h-20.65zm20.61 21.79h-20.61v-7.34h20.85c1.71.08 4.07.81 4.07 3.62s-1.96 3.63-4.31 3.72z"/><path d="m137.3 276.05a3.32 3.32 0 0 1 -3.4 3.53 122.32 122.32 0 0 1 -19 0 3.7 3.7 0 0 1 -3.1-3.58v-25.76h-10.14v28.07c.28 6.7 4.25 10.44 11.07 10.71 7.77.31 15.73.34 24.19 0 6.47-.27 10.24-4.3 10.59-10.73v-28h-10.21z"/><path d="m295.18 270.72c1.7-1 4.06-3.39 4.06-8.76 0-8-4.23-11.41-10.93-11.73h-34.07v38.91h10.17v-13.94h21.11a3.66 3.66 0 0 1 3.79 3.75c.27 4 .15 10.17.15 10.17h10.34s0-5.64-.16-9.81c-.13-4.45-2.41-7.95-4.46-8.59zm-9.64-4.46h-21.13v-7.46h21.12c2.4.19 3.68 1.26 3.68 3.71s-1.21 3.64-3.67 3.75z"/><path d="m229.83 250.23h-10.74l-21.22 38.9h11.59l3.61-6.89h23.16l3.55 6.89h11.93l-21.2-38.9zm-12.44 23.77 7.37-14.07 7.24 14.07z"/><path d="m0 0h400v400h-400z" fill="none"/></svg>