<svg viewBox="0 0 400 400" xmlns="http://www.w3.org/2000/svg"><path d="m215.42 203.07q-15.16-10.44-30.34-20.84c-8.32-5.73-17.49-7.26-27.31-5.69a57.13 57.13 0 0 0 -17.24 5.83c-2.5 1.29-4.9 2.76-7.51 4.24l66.73 46.12c9.66-9 20.47-16.31 31.64-23.1s22.56-13 35-17.55l-86.69-60.75c1.11-.73 2.14-1.36 3.11-2.07a1.1 1.1 0 0 1 1.51 0q12.45 8.58 24.93 17.11a106.52 106.52 0 0 0 9.25 6c7.83 4.22 16.21 4.78 24.82 3.11a61.91 61.91 0 0 0 19-7.26c1.41-.81 2.77-1.71 4.25-2.62q-33.45-23.13-66.64-46c-9.62 9-20.42 16.29-31.59 23.07s-22.56 13.06-35 17.59l86.66 60.67c-1.18.78-2.24 1.44-3.27 2.17a1 1 0 0 1 -1.31-.03z"/><path d="m99 276.14a30.22 30.22 0 0 0 -11.71-4.21c-4.24-.71-8.52-1.19-12.77-1.86a18.86 18.86 0 0 1 -4.13-1.14 2 2 0 0 1 -.59-3.59 4.29 4.29 0 0 1 1.65-1c4.74-1.49 9.33-.51 12.33 3.89a1 1 0 0 0 .91.49h17.69.72c-.16-1-.23-1.91-.43-2.81-.93-3.78-3.43-6.31-6.72-8.14a33.59 33.59 0 0 0 -13.23-3.63 63.24 63.24 0 0 0 -13 0 30.69 30.69 0 0 0 -10.93 2.86c-4.48 2.29-7.48 5.7-7.76 11-.26 4.93 1.63 8.71 6.15 11a30.14 30.14 0 0 0 7.42 2.48 99.57 99.57 0 0 0 14.29 1.84 18.39 18.39 0 0 1 4.6 1.06 2.7 2.7 0 0 1 2 2.82 2.75 2.75 0 0 1 -2.17 2.51 11.89 11.89 0 0 1 -6.47.49 8.56 8.56 0 0 1 -5.55-4.34 1.28 1.28 0 0 0 -1.27-.69h-20.03c.06.75.1 1.41.17 2a11.41 11.41 0 0 0 4.64 8.39 22.13 22.13 0 0 0 8.59 3.54 65.28 65.28 0 0 0 12.15 1.31 55.09 55.09 0 0 0 16.19-1.47 19.91 19.91 0 0 0 9.26-4.94 11.22 11.22 0 0 0 -2-17.88z"/><path d="m214.05 255.06c-1.18 0-2.37 0-3.55 0h-45.22c-1.4 0-1.19-.1-1.19 1.23v9.07.94h24.35l.12.19c-.23.18-.48.35-.7.55q-12 11.19-24 22.38a1.64 1.64 0 0 0 -.6 1.36v6.73 1.83h51.37v-11.23h-25.57c.42-.39.67-.63.93-.86l24.16-22.25a1.84 1.84 0 0 0 .62-1.11c0-2.72 0-5.44 0-8.16.05-.56-.19-.68-.72-.67z"/><path d="m329.84 255.07c-6.86 0-13.71 0-20.57 0a1.88 1.88 0 0 0 -1.12.46c-5.54 4.72-11.06 9.48-16.58 14.22l-.81.63v-15.27c-.34 0-.61 0-.87 0-4.94 0-9.88 0-14.82 0-.77 0-1 .21-1 1q0 21.24 0 42.49c0 .27 0 .54.05.83h16.64v-15.8l.72.66q7.67 7.29 15.33 14.59a1.76 1.76 0 0 0 1.33.53h20.72.93l-24.47-22.76 25.2-21.53z"/><path d="m269.7 255.11h-15.95v26.81a6.79 6.79 0 0 1 -4.59 6.77 13.46 13.46 0 0 1 -6.91.75c-3.82-.51-7.56-2.49-7.47-8.17.13-8.39 0-16.79 0-25.18v-1h-16v1 27.3a36.38 36.38 0 0 0 .3 4.67 11.8 11.8 0 0 0 7.54 10 35.93 35.93 0 0 0 13.15 2.39c3.81.1 7.62 0 11.41-.14a32.72 32.72 0 0 0 9.54-1.79c3.94-1.4 7-3.8 8.11-8a22.75 22.75 0 0 0 .82-5.8c.09-9.61 0-19.21 0-28.81.08-.26.06-.51.05-.8z"/><path d="m159.63 255.14h-16v26.67a6.86 6.86 0 0 1 -5 7.06 13.8 13.8 0 0 1 -6.41.58c-3.68-.48-7.59-2.39-7.5-8.15.12-8.39 0-16.78 0-25.17v-1h-16v.95 27.3a38.76 38.76 0 0 0 .27 4.44 12 12 0 0 0 8.3 10.53 37.34 37.34 0 0 0 12.3 2.08c3.85.09 7.71 0 11.56-.15a32.15 32.15 0 0 0 9.82-1.9c3.79-1.42 6.67-3.81 7.77-7.83a23.22 23.22 0 0 0 .84-5.8c.08-9.62 0-19.25 0-28.88z"/><path d="m333.37 255.11v44.24h16.63v-44.24z"/><path d="m0 0h400v400h-400z" fill="none"/></svg>