<svg viewBox="0 0 400 400" xmlns="http://www.w3.org/2000/svg"><path d="m310.26 117.84 6.51-6.52a145.45 145.45 0 0 1 12.45 19.34h5.15v-64.91h-64.92v5.09a147.41 147.41 0 0 1 19.22 12.38l-6.52 6.52a137.44 137.44 0 1 0 28.11 28.1zm-9.73 107a103.57 103.57 0 0 1 -201.07 0zm-201.07-49.71a103.57 103.57 0 0 1 201.07 0zm174.23 24.77c.09-5 2.46-9.27 6.54-9.2s6.24 4.47 6.15 9.42c-.08 4.67-2 9.53-6.49 9.45s-6.27-4.89-6.2-9.67zm-114.18 0c.09-5 2.46-9.27 6.54-9.2s6.23 4.47 6.14 9.42c-.08 4.67-2 9.53-6.49 9.45s-6.27-4.89-6.19-9.67zm6.32-13.25c11.93 0 18.33 5.95 18.33 13.41s-6 13.59-18.26 13.59-18.32-6-18.32-13.59 6.33-13.41 18.25-13.41zm-37.09 20.35 8.57-15.85h-5.13v-3.95h17.75v3.95h-5.93l-11.74 21.75h-13.87l-12-21.76h-5.9v-3.95h25.75v3.95h-6.23zm151.26-20.35c11.93 0 18.33 5.95 18.33 13.41s-6 13.59-18.26 13.59-18.32-6-18.32-13.59 6.33-13.41 18.25-13.41zm-59.37 4.48h-5.89v-3.94h25.76v3.94h-6.24l8.74 15.87 8.57-15.85h-5.17v-3.95h17.75v3.95h-5.9l-11.77 21.75h-13.87l-12-21.76zm-29 0h-6v-3.93h23.75v3.94h-5.91v17.76h5.53c5.08 0 8.41-3.35 8.41-7.91h3.91v11.9h-35.68v-4h6v-17.77z"/><path d="m0 0h400v400h-400z" fill="none"/></svg>