<svg viewBox="0 0 400 400" xmlns="http://www.w3.org/2000/svg"><path d="m27.79 352c-6-8.61-12-17.33-18.09-25.94-.65-.87-1.53-2.07-2.4-2.18a54.17 54.17 0 0 0 -7.3-.11v42h8.06v-28c6.22 8.83 12.32 17.55 18.53 26.15a4.69 4.69 0 0 0 2.51 2 49.1 49.1 0 0 0 6.86.11v-42h-8.17z"/><path d="m367 339.52c-3.26 1.09-6.75-1.74-8.93 2.29a12.07 12.07 0 0 0 -15.69.33c-4.8 4.25-6.11 12.86-2.29 18.31a12.77 12.77 0 0 0 6 4.46 12 12 0 0 0 12.42-2.39c0 1.74.11 3.05 0 4.36-.1 2.72-1.3 4.68-4 5.23s-5.12 0-6.54-2.84a2.21 2.21 0 0 0 -1.52-.87c-2.29-.11-4.58 0-6.87 0 0 4.36 2 7.85 6.21 8.72a28 28 0 0 0 11.23.76c6.32-.87 9.81-5.23 9.92-11.66.21-7.63.1-15.25.1-22.88zm-14.13 19.48c-3.71.11-6.21-2.51-6.21-6.32 0-3.6 2.5-6.43 5.77-6.54a6.25 6.25 0 0 1 6.32 6.32c0 3.85-2.39 6.54-5.88 6.54z"/><path d="m205.31 339.09c-3.48-.22-6.21 1.09-9.15 3.81v-21.36h-8.07v44.25h8.18v-3.06c0-3.37-.11-6.75.11-10a8.08 8.08 0 0 1 1.74-4.9 5 5 0 0 1 4.58-1c1.09.44 2.29 2.51 2.39 3.93.33 5 .11 10 .11 15.15h8.5c0-6.65.22-13 0-19.08-.21-4.83-3.59-7.53-8.39-7.74z"/><path d="m170.33 342.14c-5.34-4.25-12.1-4-16.67.22-4.8 4.57-5.56 14.16-1.53 19.83 3.82 5.34 10.46 6 18 2 2.4 3.71 5.89 1 8.72 2v-26.34h-7.85c-.23.76-.45 1.42-.67 2.29zm-5.77 18c-3.71 0-6.54-3.27-6.43-7.3a6.34 6.34 0 0 1 6.32-6.43c3.7 0 6.43 3.05 6.43 7s-2.73 6.71-6.32 6.71z"/><path d="m391 339.41c-7.41-2.07-14.49 1.31-16.89 8-2.73 7.41 0 15.26 6.43 18.09 6.75 3.05 15.47.87 18.74-4.9-1.63-1.09-3.27-2.18-5.12-3.38-2.62 2.94-5.56 4.25-9.15 2.83-2.18-.76-3.38-2.4-3.49-5.12h18.2c1.28-7.67-2.17-13.77-8.72-15.52zm-4.46 10.59h-4.79c.32-3.26 2-5 4.79-5.12 2.62-.11 4.58 1.75 5 5.12z"/><path d="m290 339.52c-7.19-2.07-14.28 1-16.89 7.41-2.84 7-.55 14.93 5.23 18.09a15.37 15.37 0 0 0 19.83-4.36c-1.63-1.09-3.38-2.18-5.12-3.37-2.73 2.83-5.67 4.25-9.37 2.72a4.94 4.94 0 0 1 -3.27-5h18.2c1.29-7.64-2.08-13.63-8.61-15.49zm-9.59 10.25c.65-3.27 2.29-4.91 5-4.91s4.36 1.64 5 4.91z"/><path d="m62.23 349c0 2.18.1 4.36-.11 6.54-.33 2.51-1.75 4.14-4.36 4.14s-4.25-1.2-4.69-3.7a23.66 23.66 0 0 1 -.33-3.92v-12.06h-8.17c0 5.67-.11 11.22 0 16.56a9.08 9.08 0 0 0 5.89 8.72c4.9 2.18 10.13 2.4 14.82-.33 2.07-1.09 4.36-3.59 4.68-5.66.88-6.32.77-12.86 1.09-19.29h-8.82z"/><path d="m141.78 321c-6.76 0-9.48 2.29-10.14 8.93-.32 3.27-.32 6.65-.43 9.92-1.2.11-2.18.33-3.16.44v5.77c1.2.11 2.18.22 3.49.44v19.29h8.39v-19.51l5.55-.33v-6.21h-5.66v-5.34c.11-5.67.22-5.88 5.77-6.43l.44-.43v-6.54a18.25 18.25 0 0 0 -4.25 0z"/><path d="m323.12 353.25c0 4.25-1.42 6.22-4.47 6.32s-4.8-1.85-5-6.21v-13.29h-8.29c0 6-.11 11.77.11 17.43a8.3 8.3 0 0 0 4.8 7.31c5.56 2.83 11.11 2.94 16.45-.11 1.86-1.09 3.93-3.49 4.14-5.45.77-6.32.77-12.75 1.09-19.29h-8.82z"/><path d="m243.45 340.07v6.32h11c-4.25 6.65-8.39 13-12.53 19.4h25.39v-6.22h-12c4.47-6.75 8.61-13.07 12.86-19.5z"/><path d="m99.17 340.07v6.21h11c-4.36 6.76-8.4 13-12.65 19.62h25.4v-6.33h-11.87c4.36-6.75 8.5-13 12.75-19.5z"/><path d="m89.25 330.7h-8.5v8.82c-1.31.11-2.4.33-3.38.44v5.88c1.31.11 2.29.22 3.49.33v19.51h8.39v-19.51c1.75-.11 3-.11 4.58-.22v-6c-1.53-.11-2.83-.22-4.58-.33z"/><path d="m230.16 340h-8.06v25.72a14.61 14.61 0 0 0 2.07.22h6.32v-11.6c.21-6.32 1.63-7.73 7.73-7.19v-8.83c-2.94 1.42-5.34 2.73-7.73 3.93a22.5 22.5 0 0 0 -.33-2.25z"/><path d="m200.84 266.84a122.5 122.5 0 1 0 -122.49-122.5 122.47 122.47 0 0 0 122.49 122.5zm0-15.81a108.34 108.34 0 0 1 -34.76-5.77l34.76-77.92 34.77 77.92a107.85 107.85 0 0 1 -34.77 5.74zm106.91-106.69a106.94 106.94 0 0 1 -70.07 100.26l62.32-140.14a105.48 105.48 0 0 1 7.75 39.88zm-106.91-106.79a108.36 108.36 0 0 1 34.77 5.77l-34.61 77.92-34.81-77.92a107.64 107.64 0 0 1 34.65-5.77zm-51.76 13.45 39.67 89h24.41l39.56-89a108.09 108.09 0 0 1 36.07 32.69l-52.31 117.43-23.65-53h-24l-23.54 53-52.29-117.48a108 108 0 0 1 36.08-32.64zm-47.3 53.62 62.45 140a106.94 106.94 0 0 1 -62.45-140z"/><path d="m0 0h400v400h-400z" fill="none"/></svg>