<svg viewBox="0 0 400 400" xmlns="http://www.w3.org/2000/svg"><path d="m200.07 62.5a137.5 137.5 0 1 0 137.43 137.5 137.51 137.51 0 0 0 -137.43-137.5zm13.39 141.86h-26.85l-26.49 59.49-58.73-131.94a121.1 121.1 0 0 1 40.45-36.76l44.49 100h27.41l44.49-100a121 121 0 0 1 40.45 36.76l-58.68 131.94zm25.54 109.06a119.66 119.66 0 0 1 -77.92 0l39-87.53zm-80.19-.85a120 120 0 0 1 -78.67-112.57 118.58 118.58 0 0 1 8.64-44.69zm80.19-225.92-39 87.54-39-87.54a119.87 119.87 0 0 1 78 0zm72.26 68.63a120 120 0 0 1 -70.06 157.36z"/><path d="m0 0h400v400h-400z" fill="none"/></svg>